<svg id="address-card-solid" xmlns="http://www.w3.org/2000/svg" width="21.228" height="16.511" viewBox="0 0 21.228 16.511">
  <path id="address-card-solid-2" data-name="address-card-solid" d="M18.869,32H2.359A2.358,2.358,0,0,0,0,34.359V46.152a2.358,2.358,0,0,0,2.359,2.359H18.869a2.358,2.358,0,0,0,2.359-2.359V34.359A2.36,2.36,0,0,0,18.869,32ZM6.486,35.538A2.359,2.359,0,1,1,4.128,37.9,2.359,2.359,0,0,1,6.486,35.538Zm3.538,9.435H2.948a.59.59,0,0,1-.59-.59,2.948,2.948,0,0,1,2.948-2.948H7.666a2.948,2.948,0,0,1,2.948,2.948A.591.591,0,0,1,10.024,44.973Zm8.255-2.359H13.562a.59.59,0,0,1,0-1.179H18.28a.59.59,0,1,1,0,1.179Zm0-2.359H13.562a.59.59,0,0,1,0-1.179H18.28a.59.59,0,1,1,0,1.179Zm0-2.359H13.562a.59.59,0,1,1,0-1.179H18.28a.59.59,0,1,1,0,1.179Z" transform="translate(0 -32)" fill="#e5173f"/>
</svg>
