<svg xmlns="http://www.w3.org/2000/svg" xmlns:xlink="http://www.w3.org/1999/xlink" width="186.004" height="32.235" viewBox="0 0 186.004 32.235">
  <defs>
    <clipPath id="clip-path">
      <rect id="Rectangle_194" data-name="Rectangle 194" width="186.004" height="32.235" fill="none"/>
    </clipPath>
  </defs>
  <g id="Group_236" data-name="Group 236" transform="translate(0 0)">
    <g id="Group_235" data-name="Group 235" transform="translate(0 0)" clip-path="url(#clip-path)">
      <path id="Path_1645" data-name="Path 1645" d="M131.37,21.722a8,8,0,0,1-3.213-3.018,8.309,8.309,0,0,1-1.168-4.381,8.189,8.189,0,0,1,1.168-4.381,8.344,8.344,0,0,1,3.213-3.018,9.67,9.67,0,0,1,4.625-1.071,10.772,10.772,0,0,1,4.235.828A7.848,7.848,0,0,1,143.3,9.114L139.84,12.18a4.465,4.465,0,0,0-3.554-1.9,3.779,3.779,0,0,0-2.775,1.12,4.152,4.152,0,0,0-1.022,2.969,4.233,4.233,0,0,0,1.022,2.969,3.628,3.628,0,0,0,2.775,1.12,4.465,4.465,0,0,0,3.554-1.9l3.456,3.067a7.94,7.94,0,0,1-3.067,2.434,10.43,10.43,0,0,1-4.235.828,12,12,0,0,1-4.625-1.168" transform="translate(-65.171 -3.003)" fill="#232323"/>
      <path id="Path_1646" data-name="Path 1646" d="M219.356,6.552v16.21h-4.479l-6.182-7.351v7.351h-5.306V6.552h4.479L214.05,13.9V6.552Z" transform="translate(-104.379 -3.363)" fill="#232323"/>
      <path id="Path_1647" data-name="Path 1647" d="M257.656,6.552v16.21h-4.479l-6.182-7.351v7.351h-5.306V6.552h4.479L252.35,13.9V6.552Z" transform="translate(-124.035 -3.363)" fill="#232323"/>
      <path id="Path_1648" data-name="Path 1648" d="M293.373,18.625v4.138H279.889V6.552h13.192V10.69h-7.789v1.9h6.864v3.943h-6.864v2.142h8.081Z" transform="translate(-143.639 -3.363)" fill="#232323"/>
      <path id="Path_1649" data-name="Path 1649" d="M315.07,21.722a8,8,0,0,1-3.213-3.018,8.309,8.309,0,0,1-1.168-4.381,8.188,8.188,0,0,1,1.168-4.381,8.344,8.344,0,0,1,3.213-3.018,9.671,9.671,0,0,1,4.625-1.071,10.772,10.772,0,0,1,4.235.828A7.516,7.516,0,0,1,327,9.114L323.54,12.18a4.465,4.465,0,0,0-3.554-1.9,3.779,3.779,0,0,0-2.775,1.12,4.152,4.152,0,0,0-1.022,2.969,4.233,4.233,0,0,0,1.022,2.969,3.628,3.628,0,0,0,2.775,1.12,4.465,4.465,0,0,0,3.554-1.9L327,19.628a7.939,7.939,0,0,1-3.067,2.434,10.43,10.43,0,0,1-4.235.828,11.783,11.783,0,0,1-4.625-1.168" transform="translate(-159.446 -3.003)" fill="#232323"/>
      <path id="Path_1650" data-name="Path 1650" d="M349.359,10.787h-4.771V6.552h14.945v4.235h-4.771V22.762h-5.452V10.787Z" transform="translate(-176.843 -3.363)" fill="#232323"/>
      <path id="Path_1651" data-name="Path 1651" d="M175.835,11.352a3.846,3.846,0,1,1-3.846,3.846,3.846,3.846,0,0,1,3.846-3.846" transform="translate(-88.265 -5.826)" fill="#232323"/>
      <path id="Path_1652" data-name="Path 1652" d="M176.525,13.386a5.013,5.013,0,0,1,.292,1.7,5.488,5.488,0,0,1-9.639,3.6l-4.089,2.337a10.148,10.148,0,0,0,18.693-5.5,10.216,10.216,0,0,0-1.071-4.576Z" transform="translate(-83.698 -5.621)" fill="#232323"/>
      <path id="Path_1653" data-name="Path 1653" d="M163.021,11.178l2.385,1.509a.392.392,0,0,1,.146.535.415.415,0,0,1-.535.243l-2.775-.682a.408.408,0,0,1-.292-.584l.389-.876a.546.546,0,0,1,.682-.146" transform="translate(-83.094 -5.701)" fill="#1f88d5"/>
      <path id="Path_1654" data-name="Path 1654" d="M167.792,3.291,169.3,5.822a.388.388,0,0,1-.1.487,3.877,3.877,0,0,0-.828.73.362.362,0,0,1-.438.049L165.407,5.53a.319.319,0,0,1-.049-.535l1.9-1.752a.345.345,0,0,1,.535.049" transform="translate(-84.798 -1.611)" fill="#1f88d5"/>
      <path id="Path_1655" data-name="Path 1655" d="M176.1.734V3.752a.384.384,0,0,1-.389.389,6.893,6.893,0,0,0-.974.195.366.366,0,0,1-.438-.195l-1.46-2.58a.423.423,0,0,1,.195-.584,9.441,9.441,0,0,1,2.629-.633.373.373,0,0,1,.438.389" transform="translate(-88.677 -0.173)" fill="#1f88d5"/>
      <path id="Path_1656" data-name="Path 1656" d="M182.289.415v3.5a.37.37,0,0,0,.292.389l.682.243a.4.4,0,0,0,.487-.195L185.5,1.291a.446.446,0,0,0-.243-.633L182.824.025a.4.4,0,0,0-.535.389" transform="translate(-93.551 0)" fill="#1f88d5"/>
      <path id="Path_1657" data-name="Path 1657" d="M191.812,5.945l-3.359,2.093a.378.378,0,0,1-.487-.1l-.584-.633a.448.448,0,0,1-.049-.487l2.045-3.262a.4.4,0,0,1,.584-.1,10.507,10.507,0,0,1,2,1.9.376.376,0,0,1-.146.584" transform="translate(-96.112 -1.734)" fill="#1f88d5"/>
      <path id="Path_1658" data-name="Path 1658" d="M2.5,25.751A4.33,4.33,0,0,1,.833,24.7l.353-.584a4.174,4.174,0,0,0,1.529.976,5.484,5.484,0,0,0,2.021.376,3.852,3.852,0,0,0,2.32-.584,1.811,1.811,0,0,0,.784-1.521,1.589,1.589,0,0,0-.415-1.152,2.747,2.747,0,0,0-1.029-.661,14.152,14.152,0,0,0-1.659-.476,16.2,16.2,0,0,1-1.9-.569,3.032,3.032,0,0,1-1.214-.853,2.277,2.277,0,0,1-.5-1.544,2.626,2.626,0,0,1,.414-1.437,2.819,2.819,0,0,1,1.268-1.037,5.185,5.185,0,0,1,2.128-.384,6.012,6.012,0,0,1,1.752.261,5.161,5.161,0,0,1,1.49.707l-.292.63a4.992,4.992,0,0,0-1.421-.676,5.364,5.364,0,0,0-1.529-.23,3.618,3.618,0,0,0-2.258.6,1.879,1.879,0,0,0-.768,1.552,1.588,1.588,0,0,0,.415,1.152,2.745,2.745,0,0,0,1.03.661,15.494,15.494,0,0,0,1.674.492,15.81,15.81,0,0,1,1.89.568,3.113,3.113,0,0,1,1.206.838,2.195,2.195,0,0,1,.5,1.513A2.556,2.556,0,0,1,8.2,24.745a2.871,2.871,0,0,1-1.3,1.029,5.347,5.347,0,0,1-2.152.384,6.259,6.259,0,0,1-2.25-.407" transform="translate(-0.427 -7.826)" fill="#232323"/>
      <path id="Path_1659" data-name="Path 1659" d="M27.135,21.025v8.02H26.4V27.324a2.977,2.977,0,0,1-1.183,1.314,3.525,3.525,0,0,1-1.844.469,3.073,3.073,0,0,1-3.349-3.4V21.025h.768V25.65a2.825,2.825,0,0,0,.691,2.059,2.606,2.606,0,0,0,1.952.707,2.793,2.793,0,0,0,2.143-.845,3.191,3.191,0,0,0,.791-2.274V21.025Z" transform="translate(-10.275 -10.79)" fill="#232323"/>
      <path id="Path_1660" data-name="Path 1660" d="M45.8,21.421a3.744,3.744,0,0,1,1.421,1.444,4.579,4.579,0,0,1,0,4.218A3.673,3.673,0,0,1,45.8,28.528a4.037,4.037,0,0,1-2.028.515,3.756,3.756,0,0,1-1.921-.5,3.455,3.455,0,0,1-1.337-1.39v4.809h-.768v-11h.738V22.85a3.5,3.5,0,0,1,1.344-1.436,3.738,3.738,0,0,1,1.944-.515,4,4,0,0,1,2.028.522m-.415,6.5a3.077,3.077,0,0,0,1.16-1.2,3.845,3.845,0,0,0,0-3.5,3.08,3.08,0,0,0-1.16-1.2,3.238,3.238,0,0,0-1.66-.43,3.2,3.2,0,0,0-1.652.43,3.1,3.1,0,0,0-1.152,1.2,3.845,3.845,0,0,0,0,3.5,3.092,3.092,0,0,0,1.152,1.2,3.194,3.194,0,0,0,1.652.43,3.234,3.234,0,0,0,1.66-.43" transform="translate(-20.398 -10.726)" fill="#232323"/>
      <path id="Path_1661" data-name="Path 1661" d="M65.527,21.421a3.743,3.743,0,0,1,1.42,1.444,4.571,4.571,0,0,1,0,4.218,3.672,3.672,0,0,1-1.42,1.444,4.034,4.034,0,0,1-2.028.515,3.756,3.756,0,0,1-1.921-.5,3.448,3.448,0,0,1-1.336-1.39v4.809h-.768v-11h.737V22.85a3.5,3.5,0,0,1,1.344-1.436A3.741,3.741,0,0,1,63.5,20.9a4,4,0,0,1,2.028.522m-.415,6.5a3.07,3.07,0,0,0,1.16-1.2,3.838,3.838,0,0,0,0-3.5,3.073,3.073,0,0,0-1.16-1.2,3.237,3.237,0,0,0-1.659-.43,3.2,3.2,0,0,0-1.652.43,3.088,3.088,0,0,0-1.152,1.2,3.841,3.841,0,0,0,0,3.5,3.085,3.085,0,0,0,1.152,1.2,3.19,3.19,0,0,0,1.652.43,3.232,3.232,0,0,0,1.659-.43" transform="translate(-30.522 -10.726)" fill="#232323"/>
      <rect id="Rectangle_191" data-name="Rectangle 191" width="0.768" height="11.4" transform="translate(38.553 6.855)" fill="#232323"/>
      <path id="Path_1662" data-name="Path 1662" d="M85.537,15.528a.582.582,0,0,1-.184-.438.629.629,0,0,1,.63-.63.622.622,0,0,1,.445.177.583.583,0,0,1,.184.438.629.629,0,0,1-.629.63.62.62,0,0,1-.446-.177m.062,2.128h.768v8.02H85.6Z" transform="translate(-43.803 -7.421)" fill="#232323"/>
      <path id="Path_1663" data-name="Path 1663" d="M98.369,25.155h-6.9a3.347,3.347,0,0,0,.477,1.667,3.046,3.046,0,0,0,1.206,1.129,3.63,3.63,0,0,0,1.714.4,3.672,3.672,0,0,0,1.452-.284,2.829,2.829,0,0,0,1.114-.838l.445.507a3.416,3.416,0,0,1-1.313.968,4.576,4.576,0,0,1-3.849-.184,3.793,3.793,0,0,1-1.467-1.444,4.147,4.147,0,0,1-.53-2.1,4.36,4.36,0,0,1,.5-2.1,3.677,3.677,0,0,1,1.375-1.452,3.972,3.972,0,0,1,3.925-.007,3.659,3.659,0,0,1,1.367,1.436,4.317,4.317,0,0,1,.5,2.09Zm-5.331-3.2a2.87,2.87,0,0,0-1.084,1.06,3.454,3.454,0,0,0-.468,1.544h6.146a3.219,3.219,0,0,0-.461-1.537,2.985,2.985,0,0,0-2.612-1.444,3.075,3.075,0,0,0-1.521.376" transform="translate(-46.556 -10.726)" fill="#232323"/>
      <path id="Path_1664" data-name="Path 1664" d="M111.67,21.368a3.648,3.648,0,0,1,1.905-.469v.753l-.184-.016a2.668,2.668,0,0,0-2.09.837,3.358,3.358,0,0,0-.753,2.328v4.179h-.768v-8.02h.738v1.752a2.775,2.775,0,0,1,1.152-1.345" transform="translate(-56.339 -10.726)" fill="#232323"/>
      <path id="Path_1665" data-name="Path 1665" d="M3.769,59.946H1.383l-.47,1.1H0l2.147-4.771H3.02L5.173,61.05H4.246Zm-.293-.7-.9-2.085L1.683,59.25Z" transform="translate(0 -28.883)" fill="#232323"/>
      <path id="Path_1666" data-name="Path 1666" d="M28.374,56.28V61.05h-.885V59.006H25.022V61.05h-.886V56.28h.886v1.97h2.467V56.28Z" transform="translate(-12.387 -28.883)" fill="#232323"/>
      <path id="Path_1667" data-name="Path 1667" d="M40.144,60.563a2.162,2.162,0,0,1-.553-1.591V56.28h.886v2.658q0,1.4,1.213,1.4t1.206-1.4V56.28h.872v2.692a2.169,2.169,0,0,1-.549,1.591,2.408,2.408,0,0,1-3.077,0" transform="translate(-20.318 -28.883)" fill="#232323"/>
      <path id="Path_1668" data-name="Path 1668" d="M58.042,61.051l-.975-1.4a1.743,1.743,0,0,1-.184.006H55.807v1.391h-.886V56.28h1.963a2.643,2.643,0,0,1,1.08.2,1.575,1.575,0,0,1,.705.586,1.64,1.64,0,0,1,.245.906,1.619,1.619,0,0,1-.262.927,1.562,1.562,0,0,1-.753.579L59,61.051Zm-.32-3.776a1.359,1.359,0,0,0-.879-.245H55.807v1.9h1.036a1.348,1.348,0,0,0,.879-.249.866.866,0,0,0,.3-.706.854.854,0,0,0-.3-.7" transform="translate(-28.186 -28.883)" fill="#232323"/>
      <rect id="Rectangle_192" data-name="Rectangle 192" width="0.886" height="4.771" transform="translate(33.761 27.397)" fill="#232323"/>
      <path id="Path_1669" data-name="Path 1669" d="M80.416,61.05l-1.295-1.813L77.84,61.05H76.831L78.6,58.617,76.926,56.28h1l1.22,1.7,1.206-1.7h.961l-1.67,2.3,1.792,2.467Z" transform="translate(-39.43 -28.883)" fill="#232323"/>
      <path id="Path_1670" data-name="Path 1670" d="M99.975,60.89a2.227,2.227,0,0,1-.814-.416l.306-.689a2.416,2.416,0,0,0,.719.379,2.621,2.621,0,0,0,.855.147,1.478,1.478,0,0,0,.794-.17.516.516,0,0,0,.262-.45.434.434,0,0,0-.146-.337,1.032,1.032,0,0,0-.372-.208q-.225-.075-.613-.171a6.989,6.989,0,0,1-.882-.259,1.443,1.443,0,0,1-.58-.406,1.092,1.092,0,0,1-.242-.746,1.275,1.275,0,0,1,.215-.719,1.451,1.451,0,0,1,.647-.514,2.613,2.613,0,0,1,1.059-.191,3.417,3.417,0,0,1,.859.11,2.384,2.384,0,0,1,.729.313l-.279.688a2.775,2.775,0,0,0-.654-.279,2.462,2.462,0,0,0-.662-.095,1.385,1.385,0,0,0-.78.177.548.548,0,0,0-.255.471.424.424,0,0,0,.147.334,1.059,1.059,0,0,0,.371.2q.225.075.614.171a6.533,6.533,0,0,1,.872.255,1.5,1.5,0,0,1,.583.406,1.068,1.068,0,0,1,.242.736,1.261,1.261,0,0,1-.214.716,1.467,1.467,0,0,1-.651.511,2.66,2.66,0,0,1-1.063.19,3.653,3.653,0,0,1-1.067-.156" transform="translate(-50.89 -28.811)" fill="#232323"/>
      <path id="Path_1671" data-name="Path 1671" d="M113.461,60.563a2.16,2.16,0,0,1-.552-1.591V56.28h.886v2.658q0,1.4,1.213,1.4t1.206-1.4V56.28h.873v2.692a2.173,2.173,0,0,1-.549,1.591,2.409,2.409,0,0,1-3.077,0" transform="translate(-57.945 -28.883)" fill="#232323"/>
      <path id="Path_1672" data-name="Path 1672" d="M131.281,56.484a1.573,1.573,0,0,1,.705.586,1.791,1.791,0,0,1,0,1.809,1.564,1.564,0,0,1-.705.59,2.64,2.64,0,0,1-1.08.2h-1.077v1.377h-.886V56.28H130.2a2.64,2.64,0,0,1,1.08.2m-.242,2.194a.972.972,0,0,0,0-1.4,1.362,1.362,0,0,0-.879-.245h-1.036v1.895h1.036a1.361,1.361,0,0,0,.879-.245" transform="translate(-65.812 -28.883)" fill="#232323"/>
      <path id="Path_1673" data-name="Path 1673" d="M145.505,56.484a1.575,1.575,0,0,1,.705.586,1.791,1.791,0,0,1,0,1.809,1.567,1.567,0,0,1-.705.59,2.643,2.643,0,0,1-1.08.2h-1.077v1.377h-.886V56.28h1.963a2.643,2.643,0,0,1,1.08.2m-.242,2.194a.97.97,0,0,0,0-1.4,1.359,1.359,0,0,0-.879-.245h-1.036v1.895h1.036a1.359,1.359,0,0,0,.879-.245" transform="translate(-73.112 -28.883)" fill="#232323"/>
      <path id="Path_1674" data-name="Path 1674" d="M156.686,56.28h.886V60.3h2.494v.75h-3.38Z" transform="translate(-80.412 -28.883)" fill="#232323"/>
      <rect id="Rectangle_193" data-name="Rectangle 193" width="0.886" height="4.771" transform="translate(82.401 27.397)" fill="#232323"/>
      <path id="Path_1675" data-name="Path 1675" d="M181.516,60.308v.743h-3.578V56.28h3.483v.742h-2.6v1.241h2.3v.729h-2.3v1.315Z" transform="translate(-91.318 -28.883)" fill="#232323"/>
      <path id="Path_1676" data-name="Path 1676" d="M194.639,61.051l-.975-1.4a1.764,1.764,0,0,1-.184.006H192.4v1.391h-.886V56.28h1.962a2.637,2.637,0,0,1,1.08.2,1.565,1.565,0,0,1,.705.586,1.64,1.64,0,0,1,.245.906,1.615,1.615,0,0,1-.262.927,1.56,1.56,0,0,1-.753.579l1.1,1.567Zm-.32-3.776a1.365,1.365,0,0,0-.88-.245H192.4v1.9h1.035a1.354,1.354,0,0,0,.88-.249.868.868,0,0,0,.3-.706.856.856,0,0,0-.3-.7" transform="translate(-98.287 -28.883)" fill="#232323"/>
      <path id="Path_1677" data-name="Path 1677" d="M214.017,56.28H216.1a2.99,2.99,0,0,1,1.356.3,2.2,2.2,0,0,1,.921.838,2.554,2.554,0,0,1,0,2.5,2.2,2.2,0,0,1-.921.838,2.99,2.99,0,0,1-1.356.3h-2.085Zm2.044,4.021a2.025,2.025,0,0,0,.923-.2,1.437,1.437,0,0,0,.613-.572,1.835,1.835,0,0,0,0-1.724,1.44,1.44,0,0,0-.613-.572,2.025,2.025,0,0,0-.923-.2H214.9V60.3Z" transform="translate(-109.834 -28.883)" fill="#232323"/>
      <path id="Path_1678" data-name="Path 1678" d="M232.022,59.946h-2.385l-.471,1.1h-.913l2.147-4.771h.872l2.153,4.771H232.5Zm-.293-.7-.9-2.085-.893,2.085Z" transform="translate(-117.14 -28.883)" fill="#232323"/>
      <path id="Path_1679" data-name="Path 1679" d="M244.156,57.03h-1.581v-.75h4.048v.75h-1.581v4.021h-.886Z" transform="translate(-124.49 -28.883)" fill="#232323"/>
      <path id="Path_1680" data-name="Path 1680" d="M258.356,59.946h-2.385l-.471,1.1h-.913l2.147-4.771h.872l2.153,4.771h-.926Zm-.293-.7-.9-2.085-.893,2.085Z" transform="translate(-130.654 -28.883)" fill="#232323"/>
      <path id="Path_1681" data-name="Path 1681" d="M274.667,59a1.2,1.2,0,0,1,.232.753,1.1,1.1,0,0,1-.477.957,2.4,2.4,0,0,1-1.39.338H270.66V56.28H272.9a2.2,2.2,0,0,1,1.3.331,1.062,1.062,0,0,1,.456.91,1.19,1.19,0,0,1-.164.627,1.114,1.114,0,0,1-.45.423,1.259,1.259,0,0,1,.627.433m-3.121-2.028V58.29H272.8a1.272,1.272,0,0,0,.712-.167.549.549,0,0,0,.249-.487.556.556,0,0,0-.249-.494,1.272,1.272,0,0,0-.712-.167Zm2.461,2.692q0-.688-1.029-.688h-1.432v1.377h1.432q1.029,0,1.029-.688" transform="translate(-138.903 -28.883)" fill="#232323"/>
      <path id="Path_1682" data-name="Path 1682" d="M287.9,59.946h-2.385l-.471,1.1h-.913l2.147-4.771h.872L289.3,61.05h-.926Zm-.293-.7-.9-2.085-.893,2.085Z" transform="translate(-145.814 -28.883)" fill="#232323"/>
      <path id="Path_1683" data-name="Path 1683" d="M300.188,60.89a2.23,2.23,0,0,1-.814-.416l.307-.689a2.413,2.413,0,0,0,.719.379,2.624,2.624,0,0,0,.855.147,1.48,1.48,0,0,0,.794-.17.517.517,0,0,0,.262-.45.434.434,0,0,0-.147-.337,1.029,1.029,0,0,0-.371-.208q-.225-.075-.613-.171a6.974,6.974,0,0,1-.883-.259,1.445,1.445,0,0,1-.579-.406,1.089,1.089,0,0,1-.242-.746,1.275,1.275,0,0,1,.215-.719,1.451,1.451,0,0,1,.647-.514,2.615,2.615,0,0,1,1.06-.191,3.41,3.41,0,0,1,.859.11,2.384,2.384,0,0,1,.729.313l-.279.688a2.766,2.766,0,0,0-.654-.279,2.462,2.462,0,0,0-.661-.095,1.384,1.384,0,0,0-.78.177.548.548,0,0,0-.256.471.425.425,0,0,0,.147.334,1.057,1.057,0,0,0,.371.2q.225.075.613.171a6.543,6.543,0,0,1,.872.255,1.5,1.5,0,0,1,.583.406,1.071,1.071,0,0,1,.242.736,1.258,1.258,0,0,1-.215.716,1.466,1.466,0,0,1-.651.511,2.661,2.661,0,0,1-1.064.19,3.648,3.648,0,0,1-1.066-.156" transform="translate(-153.639 -28.811)" fill="#232323"/>
      <path id="Path_1684" data-name="Path 1684" d="M316.784,60.308v.743h-3.578V56.28h3.483v.742h-2.6v1.241h2.3v.729h-2.3v1.315Z" transform="translate(-160.738 -28.883)" fill="#232323"/>
      <path id="Path_1685" data-name="Path 1685" d="M327.107,57.03h-1.581v-.75h4.048v.75h-1.581v4.021h-.886Z" transform="translate(-165.635 -28.883)" fill="#232323"/>
      <path id="Path_1686" data-name="Path 1686" d="M339.827,60.73a2.346,2.346,0,0,1-.92-.88,2.534,2.534,0,0,1,0-2.515,2.348,2.348,0,0,1,.92-.879,2.887,2.887,0,0,1,2.63,0,2.361,2.361,0,0,1,.921.876,2.548,2.548,0,0,1,0,2.522,2.361,2.361,0,0,1-.921.876,2.891,2.891,0,0,1-2.63,0M342,60.054a1.552,1.552,0,0,0,.6-.6,1.81,1.81,0,0,0,0-1.724,1.551,1.551,0,0,0-.6-.6,1.828,1.828,0,0,0-1.717,0,1.548,1.548,0,0,0-.6.6,1.813,1.813,0,0,0,0,1.724,1.549,1.549,0,0,0,.6.6,1.825,1.825,0,0,0,1.717,0" transform="translate(-172.331 -28.811)" fill="#232323"/>
      <path id="Path_1687" data-name="Path 1687" d="M355.815,60.73a2.346,2.346,0,0,1-.92-.88,2.534,2.534,0,0,1,0-2.515,2.348,2.348,0,0,1,.92-.879,2.887,2.887,0,0,1,2.63,0,2.361,2.361,0,0,1,.921.876,2.548,2.548,0,0,1,0,2.522,2.361,2.361,0,0,1-.921.876,2.891,2.891,0,0,1-2.63,0m2.174-.675a1.551,1.551,0,0,0,.6-.6,1.81,1.81,0,0,0,0-1.724,1.551,1.551,0,0,0-.6-.6,1.828,1.828,0,0,0-1.717,0,1.549,1.549,0,0,0-.6.6,1.813,1.813,0,0,0,0,1.724,1.55,1.55,0,0,0,.6.6,1.825,1.825,0,0,0,1.717,0" transform="translate(-180.536 -28.811)" fill="#232323"/>
      <path id="Path_1688" data-name="Path 1688" d="M371.25,56.28h.885V60.3h2.494v.75h-3.38Z" transform="translate(-189.101 -28.883)" fill="#232323"/>
    </g>
  </g>
</svg>
