<svg xmlns="http://www.w3.org/2000/svg" width="9.302" height="12.402" viewBox="0 0 9.302 12.402">
  <path id="file3" d="M9.067,9.684h.517V9.168H9.067Zm0,1.55h.517v-.517H9.067Zm0-3.1h.517V7.617H9.067Zm0,4.651h.517v-.517H9.067Zm0,1.55h.517v-.517H9.067Zm1.034-3.1h4.134v-.517H10.1Zm0-3.1h4.134V7.617H10.1ZM14.2,4H7V16.4h9.3V6.067Zm1.066,11.337H8.034V5.034H13.2V6.552h2.067ZM10.1,12.785h4.134v-.517H10.1Zm0-3.1h4.134V9.168H10.1Zm0,4.651h4.134v-.517H10.1Z" transform="translate(-7 -4)" fill="#2580eb"/>
</svg>
