<svg xmlns="http://www.w3.org/2000/svg" width="10.585" height="13.471" viewBox="0 0 10.585 13.471">
  <path id="Path_1461" data-name="Path 1461" d="M1094.623,2134.962h-3.849v-.481a.481.481,0,1,0-.962,0v.481h-3.849a.965.965,0,0,0-.962.962v.962a.965.965,0,0,0,.962.962v8.66a.965.965,0,0,0,.962.962h6.736a.965.965,0,0,0,.962-.962v-8.66a.965.965,0,0,0,.962-.962v-.962A.965.965,0,0,0,1094.623,2134.962Zm-.962,11.066a.455.455,0,0,1-.481.481h-5.773a.455.455,0,0,1-.481-.481v-8.179h.962v7.217a.481.481,0,1,0,.962,0v-7.217h.962v7.217a.481.481,0,1,0,.962,0v-7.217h.962v7.217a.481.481,0,1,0,.962,0v-7.217h.962Zm.962-9.382a.227.227,0,0,1-.241.24H1086.2a.227.227,0,0,1-.241-.24v-.481a.227.227,0,0,1,.241-.241h8.179a.227.227,0,0,1,.241.241Z" transform="translate(-1085 -2134)" fill="#e3194f"/>
</svg>
