<svg id="Group_42" data-name="Group 42" xmlns="http://www.w3.org/2000/svg" xmlns:xlink="http://www.w3.org/1999/xlink" width="11.879" height="13.373" viewBox="0 0 11.879 13.373">
  <defs>
    <clipPath id="clip-path">
      <rect id="Rectangle_57" data-name="Rectangle 57" width="11.879" height="13.373" fill="#fff"/>
    </clipPath>
  </defs>
  <g id="Group_42-2" data-name="Group 42" clip-path="url(#clip-path)">
    <path id="Path_1356" data-name="Path 1356" d="M5.96,10.92V11.9c-.064,0-.126.012-.187.012q-2.1,0-4.19,0A1.485,1.485,0,0,1,.045,10.746,2.047,2.047,0,0,1,0,10.294Q0,5.949,0,1.6A1.5,1.5,0,0,1,1.06.07,1.874,1.874,0,0,1,1.581,0Q4.985,0,8.388,0a1.479,1.479,0,0,1,1.5,1.17,1.816,1.816,0,0,1,.04.408q0,2.6,0,5.2V6.94h-1V6.788q0-2.6,0-5.19a.865.865,0,0,0-.076-.366A.471.471,0,0,0,8.391.99H1.584A.509.509,0,0,0,1,1.574q0,4.382,0,8.763a.51.51,0,0,0,.585.584H5.96" transform="translate(0 0)" fill="#fff"/>
    <path id="Path_1357" data-name="Path 1357" d="M68.014,71.373A1.971,1.971,0,0,1,69.808,69.4a2.149,2.149,0,0,1-.369-.178,1.155,1.155,0,0,1-.3-.314,1,1,0,0,1-.131-.4,1.077,1.077,0,0,1,.036-.419.986.986,0,0,1,1.016-.684,1,1,0,0,1,.91.859c.081.473-.19.854-.818,1.129a1.992,1.992,0,0,1,1.289.637,1.957,1.957,0,0,1,.528,1.336Z" transform="translate(-66.009 -65.425)" fill="#fff"/>
    <path id="Path_1358" data-name="Path 1358" d="M240.48,270.4v2.968h1.941l-2.45,2.453-2.443-2.444h1.942V270.4Z" transform="translate(-230.542 -262.443)" fill="#fff"/>
    <rect id="Rectangle_53" data-name="Rectangle 53" width="5.935" height="0.968" transform="translate(1.998 6.958)" fill="#fff"/>
    <rect id="Rectangle_54" data-name="Rectangle 54" width="5.934" height="0.975" transform="translate(1.998 8.942)" fill="#fff"/>
    <rect id="Rectangle_55" data-name="Rectangle 55" width="0.971" height="0.977" transform="translate(6.962 2.985)" fill="#fff"/>
    <rect id="Rectangle_56" data-name="Rectangle 56" width="0.972" height="0.98" transform="translate(6.961 4.971)" fill="#fff"/>
  </g>
</svg>
