<svg xmlns="http://www.w3.org/2000/svg" width="20.607" height="16.473" viewBox="0 0 20.607 16.473">
  <g id="eye-off-outline" transform="translate(-15.98 -64.29)">
    <path id="Path_1589" data-name="Path 1589" d="M33.84,80.762a.683.683,0,0,1-.486-.2L18.243,65.45a.687.687,0,0,1,.971-.971L34.325,79.59a.687.687,0,0,1-.486,1.172Zm-7.57-2.747a9.287,9.287,0,0,1-5.105-1.567,12.94,12.94,0,0,1-3.808-3.907v0a15.62,15.62,0,0,1,2.8-3.1.086.086,0,0,0,.006-.126l-.855-.854a.086.086,0,0,0-.116-.005,17.024,17.024,0,0,0-2.966,3.3A1.37,1.37,0,0,0,16.2,73.28,14.344,14.344,0,0,0,20.418,77.6a10.634,10.634,0,0,0,5.852,1.787,10.266,10.266,0,0,0,3.254-.54.086.086,0,0,0,.033-.142l-.926-.926a.172.172,0,0,0-.164-.043A8.792,8.792,0,0,1,26.269,78.015Zm10.1-6.242A14.55,14.55,0,0,0,32.1,67.457a10.784,10.784,0,0,0-5.835-1.806,9.759,9.759,0,0,0-3.215.551.086.086,0,0,0-.032.142l.925.925a.172.172,0,0,0,.167.043,8.278,8.278,0,0,1,2.156-.287,9.284,9.284,0,0,1,5.089,1.588,13.167,13.167,0,0,1,3.853,3.907.006.006,0,0,1,0,.007,13.339,13.339,0,0,1-2.753,3.122.086.086,0,0,0-.006.127l.854.854a.086.086,0,0,0,.116.006,14.746,14.746,0,0,0,2.947-3.369,1.382,1.382,0,0,0,0-1.493Z" fill="#727272"/>
    <path id="Path_1590" data-name="Path 1590" d="M164.1,160a4.116,4.116,0,0,0-.917.1.086.086,0,0,0-.043.145l4.833,4.832a.086.086,0,0,0,.145-.043A4.121,4.121,0,0,0,164.1,160Zm-3.873,3.162a.086.086,0,0,0-.145.043,4.121,4.121,0,0,0,4.937,4.937.086.086,0,0,0,.043-.145Z" transform="translate(-137.816 -91.602)" fill="#727272"/>
  </g>
</svg>
