<svg id="file-lines-solid" xmlns="http://www.w3.org/2000/svg" width="12.557" height="16.742" viewBox="0 0 12.557 16.742">
  <path id="file-lines-solid-2" data-name="file-lines-solid" d="M8.371,0V4.186h4.186ZM7.325,4.186V0H1.57A1.57,1.57,0,0,0,0,1.57v13.6a1.57,1.57,0,0,0,1.57,1.57h9.417a1.57,1.57,0,0,0,1.57-1.57V5.232H8.4A1.052,1.052,0,0,1,7.325,4.186ZM8.894,13.6H3.662a.523.523,0,0,1,0-1.046H8.894a.523.523,0,0,1,0,1.046Zm0-2.093H3.662a.523.523,0,0,1,0-1.046H8.894a.523.523,0,0,1,0,1.046Zm.523-2.616a.525.525,0,0,1-.523.523H3.662a.523.523,0,0,1,0-1.046H8.894A.525.525,0,0,1,9.417,8.894Z" fill="#e5173f"/>
</svg>
