<svg id="file-pdf-solid" xmlns="http://www.w3.org/2000/svg" width="14.162" height="18.883" viewBox="0 0 14.162 18.883">
  <path id="file-pdf-solid-2" data-name="file-pdf-solid" d="M3.245,11.212h-.3V9.441h.3a.885.885,0,0,1,0,1.77Zm3.836-1.77h.3a.592.592,0,0,1,.59.59v2.36a.592.592,0,0,1-.59.59h-.3ZM8.261,0V4.721A1.179,1.179,0,0,0,9.441,5.9h4.721V16.522a2.363,2.363,0,0,1-2.36,2.36H2.36A2.361,2.361,0,0,1,0,16.522V2.36A2.36,2.36,0,0,1,2.36,0ZM2.36,8.261a.591.591,0,0,0-.59.59v4.721a.59.59,0,0,0,1.18,0v-1.18h.3a2.065,2.065,0,0,0,0-4.131ZM5.9,13.572a.592.592,0,0,0,.59.59h.885a1.771,1.771,0,0,0,1.77-1.77v-2.36a1.771,1.771,0,0,0-1.77-1.77H6.491a.592.592,0,0,0-.59.59Zm4.721-5.311a.592.592,0,0,0-.59.59v4.721a.59.59,0,0,0,1.18,0V11.8h1.18a.59.59,0,0,0,0-1.18h-1.18V9.441h1.18a.59.59,0,0,0,0-1.18ZM9.441,0l4.721,4.721H9.441Z" fill="#e5173f"/>
</svg>
