<svg id="Group_175" data-name="Group 175" xmlns="http://www.w3.org/2000/svg" xmlns:xlink="http://www.w3.org/1999/xlink" width="11.433" height="14.355" viewBox="0 0 11.433 14.355">
  <defs>
    <clipPath id="clip-path">
      <rect id="Rectangle_163" data-name="Rectangle 163" width="11.433" height="14.355" fill="#333"/>
    </clipPath>
  </defs>
  <g id="Group_174" data-name="Group 174" clip-path="url(#clip-path)">
    <path id="Path_1583" data-name="Path 1583" d="M.257,6.072a1.573,1.573,0,0,1,1.405-.8c1.924-.006,3.848,0,5.771,0h.18c0-.045.008-.085.008-.125,0-.715,0-1.43,0-2.144a1.871,1.871,0,0,0-1.574-1.85A1.9,1.9,0,0,0,3.917,2.4a2.455,2.455,0,0,0-.1.645c-.016.326,0,.652,0,.988H2.693a4.833,4.833,0,0,1,.314-2.384A3.017,3.017,0,0,1,5.278.031.888.888,0,0,0,5.38,0h.673a6.009,6.009,0,0,1,.762.2,2.915,2.915,0,0,1,1.9,2.368,3.143,3.143,0,0,1,.029.474c0,.687,0,1.374,0,2.06v.164c.325,0,.637.01.948,0a1.692,1.692,0,0,1,1.731,1.469,1.634,1.634,0,0,1,.01.224q0,2.852,0,5.7a1.672,1.672,0,0,1-1.687,1.688q-4.021,0-8.041,0A1.669,1.669,0,0,1,.025,12.962.38.38,0,0,0,0,12.9V6.73a3.944,3.944,0,0,1,.257-.658m9.374,7.162c.468,0,.681-.215.681-.687q0-2.733,0-5.466c0-.473-.212-.688-.68-.688H1.788a.673.673,0,0,0-.459.134.618.618,0,0,0-.209.512q0,2.27,0,4.541,0,.484,0,.967c0,.479.211.688.694.688H9.632" transform="translate(0 -0.001)" fill="#333"/>
    <path id="Path_1584" data-name="Path 1584" d="M168.166,288.034c0-.084,0-.168,0-.252a.724.724,0,0,1,.218-.625,1,1,0,0,0-.095-1.448,1.04,1.04,0,1,0-1.331,1.6.253.253,0,0,1,.083.169c.008.364,0,.728,0,1.092a.561.561,0,1,0,1.121,0c0-.177,0-.355,0-.532" transform="translate(-161.889 -277.433)" fill="#333"/>
  </g>
</svg>
