<svg xmlns="http://www.w3.org/2000/svg" width="128" height="25" viewBox="0 0 128 25">
  <g id="Hurix_digital_logo" transform="translate(-22.02 -41.92)">
    <path id="Path_145" data-name="Path 145" d="M25.4,41.92V48.2q.249-.277.581-.581a4.115,4.115,0,0,1,.775-.554,4.324,4.324,0,0,1,1.024-.4,5.3,5.3,0,0,1,1.328-.153,5.162,5.162,0,0,1,1.7.3,4.719,4.719,0,0,1,1.578.927A4.962,4.962,0,0,1,33.548,49.3,4.859,4.859,0,0,1,34,51.469V60.6H30.628V52.964a8.528,8.528,0,0,0-.083-1.231,2.743,2.743,0,0,0-.346-1.01,1.782,1.782,0,0,0-.775-.692,3.166,3.166,0,0,0-1.37-.25,3.319,3.319,0,0,0-1.411.25,1.945,1.945,0,0,0-.817.692,2.471,2.471,0,0,0-.374,1.01,8.539,8.539,0,0,0-.083,1.231l.055,7.639H22.02V41.92Z" fill="#686969"/>
    <path id="Path_146" data-name="Path 146" d="M152.485,98.31c-.055,0-.254-.01-.595-.028a5.3,5.3,0,0,1-1.2-.235,7.036,7.036,0,0,1-1.467-.651,5.09,5.09,0,0,1-1.439-1.273,6.828,6.828,0,0,1-1.093-2.09,9.747,9.747,0,0,1-.429-3.113V84h3.376v6.919a7.242,7.242,0,0,0,.111,1.246,3.466,3.466,0,0,0,.416,1.163,2.5,2.5,0,0,0,.858.872,3.282,3.282,0,0,0,2.933,0,2.5,2.5,0,0,0,.858-.872,3.49,3.49,0,0,0,.416-1.163,7.242,7.242,0,0,0,.111-1.246V84h3.376v6.919a9.738,9.738,0,0,1-.429,3.113,6.877,6.877,0,0,1-1.093,2.09,5.119,5.119,0,0,1-1.439,1.273,7.179,7.179,0,0,1-1.467.651,5.321,5.321,0,0,1-1.2.235C152.738,98.3,152.541,98.31,152.485,98.31Z" transform="translate(-110.509 -37.427)" fill="#686969"/>
    <path id="Path_147" data-name="Path 147" d="M274.46,88.087a3.7,3.7,0,0,1,.609-2.256A4.489,4.489,0,0,1,276.4,84.6a4.774,4.774,0,0,1,1.937-.609h3.875v3.349h-2.6a1.843,1.843,0,0,0-.9.193,1.993,1.993,0,0,0-.539.416,1.572,1.572,0,0,0-.3.609v9.466h-3.4V88.087Z" transform="translate(-224.238 -37.418)" fill="#686969"/>
    <path id="Path_148" data-name="Path 148" d="M359.36,43.452q0-.608.014-.913a.61.61,0,0,1,.166-.443.787.787,0,0,1,.5-.153c.231-.009.567-.013,1.01-.013s.779,0,1.01.013a.78.78,0,0,1,.5.153.61.61,0,0,1,.166.443c.009.2.014.507.014.913s0,.711-.014.913a.62.62,0,0,1-.166.443.774.774,0,0,1-.5.153c-.231.01-.567.014-1.01.014s-.78,0-1.01-.014a.774.774,0,0,1-.5-.153.608.608,0,0,1-.166-.443C359.364,44.162,359.36,43.857,359.36,43.452Zm3.377,3.128V60.612H359.36V46.579Z" transform="translate(-299.668 -0.009)" fill="#686969"/>
    <path id="Path_149" data-name="Path 149" d="M411.329,93.133l-3.792,4.9h-4.1l5.84-7.307L404.1,84h4.069l3.155,4.068L414.456,84l4.069.028-5.121,6.5,5.757,7.5h-4.069Z" transform="translate(-338.776 -37.427)" fill="#686969"/>
    <path id="Path_150" data-name="Path 150" d="M569.462,48.535V41.92h3.293V53.573a10.256,10.256,0,0,1-.276,2.519,7.365,7.365,0,0,1-.734,1.869,5.153,5.153,0,0,1-1.038,1.3,6.556,6.556,0,0,1-1.19.844,7.153,7.153,0,0,1-3.238.775,7.3,7.3,0,0,1-3.293-.775,6.919,6.919,0,0,1-1.2-.844,5.1,5.1,0,0,1-1.052-1.286A7.146,7.146,0,0,1,560,56.12a10.206,10.206,0,0,1-.276-2.519,10.7,10.7,0,0,1,.263-2.519,7.709,7.709,0,0,1,.692-1.869,5.47,5.47,0,0,1,.969-1.315,5.6,5.6,0,0,1,1.121-.858,6.349,6.349,0,0,1,3.045-.83,5.764,5.764,0,0,1,1.661.416,5.7,5.7,0,0,1,1.411.927,4.59,4.59,0,0,1,1.19,1.785Zm-3.183,9.189a2.918,2.918,0,0,0,1.647-.416,2.965,2.965,0,0,0,.969-1.038,3.985,3.985,0,0,0,.456-1.343,8.038,8.038,0,0,0,0-2.657,4.016,4.016,0,0,0-.456-1.343,2.965,2.965,0,0,0-.969-1.038,3.471,3.471,0,0,0-3.293,0,2.854,2.854,0,0,0-.955,1.038,4.206,4.206,0,0,0-.443,1.343,8.038,8.038,0,0,0,0,2.657,4.151,4.151,0,0,0,.443,1.343,2.836,2.836,0,0,0,.955,1.038A2.925,2.925,0,0,0,566.279,57.725Z" transform="translate(-477.6)" fill="#199dd9"/>
    <path id="Path_151" data-name="Path 151" d="M694.95,43.452q0-.608.014-.913a.61.61,0,0,1,.166-.443.787.787,0,0,1,.5-.153q.347-.013,1.01-.013c.443,0,.779,0,1.01.013a.781.781,0,0,1,.5.153.615.615,0,0,1,.166.443q.013.305.013.913t-.013.913a.62.62,0,0,1-.166.443.774.774,0,0,1-.5.153c-.231.01-.567.014-1.01.014s-.78,0-1.01-.014a.774.774,0,0,1-.5-.153.608.608,0,0,1-.166-.443C694.954,44.162,694.95,43.857,694.95,43.452Zm3.377,3.128V60.612h-3.376V46.579Z" transform="translate(-597.781 -0.009)" fill="#199dd9"/>
    <path id="Path_152" data-name="Path 152" d="M748.358,80.74a7.818,7.818,0,0,1,2.962.5,5.026,5.026,0,0,1,2.007,1.453,5.971,5.971,0,0,1,1.148,2.325,12.288,12.288,0,0,1,.359,3.113v6.31a11.232,11.232,0,0,1-.1,1.536,10.513,10.513,0,0,1-.263,1.315,4.961,4.961,0,0,1-.817,1.674,5.291,5.291,0,0,1-1.453,1.315,7.3,7.3,0,0,1-2.1.858,11.56,11.56,0,0,1-2.795.305l-3.681-.028V98.289h2.989a8.322,8.322,0,0,0,2.879-.387,3.576,3.576,0,0,0,1.453-.927,2.112,2.112,0,0,0,.526-1.093,7.618,7.618,0,0,0,.07-.858V93.2l.609-.8a4.462,4.462,0,0,1-1.19,1.772,5.239,5.239,0,0,1-1.411.886,5.733,5.733,0,0,1-1.661.36,6.327,6.327,0,0,1-3.045-.775,5.835,5.835,0,0,1-1.121-.844,5.258,5.258,0,0,1-.968-1.286,7.445,7.445,0,0,1-.692-1.854,10.7,10.7,0,0,1-.263-2.519,10.212,10.212,0,0,1,.276-2.519,7.371,7.371,0,0,1,.734-1.869,5.212,5.212,0,0,1,1.052-1.315,6.6,6.6,0,0,1,1.2-.858A7.255,7.255,0,0,1,748.358,80.74Zm3.183,7.39a11.2,11.2,0,0,0-.1-1.481,3.881,3.881,0,0,0-.415-1.328,2.377,2.377,0,0,0-.955-.955,3.491,3.491,0,0,0-1.716-.36,2.915,2.915,0,0,0-1.647.416,2.854,2.854,0,0,0-.955,1.038,4.2,4.2,0,0,0-.443,1.343,8.033,8.033,0,0,0,0,2.657,4.176,4.176,0,0,0,.443,1.343,2.837,2.837,0,0,0,.955,1.038,3,3,0,0,0,4.261-1.038,3.986,3.986,0,0,0,.456-1.343A8.631,8.631,0,0,0,751.541,88.13Z" transform="translate(-639.328 -34.524)" fill="#199dd9"/>
    <path id="Path_153" data-name="Path 153" d="M876.52,43.452q0-.608.014-.913a.61.61,0,0,1,.166-.443.787.787,0,0,1,.5-.153q.347-.013,1.01-.013c.443,0,.779,0,1.01.013a.78.78,0,0,1,.5.153.61.61,0,0,1,.166.443q.013.305.013.913t-.013.913a.619.619,0,0,1-.166.443.774.774,0,0,1-.5.153c-.231.01-.567.014-1.01.014s-.78,0-1.01-.014a.774.774,0,0,1-.5-.153.609.609,0,0,1-.166-.443C876.524,44.162,876.52,43.857,876.52,43.452Zm3.376,3.128V60.612H876.52V46.579Z" transform="translate(-759.075 -0.009)" fill="#199dd9"/>
    <path id="Path_154" data-name="Path 154" d="M927.477,56.989v6.172a1.574,1.574,0,0,0,.3.609,2.012,2.012,0,0,0,.539.416,1.828,1.828,0,0,0,.9.193h2.1v3.349h-3.377a4.774,4.774,0,0,1-1.937-.609,4.336,4.336,0,0,1-1.315-1.232,3.764,3.764,0,0,1-.6-2.256V49.93h3.376V53.7h3.183v3.293Z" transform="translate(-801.307 -7.125)" fill="#199dd9"/>
    <path id="Path_155" data-name="Path 155" d="M1016.535,95.15h-3.293V93.213l.609-.8a4.461,4.461,0,0,1-1.19,1.772,5.24,5.24,0,0,1-1.411.886,5.733,5.733,0,0,1-1.661.36,6.326,6.326,0,0,1-3.045-.775,5.834,5.834,0,0,1-1.121-.844,5.287,5.287,0,0,1-.968-1.286,7.447,7.447,0,0,1-.692-1.854,10.7,10.7,0,0,1-.263-2.519,10.209,10.209,0,0,1,.276-2.519,7.369,7.369,0,0,1,.734-1.869,5.211,5.211,0,0,1,1.052-1.315,6.6,6.6,0,0,1,1.2-.858,7.312,7.312,0,0,1,3.293-.83,7.659,7.659,0,0,1,2.962.512,5.142,5.142,0,0,1,2.007,1.467,5.973,5.973,0,0,1,1.148,2.325,12.3,12.3,0,0,1,.36,3.114V95.15Zm-6.476-11.127a2.916,2.916,0,0,0-1.647.416,2.854,2.854,0,0,0-.955,1.038,4.2,4.2,0,0,0-.443,1.343,8.038,8.038,0,0,0,0,2.657,4.176,4.176,0,0,0,.443,1.343,2.836,2.836,0,0,0,.955,1.038,3,3,0,0,0,4.261-1.038,4.009,4.009,0,0,0,.456-1.343,8.9,8.9,0,0,0,.11-1.328,11.19,11.19,0,0,0-.1-1.481,3.857,3.857,0,0,0-.416-1.328,2.377,2.377,0,0,0-.955-.955A3.48,3.48,0,0,0,1010.059,84.024Z" transform="translate(-871.718 -34.545)" fill="#199dd9"/>
    <path id="Path_156" data-name="Path 156" d="M1141.356,41.92V60.6h-3.376V41.92Z" transform="translate(-991.336)" fill="#199dd9"/>
  </g>
</svg>
