<svg xmlns="http://www.w3.org/2000/svg" width="104.101" height="20.535" viewBox="0 0 104.101 20.535">
  <g id="Hurix_digital_logo" transform="translate(-22.02 -41.92)">
    <path id="Path_45" data-name="Path 45" d="M24.794,41.92v5.162q.2-.227.478-.478a3.381,3.381,0,0,1,.636-.455,3.552,3.552,0,0,1,.842-.33,4.356,4.356,0,0,1,1.091-.125,4.241,4.241,0,0,1,1.4.25,3.877,3.877,0,0,1,1.3.762,4.077,4.077,0,0,1,.955,1.274,3.992,3.992,0,0,1,.375,1.785v7.5H29.092V50.993a7.005,7.005,0,0,0-.068-1.011,2.253,2.253,0,0,0-.284-.83,1.464,1.464,0,0,0-.636-.568,2.6,2.6,0,0,0-1.126-.205,2.727,2.727,0,0,0-1.159.205,1.6,1.6,0,0,0-.671.568,2.03,2.03,0,0,0-.307.83,7.015,7.015,0,0,0-.068,1.011l.045,6.276h-2.8V41.92Z" fill="#686969"/>
    <path id="Path_46" data-name="Path 46" d="M151.375,95.757c-.045,0-.209-.008-.488-.023a4.354,4.354,0,0,1-.989-.193,5.781,5.781,0,0,1-1.2-.535,4.181,4.181,0,0,1-1.182-1.046,5.61,5.61,0,0,1-.9-1.717,8.009,8.009,0,0,1-.352-2.558V84h2.774v5.685a5.949,5.949,0,0,0,.091,1.023,2.848,2.848,0,0,0,.341.955,2.052,2.052,0,0,0,.7.716,2.7,2.7,0,0,0,2.41,0,2.052,2.052,0,0,0,.7-.716,2.868,2.868,0,0,0,.341-.955,5.95,5.95,0,0,0,.091-1.023V84h2.774v5.685a8,8,0,0,1-.352,2.558,5.649,5.649,0,0,1-.9,1.717,4.206,4.206,0,0,1-1.182,1.046,5.9,5.9,0,0,1-1.2.535,4.371,4.371,0,0,1-.989.193C151.583,95.748,151.42,95.757,151.375,95.757Z" transform="translate(-112.959 -38.259)" fill="#686969"/>
    <path id="Path_47" data-name="Path 47" d="M274.46,87.356a3.038,3.038,0,0,1,.5-1.853,3.688,3.688,0,0,1,1.091-1.012,3.922,3.922,0,0,1,1.592-.5h3.183v2.751h-2.137a1.515,1.515,0,0,0-.739.159,1.638,1.638,0,0,0-.443.341,1.292,1.292,0,0,0-.25.5v7.777h-2.8V87.356Z" transform="translate(-229.519 -38.25)" fill="#686969"/>
    <path id="Path_48" data-name="Path 48" d="M359.36,43.18q0-.5.012-.75a.5.5,0,0,1,.136-.364.647.647,0,0,1,.409-.125c.19-.007.466-.011.83-.011s.64,0,.83.011a.641.641,0,0,1,.409.125.5.5,0,0,1,.136.364c.007.167.012.417.012.75s0,.584-.012.75a.509.509,0,0,1-.136.364.636.636,0,0,1-.409.125c-.19.008-.466.012-.83.012s-.641,0-.83-.012a.636.636,0,0,1-.409-.125.5.5,0,0,1-.136-.364C359.364,43.764,359.36,43.514,359.36,43.18Zm2.775,2.57V57.279H359.36V45.75Z" transform="translate(-306.71 -0.009)" fill="#686969"/>
    <path id="Path_49" data-name="Path 49" d="M409.921,91.5l-3.115,4.025H403.44l4.8-6L403.986,84h3.343l2.592,3.342L412.491,84l3.343.023-4.208,5.343,4.73,6.162h-3.343Z" transform="translate(-346.788 -38.259)" fill="#686969"/>
    <path id="Path_50" data-name="Path 50" d="M567.724,47.355V41.92h2.706v9.574a8.431,8.431,0,0,1-.227,2.069,6.05,6.05,0,0,1-.6,1.535,4.236,4.236,0,0,1-.853,1.069,5.384,5.384,0,0,1-.978.694,5.877,5.877,0,0,1-2.66.636,6,6,0,0,1-2.706-.636,5.684,5.684,0,0,1-.989-.694,4.189,4.189,0,0,1-.864-1.057,5.877,5.877,0,0,1-.6-1.524,8.383,8.383,0,0,1-.227-2.069,8.79,8.79,0,0,1,.216-2.069,6.339,6.339,0,0,1,.568-1.535,4.5,4.5,0,0,1,.8-1.08,4.6,4.6,0,0,1,.921-.7,5.216,5.216,0,0,1,2.5-.682,4.737,4.737,0,0,1,1.365.341,4.686,4.686,0,0,1,1.159.762,3.77,3.77,0,0,1,.978,1.466Zm-2.615,7.55a2.4,2.4,0,0,0,1.353-.341,2.438,2.438,0,0,0,.8-.853,3.275,3.275,0,0,0,.375-1.1,6.6,6.6,0,0,0,0-2.183,3.3,3.3,0,0,0-.375-1.1,2.438,2.438,0,0,0-.8-.853,2.851,2.851,0,0,0-2.706,0,2.344,2.344,0,0,0-.784.853,3.453,3.453,0,0,0-.364,1.1,6.608,6.608,0,0,0,0,2.183,3.41,3.41,0,0,0,.364,1.1,2.33,2.33,0,0,0,.784.853A2.4,2.4,0,0,0,565.109,54.905Z" transform="translate(-488.878)" fill="#199dd9"/>
    <path id="Path_51" data-name="Path 51" d="M694.95,43.18q0-.5.012-.75a.5.5,0,0,1,.136-.364.647.647,0,0,1,.409-.125q.285-.011.83-.011c.364,0,.64,0,.83.011a.641.641,0,0,1,.409.125.505.505,0,0,1,.136.364q.011.251.011.75t-.011.75a.509.509,0,0,1-.136.364.636.636,0,0,1-.409.125c-.19.008-.466.012-.83.012s-.641,0-.83-.012a.636.636,0,0,1-.409-.125.5.5,0,0,1-.136-.364C694.954,43.764,694.95,43.514,694.95,43.18Zm2.775,2.57V57.279h-2.774V45.75Z" transform="translate(-611.829 -0.009)" fill="#199dd9"/>
    <path id="Path_52" data-name="Path 52" d="M747.188,80.74a6.423,6.423,0,0,1,2.433.41,4.13,4.13,0,0,1,1.649,1.194,4.906,4.906,0,0,1,.943,1.91,10.1,10.1,0,0,1,.3,2.558V92a9.222,9.222,0,0,1-.08,1.262,8.653,8.653,0,0,1-.216,1.081,4.076,4.076,0,0,1-.671,1.376,4.347,4.347,0,0,1-1.194,1.08,6,6,0,0,1-1.728.7,9.5,9.5,0,0,1-2.3.251l-3.025-.023v-2.57h2.456a6.837,6.837,0,0,0,2.365-.318,2.938,2.938,0,0,0,1.194-.762,1.734,1.734,0,0,0,.432-.9,6.267,6.267,0,0,0,.057-.7v-1.5l.5-.659a3.666,3.666,0,0,1-.978,1.455,4.3,4.3,0,0,1-1.16.728,4.711,4.711,0,0,1-1.365.3,5.2,5.2,0,0,1-2.5-.636,4.79,4.79,0,0,1-.921-.694,4.318,4.318,0,0,1-.8-1.057,6.116,6.116,0,0,1-.568-1.524,8.787,8.787,0,0,1-.216-2.069,8.386,8.386,0,0,1,.227-2.069,6.05,6.05,0,0,1,.6-1.535,4.283,4.283,0,0,1,.864-1.081,5.429,5.429,0,0,1,.989-.7A5.961,5.961,0,0,1,747.188,80.74Zm2.615,6.072a9.206,9.206,0,0,0-.08-1.217,3.188,3.188,0,0,0-.341-1.091,1.953,1.953,0,0,0-.784-.785,2.869,2.869,0,0,0-1.41-.3,2.4,2.4,0,0,0-1.353.341,2.343,2.343,0,0,0-.784.853,3.452,3.452,0,0,0-.364,1.1,6.6,6.6,0,0,0,0,2.183,3.431,3.431,0,0,0,.364,1.1,2.329,2.329,0,0,0,.784.853,2.464,2.464,0,0,0,3.5-.853,3.272,3.272,0,0,0,.375-1.1A7.087,7.087,0,0,0,749.8,86.812Z" transform="translate(-654.425 -35.295)" fill="#199dd9"/>
    <path id="Path_53" data-name="Path 53" d="M876.52,43.18q0-.5.012-.75a.5.5,0,0,1,.136-.364.647.647,0,0,1,.409-.125q.285-.011.83-.011c.364,0,.64,0,.83.011a.641.641,0,0,1,.41.125.5.5,0,0,1,.136.364q.011.251.011.75t-.011.75a.509.509,0,0,1-.136.364.636.636,0,0,1-.41.125c-.19.008-.466.012-.83.012s-.641,0-.83-.012a.636.636,0,0,1-.409-.125.5.5,0,0,1-.136-.364C876.524,43.764,876.52,43.514,876.52,43.18Zm2.774,2.57V57.279H876.52V45.75Z" transform="translate(-776.913 -0.009)" fill="#199dd9"/>
    <path id="Path_54" data-name="Path 54" d="M926.875,55.729V60.8a1.294,1.294,0,0,0,.251.5,1.651,1.651,0,0,0,.443.341,1.5,1.5,0,0,0,.739.159h1.729v2.751h-2.775a3.922,3.922,0,0,1-1.592-.5,3.561,3.561,0,0,1-1.081-1.012,3.092,3.092,0,0,1-.489-1.853V49.93h2.774v3.094h2.615v2.706Z" transform="translate(-820.173 -7.283)" fill="#199dd9"/>
    <path id="Path_55" data-name="Path 55" d="M1014.209,92.583H1011.5V90.991l.5-.659a3.666,3.666,0,0,1-.978,1.455,4.3,4.3,0,0,1-1.16.728,4.711,4.711,0,0,1-1.365.3,5.2,5.2,0,0,1-2.5-.636,4.788,4.788,0,0,1-.921-.694,4.339,4.339,0,0,1-.8-1.057,6.116,6.116,0,0,1-.568-1.524,8.793,8.793,0,0,1-.216-2.069,8.386,8.386,0,0,1,.227-2.069,6.05,6.05,0,0,1,.6-1.535,4.279,4.279,0,0,1,.864-1.08,5.424,5.424,0,0,1,.989-.7,6.007,6.007,0,0,1,2.706-.682,6.293,6.293,0,0,1,2.433.42,4.224,4.224,0,0,1,1.649,1.2,4.905,4.905,0,0,1,.943,1.91,10.1,10.1,0,0,1,.3,2.559v5.728Zm-5.321-9.142a2.4,2.4,0,0,0-1.353.341,2.343,2.343,0,0,0-.784.853,3.452,3.452,0,0,0-.364,1.1,6.6,6.6,0,0,0,0,2.183,3.428,3.428,0,0,0,.364,1.1,2.329,2.329,0,0,0,.784.853,2.464,2.464,0,0,0,3.5-.853,3.294,3.294,0,0,0,.375-1.1,7.307,7.307,0,0,0,.091-1.091,9.2,9.2,0,0,0-.08-1.217,3.166,3.166,0,0,0-.341-1.091,1.953,1.953,0,0,0-.784-.784A2.859,2.859,0,0,0,1008.889,83.441Z" transform="translate(-892.363 -35.313)" fill="#199dd9"/>
    <path id="Path_56" data-name="Path 56" d="M1140.754,41.92V57.269h-2.774V41.92Z" transform="translate(-1014.633)" fill="#199dd9"/>
  </g>
</svg>
