<svg xmlns="http://www.w3.org/2000/svg" width="25.625" height="25.613" viewBox="0 0 25.625 25.613">
  <path id="key-outline" d="M57.66,54.768a6.414,6.414,0,0,0,.233,2.124c-2.448,2.874-8.911,10.467-9.513,11.046A1.145,1.145,0,0,0,48,68.79,1.9,1.9,0,0,0,48.545,70c.375.392,1.976,1.874,2.272,1.59.875-.852,1.051-1.079,1.408-1.431.54-.528-.057-1.607.131-2.044a.829.829,0,0,1,.71-.591,10.612,10.612,0,0,1,1.346.17,1.421,1.421,0,0,0,1.079-.522,1.2,1.2,0,0,0,.494-.886c.011-.511-.727-1.187-.176-1.726s1.346.352,1.931.284a2.144,2.144,0,0,0,1.369-1.227c.074-.346-.664-1.238-.551-1.744a1.185,1.185,0,0,1,.647-.625c.261-.057,1.42.392,1.681.335a3.993,3.993,0,0,0,.988-.591,6.4,6.4,0,0,0,2.709.534,6.769,6.769,0,1,0,0-13.526A6.805,6.805,0,0,0,57.66,54.768Zm10.33-1.316a1.817,1.817,0,1,1-1.817-1.817A1.817,1.817,0,0,1,67.991,53.452Z" transform="translate(-47 -47)" fill="none" stroke="#707070" stroke-linejoin="round" stroke-width="2"/>
</svg>
