<svg xmlns="http://www.w3.org/2000/svg" width="12" height="12" viewBox="0 0 12 12">
  <g id="Group_274" data-name="Group 274" transform="translate(-338.645 -327.645)">
    <rect id="Rectangle_204" data-name="Rectangle 204" width="12" height="12" rx="2" transform="translate(338.645 327.645)" fill="#1f88d5"/>
    <path id="linkedin-in-brands" d="M1.677,6.5H.124V2.168H1.677ZM.9,1.577A.852.852,0,0,1,0,.79.846.846,0,0,1,.9.01a.846.846,0,0,1,.9.78A.852.852,0,0,1,.9,1.577ZM7.491,6.5H5.941V4.393c0-.5-.012-1.148-.808-1.148S4.2,3.791,4.2,4.356V6.5H2.65V2.168H4.14v.591h.022a1.691,1.691,0,0,1,1.47-.7c1.572,0,1.861.9,1.861,2.062V6.5Z" transform="translate(341.058 329.078)" fill="#fff"/>
  </g>
</svg>
