<svg id="Group_181" data-name="Group 181" xmlns="http://www.w3.org/2000/svg" xmlns:xlink="http://www.w3.org/1999/xlink" width="20.78" height="26.09" viewBox="0 0 20.78 26.09">
  <defs>
    <clipPath id="clip-path">
      <rect id="Rectangle_163" data-name="Rectangle 163" width="20.78" height="26.09" fill="#1f88d5"/>
    </clipPath>
  </defs>
  <g id="Group_174" data-name="Group 174" clip-path="url(#clip-path)">
    <path id="Path_1583" data-name="Path 1583" d="M.467,11.035a2.858,2.858,0,0,1,2.554-1.45c3.5-.011,6.993,0,10.489,0h.327c.006-.082.015-.154.015-.227,0-1.3,0-2.6,0-3.9a3.4,3.4,0,0,0-2.862-3.362A3.445,3.445,0,0,0,7.119,4.354a4.462,4.462,0,0,0-.183,1.173c-.03.592-.008,1.186-.008,1.8H4.894c.014-1.472-.173-2.959.571-4.332A5.483,5.483,0,0,1,9.592.055,1.613,1.613,0,0,0,9.779,0H11a10.921,10.921,0,0,1,1.385.372,5.3,5.3,0,0,1,3.45,4.3,5.713,5.713,0,0,1,.052.862c.005,1.248,0,2.5,0,3.745v.3c.591,0,1.158.018,1.724,0a3.075,3.075,0,0,1,3.146,2.67,2.97,2.97,0,0,1,.018.406q0,5.184,0,10.368a3.038,3.038,0,0,1-3.066,3.067q-7.307,0-14.615,0A3.034,3.034,0,0,1,.046,23.558.691.691,0,0,0,0,23.441V12.23a7.167,7.167,0,0,1,.467-1.2M17.505,24.053c.851,0,1.237-.39,1.237-1.249q0-4.967,0-9.934c0-.86-.386-1.25-1.237-1.25H3.249a1.223,1.223,0,0,0-.834.244,1.123,1.123,0,0,0-.379.93q0,4.126,0,8.253,0,.879,0,1.758c0,.87.384,1.25,1.262,1.25H17.505" transform="translate(0 -0.001)" fill="#1f88d5"/>
    <path id="Path_1584" data-name="Path 1584" d="M169.473,290.144c0-.153.008-.306,0-.458a1.317,1.317,0,0,1,.4-1.136,1.822,1.822,0,0,0-.172-2.632,1.89,1.89,0,1,0-2.418,2.9.459.459,0,0,1,.151.307c.014.661,0,1.323.008,1.985a1.019,1.019,0,1,0,2.037,0c0-.322,0-.645,0-.967" transform="translate(-158.064 -270.878)" fill="#1f88d5"/>
  </g>
</svg>
