<svg xmlns="http://www.w3.org/2000/svg" viewBox="0 0 1213.97 654.4"><defs><style>.cls-1{isolation:isolate;}.cls-2{fill:#d5d3e0;}.cls-3{fill:#f0b297;}.cls-4{fill:#d1785e;}.cls-5{fill:#f2f2f2;}.cls-21,.cls-5{mix-blend-mode:soft-light;}.cls-6{fill:#1a1a1a;}.cls-7{fill:#a33939;}.cls-8{fill:#29253b;}.cls-9{fill:#232033;}.cls-10{fill:#b3b3b3;}.cls-11{fill:#cfd7e9;}.cls-12{fill:#869ac9;}.cls-13{fill:#e7ebf4;}.cls-14{fill:#2c1e1c;}.cls-15{fill:#f2ae83;}.cls-16{fill:#a3400f;}.cls-17{fill:#f8a588;}.cls-18{fill:#92372b;}.cls-19{fill:#f8c8b8;}.cls-20{fill:#c2713e;}.cls-21,.cls-23{fill:#fff;}.cls-22{fill:#d67344;}.cls-24{fill:#856861;}.cls-25{fill:#b28b81;}.cls-26{fill:#84422e;}.cls-27{fill:#ccc;}.cls-28{fill:#5f2c29;}.cls-29{fill:#f0b59c;}.cls-30{fill:#5d2a46;}.cls-31{fill:#7a3440;}.cls-32{fill:#c69c6d;}.cls-33{fill:#7f3b37;}.cls-34{fill:#ffa58f;}.cls-35{fill:#b3624b;}.cls-36{fill:#d16343;}.cls-37{fill:#c2502f;}.cls-38{fill:#693529;}</style></defs><g class="cls-1"><g id="teamwork_business_character" data-name="teamwork business character"><g id="teamwork_business_character-2" data-name="teamwork business character"><path class="cls-2" d="M1291,755.57s-271.75,17.5-607,17.5-607,.27-607-17.5S348.8,723.4,684,723.4,1291,755.57,1291,755.57Z" transform="translate(-77.04 -118.67)"/><g id="character"><rect class="cls-3" x="579.95" y="90.92" width="38.59" height="45.9"/><path class="cls-4" d="M695.58,209.59v14.12c-9.6,7.76-22.57,13-38.59,14.11V209.59Z" transform="translate(-77.04 -118.67)"/><path class="cls-3" d="M696.64,203.4a7.4,7.4,0,0,0,5.19-.67,16.87,16.87,0,0,0,4.19-3.18c3.34-3.21,6.44-7.26,6.2-11.8a5.66,5.66,0,0,0-1.78-4.09,5.41,5.41,0,0,0-5.31-.67,9,9,0,0,0-4.13,3.56Z" transform="translate(-77.04 -118.67)"/><path class="cls-3" d="M654.93,203.4a7.39,7.39,0,0,1-5.19-.67,17.11,17.11,0,0,1-4.2-3.18c-3.33-3.21-6.43-7.26-6.2-11.8a5.7,5.7,0,0,1,1.78-4.09,5.43,5.43,0,0,1,5.32-.67,9.05,9.05,0,0,1,4.13,3.56Z" transform="translate(-77.04 -118.67)"/><path class="cls-3" d="M703.46,205.59c1.32-14.19,5-22.47,7.31-30.67,1.63-6.15,3.29-16.64-3.86-25.9-7.06-9.61-24.78-15.08-41-10.48s-25.4,14.16-23.42,25c1,6.51,1.93,15.52,3,22.24.9,5.58-.8,11.18,1.27,16.62,3.84,9.36,18.7,25.78,30.41,25.78C686.76,228.21,702.55,211.79,703.46,205.59Z" transform="translate(-77.04 -118.67)"/><path class="cls-5" d="M679.24,192a4,4,0,0,1-.35.79,1.47,1.47,0,0,1-.53.65c-.24.13-.6,0-.88-.37a1.76,1.76,0,0,1-.28-.78,2.44,2.44,0,0,1,.11-1,2.24,2.24,0,0,1,.53-.84,1.71,1.71,0,0,1,.71-.42.71.71,0,0,1,.91.28,1.54,1.54,0,0,1,0,.85A4.25,4.25,0,0,1,679.24,192Z" transform="translate(-77.04 -118.67)"/><path class="cls-4" d="M676.27,193c0-.2-.08-.37-.11-.53s-.06-.29-.08-.43a3.54,3.54,0,0,1,0-.48c0-.18,0-.38.05-.59a6.3,6.3,0,0,0,.1-1.19,1.17,1.17,0,0,0-.32-.83.45.45,0,0,0-.62,0,2.58,2.58,0,0,0-.7.89,4.51,4.51,0,0,0-.57,1.74,3.63,3.63,0,0,0,.08,1.09,4.93,4.93,0,0,0,.36,1,5.91,5.91,0,0,0,.51.86,7.19,7.19,0,0,0,.58.7,8.5,8.5,0,0,0,1,1c.6.47,1,.64,1.17.32s.17-.68-.16-1.22c-.16-.27-.4-.58-.66-1a6,6,0,0,1-.38-.62A3.08,3.08,0,0,1,676.27,193Z" transform="translate(-77.04 -118.67)"/><path class="cls-6" d="M686.24,178.44a13.53,13.53,0,0,1,4.83-.23,13.93,13.93,0,0,1,4.65,1.46c1.44.77.8,2.24-.64,1.89a38.28,38.28,0,0,0-4.3-.82,36.8,36.8,0,0,0-4.35-.31C685,180.39,684.66,178.81,686.24,178.44Z" transform="translate(-77.04 -118.67)"/><path class="cls-6" d="M666.7,178.31a13.9,13.9,0,0,0-9.45,1.44c-1.42.8-.76,2.25.68,1.87a38.41,38.41,0,0,1,4.28-.91,38.88,38.88,0,0,1,4.34-.41C668,180.23,668.29,178.65,666.7,178.31Z" transform="translate(-77.04 -118.67)"/><path class="cls-6" d="M665.19,190.4l0-3.77a3.3,3.3,0,0,0-3.32-3.28h0a3.31,3.31,0,0,0-3.28,3.31l0,3.78C658.6,192.25,665.2,192.22,665.19,190.4Z" transform="translate(-77.04 -118.67)"/><path class="cls-6" d="M687.88,190.4l0-3.77a3.31,3.31,0,0,1,3.32-3.28h0a3.32,3.32,0,0,1,3.29,3.31l0,3.78C694.47,192.25,687.87,192.22,687.88,190.4Z" transform="translate(-77.04 -118.67)"/><path class="cls-7" d="M669.45,204.8a17.2,17.2,0,0,0,17.11-2.44c.73-.58-.31-1.61-1-1a15.81,15.81,0,0,1-15.69,2.07.72.72,0,0,0-.89.51.73.73,0,0,0,.51.89Z" transform="translate(-77.04 -118.67)"/><path class="cls-8" d="M749.21,258.36c4.21,3.29,11.47,10.05,11.9,13.68s14.22,100,15.08,106.2c1.73,12.51-38.15-.33-39.65-8.49s-18.17-67.55-18.17-67.55L734.46,255S744.76,254.9,749.21,258.36Z" transform="translate(-77.04 -118.67)"/><path class="cls-9" d="M727.43,400.07c10.11,62.09,1.36,176.52-1.26,193.36-2.65,17-37.82-11.09-39-28.26-.4-6.18,1.22-12.32,1.23-18.5,0-5.46-2.38-10.71-2.47-16.2-.79-47.86-10.22-54.58-17.06-84.1l-11.08-46.3Z" transform="translate(-77.04 -118.67)"/><path class="cls-10" d="M623.47,757.37c7.48-3.57,14.08-7.35,15.93-11.19l.83-34c.29-2.53.84-5.62-1.63-6l-11.24-1.55a4.39,4.39,0,0,0-4.84,3.26c-1.25,4.69-5.65,20.19-5.65,20.19l-21.93,21.63c-2.23,2.2-4.6,4.44-4.82,7.63C590.12,757.48,623.47,757.37,623.47,757.37Z" transform="translate(-77.04 -118.67)"/><path class="cls-6" d="M640,721.16c-.71-.11,1.83,18.17-6.5,19.53a11,11,0,0,1-1.62.14l-.66-7.72s-11.83-5.47-20.7-4.78l-2,4.21-25.22,13.88c-2.08,2.06-5.23,5.17-5.53,9.46a3.41,3.41,0,0,0,.72,2h63.73S640.72,721.26,640,721.16Z" transform="translate(-77.04 -118.67)"/><path class="cls-10" d="M750.62,757.25s-1.52-5.38-3.22-7.6l-16.66-21.83s-2.1-14.12-2.66-18.38a4,4,0,0,0-3.85-3.5l-9.94-.17a4,4,0,0,0-4,4l-1.13,30.75a159.06,159.06,0,0,0,6.74,16.64Z" transform="translate(-77.04 -118.67)"/><path class="cls-6" d="M749.06,748.32l-11.27-14.77-1.56-4.68c-7.63-1.8-18.54,1.36-18.54,1.36l-1.43,6.64a9.71,9.71,0,0,1-1.39-.34c-7.09-2.31-4.82-14.47-5.45-14.47s-8.06,35.84-8.06,35.84h51.4l.06-.59C753,753.53,750.64,750.39,749.06,748.32Z" transform="translate(-77.04 -118.67)"/><path class="cls-9" d="M626.21,396.53c-10.33,62.09-5.22,176.52-2.54,193.36,2.71,17,38.65-11.09,39.81-28.26.41-6.18-1.24-12.32-1.26-18.5,0-5.46,1.26-10.86,2.53-16.2,7-29.52,21.76-59,28.75-88.55V396.53Z" transform="translate(-77.04 -118.67)"/><path class="cls-9" d="M617.22,716.86c-.44-24.45,0-48.91.39-73.36l.63-36.86c.29-17.31,1.3-34.84,7.68-51.17,1.9-4.88,32.53-17.45,36.3-12.34,0,0,2.55,24.08,4.15,35,1,7.18-.37,14.45-1.8,21.57-7.73,38.73-11.77,78.44-19.5,117.17Z" transform="translate(-77.04 -118.67)"/><path class="cls-9" d="M733.1,718.83c.43-24.45-.59-47.34-1-71.79q-.32-18.43-.62-36.86c-.28-17.31-1.27-34.84-7.51-51.17-1.86-4.87-31.83-17.45-35.53-12.34,0,0-2.5,24.09-4.06,35-1,7.18.37,14.45,1.76,21.57,7.57,38.73,11.17,77,18.74,115.71Z" transform="translate(-77.04 -118.67)"/><path class="cls-11" d="M649.28,422.36h-2.22c-5.74-.07-22.84-5-25.32-8.9,6.37-32.93,2.49-52.77-1.26-72-2.11-10.8-4.51-34.2-4.51-34.2-2.3-4.32-5-36.62-3-49.95l42.32-17.79,19.6,5.87h4l19.6-5.87,42.32,17.79c2,13.33-.69,45.63-3,49.95,0,0-3,24-5.67,34.86-4.57,18.44-9.29,37.51-2.88,70.11l0,.15c-1.28,1.92-10.79,6.85-15.44,7.58C698.9,422.33,651.3,422.36,649.28,422.36Z" transform="translate(-77.04 -118.67)"/><polygon class="cls-12" points="607.27 144.83 614.67 137.66 610.27 125.64 599.83 124.72 589.38 125.64 584.99 137.66 592.38 144.83 580.79 257.51 599.83 279.76 618.86 257.51 607.27 144.83"/><polygon class="cls-13" points="620.17 111.17 599.83 124.72 607.27 126.24 613.24 157.14 633.1 125.89 620.17 111.17"/><polygon class="cls-13" points="579.48 111.17 599.83 124.72 592.38 126.24 586.41 157.14 566.56 125.89 579.48 111.17"/><path class="cls-8" d="M604.77,257.82c-4.21,3.28-11.47,10-11.9,13.67s-9.71,80.28-12.11,101.33c-1.5,20.28,36.89,20.51,39.25,14.91s15.6-86.08,15.6-86.08l-16.09-47.17S609.21,254.35,604.77,257.82Z" transform="translate(-77.04 -118.67)"/><path class="cls-8" d="M745.79,256.63l-38.85-15.71L695,333l-1.51,114.5c14.91,10.16,42.39,6.66,45.41,2.84S737,420.91,736.36,416c-6.75-52.12,3.19-107.76,3.19-107.76S748.09,269.26,745.79,256.63Z" transform="translate(-77.04 -118.67)"/><path class="cls-8" d="M660.23,332.25l-13.44-91.33L609,255.82c-2.3,12.63,5.19,52.41,5.19,52.41S627.34,363,618.91,414.3c-.37,4.48-5.6,32.48-3.43,35.59s34.64,10.28,47.85,1.53Z" transform="translate(-77.04 -118.67)"/><path class="cls-14" d="M701.24,171.81a11.78,11.78,0,0,1-4.14-1c-3.42-1.56-7.17-2.6-9.05-5.58-2.53-4-.08-9.57-3.71-10.67-5.77-1.75-17.23,3.63-22.34.68a8,8,0,0,1-2.66-2.45,23.74,23.74,0,0,1-4.79,4.64c-3.15,2.46-6.62,5.3-6.83,9-.13,2.3,1,4.47,1.66,6.7,1.2,4.23-2.19,16.89-2.19,16.89a64.48,64.48,0,0,1-5.7-10.87c-1-3.15-.54-6.56-1.32-9.78-.84-3.45-3.12-6.54-3.82-10a12.22,12.22,0,0,1,3.77-11.14,24.47,24.47,0,0,1-.09-5.8,15.1,15.1,0,0,1,6.05-10.8,12.53,12.53,0,0,1,11.6-1.39c6.38-5.51,13.89-10.51,22.47-9.65,7.72.78,13.75,6.15,20.86,9,4.16,1.65,8.7,2.4,12.91,3.95s8.28,4.16,9.7,8a7.34,7.34,0,0,1-.57,6,6.25,6.25,0,0,1,2.48,3.48c.74,3-.63,6-2.24,8.74s-8.59,6.3-9.14,9.31c-.62,3.41-6.65,21-6.65,21l-4.11-18.29A10.27,10.27,0,0,1,701.24,171.81Z" transform="translate(-77.04 -118.67)"/><path class="cls-3" d="M765.48,384.86c.38-2.55-8.15-27.15-18.28-30.66s-106.47-13.53-106.47-13.53-5,8.36-3.27,14.85c0,0,71.15,24.05,80.56,26.94S765.1,387.41,765.48,384.86Z" transform="translate(-77.04 -118.67)"/><path class="cls-3" d="M644.86,342s-19.41-7.8-20.65-8.45v28.22l17.86-6Z" transform="translate(-77.04 -118.67)"/><path class="cls-8" d="M656,336.87l-6.17,28.55s64.32,19.91,90.73,25.44,37.56-4.4,35.31-13.42-9.87-22.38-26.23-26.39S656,336.87,656,336.87Z" transform="translate(-77.04 -118.67)"/><path class="cls-3" d="M594.48,385.9c.09-2.58,8.36-31.69,19-33.26S732.18,367,732.18,367s-4.82,14.86-8.77,16.47c0,0-54.2,2.05-73.48,4.42C640.16,389.13,594.38,388.47,594.48,385.9Z" transform="translate(-77.04 -118.67)"/><path class="cls-3" d="M715.18,381.72c5.86,3.19,12.56,4,18.89,5.79,2.58.73,5.66,1.32,7.48-.47a7.59,7.59,0,0,0,1.66-4c.94-4.65-3.09-11.32-2.15-17.4.67-4.27.91-13.35-1.29-13.09-5.76.67-15.18,10-21.24,13a5.11,5.11,0,0,0-2.11,2C714.42,370.87,710.21,379,715.18,381.72Z" transform="translate(-77.04 -118.67)"/><path class="cls-3" d="M739.63,369.44a55.63,55.63,0,0,0,15.13-1.28c3-.71,6.37-3.34,15.5-8.81,3.39-2-1.22-4.54-4.83-2.89-5.4,2.47-4.37,2.3-11,4.46-5.41,1.75-10.43-.5-15.77.3C735,361.76,736,369.35,739.63,369.44Z" transform="translate(-77.04 -118.67)"/><path class="cls-3" d="M740.07,376.33c8.61-.6,11.58.32,17.07-1.1,4.18-1.09,6.22-2.81,12.91-5.36,4.6-1.74,1.78-6.8-2.81-5.06-6.85,2.61-9.26,3.6-9.26,3.6-7,2-14.32.25-21.44,1.34C731.74,370.48,735.21,376.67,740.07,376.33Z" transform="translate(-77.04 -118.67)"/><path class="cls-3" d="M739.57,381.81c7.32,1.4,14.28,2,17.76,1.41,1.61-.26,8.37-3,10.24-3.65a16.67,16.67,0,0,0,5.14-3.1c1.26-1.44-.38-3.84-2.37-3.38-2.32.55-9.8,3.23-14.86,4.09-7.17,1.21-11.36-2.65-18.53-2.29C732.13,375.13,734.78,380.9,739.57,381.81Z" transform="translate(-77.04 -118.67)"/><path class="cls-3" d="M737.07,388.21a57.93,57.93,0,0,0,11.58.69c1.32,0,6.09-.8,9.05-.9,1.6-.05,6-.88,6-.88a1.82,1.82,0,0,0-1.43-3.05c-1.91.09-5.48.36-9.6.26-5.86-.14-11.3-2.87-17.05-3.79C731.79,379.92,733.19,387.59,737.07,388.21Z" transform="translate(-77.04 -118.67)"/><path class="cls-3" d="M737.76,367.65c2.65-5.26,4.2-8.86,6.68-9.77a55.31,55.31,0,0,0,7.86-3.32,7.88,7.88,0,0,0,3.36-5.18c.34-3.84-6.7-1.27-12-.29a14.8,14.8,0,0,0-8.23,4.06c-2.28,2.19-10.07,10-10.07,10Z" transform="translate(-77.04 -118.67)"/><path class="cls-8" d="M710.14,388.51l6.19-29.5s-95.86-10.49-104-11.5-21.74,9.7-23.47,20.5-.35,19.56,10.77,22S710.14,388.51,710.14,388.51Z" transform="translate(-77.04 -118.67)"/></g><g id="character-2" data-name="character"><path class="cls-15" d="M363.11,426s-4,2.78-8.92-.93c0,0,.3-70.61,1.78-77s11.51-13.76,16.19-9.57c4.11,3.68,7.39,7.94,7,17.22S363.11,426,363.11,426Z" transform="translate(-77.04 -118.67)"/><path class="cls-15" d="M368.27,422.91s-2,13.35-1.59,15.24,4.85,15.17,3.83,17.4-4.1.43-5.33-3.48-4.09-13.6-3.93-15.27-.82-8.09-.6-9.92S365.46,416.7,368.27,422.91Z" transform="translate(-77.04 -118.67)"/><path class="cls-15" d="M362,428.13c2,2.27,1,10.75,1.43,11.43s5.73,9.42,7.19,12.55-1.74,3.53-4.56.27a67.43,67.43,0,0,1-7.11-10.88c-.49-1.22-4.23-11.05-4.7-13.64S359.15,424.87,362,428.13Z" transform="translate(-77.04 -118.67)"/><path class="cls-15" d="M358,427.28c2,2.27,1.77,11,2.23,11.65s7.23,7.28,8.69,10.4-1.74,3.53-4.55.27-9.2-8.33-9.7-9.55-2.36-10.38-2.84-13S355.15,424,358,427.28Z" transform="translate(-77.04 -118.67)"/><path class="cls-15" d="M369.71,423.21c.07,1.25-1,3.87-2.43,6.49-.94-.18-1.87-.34-2.8-.49-3.46-.52-6.91-.82-10.37-1.42q-1.16-.19-2.31-.45c-1-6.76.77-22.36,10-18.74C361.84,408.6,369.56,420.38,369.71,423.21Z" transform="translate(-77.04 -118.67)"/><path class="cls-15" d="M361.63,408.52s6.38,5.07,8.53,7.1c1.53,1.45,5.51,6.66,6,7.11s-1.51,9.59-2.12,10.8-2.76.83-4.31-2.2-.09-7.56-.09-7.56-8.27-4.41-10.2-7.83S361.63,408.52,361.63,408.52Z" transform="translate(-77.04 -118.67)"/><path class="cls-16" d="M457.53,170.92c6.84,16.19,7.5,49.49,11.26,84.42l-8-.21-5.44-79.42Z" transform="translate(-77.04 -118.67)"/><path class="cls-16" d="M386,173.26c-4.47,33.07-1.78,69.6-1.78,106.13a262.16,262.16,0,0,0,80.06,1.93,701.26,701.26,0,0,0-7.65-96.22s-8.43-25-29.39-23.85S386,173.26,386,173.26Z" transform="translate(-77.04 -118.67)"/><path class="cls-15" d="M504,353.86c2.18-2.48,5.66-10.55,5.46-15.14s-19.74-54.3-19.74-54.3-22.76,7.24-23.57,16.94c0,0,21.13,49,22.9,50.53C493,355.39,501.72,356.49,504,353.86Z" transform="translate(-77.04 -118.67)"/><path class="cls-8" d="M468.14,247.05c4.36,2,12.11,6.28,13.27,9.34s16.47,39.57,23.07,57.34c-5.4,10.67-17.21,12.32-28.88,15-8.93-12.89-12.73-26.23-17.74-41.08l-3.49-40.4S463.54,245,468.14,247.05Z" transform="translate(-77.04 -118.67)"/><path class="cls-15" d="M381.29,539c1.72-16.67,1.88-29,18.27-29.56,11.08-.38,17.57.8,18.31,11,0,0-7.74,53.14-11.2,82.38-3.13,26.41-7.53,76.08-9.79,111.56l-13.79-.61c-.71-11-8.66-88.13-10.5-107.85C368.26,559.36,379.68,554.57,381.29,539Z" transform="translate(-77.04 -118.67)"/><path class="cls-17" d="M415.77,533.83l19.84-110.22s-20.58-5.21-31-8.2c-33-9.51-17.27,104.1-17.23,113.77C387.45,544.11,411.15,547,415.77,533.83Z" transform="translate(-77.04 -118.67)"/><path class="cls-18" d="M402.73,712.39c-.09-7.52-4.88-9.09-4.88-9.09l-15.76,6.18s-26,52.48-22,53.66l28,.75c8.08.18,6-12.66,9.11-19.46l-.14,19.64h3.51l1.64-27.36a18,18,0,0,0,.53-2.39C403.12,731.09,402.85,722.45,402.73,712.39Z" transform="translate(-77.04 -118.67)"/><path class="cls-15" d="M384.66,701.81c-1.37,3.85-7.27,18.75-8.78,23.48l-5.29,16.42a4.67,4.67,0,0,0,4.29,6.11l12,.42,12.47-41.68c.15-1.23.24-7.56-2.41-9.13S386,698,384.66,701.81Z" transform="translate(-77.04 -118.67)"/><path class="cls-15" d="M433.91,535c0-4.95.93-15.83,17.32-16.39,11.08-.38,15.51,4,16.25,14.17,0,0,4.48,19.6,10.56,46.46,5.65,25-21,78.72-16.31,129l-13.79-.62c-.7-11-3-64.31-4.81-84C438.79,577.08,433.91,535,433.91,535Z" transform="translate(-77.04 -118.67)"/><path class="cls-18" d="M463.84,702.86s9.58,37,10.92,43.07-.84,14.31-2.95,16.6S449.3,764.21,445,763s2.89-57.88,2.89-57.88Z" transform="translate(-77.04 -118.67)"/><path class="cls-15" d="M447.68,696.8c0,4.16-.57,20.22-.4,25.33.21,6.13.77,24.06.77,24.06s15.71,1.1,17.64-.78c5.49-5.33,3-16.49,3-16.49l-4.66-27c-.29-1.32-2.45-8.14-5.67-9.85S447.68,692.64,447.68,696.8Z" transform="translate(-77.04 -118.67)"/><path class="cls-19" d="M434.84,541.74l-.93-112s21.17-1.65,31.93-2.85c34.15-3.79-3.79,100-3.38,109.65C463,548.57,437.16,555.54,434.84,541.74Z" transform="translate(-77.04 -118.67)"/><path class="cls-12" d="M472.33,291.77c-3.77-4-13.53-45.08-13.53-45.08H394s-9.75,41.12-13.52,45.08c-13.5,14.13,1.86,42,7,50.09,7.11,23.26,5.19,33.66,5.33,55.16a235.85,235.85,0,0,0,33.59,3.3A235.84,235.84,0,0,0,460,397c.13-21.5-1.78-31.9,5.33-55.16C470.47,333.79,485.83,305.9,472.33,291.77Z" transform="translate(-77.04 -118.67)"/><path class="cls-12" d="M482.62,547.19c4.36-39.14.15-113.18-1.32-126.54s-14.74-32.15-21.42-45.86c-25.34,0-40.76-2.12-65.13,4.83-6.49,11.13-17,22.95-21,37.23s-2,87.09-5.89,128.62C397.74,550.91,473.37,553,482.62,547.19Z" transform="translate(-77.04 -118.67)"/><rect class="cls-15" x="328.51" y="100.05" width="38.22" height="45.47"/><path class="cls-20" d="M443.77,218.72v14c-9.5,7.7-22.35,12.89-38.22,14v-28Z" transform="translate(-77.04 -118.67)"/><path class="cls-15" d="M406.38,250.77s-5.23,7.37-5.29,11.72c0,3.13,21.61,31.47,25.23,31.47s25.59-30.8,26.12-32.8c.74-2.82-.87-5.84-3.19-7.62s-5.21-2.57-8-3.33Z" transform="translate(-77.04 -118.67)"/><path class="cls-8" d="M393.39,246.25s-10.87,42.81-13.44,45.5c-6.13,6.42-7.41,16-3.8,28.61a95.66,95.66,0,0,0,10.55,23s2.62,21.83-.89,33.79-15.65,38.51-15.65,38.51,34.49,1.09,35.39,1.23c1.28-51.35,3-122.11,0-172.59Z" transform="translate(-77.04 -118.67)"/><path class="cls-8" d="M473.75,291.75c-2.56-2.69-11.68-45.06-11.68-45.06l-18.3-3.22c-2.9,51.88-9.12,120.8,0,171.37,1.56-.23,37.28-1,38.85-1.25,0,0-13.83-30.13-16.46-37.07,0,0-4.78-14.73.84-33.2a95.18,95.18,0,0,0,10.56-23C481.16,307.79,479.88,298.17,473.75,291.75Z" transform="translate(-77.04 -118.67)"/><path class="cls-15" d="M365.23,361c-2.66-2-7.8-9.08-8.59-13.6s7.55-57.29,7.55-57.29,23.79,2.16,26.68,11.46c0,0-11.16,52.92-12.9,54.52S368,363,365.23,361Z" transform="translate(-77.04 -118.67)"/><path class="cls-8" d="M376.58,249.54c-4.2,2.28-9.84,8.15-10.3,11.38s-7.56,42.19-10.16,61c7.57,9.26,21.79,16.1,33.76,16.2,5.93-14.51,4.44-36.14,6.13-51.72l-.57-40.17S381.75,246.73,376.58,249.54Z" transform="translate(-77.04 -118.67)"/><path class="cls-15" d="M442.32,221a7.06,7.06,0,0,0,4.95-.63,16.28,16.28,0,0,0,4-3c3.19-3.06,6.15-6.93,5.92-11.26a5.33,5.33,0,0,0-1.7-3.9,5.16,5.16,0,0,0-5.07-.64,8.58,8.58,0,0,0-3.94,3.4Z" transform="translate(-77.04 -118.67)"/><path class="cls-15" d="M402.51,221a7.08,7.08,0,0,1-5-.63,16.66,16.66,0,0,1-4-3c-3.18-3.06-6.14-6.93-5.92-11.26a5.41,5.41,0,0,1,1.7-3.9,5.16,5.16,0,0,1,5.07-.64,8.6,8.6,0,0,1,4,3.4Z" transform="translate(-77.04 -118.67)"/><path class="cls-15" d="M448.83,220.39c1.26-13,4.79-20.55,7-28,1.56-5.62,3.14-15.22-3.68-23.68-6.74-8.79-23.65-13.79-39.13-9.58s-27.57,15.64-25.68,25.58c.95,6,5.17,11.5,6.21,17.64.86,5.1-.76,10.23,1.21,15.2,3.67,8.56,17.85,23.58,29,23.58C432.88,241.08,448,226.06,448.83,220.39Z" transform="translate(-77.04 -118.67)"/><path class="cls-6" d="M431.4,196.64a13.19,13.19,0,0,1,8.45,1,9.85,9.85,0,0,1,3.38,2.62c-1.38-.38-2.66-.76-4-1.05s-2.55-.52-3.83-.68a38.29,38.29,0,0,0-3.88-.26C430.25,198.26,430,197,431.4,196.64Z" transform="translate(-77.04 -118.67)"/><path class="cls-6" d="M412.66,196.4a13.32,13.32,0,0,0-4.32-.1,12.89,12.89,0,0,0-4.11,1.3,9.62,9.62,0,0,0-3.32,2.68c1.37-.41,2.64-.81,3.92-1.13a36.29,36.29,0,0,1,3.82-.75,35.4,35.4,0,0,1,3.88-.34C413.85,198,414.07,196.69,412.66,196.4Z" transform="translate(-77.04 -118.67)"/><path class="cls-21" d="M425.3,212.4a4.6,4.6,0,0,1-.33.75,1.47,1.47,0,0,1-.51.62c-.23.12-.57,0-.84-.36a1.71,1.71,0,0,1-.27-.74,2.25,2.25,0,0,1,.11-.95,2.08,2.08,0,0,1,.51-.79,1.51,1.51,0,0,1,.67-.41c.45-.12.77,0,.87.27a1.4,1.4,0,0,1,0,.81A4.72,4.72,0,0,1,425.3,212.4Z" transform="translate(-77.04 -118.67)"/><path class="cls-22" d="M422.46,213.32c0-.19-.08-.35-.1-.5a3.52,3.52,0,0,1-.07-.41,2.26,2.26,0,0,1,0-.46,3.64,3.64,0,0,1,.05-.56,6.7,6.7,0,0,0,.09-1.14,1.12,1.12,0,0,0-.31-.79.43.43,0,0,0-.59,0,2.49,2.49,0,0,0-.67.84,4.26,4.26,0,0,0-.54,1.67,3.65,3.65,0,0,0,.07,1,4.68,4.68,0,0,0,.35,1,5.18,5.18,0,0,0,.49.83,7.68,7.68,0,0,0,.55.66,8.7,8.7,0,0,0,1,.92c.58.44.93.61,1.12.3s.16-.65-.16-1.16c-.15-.26-.37-.56-.62-.92a6.59,6.59,0,0,1-.36-.59A2.85,2.85,0,0,1,422.46,213.32Z" transform="translate(-77.04 -118.67)"/><path class="cls-6" d="M431.07,206.62c0-1.9,2.7-4.77,4.83-4.77h0a3.25,3.25,0,0,1,3.22,3.26v1.54C439.1,208.43,431.07,208.52,431.07,206.62Z" transform="translate(-77.04 -118.67)"/><path class="cls-6" d="M435.15,202a6.09,6.09,0,0,1,4.35.92c2,1.4,3.44.63,3.44.63a3.47,3.47,0,0,1-3.71.65c-2-1-3-.54-3-.54Z" transform="translate(-77.04 -118.67)"/><path class="cls-6" d="M413.11,206.62c0-1.9-2.7-4.77-4.83-4.77h0a3.25,3.25,0,0,0-3.22,3.26v1.54C405.08,208.43,413.11,208.52,413.11,206.62Z" transform="translate(-77.04 -118.67)"/><path class="cls-6" d="M409,202a6.09,6.09,0,0,0-4.35.92c-2,1.4-3.44.63-3.44.63a3.47,3.47,0,0,0,3.71.65c2-1,3-.54,3-.54Z" transform="translate(-77.04 -118.67)"/><path class="cls-16" d="M451.82,183.71a4,4,0,0,0-.22-1.42C450.71,181.2,450,195,450,195c-14.6-1.45-52.25.65-52.25.65l-1.62-13.54c-2.53,3-1.1,32.51-1.1,32.51-3.73-10.17-8.61-28.07-9.3-38.54a10.4,10.4,0,0,1,8.16-10.66c2.29-9.72,10.46-13.21,20.34-16.09,11.52-3.36,24.59.25,33.44,8.21s13.67,16.82,11.39,28.36c-2.37,12.05-1.41,21.76-7.85,31.68C451.25,217.6,452.25,190.34,451.82,183.71Z" transform="translate(-77.04 -118.67)"/><path class="cls-23" d="M426.48,220.22a19.28,19.28,0,0,0,7.06-2.66c-1.85,3.44-3.74,6.74-9,7.31s-7.94-2.15-9-5.91A19.67,19.67,0,0,0,426.48,220.22Z" transform="translate(-77.04 -118.67)"/><path class="cls-24" d="M424.53,281.46l-6.25-4.88-62.94,55.34,12.13-1S393.19,327.66,424.53,281.46Z" transform="translate(-77.04 -118.67)"/><polygon class="cls-24" points="372.73 274.87 359.61 274.81 278.3 213.25 291.6 211.85 372.73 274.87"/><polygon class="cls-23" points="321.89 237.9 291.8 214.52 283.48 215.4 316.49 240.4 321.89 237.9"/><path class="cls-25" d="M367.84,330.6s28.87-32.45,57.32-54.08L494,354l-44.22,39.54Z" transform="translate(-77.04 -118.67)"/><path class="cls-15" d="M407.19,354.08c-4.61,1.43-1.57,4.6-4.41,21.93-.11.66,16.47,2.82,24.56-3.77C436.24,365,426.62,348.06,407.19,354.08Z" transform="translate(-77.04 -118.67)"/><path class="cls-15" d="M407.66,363.1l-11.78,6.13c-1.95,1-4.38.57-5.4-1h0c-1-1.56-.27-3.66,1.69-4.68l14.54-7.21C408.66,355.33,409.61,362.09,407.66,363.1Z" transform="translate(-77.04 -118.67)"/><path class="cls-20" d="M390,366.71a2.62,2.62,0,0,0,.25.78,3.6,3.6,0,0,0,4.17,1.63c2.32-.6,5-2.39,7.84-3.78,2.49-1.24,4.78-2.7,7.19-4a4.07,4.07,0,0,1-1.81,1.79l-11.78,6.13c-1.95,1-4.38.57-5.4-1h0A2.77,2.77,0,0,1,390,366.71Z" transform="translate(-77.04 -118.67)"/><path class="cls-15" d="M411,368.72l-11.78,6.13c-1.95,1-4.38.57-5.4-1h0c-1-1.56-.27-3.67,1.69-4.68l11.77-6.13c1.95-1,4.38-.57,5.41,1h0C413.68,365.6,412.92,367.7,411,368.72Z" transform="translate(-77.04 -118.67)"/><path class="cls-20" d="M393.33,372.33a2.62,2.62,0,0,0,.25.78,3.46,3.46,0,0,0,4.16,1.63,85.57,85.57,0,0,0,7.8-3.85c2.49-1.24,6.27-2.61,5.43-2.17l-11.78,6.13c-1.95,1-4.38.57-5.4-1h0A2.79,2.79,0,0,1,393.33,372.33Z" transform="translate(-77.04 -118.67)"/><path class="cls-15" d="M415.32,373.41l-11.84,5.68c-2,1-4.38.58-5.38-.82h0c-1-1.39-.22-3.3,1.74-4.25l11.84-5.68c2-.94,4.38-.57,5.38.82h0C418.06,370.55,417.28,372.47,415.32,373.41Z" transform="translate(-77.04 -118.67)"/><path class="cls-20" d="M397.67,376.9a1.92,1.92,0,0,0,.23.7A3.69,3.69,0,0,0,402,379c2.32-.57,5.11-2.53,7.94-3.83,2.5-1.15,6.18-2.18,5.34-1.77l-11.84,5.68c-2,1-4.38.58-5.38-.82h0A2.19,2.19,0,0,1,397.67,376.9Z" transform="translate(-77.04 -118.67)"/><path class="cls-15" d="M418.16,377.37,409,382.25a3.24,3.24,0,0,1-4.23-.85h0a2.68,2.68,0,0,1,1.28-3.78l9.16-4.88c1.52-.81,10.47-1.89,11.28-.62C426.49,372.12,427.24,372.94,418.16,377.37Z" transform="translate(-77.04 -118.67)"/><path class="cls-15" d="M422.11,355.29s-3.89-4.21-6.47-5.34-12.78-1-16.78-1.63-2.66,4.82,1.75,6.08,5.1,6.09,5.1,6.09Z" transform="translate(-77.04 -118.67)"/><path class="cls-15" d="M503.39,335.91c-1-1.92-16.86-5.39-25-4.38s-61.84,24.22-61.84,24.22S415,366,419.27,370.2c0,0,74.19-9.15,80.57-13C512.66,349.37,504.35,337.82,503.39,335.91Z" transform="translate(-77.04 -118.67)"/></g><g id="character-3" data-name="character"><rect class="cls-4" x="1014.22" y="91.19" width="38.59" height="45.9"/><path class="cls-26" d="M1129.85,209.87V224c-9.6,7.77-22.57,13-38.59,14.12V209.87Z" transform="translate(-77.04 -118.67)"/><path class="cls-8" d="M1176.31,254.41c4.75,2.45,13.13,7.76,14.22,11.25S1223,361.27,1225,367.24c4,12-34.56,14.46-37.55,6.72s-33.32-70.77-33.32-70.77l7.1-49.32S1171.3,251.83,1176.31,254.41Z" transform="translate(-77.04 -118.67)"/><path class="cls-9" d="M1161.7,400.35c10.12,62.09,1.36,176.52-1.26,193.36-2.65,17-37.82-11.1-39-28.27-.41-6.17,1.21-12.31,1.22-18.49,0-5.47-2.2-10.72-2.47-16.2-1.94-39.88-12.39-54.86-19.23-84.38l-8.91-46Z" transform="translate(-77.04 -118.67)"/><path class="cls-10" d="M1057.74,757.65c7.48-3.57,14.08-7.35,15.93-11.2l.83-34c.29-2.53.84-5.62-1.63-6l-11.24-1.55a4.37,4.37,0,0,0-4.84,3.26c-1.25,4.68-5.65,20.19-5.65,20.19L1029.21,750c-2.23,2.2-4.6,4.45-4.81,7.64C1024.39,757.75,1057.74,757.65,1057.74,757.65Z" transform="translate(-77.04 -118.67)"/><path class="cls-6" d="M1074.28,721.43c-.71-.11,1.83,18.18-6.5,19.54a12.35,12.35,0,0,1-1.62.13l-.65-7.72s-11.84-5.46-20.71-4.77l-2,4.21-25.22,13.88c-2.08,2-5.23,5.16-5.53,9.45a3.39,3.39,0,0,0,.72,2h63.73S1075,721.54,1074.28,721.43Z" transform="translate(-77.04 -118.67)"/><path class="cls-10" d="M1184.9,757.53s-1.53-5.38-3.23-7.6L1165,728.1s-2.1-14.13-2.66-18.38a4,4,0,0,0-3.85-3.5l-9.94-.17a4,4,0,0,0-4,4l-1.13,30.75a160.84,160.84,0,0,0,6.74,16.64Z" transform="translate(-77.04 -118.67)"/><path class="cls-6" d="M1183.33,748.59l-11.27-14.77-1.56-4.67c-7.63-1.81-18.53,1.35-18.53,1.35l-1.44,6.65a9.71,9.71,0,0,1-1.39-.34c-7.09-2.32-4.82-14.47-5.44-14.47s-8.07,35.83-8.07,35.83H1187l.06-.58C1187.31,753.81,1184.91,750.67,1183.33,748.59Z" transform="translate(-77.04 -118.67)"/><path class="cls-9" d="M1060.48,396.81c-10.33,62.09-5.22,176.51-2.54,193.35,2.71,17,38.65-11.09,39.81-28.26.41-6.17-1.24-12.31-1.25-18.5,0-5.46,1.26-10.85,2.52-16.19,7-29.52,21.76-59,28.75-88.56V396.81Z" transform="translate(-77.04 -118.67)"/><path class="cls-9" d="M1051.49,717.14c-.44-24.45,0-48.91.39-73.37l.63-36.85c.29-17.31,1.3-34.85,7.68-51.18,1.9-4.87,32.53-17.44,36.31-12.34,0,0,2.55,24.09,4.14,35,1,7.18-.37,14.44-1.8,21.57-7.73,38.73-11.77,78.44-19.5,117.17Z" transform="translate(-77.04 -118.67)"/><path class="cls-9" d="M1167.37,719.11c.43-24.45-.59-47.34-1-71.8q-.31-18.42-.61-36.85c-.29-17.31-1.28-34.85-7.52-51.18-1.86-4.87-31.83-17.44-35.53-12.33,0,0-2.5,24.08-4.06,35-1,7.18.37,14.44,1.76,21.57,7.57,38.73,11.17,77,18.74,115.7Z" transform="translate(-77.04 -118.67)"/><path class="cls-11" d="M1083.55,422.64h-2.22c-5.74-.07-22.84-5-25.32-8.91,6.37-32.92,2.49-52.77-1.26-72-2.11-10.8-4.51-34.2-4.51-34.2-2.3-4.32-5-36.63-3-49.95l42.32-17.79,19.6,5.86h3.95l19.6-5.86L1175,257.61c2,13.32-.7,45.63-3,49.95,0,0-3,24-5.67,34.85-4.57,18.45-9.29,37.52-2.88,70.12l0,.15c-1.28,1.92-10.79,6.85-15.44,7.58C1133.17,422.61,1085.57,422.64,1083.55,422.64Z" transform="translate(-77.04 -118.67)"/><polygon class="cls-12" points="1041.55 145.11 1048.94 137.94 1044.54 125.92 1034.1 124.99 1023.65 125.92 1019.26 137.94 1026.65 145.11 1015.06 257.79 1034.1 280.04 1053.13 257.79 1041.55 145.11"/><polygon class="cls-13" points="1054.44 111.45 1034.1 124.99 1041.55 126.52 1047.52 157.41 1067.37 126.17 1054.44 111.45"/><polygon class="cls-13" points="1013.75 111.45 1034.1 124.99 1026.65 126.52 1020.68 157.41 1000.83 126.17 1013.75 111.45"/><path class="cls-4" d="M1017.51,472.51s0-16.15.15-18.38,6.46-9.12,8-9.48c2.16-.52,11.74.65,11.74.65a106,106,0,0,1,5.1,12.89c1.38,5-8.58,13.81-8.58,13.81Z" transform="translate(-77.04 -118.67)"/><path class="cls-4" d="M1033.17,458.24c3.34,3.8,5.75,6.18,5.42,8.59a49.39,49.39,0,0,0-.64,7.78c.15,1.64-.51,4.75,1,5.44,3.15,1.39,6-6.5,7.48-11.36,1.18-3.87,1.58-6.61.17-8.32s-7.15-7.17-7.15-7.17Z" transform="translate(-77.04 -118.67)"/><path class="cls-6" d="M1044,483.77l-13.76-.75s-9.1,111.52-9.1,119.29,30.85,7.41,30.85-.78S1044,483.77,1044,483.77Z" transform="translate(-77.04 -118.67)"/><path d="M1047.55,599c-1.74,4.21-16.52,1.14-18.51-4.07-3.72-9.93-1.37-18.7-1.24-28.5,0-1.66,3.11-.34,3.6-2.32-1.32-25.52,1.18-45.51-.71-67a12.59,12.59,0,0,0-1.26-3.69c-2.25,27.86-8.25,102.6-8.25,108.91,0,7.77,30.85,7.41,30.85-.78,0-2.38-.68-13.32-1.63-27.64C1050.4,573.89,1050.57,591.42,1047.55,599Z" transform="translate(-77.04 -118.67)"/><path class="cls-6" d="M1032.58,484.1c-2.06-2-5.26-1-7.11,1.3s-2.67,5.62-3.43,8.77c-2.31,9.58-5,65.69-3.56,68.72,1.28,2.67,7.62,0,7.62,0Z" transform="translate(-77.04 -118.67)"/><path class="cls-27" d="M1019.87,560.2a8.6,8.6,0,0,0,3.56,9.73,1.11,1.11,0,1,0,1.12-1.92c-.17-.11-.33-.23-.49-.35l0,0-.26-.23-.36-.36c-.07-.08-.14-.15-.2-.23s-.24-.3-.07-.07a7.3,7.3,0,0,1-.61-1,4.53,4.53,0,0,1-.27-.54c-.13-.26.08.22,0,0,0-.09-.08-.19-.11-.28a7.54,7.54,0,0,1-.3-1.13c0-.09,0-.17,0-.26,0-.26,0,.2,0,0a6,6,0,0,1,0-.61,4,4,0,0,1,0-.6,2.28,2.28,0,0,1,0-.26s0-.34,0,0a4.41,4.41,0,0,1,.28-1.18,1.13,1.13,0,0,0-.78-1.37,1.15,1.15,0,0,0-1.38.78Z" transform="translate(-77.04 -118.67)"/><path class="cls-27" d="M1031.28,487.07V466.91a3.62,3.62,0,0,1,7.23,0v20.16H1042V466.91a7.11,7.11,0,0,0-7.09-7.09h0a7.11,7.11,0,0,0-7.09,7.09v20.16Z" transform="translate(-77.04 -118.67)"/><path class="cls-4" d="M1032.6,459.21a145.36,145.36,0,0,0-1.19,19.49A3.48,3.48,0,0,0,1032,481a3.66,3.66,0,0,0,2.59.91,4.12,4.12,0,0,0,4.54-2.46c.47-.95.28-4.67.23-5.87a130.69,130.69,0,0,1,.43-14.65Z" transform="translate(-77.04 -118.67)"/><path class="cls-4" d="M1026.78,458.67a131.88,131.88,0,0,0-1.13,18.57,3.58,3.58,0,0,0,.55,2.28,3.77,3.77,0,0,0,2.59.91,7.5,7.5,0,0,0,4.39-.82c1.66-.75.43-6.31.39-7.52a108.24,108.24,0,0,1,.32-13.34Z" transform="translate(-77.04 -118.67)"/><path class="cls-4" d="M1021.55,456a151.07,151.07,0,0,0-1.16,18.58,4,4,0,0,0,.45,2.28,2.88,2.88,0,0,0,2.22.92,5.64,5.64,0,0,0,3.79-.78c1.43-.74.43-6.32.41-7.53a127.08,127.08,0,0,1,.41-13.35Z" transform="translate(-77.04 -118.67)"/><path class="cls-4" d="M1017.87,454.47a156.6,156.6,0,0,0-1.14,18,4.1,4.1,0,0,0,.41,2.22,2.48,2.48,0,0,0,2.05.9c3.81.21,3.93-6.89,3.91-8.06q-.11-6.45.43-13Z" transform="translate(-77.04 -118.67)"/><path class="cls-8" d="M1039,258.09c-4.21,3.29-11.47,10.05-11.9,13.68s-9.71,145.64-12.11,166.68c-1.5,20.28,29.16,13.2,31.53,7.6s15.86-144.2,15.86-144.2l-8.63-47.09S1043.48,254.63,1039,258.09Z" transform="translate(-77.04 -118.67)"/><path class="cls-8" d="M1180.07,256.9l-38.86-15.7-11.93,92.11-1.51,114.51c14.91,10.16,42.39,6.66,45.41,2.84s-1.91-29.47-2.55-34.4c-6.74-52.11,3.19-107.75,3.19-107.75S1182.36,269.53,1180.07,256.9Z" transform="translate(-77.04 -118.67)"/><path class="cls-8" d="M1094.5,332.53l-13.44-91.33-37.79,14.89c-2.3,12.63,5.19,52.42,5.19,52.42s13.15,54.73,4.72,106.07c-.37,4.48-5.6,32.47-3.43,35.59s34.64,10.28,47.85,1.53Z" transform="translate(-77.04 -118.67)"/><path class="cls-4" d="M1221,371.37c-2.35-.8-28.35.42-34.44,7.09s-41.64,74.86-41.64,74.86,6.72,5.33,13.42,5.4c0,0,42.29-47,47.6-53.24S1223.32,372.17,1221,371.37Z" transform="translate(-77.04 -118.67)"/><path class="cls-4" d="M1148,447.47s-12.91,5.6-11.26,8.42,22.66,10.45,22.66,10.45l.37-10.95Z" transform="translate(-77.04 -118.67)"/><path class="cls-8" d="M1145.33,441.44l26.36,14.45s32.58-42.74,45-60.87,11.23-29.47,3.25-34.23c-9.23-5.51-26.54-3-34.79,8.09S1145.33,441.44,1145.33,441.44Z" transform="translate(-77.04 -118.67)"/><path class="cls-4" d="M1132.19,204.42a7.87,7.87,0,0,0,5.46-.7,18.45,18.45,0,0,0,4.41-3.34c3.5-3.38,6.76-7.64,6.52-12.41a6,6,0,0,0-1.88-4.3,5.7,5.7,0,0,0-5.58-.7,9.53,9.53,0,0,0-4.35,3.74Z" transform="translate(-77.04 -118.67)"/><path class="cls-4" d="M1088.35,204.42a7.84,7.84,0,0,1-5.45-.7,18.06,18.06,0,0,1-4.41-3.34c-3.51-3.38-6.77-7.64-6.52-12.41a5.93,5.93,0,0,1,1.87-4.3,5.7,5.7,0,0,1,5.58-.7,9.48,9.48,0,0,1,4.35,3.74Z" transform="translate(-77.04 -118.67)"/><path class="cls-4" d="M1139.36,206.73c1.39-14.93,5.28-23.63,7.69-32.25,1.71-6.46,3.45-17.49-4.06-27.22-7.42-10.11-26-15.85-43.1-11s-26.7,14.88-24.62,26.31c1,6.85,2,16.32,3.18,23.38,1,5.87-.84,11.75,1.33,17.47,4,9.84,19.67,27.1,32,27.1C1121.81,230.5,1138.4,213.24,1139.36,206.73Z" transform="translate(-77.04 -118.67)"/><path class="cls-5" d="M1113.46,194.9a6.17,6.17,0,0,1-.37.82,1.57,1.57,0,0,1-.56.68c-.25.14-.63,0-.93-.38a1.82,1.82,0,0,1-.29-.83,2.39,2.39,0,0,1,.12-1,2.32,2.32,0,0,1,.55-.88,1.93,1.93,0,0,1,.74-.44c.5-.14.85,0,1,.3a1.58,1.58,0,0,1,0,.89A7.13,7.13,0,0,1,1113.46,194.9Z" transform="translate(-77.04 -118.67)"/><path class="cls-26" d="M1110.33,195.91c0-.21-.09-.39-.12-.55s-.06-.31-.08-.45a4,4,0,0,1,0-.51c0-.19,0-.4.06-.62a8,8,0,0,0,.1-1.25,1.2,1.2,0,0,0-.34-.87.47.47,0,0,0-.65,0,2.84,2.84,0,0,0-.74.93,4.69,4.69,0,0,0-.59,1.83,3.42,3.42,0,0,0,.08,1.15,4.78,4.78,0,0,0,.38,1.06,5.33,5.33,0,0,0,.54.91,6.64,6.64,0,0,0,.6.74,10.31,10.31,0,0,0,1.09,1c.64.49,1,.67,1.23.33s.18-.71-.16-1.28c-.17-.29-.42-.62-.69-1a5.11,5.11,0,0,1-.4-.65A3.45,3.45,0,0,1,1110.33,195.91Z" transform="translate(-77.04 -118.67)"/><path class="cls-6" d="M1120.66,178.37a14.23,14.23,0,0,1,5.08-.24,14.7,14.7,0,0,1,4.88,1.53c1.52.81.85,2.35-.67,2a40.2,40.2,0,0,0-4.51-.86,40.79,40.79,0,0,0-4.58-.34C1119.3,180.42,1119,178.76,1120.66,178.37Z" transform="translate(-77.04 -118.67)"/><path class="cls-6" d="M1100.12,178.23a14.45,14.45,0,0,0-5.08-.13,14.73,14.73,0,0,0-4.85,1.64c-1.5.84-.8,2.37.71,2a42,42,0,0,1,4.5-1,40.41,40.41,0,0,1,4.57-.43C1101.52,180.25,1101.79,178.59,1100.12,178.23Z" transform="translate(-77.04 -118.67)"/><path class="cls-6" d="M1098.54,190.94l0-4a3.48,3.48,0,0,0-3.49-3.45h0a3.48,3.48,0,0,0-3.45,3.49l0,4C1091.61,192.89,1098.55,192.85,1098.54,190.94Z" transform="translate(-77.04 -118.67)"/><path class="cls-6" d="M1122.39,190.94l0-4a3.48,3.48,0,0,1,3.49-3.45h0a3.48,3.48,0,0,1,3.45,3.49l0,4C1129.32,192.89,1122.38,192.85,1122.39,190.94Z" transform="translate(-77.04 -118.67)"/><path class="cls-23" d="M1102.5,205.2a69.25,69.25,0,0,0,17.45-4,11.17,11.17,0,0,1-1.31,7.27,46.57,46.57,0,0,1-10.23,1.43C1106.18,209.88,1103.41,206.39,1102.5,205.2Z" transform="translate(-77.04 -118.67)"/><path class="cls-14" d="M1158.16,173.76a7.73,7.73,0,0,0,.89-3.21,7.54,7.54,0,0,0,0-1.26,3.38,3.38,0,0,0,.8-2.61,3.81,3.81,0,0,0-1.48-2.53,7.37,7.37,0,0,0,.76-3.76,7.24,7.24,0,0,0-1.67-4.11,3.21,3.21,0,0,0,.24-1.71,3.64,3.64,0,0,0-2.7-3.1,6.31,6.31,0,0,0-1.69-5.37,8,8,0,0,0-.93-.83,3.54,3.54,0,0,0,.45-3.34,3.5,3.5,0,0,0-4.3-2.11,6.65,6.65,0,0,0-.61-1.11l1.52-1.32a3.46,3.46,0,0,0,.74-4.72c-1.05-1.32-3.29-2-4.71-.75l-2.45,2.15a3,3,0,0,0-.14-.39,3.29,3.29,0,0,0-.21-.42c.15-.23.31-.46.48-.68a3.38,3.38,0,1,0-5.28-4.21c-.06.07-.11.16-.16.23,0-.13,0-.27-.09-.4a2.53,2.53,0,0,0-.87-1.33,3.19,3.19,0,0,0-1.23-2.62,3.44,3.44,0,0,0-4.75.54l-.37.47a3.32,3.32,0,0,0-5.73-1.22,3.45,3.45,0,0,0-2.81-2.87,3.33,3.33,0,0,0-2.45.6,3.51,3.51,0,0,0-2.86-3,3.43,3.43,0,0,0-3.86,2.8l-.36,1.45c0-.12-.06-.24-.1-.36a3.35,3.35,0,0,0-6.48,1.37l-.33-.74a3.46,3.46,0,0,0-4.35-2,4.41,4.41,0,0,1-5.78.47,3.43,3.43,0,0,0-.75,4.71l.35.49a3,3,0,0,0-.84.78l-.11.18a3.34,3.34,0,0,0-2.81-3.26c-1.7-.19-3.71.93-3.86,2.81,0,.42,0,.84,0,1.25a3,3,0,0,0-2.23-.59,3.43,3.43,0,0,0-3,3.69,13.77,13.77,0,0,0,.52,2.26,3.53,3.53,0,0,0-.72,1.62,3.62,3.62,0,0,0,.15,1.63l-3-.54c-3-.54-4.45,2.55-3.68,4.82a3.52,3.52,0,0,0-3.87,3,4.34,4.34,0,0,0,0,1.14,3.75,3.75,0,0,0-2.21,1.75,3.37,3.37,0,0,0-4,5.4,14.87,14.87,0,0,0,1.48,1.06,3.48,3.48,0,0,0-2.85,2.1,3.79,3.79,0,0,0,.1,3,3.86,3.86,0,0,0-1.47,2.37,3.62,3.62,0,0,0,2.88,4.06l.45.15a9.1,9.1,0,0,0,.57,6.84,3.19,3.19,0,0,0-1.31,3.13c.59,5.21,5.51,9.4,10.68,8.55a3.58,3.58,0,0,0,1.89,4.2c1.56.7,4,0,4.57-1.82a21.55,21.55,0,0,0,1-6.84,7.33,7.33,0,0,0,3.69-6.07,6.8,6.8,0,0,0-2-5.2,8.08,8.08,0,0,0,.73-5.43,6.43,6.43,0,0,0,2.59-4.52,6.71,6.71,0,0,0-.16-2.24,9.48,9.48,0,0,0,3.3-4.17,8.12,8.12,0,0,0,9.06-4.18,9.43,9.43,0,0,0,7.58-1c2.87,1.7,6.75,1.07,10.17-.34a8.3,8.3,0,0,0,7.1,2.08c1,2.22,3.16,3.63,5.73,4.34a9.11,9.11,0,0,0,6.67,8.21,7.65,7.65,0,0,0,2.08,5.15,6.49,6.49,0,0,0-2.93,5.41,7.08,7.08,0,0,0,1.66,4.67,6.81,6.81,0,0,0,1.12,7.23,6.21,6.21,0,0,0,5.5,5.78,3.36,3.36,0,0,0,5.89-2.94c3.45-1.15,6.67-3.41,7-7.41a2.43,2.43,0,0,0,.44-.47,3.65,3.65,0,0,0,.74-2.57A3.78,3.78,0,0,0,1158.16,173.76Z" transform="translate(-77.04 -118.67)"/></g><g id="character-4" data-name="character"><path class="cls-11" d="M954.56,295.46c-3.74-3.92-9.73-44.68-9.73-44.68h-71.6s-6,40.76-9.73,44.68c-13.38,14,2.51,33.06,7.62,41.05,4.26,14-7.55,36.08.29,45.65,5.73,7,4.32,17.62,4.32,17.62a231.79,231.79,0,0,0,33.3,3.27,231.65,231.65,0,0,0,33.3-3.27s.06-12,5.37-19-3.93-23.1-.09-35.66C952.72,337.12,967.94,309.47,954.56,295.46Z" transform="translate(-77.04 -118.67)"/><path class="cls-28" d="M872.4,244.47l63.53-1.06,5.71-45.9s-5.63-27.1-31.58-28-33.3,18.92-34,28S872.4,244.47,872.4,244.47Z" transform="translate(-77.04 -118.67)"/><path class="cls-3" d="M822.27,350.77c-1.87-2.69-4.4-11-3.68-15.52S844.1,284,844.1,284s21.61,9.68,21.32,19.32c0,0-24.58,47.43-26.73,48.37S824.23,353.61,822.27,350.77Z" transform="translate(-77.04 -118.67)"/><path class="cls-11" d="M867.62,251.59c-4.52,1.44-10.71,2.84-12.19,5.72s-23.88,44.23-32.36,61c4.12,11.11,18.48,15,29.67,18.93,8-12.32,15.79-32.45,22.38-46.51l7.71-39.36S872.38,250.08,867.62,251.59Z" transform="translate(-77.04 -118.67)"/><path class="cls-3" d="M983.36,356.72c2.13-2.48,5.52-10.51,5.28-15.05s-20-53.66-20-53.66-22.5,7.36-23.22,17c0,0,19.48,49.74,21.52,50.89S981.1,359.34,983.36,356.72Z" transform="translate(-77.04 -118.67)"/><path class="cls-11" d="M947.54,251.57c4.34,1.9,11.44,5.71,12.61,8.73S982,308,988.65,325.55c-5.26,10.63-22.64,11.77-34.18,14.52,0,0-12.31-33.92-17.4-48.59l-3.55-40S943,249.56,947.54,251.57Z" transform="translate(-77.04 -118.67)"/><path class="cls-29" d="M856,654.85c.31,24.72.6,49.53.46,55.39l13.62.61c2.54-16.81,5.84-36.82,9.19-56Z" transform="translate(-77.04 -118.67)"/><path class="cls-30" d="M874.48,711.36c-.09-7.46-4.83-9-4.83-9L854,708.47s-25.73,52-21.85,53.18l27.79.75c8,.17,5.94-12.55,9-19.29l-.15,19.46h3.48L874,735.46a17.2,17.2,0,0,0,.52-2.37C874.87,729.89,874.6,721.33,874.48,711.36Z" transform="translate(-77.04 -118.67)"/><path class="cls-29" d="M856.58,700.87c-1.37,3.82-7.21,18.58-8.71,23.27-1.17,3.64-3.8,11.79-5.52,17.12a4,4,0,0,0,3.64,5.18l16.47.34,8.68-41.21c.15-1.22.24-7.48-2.38-9.05S857.94,697.05,856.58,700.87Z" transform="translate(-77.04 -118.67)"/><path class="cls-29" d="M935.52,663.71H917.15c1,19,1.87,38,2.26,44.07l13.67.61C931.68,693.52,933.05,678.34,935.52,663.71Z" transform="translate(-77.04 -118.67)"/><path class="cls-30" d="M935.17,703s9.49,36.66,10.82,42.7-.84,14.59-2.92,16.85H916.46c-4.3-1.25,2.86-57.35,2.86-57.35Z" transform="translate(-77.04 -118.67)"/><path class="cls-29" d="M919.15,697c0,4.12-.57,20-.4,25.1.21,6.08.77,23.84.77,23.84s15.57,1.09,17.48-.77c5.44-5.28,3-16.34,3-16.34l-4.62-26.76c-.28-1.31-2.43-8.07-5.61-9.76S919.15,692.9,919.15,697Z" transform="translate(-77.04 -118.67)"/><rect class="cls-3" x="811.33" y="104.39" width="37.89" height="45.06"/><path class="cls-4" d="M926.26,223.06v13.86c-9.42,7.63-22.16,12.77-37.89,13.86V223.06Z" transform="translate(-77.04 -118.67)"/><path class="cls-13" d="M907.28,268.13l17.07-12.94,2.13-11s3.75,4.8,3.88,7.55,0,29.29,0,29.29S920,271.31,918,269.65,907.28,268.13,907.28,268.13Z" transform="translate(-77.04 -118.67)"/><path class="cls-13" d="M907.35,268.13l-17.07-12.94-2.13-11s-3.75,4.8-3.88,7.55,0,29.29,0,29.29,10.36-9.72,12.41-11.38S907.35,268.13,907.35,268.13Z" transform="translate(-77.04 -118.67)"/><path class="cls-8" d="M871.41,382.16S850.81,437.11,851,447.8s-1.24,95.42-1.24,95.42,30.5,25.33,42.39,7.65c6.4-9.53,6.48-90,6.48-90l18.85-8.53-3.67-67.74Z" transform="translate(-77.04 -118.67)"/><path class="cls-8" d="M849,693s28.73,9.21,30.9,0,6.68-95.87,9.29-114.86,7.1-43.24,5.56-51.93-43-6.74-44,5.11-4.78,32.5-4.63,44S849,693,849,693Z" transform="translate(-77.04 -118.67)"/><path class="cls-8" d="M948.6,382.28s15.26,62.84,14,73.53-9.18,87.52-9.18,87.52-33.16,25.33-43.19,7.65c-5.4-9.53,3.61-102.09,3.61-102.09l-14.58.11L906,384.73Z" transform="translate(-77.04 -118.67)"/><path class="cls-8" d="M938.4,693.16s-29.69,9.21-30.9,0,3.37-95.88,2.75-114.86-2.56-43.25-.12-51.94,43.73-6.74,43.49,5.12,1.37,32.49,0,44S938.4,693.16,938.4,693.16Z" transform="translate(-77.04 -118.67)"/><path class="cls-3" d="M835.56,337.24c1.85-.23,10.81,9.24,14,15.6s9.63,56.66,9.63,56.66-1.9,7.41-5.56,9.49c0,0-35.11-66.14-34.78-78C819.05,334.45,833.71,337.48,835.56,337.24Z" transform="translate(-77.04 -118.67)"/><path class="cls-3" d="M857.75,397.87l7.25,6.65s3.42.94,8.19,1.92,1.6,6.43-7.72,4.63l2.27,5.15s-4.85,15.3-9.47,14.12c0,0-7.15-13.71-8.53-21.51S855.61,395.91,857.75,397.87Z" transform="translate(-77.04 -118.67)"/><path class="cls-3" d="M973.35,337.24c-1.85-.23-9.06,8.93-12.27,15.3s-11.37,57-11.37,57,1.9,7.41,5.56,9.49c0,0,34.49-52.27,32.84-73C987.6,339.54,975.2,337.48,973.35,337.24Z" transform="translate(-77.04 -118.67)"/><path class="cls-3" d="M951.16,397.87l-7.25,6.65s-3.42.94-8.19,1.92-1.61,6.43,7.72,4.63l-1.83,6.14s10.3,14.24,14.92,13.06c0,0,1.25-13.64,2.63-21.44S953.3,395.91,951.16,397.87Z" transform="translate(-77.04 -118.67)"/><path class="cls-31" d="M949.71,381s-51.08,3.59-79.91,0l-2.73,10.24s39.26,13.13,84.7,0Z" transform="translate(-77.04 -118.67)"/><rect class="cls-32" x="823.29" y="262.31" width="18.5" height="16.73" rx="8.37"/><path class="cls-33" d="M941.66,179.86a65.67,65.67,0,0,0,.08,8.06c.12,1.32.28,2.63.53,3.93a13.21,13.21,0,0,0,.92,3.32c.82,1.69,2.35,2.93,3.64,4.24a10.19,10.19,0,0,1,1.72,2.1,8.68,8.68,0,0,1,.88,3,16.14,16.14,0,0,1-.38,6.81,17.72,17.72,0,0,1-3.2,6.11c-1.38,1.81-2.78,3.63-3.09,6-.34,2.57.56,5.08,1.61,7.38s2.57,4.91,2.62,7.64c0,2.11-.81,4.36-2.84,5.27-.83.37-.11,1.6.72,1.23a6.27,6.27,0,0,0,3.36-4.55,11.31,11.31,0,0,0-.94-6.62c-1-2.38-2.34-4.64-2.93-7.17a7.73,7.73,0,0,1,0-3.91,10,10,0,0,1,1.63-3,29.94,29.94,0,0,0,3.74-5.89,17.5,17.5,0,0,0,1.32-6.89,12,12,0,0,0-1.5-6.35,39,39,0,0,0-3.91-4.23,6.36,6.36,0,0,1-1.51-2.58,30.63,30.63,0,0,1-.84-4.47,58.69,58.69,0,0,1-.2-9.28c0-.92-1.39-.92-1.43,0Z" transform="translate(-77.04 -118.67)"/><path class="cls-3" d="M928.32,217.86a7.25,7.25,0,0,0,5.06-.65,17,17,0,0,0,4.1-3.11c3.25-3.13,6.28-7.08,6-11.51a5.53,5.53,0,0,0-1.74-4,5.27,5.27,0,0,0-5.18-.65,8.75,8.75,0,0,0-4,3.47Z" transform="translate(-77.04 -118.67)"/><path class="cls-3" d="M887.62,217.86a7.25,7.25,0,0,1-5.06-.65,17,17,0,0,1-4.1-3.11c-3.25-3.13-6.28-7.08-6.05-11.51a5.53,5.53,0,0,1,1.74-4,5.27,5.27,0,0,1,5.18-.65,8.75,8.75,0,0,1,4,3.47Z" transform="translate(-77.04 -118.67)"/><path class="cls-3" d="M935,220c1.29-13.85,4.9-21.93,7.14-29.93,1.59-6,3.21-14.3-3.77-23.33-6.88-9.39-24.17-14.72-40-10.23s-28.18,14.75-26.25,25.36c1,6.36,5.29,12.27,6.35,18.82.88,5.45-.78,10.92,1.24,16.22,3.75,9.14,18.25,25.16,29.67,25.16C918.68,242.07,934.08,226,935,220Z" transform="translate(-77.04 -118.67)"/><path class="cls-33" d="M917.16,194.55a12.44,12.44,0,0,1,4.3-.2,12.59,12.59,0,0,1,4.13,1.3,9.94,9.94,0,0,1,3.36,2.8c-1.38-.41-2.65-.81-3.93-1.12a34.25,34.25,0,0,0-3.82-.73,35.24,35.24,0,0,0-3.87-.28C916,196.29,915.76,194.89,917.16,194.55Z" transform="translate(-77.04 -118.67)"/><path class="cls-33" d="M898.5,194.3a12.46,12.46,0,0,0-8.4,1.28,9.89,9.89,0,0,0-3.31,2.87c1.37-.44,2.63-.87,3.91-1.2a34.33,34.33,0,0,1,3.8-.81,32.93,32.93,0,0,1,3.87-.37C899.68,196,899.9,194.61,898.5,194.3Z" transform="translate(-77.04 -118.67)"/><path class="cls-5" d="M910.92,209a4.09,4.09,0,0,1-.34.77,1.45,1.45,0,0,1-.52.63c-.23.12-.58,0-.86-.36a1.85,1.85,0,0,1-.27-.76,2.35,2.35,0,0,1,.11-1,2.26,2.26,0,0,1,.52-.82,1.62,1.62,0,0,1,.69-.41c.45-.13.78,0,.88.28a1.43,1.43,0,0,1,0,.82A4.16,4.16,0,0,1,910.92,209Z" transform="translate(-77.04 -118.67)"/><path class="cls-4" d="M908,210c0-.19-.08-.36-.11-.51s0-.29-.07-.42a2.36,2.36,0,0,1,0-.47c0-.18,0-.38,0-.58a6,6,0,0,0,.09-1.16,1.09,1.09,0,0,0-.31-.81.45.45,0,0,0-.6,0,2.69,2.69,0,0,0-.69.87,4.47,4.47,0,0,0-.55,1.7,3.52,3.52,0,0,0,.08,1.07,4.24,4.24,0,0,0,.35,1,5.77,5.77,0,0,0,.5.85,6.55,6.55,0,0,0,.56.68,8.22,8.22,0,0,0,1,.94c.59.45.94.62,1.14.3s.16-.66-.16-1.18c-.15-.27-.38-.57-.64-.94-.12-.18-.25-.38-.37-.6A3.19,3.19,0,0,1,908,210Z" transform="translate(-77.04 -118.67)"/><path class="cls-6" d="M897.91,206.74l0-3.77a3.31,3.31,0,0,0-3.32-3.28h0a3.31,3.31,0,0,0-3.28,3.32l0,3.77C891.32,208.59,897.92,208.55,897.91,206.74Z" transform="translate(-77.04 -118.67)"/><path class="cls-6" d="M895.34,199.8a6.24,6.24,0,0,0-4.44.93c-2.06,1.44-3.5.65-3.5.65a3.54,3.54,0,0,0,3.78.66c2.06-1,3.06-.55,3.06-.55Z" transform="translate(-77.04 -118.67)"/><path class="cls-6" d="M918.38,206.74l0-3.77a3.31,3.31,0,0,1,3.32-3.28h0A3.31,3.31,0,0,1,925,203l0,3.77C925,208.59,918.37,208.55,918.38,206.74Z" transform="translate(-77.04 -118.67)"/><path class="cls-6" d="M921,199.8a6.24,6.24,0,0,1,4.44.93c2.06,1.44,3.5.65,3.5.65a3.54,3.54,0,0,1-3.78.66c-2.06-1-3.06-.55-3.06-.55Z" transform="translate(-77.04 -118.67)"/><path class="cls-33" d="M943.38,243a4.8,4.8,0,0,0,.09,1.61c-5.25,0-10.53.18-15.8.62a1.09,1.09,0,0,1,0-.26c.31-1.43,1.54-2.5,2.45-3.69a9.62,9.62,0,0,0,2-6.72c-.31-2.91-2.06-5.6-1.54-8.55.83-4.66,6.26-8.14,5.33-12.67-.49-2.39-3-3.92-3.41-6.33-.71-3.79,2.92-6.95,4-10.8a8,8,0,0,0-1.25-6.42c-3.77,0-11.81.47-11.75-.11.4-4,.18-10.24-1.4-13.75-1.68,4-2.52,13.75-3.07,14.08a1.83,1.83,0,0,1-.92.18c-10.4.05-25.64.11-36,.17a7.16,7.16,0,0,0-.19.8c-.5,3.08.74,6,1.64,8.9s1.38,6.28-.4,8.94c-1,1.43-2.44,2.44-3.57,3.75-2.66,3.1-2.88,7.91-.5,10.88,1.1,1.38,2.73,2.49,3,4.25.39,2.29-1.59,4.39-2.54,6.6a7.68,7.68,0,0,0,.74,7.48,8.78,8.78,0,0,1,1.6,2.39,2.61,2.61,0,0,1,.12.87H856.79a8.76,8.76,0,0,1,1-2.2c1.19-1.92,2.66-4.25,1.62-6.09a22.92,22.92,0,0,0-1.66-1.91c-1.61-2.23.1-5.51,2-7.73s4.34-4.64,4.14-7.45c-.16-2.31-2-4-3.26-5.86A11.74,11.74,0,0,1,861.4,201c2.11-2.88,5.52-5,6.59-8.35,4.15-12.89,1.37-22.64,14.65-31.21,14.43-9.3,23.41-15.13,39.05-7.41,10,4.92,24.32,14.22,23.59,25a58.71,58.71,0,0,0,.84,13.19c.83,5.25,6.5,9.1,5.61,14.47-.81,5-6.84,8-8.28,12.84-1.76,5.91,4,11.6,2.24,17.51-.51,1.77-1.66,3.36-2.15,5.14A4.57,4.57,0,0,0,943.38,243Z" transform="translate(-77.04 -118.67)"/><path class="cls-23" d="M912,217.88a19.44,19.44,0,0,0,7.06-2.65c-1.85,3.44-3.74,6.74-9,7.3s-8-2.14-9-5.91A19.58,19.58,0,0,0,912,217.88Z" transform="translate(-77.04 -118.67)"/></g><g id="character-5" data-name="character"><rect class="cls-34" x="103.17" y="90.15" width="38.59" height="45.9"/><path class="cls-35" d="M218.79,208.82v14.12c-9.59,7.76-22.56,13-38.58,14.11V208.82Z" transform="translate(-77.04 -118.67)"/><path class="cls-8" d="M272.42,257.59c4.21,3.29,11.47,10.05,11.91,13.68s14.22,100,15.08,106.2c1.72,12.51-38.15-.33-39.66-8.49s-18.17-67.55-18.17-67.55l16.1-47.17S268,254.13,272.42,257.59Z" transform="translate(-77.04 -118.67)"/><path class="cls-9" d="M250.64,399.31c10.12,62.09,1.37,176.51-1.25,193.35-2.66,17-37.83-11.09-39-28.26-.41-6.17,1.21-12.32,1.22-18.5,0-5.46-2.38-10.71-2.47-16.19-.78-47.87-10.22-54.59-17.06-84.11l-11.07-46.29Z" transform="translate(-77.04 -118.67)"/><path class="cls-10" d="M146.69,756.61c7.48-3.58,14.07-7.36,15.93-11.2l.82-34c.29-2.53.84-5.62-1.63-6l-11.23-1.55a4.39,4.39,0,0,0-4.84,3.26c-1.26,4.69-5.65,20.2-5.65,20.2L118.16,749c-2.23,2.2-4.6,4.44-4.82,7.64C113.33,756.71,146.69,756.61,146.69,756.61Z" transform="translate(-77.04 -118.67)"/><path class="cls-6" d="M163.23,720.39c-.71-.11,1.82,18.17-6.51,19.53a10.82,10.82,0,0,1-1.61.14l-.66-7.72s-11.84-5.47-20.71-4.78l-2.05,4.22-25.21,13.87c-2.09,2.06-5.24,5.17-5.53,9.46a3.41,3.41,0,0,0,.72,2h63.72S163.93,720.5,163.23,720.39Z" transform="translate(-77.04 -118.67)"/><path class="cls-10" d="M273.84,756.48s-1.53-5.38-3.22-7.6L254,727.05s-2.09-14.12-2.66-18.38a4,4,0,0,0-3.85-3.5L237.5,705a4,4,0,0,0-4,4l-1.14,30.75a159.12,159.12,0,0,0,6.75,16.64Z" transform="translate(-77.04 -118.67)"/><path class="cls-6" d="M272.27,747.55,261,732.78l-1.55-4.68c-7.64-1.8-18.54,1.36-18.54,1.36l-1.43,6.64a10.81,10.81,0,0,1-1.39-.33c-7.1-2.32-4.82-14.48-5.45-14.48s-8.06,35.84-8.06,35.84H276a5.61,5.61,0,0,0,.06-.59C276.25,752.76,273.86,749.62,272.27,747.55Z" transform="translate(-77.04 -118.67)"/><path class="cls-9" d="M149.43,395.76c-10.34,62.1-5.23,176.52-2.55,193.36,2.71,17,38.65-11.09,39.81-28.26.42-6.17-1.24-12.32-1.25-18.5,0-5.46,1.26-10.85,2.53-16.2,7-29.51,21.75-59,28.75-88.55V395.76Z" transform="translate(-77.04 -118.67)"/><path class="cls-9" d="M140.43,716.09c-.44-24.45,0-48.91.39-73.36l.63-36.86c.3-17.31,1.31-34.84,7.68-51.17,1.9-4.87,32.53-17.45,36.31-12.34,0,0,2.55,24.09,4.15,35,1,7.18-.38,14.45-1.8,21.57-7.73,38.73-11.77,78.45-19.5,117.17Z" transform="translate(-77.04 -118.67)"/><path class="cls-9" d="M256.31,718.07c.43-24.46-.59-47.35-1-71.8q-.3-18.43-.61-36.86c-.29-17.31-1.28-34.84-7.52-51.17-1.86-4.87-31.83-17.45-35.53-12.34,0,0-2.49,24.09-4.05,35-1,7.17.36,14.44,1.76,21.57,7.56,38.72,11.17,77,18.73,115.7Z" transform="translate(-77.04 -118.67)"/><path class="cls-11" d="M172.49,421.59h-2.21c-5.75-.07-22.85-5-25.33-8.9,6.37-32.93,2.5-52.77-1.25-72-2.11-10.8-4.52-34.19-4.52-34.19-2.3-4.33-5-36.63-3-50l42.33-17.79,19.59,5.87h4l19.6-5.87L264,256.56c2,13.33-.7,45.63-3,50,0,0-3,24-5.67,34.85-4.57,18.44-9.3,37.51-2.89,70.12l0,.14c-1.27,1.92-10.79,6.85-15.43,7.59C222.12,421.57,174.51,421.59,172.49,421.59Z" transform="translate(-77.04 -118.67)"/><polygon class="cls-12" points="130.49 144.06 137.88 136.89 133.49 124.88 123.04 123.95 112.6 124.88 108.2 136.89 115.59 144.06 104.01 256.74 123.04 279 142.07 256.74 130.49 144.06"/><polygon class="cls-13" points="143.39 110.41 123.04 123.95 130.49 125.47 136.46 156.37 156.31 125.12 143.39 110.41"/><polygon class="cls-13" points="102.69 110.41 123.04 123.95 115.59 125.47 109.62 156.37 89.77 125.12 102.69 110.41"/><path class="cls-8" d="M128,257.05c-4.21,3.28-11.47,10.05-11.9,13.67S106.38,351,104,372.05c-1.49,20.28,36.9,20.51,39.26,14.91s15.59-86.08,15.59-86.08l-16.09-47.16S132.43,253.58,128,257.05Z" transform="translate(-77.04 -118.67)"/><path class="cls-8" d="M269,255.86l-38.86-15.71-11.92,92.12-1.51,114.5c14.9,10.17,42.39,6.67,45.4,2.84s-1.9-29.46-2.54-34.39c-6.75-52.12,3.18-107.75,3.18-107.75S271.3,268.49,269,255.86Z" transform="translate(-77.04 -118.67)"/><path class="cls-8" d="M183.45,331.49,170,240.15l-37.8,14.9c-2.29,12.63,5.19,52.42,5.19,52.42s13.15,54.72,4.72,106.06c-.37,4.49-5.59,32.48-3.42,35.59s34.63,10.28,47.85,1.54Z" transform="translate(-77.04 -118.67)"/><path class="cls-34" d="M288.69,384.09c.39-2.55-8.15-27.15-18.28-30.66S164,339.9,164,339.9s-5,8.36-3.28,14.85c0,0,71.15,24.05,80.56,26.94S288.31,386.64,288.69,384.09Z" transform="translate(-77.04 -118.67)"/><path class="cls-34" d="M168.08,341.19s-19.41-7.81-20.66-8.46V361l17.87-6Z" transform="translate(-77.04 -118.67)"/><path class="cls-8" d="M179.18,336.11,173,364.65s64.32,19.91,90.73,25.44,37.55-4.4,35.31-13.42-9.88-22.38-26.24-26.39S179.18,336.11,179.18,336.11Z" transform="translate(-77.04 -118.67)"/><path class="cls-34" d="M117.69,385.13c.1-2.58,8.37-31.69,19-33.25S255.4,366.27,255.4,366.27s-4.82,14.87-8.77,16.47c0,0-54.21,2.05-73.49,4.42C163.37,388.36,117.59,387.71,117.69,385.13Z" transform="translate(-77.04 -118.67)"/><path class="cls-34" d="M238.4,381c5.86,3.19,12.56,4,18.89,5.79,2.58.73,5.66,1.32,7.48-.47a7.46,7.46,0,0,0,1.65-4c.95-4.65-3.09-11.32-2.14-17.4.67-4.27.9-13.34-1.29-13.09-5.77.67-15.19,10-21.25,13a5.19,5.19,0,0,0-2.11,2C237.63,370.11,233.42,378.24,238.4,381Z" transform="translate(-77.04 -118.67)"/><path class="cls-34" d="M262.85,368.67A55.58,55.58,0,0,0,278,367.4c3-.72,6.37-3.35,15.5-8.82,3.4-2-1.22-4.54-4.83-2.89-5.39,2.47-4.36,2.3-11,4.46-5.41,1.75-10.42-.49-15.77.31C258.25,361,259.19,368.58,262.85,368.67Z" transform="translate(-77.04 -118.67)"/><path class="cls-34" d="M263.28,375.56c8.62-.6,11.59.32,17.08-1.1,4.17-1.08,6.21-2.81,12.91-5.36,4.59-1.74,1.77-6.8-2.82-5.06-6.85,2.61-9.26,3.6-9.26,3.6-7,2-14.32.26-21.44,1.34C255,369.71,258.43,375.9,263.28,375.56Z" transform="translate(-77.04 -118.67)"/><path class="cls-34" d="M262.79,381.05c7.31,1.39,14.28,2,17.75,1.4,1.61-.26,8.37-3,10.25-3.65a16.78,16.78,0,0,0,5.13-3.09c1.26-1.45-.37-3.85-2.37-3.39-2.32.55-9.79,3.23-14.85,4.09-7.18,1.21-11.37-2.65-18.53-2.29C255.34,374.36,258,380.13,262.79,381.05Z" transform="translate(-77.04 -118.67)"/><path class="cls-34" d="M260.29,387.44a57.41,57.41,0,0,0,11.58.7c1.31,0,6.08-.81,9.05-.91,1.59-.05,6-.88,6-.88a1.81,1.81,0,0,0-1.42-3.05c-1.91.09-5.48.36-9.61.26-5.85-.14-11.3-2.87-17.05-3.79C255,379.15,256.41,386.82,260.29,387.44Z" transform="translate(-77.04 -118.67)"/><path class="cls-34" d="M261,366.88c2.65-5.26,4.21-8.86,6.69-9.76a57,57,0,0,0,7.85-3.32,7.93,7.93,0,0,0,3.37-5.19c.34-3.84-6.7-1.27-12-.28a14.83,14.83,0,0,0-8.24,4.05c-2.27,2.19-10.07,10-10.07,10Z" transform="translate(-77.04 -118.67)"/><path class="cls-8" d="M233.35,387.74l6.19-29.5s-95.86-10.49-104-11.5-21.73,9.7-23.47,20.5-.35,19.56,10.77,22S233.35,387.74,233.35,387.74Z" transform="translate(-77.04 -118.67)"/><path class="cls-34" d="M219,203.81a7.22,7.22,0,0,0,5.07-.65,16.87,16.87,0,0,0,4.11-3.11c3.26-3.14,6.29-7.1,6.06-11.54a5.55,5.55,0,0,0-1.74-4,5.26,5.26,0,0,0-5.19-.65,8.8,8.8,0,0,0-4.05,3.48Z" transform="translate(-77.04 -118.67)"/><path class="cls-34" d="M178.23,203.81a7.22,7.22,0,0,1-5.07-.65,16.87,16.87,0,0,1-4.11-3.11c-3.26-3.14-6.29-7.1-6.06-11.54a5.55,5.55,0,0,1,1.74-4,5.28,5.28,0,0,1,5.2-.65,8.82,8.82,0,0,1,4,3.48Z" transform="translate(-77.04 -118.67)"/><path class="cls-34" d="M225.7,206c1.29-13.88,4.91-22,7.15-30,1.6-6,3.22-16.28-3.77-25.33-6.91-9.41-24.24-14.75-40.11-10.25s-24.84,13.84-22.91,24.48c1,6.37,1.9,15.18,3,21.75.88,5.46-.78,10.94,1.24,16.26C174,212,188.56,228.08,200,228.08,209.36,228.08,224.81,212,225.7,206Z" transform="translate(-77.04 -118.67)"/><path class="cls-5" d="M201.59,195a4.49,4.49,0,0,1-.34.77,1.43,1.43,0,0,1-.52.64c-.23.12-.59,0-.86-.36a1.6,1.6,0,0,1-.27-.77,2,2,0,0,1,.11-1,2.12,2.12,0,0,1,.51-.82,1.76,1.76,0,0,1,.69-.42c.46-.13.79,0,.89.28a1.56,1.56,0,0,1,0,.83A4.63,4.63,0,0,1,201.59,195Z" transform="translate(-77.04 -118.67)"/><path class="cls-36" d="M198.69,195.9c-.05-.19-.09-.36-.12-.52s0-.28-.07-.42,0-.29,0-.47,0-.37.05-.57a7,7,0,0,0,.1-1.17,1.12,1.12,0,0,0-.32-.81.44.44,0,0,0-.6,0,2.69,2.69,0,0,0-.69.87,4.15,4.15,0,0,0-.55,1.71,3.76,3.76,0,0,0,.07,1.06,4.67,4.67,0,0,0,.36,1,5.29,5.29,0,0,0,.5.85,5.64,5.64,0,0,0,.56.68,8.22,8.22,0,0,0,1,.94c.59.46,1,.63,1.14.31s.17-.66-.15-1.19c-.16-.26-.39-.57-.65-.94-.12-.18-.25-.38-.37-.6A3.17,3.17,0,0,1,198.69,195.9Z" transform="translate(-77.04 -118.67)"/><path class="cls-6" d="M209.07,179.2a12.77,12.77,0,0,1,5.11-.27c1.7.25,5.76,4.42,4.23,4a36.38,36.38,0,0,0-4.54-1,35.09,35.09,0,0,0-4.6-.39C207.7,181.53,207.4,179.64,209.07,179.2Z" transform="translate(-77.04 -118.67)"/><path class="cls-6" d="M188.41,179a12.75,12.75,0,0,0-5.11-.14c-1.7.29-5.68,4.55-4.16,4.1a36.61,36.61,0,0,1,4.52-1.08,35,35,0,0,1,4.59-.5C189.82,181.34,190.09,179.45,188.41,179Z" transform="translate(-77.04 -118.67)"/><path class="cls-6" d="M187.71,191.27l0-3.69a3.24,3.24,0,0,0-3.25-3.21h0a3.24,3.24,0,0,0-3.21,3.25l0,3.69C181.26,193.09,187.72,193.05,187.71,191.27Z" transform="translate(-77.04 -118.67)"/><path class="cls-6" d="M209.9,191.27l0-3.69a3.24,3.24,0,0,1,3.25-3.21h0a3.24,3.24,0,0,1,3.21,3.25l0,3.69C216.35,193.09,209.89,193.05,209.9,191.27Z" transform="translate(-77.04 -118.67)"/><path class="cls-37" d="M192.92,203.09a10,10,0,0,0,11.89,3.53.76.76,0,0,0,.29-1,.78.78,0,0,0-1-.29,8.44,8.44,0,0,1-9.83-2.94c-.55-.8-1.87-.07-1.32.73Z" transform="translate(-77.04 -118.67)"/><path class="cls-38" d="M234.9,169.7a34.35,34.35,0,0,0,.41-11.91c-1-6.15-4.89-12.2-10.88-14.2,3.27-2.16,3.57-7.11,1.54-10.44s-5.71-5.32-9.38-6.73c-12.38-4.79-27.1-4.58-38.41,2.31s-17.58,23.08-15,33.49,3.74,15.83,10.93,15.43c6.36-.36,12-4.11,16.84-8.19s12.11-11.43,17.85-14.17c4.52-2.17,10.12-2.9,14.66-1.1,5.29,11.46,3.94,24.6,4.49,38.15,1.63-4.93,4-11,5.4-16.09C234,174.09,234.49,171.9,234.9,169.7Z" transform="translate(-77.04 -118.67)"/><path class="cls-38" d="M169.29,191.81l3.13-34.33s-4.93-4.39-7.37-2.36S169.29,191.81,169.29,191.81Z" transform="translate(-77.04 -118.67)"/></g></g></g></g></svg>