<?xml version="1.0" encoding="utf-8"?>
<!-- Generator: Adobe Illustrator 26.0.2, SVG Export Plug-In . SVG Version: 6.00 Build 0)  -->
<svg version="1.1" id="Layer_1" xmlns="http://www.w3.org/2000/svg" xmlns:xlink="http://www.w3.org/1999/xlink" x="0px" y="0px"
	 viewBox="0 0 100 100" style="enable-background:new 0 0 100 100;" xml:space="preserve">
<style type="text/css">
	.st0{fill:#FFFFFF;}
</style>
<g id="_x38_D0PLJ.tif">
	<g>
		<path class="st0" d="M28.7,86.6c-0.5-0.1-1.1-0.3-1.6-0.4c-5-1.3-8.4-5.8-8.4-10.9c0-16.7,0-33.4,0-50c0-6.2,5-11.2,11.2-11.3
			c10.7,0,21.3,0,32,0c2,0,3.5,1.4,3.5,3.4s-1.5,3.4-3.5,3.4c-10.5,0-20.9,0-31.4,0c-3.2,0-5.1,1.8-5.1,5c0,16.3,0,32.6,0,48.9
			c0,3.2,1.8,5,5.1,5c10.5,0,20.9,0,31.4,0c1.8,0,3.2,1.2,3.5,2.8c0.3,1.8-0.7,3.3-2.4,3.9c-0.1,0-0.2,0.1-0.2,0.1
			C51.4,86.6,40.1,86.6,28.7,86.6z"/>
		<path class="st0" d="M81.9,50.9c-0.3,1-0.9,1.8-1.7,2.5C75.1,58.4,70,63.5,65,68.7c-0.9,0.9-2,1.4-3.2,1.2c-1.3-0.2-2.2-1-2.6-2.2
			c-0.4-1.2-0.2-2.4,0.7-3.4c0.3-0.3,0.6-0.6,0.9-1c3-3,5.9-5.9,8.9-8.9c0.2-0.2,0.3-0.4,0.6-0.7c-0.4,0-0.6,0-0.9,0
			c-8.5,0-17.1,0-25.6,0c-1.9,0-3.4-1.3-3.6-3c-0.2-2,1.3-3.7,3.4-3.8c2,0,4,0,6,0c6.6,0,13.2,0,19.8,0c0.3,0,0.5,0,0.9,0
			c-0.3-0.3-0.4-0.5-0.6-0.7c-3.2-3.2-6.4-6.4-9.6-9.6c-1.5-1.5-1.5-3.7,0-5c1.3-1.2,3.3-1.2,4.6,0c0.9,0.9,1.8,1.8,2.7,2.7
			c4.3,4.3,8.6,8.6,12.9,12.9c0.7,0.7,1.4,1.5,1.7,2.5C81.9,50.1,81.9,50.5,81.9,50.9z"/>
	</g>
</g>
</svg>
