<svg xmlns="http://www.w3.org/2000/svg" width="14" height="13" viewBox="0 0 14 13">
  <path id="meter" d="M7,2a6.922,6.922,0,0,1,3.391,13H3.61A6.922,6.922,0,0,1,7,2Zm3.964,10.859a5.489,5.489,0,0,0,1.642-3.926H11.376V8.067h1.162a5.45,5.45,0,0,0-.582-1.733H10.5V5.467h.879A5.625,5.625,0,0,0,8.751,3.656V4.6H7.876V3.448a5.733,5.733,0,0,0-1.75,0V4.6H5.251V3.656A5.625,5.625,0,0,0,2.622,5.467H3.5v.867H2.045a5.45,5.45,0,0,0-.582,1.733H2.626v.867H1.395a5.49,5.49,0,0,0,1.642,3.926,5.618,5.618,0,0,0,.459.407h2.63l.5-6.933h.75l.5,6.933h2.63a5.7,5.7,0,0,0,.459-.407Z" transform="translate(-0.001 -2)" fill="#fff"/>
</svg>
