<svg id="money-check-dollar-solid" xmlns="http://www.w3.org/2000/svg" width="22.615" height="15.077" viewBox="0 0 22.615 15.077">
  <path id="money-check-dollar-solid-2" data-name="money-check-dollar-solid" d="M20.1,64a2.514,2.514,0,0,1,2.513,2.513V76.564A2.515,2.515,0,0,1,20.1,79.077H2.513A2.514,2.514,0,0,1,0,76.564V66.513A2.513,2.513,0,0,1,2.513,64Zm-9.423,5.026a.628.628,0,1,0,0,1.256h8.795a.628.628,0,1,0,0-1.256Zm0,5.026h8.795a.628.628,0,1,0,0-1.256H10.679a.628.628,0,1,0,0,1.256ZM6.443,67.769a.8.8,0,0,0-.825-.789.783.783,0,0,0-.754.789V68a2.591,2.591,0,0,0-.624.2,2.025,2.025,0,0,0-1.221,1.48,1.868,1.868,0,0,0,.134,1.139,1.92,1.92,0,0,0,.68.766,5.573,5.573,0,0,0,1.514.628l.086.024a4.222,4.222,0,0,1,1.15.459.364.364,0,0,1,.145.161.412.412,0,0,1,.012.259.442.442,0,0,1-.314.346,2.146,2.146,0,0,1-1.131.075,8.714,8.714,0,0,1-1.029-.306c-.086-.031-.173-.059-.251-.086a.785.785,0,0,0-.993.5.735.735,0,0,0,.5.958.393.393,0,0,0,.174.094,10.458,10.458,0,0,0,1.17.357v.251a.783.783,0,0,0,.754.789.8.8,0,0,0,.825-.789v-.216c.208-.039.412-.133.6-.181a2.05,2.05,0,0,0,1.127-2.678,1.932,1.932,0,0,0-.664-.8,5.331,5.331,0,0,0-1.586-.683l-.067-.008a4.863,4.863,0,0,1-1.139-.452.384.384,0,0,1-.141-.137.3.3,0,0,1-.008-.2c.016-.079.075-.208.322-.318A2.3,2.3,0,0,1,6.011,69.5c.173.063.7.165.856.2a.784.784,0,1,0,.4-1.516c-.173-.047-.565-.126-.825-.173Z" transform="translate(0 -64)" fill="#e5173f"/>
</svg>
