<svg xmlns="http://www.w3.org/2000/svg" xmlns:xlink="http://www.w3.org/1999/xlink" width="478.677" height="292.282" viewBox="0 0 478.677 292.282">
  <defs>
    <clipPath id="clip-path">
      <rect id="Rectangle_20" data-name="Rectangle 20" width="478.677" height="292.282" transform="translate(0 0)" fill="none"/>
    </clipPath>
    <clipPath id="clip-path-2">
      <rect id="Rectangle_19" data-name="Rectangle 19" width="478.677" height="357.653" fill="none"/>
    </clipPath>
    <clipPath id="clip-path-3">
      <rect id="Rectangle_10" data-name="Rectangle 10" width="0.787" height="1.181" fill="none"/>
    </clipPath>
    <clipPath id="clip-path-4">
      <rect id="Rectangle_12" data-name="Rectangle 12" width="0.752" height="1.127" fill="none"/>
    </clipPath>
    <clipPath id="clip-path-5">
      <rect id="Rectangle_14" data-name="Rectangle 14" width="0.828" height="1.241" fill="none"/>
    </clipPath>
    <clipPath id="clip-path-6">
      <rect id="Rectangle_16" data-name="Rectangle 16" width="0.768" height="1.151" fill="none"/>
    </clipPath>
    <clipPath id="clip-path-7">
      <rect id="Rectangle_18" data-name="Rectangle 18" width="0.77" height="1.155" fill="none"/>
    </clipPath>
  </defs>
  <g id="Group_30" data-name="Group 30" transform="translate(-5.238 5.71)">
    <g id="Group_29" data-name="Group 29" transform="translate(5.238 -5.71)" clip-path="url(#clip-path)">
      <path id="Path_1334" data-name="Path 1334" d="M477.688,1080h0Z" transform="translate(0.804 -722.228)" fill="#f7f7f7"/>
      <g id="Group_28" data-name="Group 28" transform="translate(0 0)">
        <g id="Group_27" data-name="Group 27" clip-path="url(#clip-path-2)">
          <path id="Path_1120" data-name="Path 1120" d="M695.3,2294.574s-91.648,5.9-204.7,5.9-204.7.091-204.7-5.9,91.648-10.85,204.7-10.85,204.7,10.85,204.7,10.85" transform="translate(-250.949 -2011.491)" fill="#d5d3e0"/>
          <rect id="Rectangle_9" data-name="Rectangle 9" width="13.013" height="15.478" transform="translate(230.531 98.954)" fill="#f0b297"/>
          <path id="Path_1121" data-name="Path 1121" d="M1936.669,832.747v4.76a22.864,22.864,0,0,1-13.013,4.76v-9.52Z" transform="translate(-1693.125 -733.793)" fill="#d1785e"/>
          <path id="Path_1122" data-name="Path 1122" d="M2035.616,763.527a2.5,2.5,0,0,0,1.75-.225,5.782,5.782,0,0,0,1.415-1.072c1.125-1.083,2.171-2.449,2.091-3.979a1.911,1.911,0,0,0-.6-1.38,1.826,1.826,0,0,0-1.792-.225,3.047,3.047,0,0,0-1.394,1.2Z" transform="translate(-1791.715 -666.662)" fill="#f0b297"/>
          <path id="Path_1123" data-name="Path 1123" d="M1879.042,763.527a2.5,2.5,0,0,1-1.75-.225,5.8,5.8,0,0,1-1.415-1.072c-1.125-1.083-2.171-2.449-2.091-3.979a1.909,1.909,0,0,1,.6-1.38,1.825,1.825,0,0,1,1.791-.225,3.048,3.048,0,0,1,1.394,1.2Z" transform="translate(-1649.207 -666.662)" fill="#f0b297"/>
          <path id="Path_1124" data-name="Path 1124" d="M1902.584,650.6c.445-4.787,1.693-7.579,2.465-10.345.551-2.072,1.109-5.613-1.3-8.734-2.381-3.243-8.357-5.085-13.828-3.535-5.51,1.552-8.567,4.774-7.9,8.441.337,2.2.653,5.233,1.02,7.5.3,1.883-.268,3.772.428,5.607,1.3,3.157,6.308,8.694,10.256,8.694,3.226,0,8.551-5.538,8.859-7.627" transform="translate(-1656.383 -552.998)" fill="#f0b297"/>
          <g id="Group_14" data-name="Group 14" transform="translate(237.342 92.358)" style="mix-blend-mode: soft-light;isolation: isolate">
            <g id="Group_13" data-name="Group 13">
              <g id="Group_12" data-name="Group 12" clip-path="url(#clip-path-3)">
                <path id="Path_1125" data-name="Path 1125" d="M1981.38,778.189a1.732,1.732,0,0,1-.117.265.5.5,0,0,1-.18.219c-.081.043-.2.013-.3-.125a.594.594,0,0,1-.094-.263.773.773,0,0,1,.038-.334.762.762,0,0,1,.179-.282.574.574,0,0,1,.237-.143c.159-.045.272.011.308.1a.515.515,0,0,1,0,.285,1.715,1.715,0,0,1-.074.281" transform="translate(-1980.688 -777.51)" fill="#f2f2f2"/>
              </g>
            </g>
          </g>
          <path id="Path_1126" data-name="Path 1126" d="M1972.427,775.514c-.015-.066-.028-.124-.038-.177s-.018-.1-.025-.145a.993.993,0,0,1-.007-.163c0-.061.009-.129.018-.2a2.291,2.291,0,0,0,.032-.4.393.393,0,0,0-.109-.281.152.152,0,0,0-.209-.009.928.928,0,0,0-.237.3,1.5,1.5,0,0,0-.19.59,1.173,1.173,0,0,0,.026.368,1.585,1.585,0,0,0,.121.341,2,2,0,0,0,.174.292,2.286,2.286,0,0,0,.193.235,3.133,3.133,0,0,0,.351.324c.2.158.327.215.394.106s.057-.228-.054-.411c-.053-.091-.133-.2-.221-.324a2.1,2.1,0,0,1-.128-.207,1.128,1.128,0,0,1-.092-.239" transform="translate(-1735.395 -682.152)" fill="#d1785e"/>
          <path id="Path_1127" data-name="Path 1127" d="M2003.621,743.924a4.616,4.616,0,0,1,1.63-.076,4.662,4.662,0,0,1,1.565.492c.487.259.271.753-.215.636a13.221,13.221,0,0,0-1.449-.275,12.863,12.863,0,0,0-1.468-.107c-.5-.012-.595-.544-.064-.67" transform="translate(-1763.226 -655.476)" fill="#1a1a1a"/>
          <path id="Path_1128" data-name="Path 1128" d="M1925.61,743.713a4.62,4.62,0,0,0-1.632-.041,4.677,4.677,0,0,0-1.555.526c-.482.27-.256.759.228.632a13.239,13.239,0,0,1,1.443-.306,12.88,12.88,0,0,1,1.466-.138c.5-.022.584-.557.05-.671" transform="translate(-1691.804 -655.308)" fill="#1a1a1a"/>
          <path id="Path_1129" data-name="Path 1129" d="M1930.343,761.011l-.007-1.272a1.113,1.113,0,0,0-2.226.012l.007,1.272c0,.612,2.23.6,2.226-.012" transform="translate(-1697.047 -668.528)" fill="#1a1a1a"/>
          <path id="Path_1130" data-name="Path 1130" d="M2010.889,761.011l.007-1.272a1.113,1.113,0,0,1,2.227.012l-.007,1.272c0,.612-2.23.6-2.227-.012" transform="translate(-1769.941 -668.528)" fill="#1a1a1a"/>
          <path id="Path_1131" data-name="Path 1131" d="M1957.485,810.17a5.811,5.811,0,0,0,5.77-.823c.248-.2-.1-.543-.348-.348a5.33,5.33,0,0,1-5.291.7.249.249,0,0,0-.3.172.253.253,0,0,0,.172.3" transform="translate(-1722.754 -712.829)" fill="#a33939"/>
          <path id="Path_1132" data-name="Path 1132" d="M2107.386,962.194c1.42,1.108,3.868,3.389,4.014,4.612s4.8,33.712,5.086,35.815c.583,4.218-12.865-.112-13.374-2.862s-6.126-22.782-6.126-22.782l5.427-15.906s3.475-.046,4.974,1.123" transform="translate(-1845.756 -846.791)" fill="#29253b"/>
          <path id="Path_1133" data-name="Path 1133" d="M1949.5,1370.666c3.411,20.94.46,59.529-.425,65.208-.894,5.743-12.755-3.74-13.138-9.531-.137-2.081.41-4.152.414-6.238,0-1.842-.8-3.613-.834-5.462-.265-16.142-3.446-18.409-5.754-28.363l-3.735-15.613Z" transform="translate(-1695.216 -1207.472)" fill="#232033"/>
          <path id="Path_1134" data-name="Path 1134" d="M1746.072,2248.477c2.523-1.206,4.747-2.479,5.373-3.776l.279-11.47c.1-.853.283-1.894-.551-2.009l-3.788-.523a1.48,1.48,0,0,0-1.633,1.1c-.422,1.581-1.905,6.811-1.905,6.811l-7.4,7.292a4.246,4.246,0,0,0-1.625,2.575c0,.035,11.246,0,11.246,0" transform="translate(-1526.846 -1964.786)" fill="#b3b3b3"/>
          <path id="Path_1135" data-name="Path 1135" d="M1720.825,2277.388c-.239-.037.617,6.129-2.193,6.588a3.978,3.978,0,0,1-.544.046l-.222-2.6s-3.992-1.843-6.983-1.61l-.691,1.42-8.5,4.68a5.186,5.186,0,0,0-1.865,3.189,1.14,1.14,0,0,0,.242.681h21.491s-.493-12.354-.731-12.39" transform="translate(-1496.021 -2005.911)" fill="#1a1a1a"/>
          <path id="Path_1136" data-name="Path 1136" d="M2084.9,2251.3a10.444,10.444,0,0,0-1.087-2.564l-5.618-7.362s-.708-4.763-.9-6.2a1.342,1.342,0,0,0-1.3-1.18l-3.353-.058a1.35,1.35,0,0,0-1.354,1.35l-.382,10.37a53.978,53.978,0,0,0,2.275,5.612Z" transform="translate(-1822.796 -1967.654)" fill="#b3b3b3"/>
          <path id="Path_1137" data-name="Path 1137" d="M2065.045,2288.8l-3.8-4.98-.525-1.578c-2.574-.608-6.251.458-6.251.458l-.483,2.242a3.566,3.566,0,0,1-.469-.115c-2.392-.781-1.625-4.88-1.838-4.881s-2.718,12.085-2.718,12.085h17.332c.009-.065.016-.131.02-.2a4.722,4.722,0,0,0-1.267-3.034" transform="translate(-1803.465 -2008.165)" fill="#1a1a1a"/>
          <path id="Path_1138" data-name="Path 1138" d="M1821.324,1360.666c-3.486,20.94-1.763,59.529-.859,65.208.914,5.743,13.034-3.74,13.425-9.531.141-2.082-.418-4.153-.422-6.239a23.684,23.684,0,0,1,.852-5.462c2.358-9.955,7.338-19.91,9.7-29.865v-14.112Z" transform="translate(-1601.173 -1198.666)" fill="#232033"/>
          <path id="Path_1139" data-name="Path 1139" d="M1810.865,1830.255c-.148-8.247-.007-16.5.133-24.742q.105-6.215.212-12.43c.1-5.837.441-11.75,2.59-17.257.641-1.643,10.97-5.884,12.245-4.161,0,0,.86,8.123,1.4,11.8a21.483,21.483,0,0,1-.607,7.274c-2.607,13.061-3.97,26.454-6.577,39.515Z" transform="translate(-1593.748 -1560.226)" fill="#232033"/>
          <path id="Path_1140" data-name="Path 1140" d="M2016.55,1839.726c.145-8.247-.2-15.966-.337-24.213q-.1-6.215-.207-12.43c-.1-5.838-.431-11.751-2.534-17.257-.628-1.643-10.735-5.885-11.982-4.161,0,0-.842,8.123-1.369,11.8a21.944,21.944,0,0,0,.594,7.275c2.552,13.06,3.767,25.959,6.318,39.02Z" transform="translate(-1760.353 -1569.032)" fill="#232033"/>
          <path id="Path_1141" data-name="Path 1141" d="M1809.883,978.981c-.385,0-.643,0-.747,0-1.938-.024-7.705-1.7-8.54-3,2.148-11.1.841-17.8-.424-24.271-.711-3.642-1.521-11.532-1.521-11.532-.777-1.458-1.674-12.353-1.012-16.846l14.272-6,6.61,1.979h1.333l6.61-1.979,14.272,6c.662,4.493-.235,15.388-1.012,16.846,0,0-1,8.079-1.912,11.754-1.541,6.219-3.135,12.651-.974,23.646l.01.049c-.429.648-3.639,2.311-5.2,2.558-5.026.792-21.081.8-21.762.8" transform="translate(-1581.955 -808.271)" fill="#cfd7e9"/>
          <path id="Path_1142" data-name="Path 1142" d="M1934.961,934.976l2.494-2.418-1.482-4.052-3.523-.313-3.522.313-1.482,4.052,2.494,2.418-3.907,38,6.419,7.506,6.419-7.506Z" transform="translate(-1695.217 -817.84)" fill="#869ac9"/>
          <path id="Path_1143" data-name="Path 1143" d="M1986.643,889.95l-6.862,4.567,2.512.513,2.013,10.42,6.7-10.538Z" transform="translate(-1742.548 -784.164)" fill="#e7ebf4"/>
          <path id="Path_1144" data-name="Path 1144" d="M1890.188,889.95l6.862,4.567-2.511.513-2.014,10.42-6.695-10.538Z" transform="translate(-1659.817 -784.164)" fill="#e7ebf4"/>
          <path id="Path_1145" data-name="Path 1145" d="M1716.362,960.648c-1.42,1.108-3.868,3.389-4.014,4.612s-3.273,27.075-4.084,34.172c-.5,6.84,12.442,6.917,13.239,5.028s5.258-29.029,5.258-29.029l-5.426-15.906s-3.475-.046-4.974,1.123" transform="translate(-1503.443 -845.43)" fill="#29253b"/>
          <path id="Path_1146" data-name="Path 1146" d="M2044.394,926.523l-13.1-5.3-4.023,31.065-.509,38.616c5.027,3.427,14.3,2.247,15.313.958s-.643-9.938-.858-11.6c-2.276-17.576,1.073-36.339,1.073-36.339s2.882-13.145,2.108-17.4" transform="translate(-1783.915 -811.706)" fill="#29253b"/>
          <path id="Path_1147" data-name="Path 1147" d="M1804.316,952.028l-4.533-30.8-12.746,5.023c-.774,4.259,1.75,17.677,1.75,17.677s4.435,18.456,1.592,35.771c-.124,1.511-1.887,10.951-1.155,12s11.68,3.468,16.136.517Z" transform="translate(-1572.692 -811.706)" fill="#29253b"/>
          <path id="Path_1148" data-name="Path 1148" d="M1886.7,598.427a4.01,4.01,0,0,1-1.4-.346c-1.152-.526-2.418-.875-3.052-1.882-.851-1.351-.025-3.227-1.25-3.6-1.945-.588-5.809,1.225-7.535.231a2.76,2.76,0,0,1-.9-.829,7.962,7.962,0,0,1-1.613,1.567c-1.063.83-2.234,1.786-2.305,3.046a7.152,7.152,0,0,0,.561,2.259c.4,1.427-.738,5.7-.738,5.7a21.81,21.81,0,0,1-1.923-3.664c-.353-1.064-.182-2.215-.445-3.3-.282-1.165-1.052-2.206-1.29-3.379a4.125,4.125,0,0,1,1.273-3.757,8.292,8.292,0,0,1-.03-1.956,5.082,5.082,0,0,1,2.04-3.642,4.233,4.233,0,0,1,3.91-.471c2.155-1.856,4.686-3.542,7.579-3.252,2.6.261,4.637,2.074,7.035,3.019,1.4.553,2.935.807,4.354,1.329a5.226,5.226,0,0,1,3.271,2.709,2.485,2.485,0,0,1-.191,2.034,2.113,2.113,0,0,1,.837,1.173,4.051,4.051,0,0,1-.757,2.949c-.545.909-2.9,2.123-3.082,3.14-.209,1.149-2.245,7.067-2.245,7.067l-1.385-6.169a3.631,3.631,0,0,1-.726.025" transform="translate(-1641.25 -512.213)" fill="#2c1e1c"/>
          <path id="Path_1149" data-name="Path 1149" d="M1910.777,1217.817c.129-.86-2.749-9.158-6.165-10.34s-35.905-4.563-35.905-4.563-1.681,2.819-1.1,5.006c0,0,24,8.112,27.168,9.088s15.877,1.669,16.006.809" transform="translate(-1643.66 -1059.752)" fill="#f0b297"/>
          <path id="Path_1150" data-name="Path 1150" d="M1838.04,1185.521s-6.545-2.634-6.966-2.85v9.517l6.025-2.033Z" transform="translate(-1611.599 -1041.928)" fill="#f0b297"/>
          <path id="Path_1151" data-name="Path 1151" d="M1905.431,1192.191l-2.078,9.628s21.692,6.713,30.6,8.579,12.665-1.483,11.909-4.525a12.182,12.182,0,0,0-8.849-8.9c-5.518-1.35-31.58-4.781-31.58-4.781" transform="translate(-1675.247 -1050.311)" fill="#29253b"/>
          <path id="Path_1152" data-name="Path 1152" d="M1747.118,1247.671c.033-.869,2.822-10.687,6.4-11.214s40.043,4.855,40.043,4.855-1.626,5.013-2.958,5.553c0,0-18.279.693-24.782,1.491-3.294.4-18.733.184-18.7-.685" transform="translate(-1537.669 -1089.258)" fill="#f0b297"/>
          <path id="Path_1153" data-name="Path 1153" d="M2082.171,1246.328c1.977,1.076,4.237,1.35,6.371,1.953.871.246,1.91.447,2.523-.158a2.535,2.535,0,0,0,.557-1.342c.32-1.569-1.042-3.818-.722-5.87.225-1.44.3-4.5-.435-4.414-1.945.225-5.121,3.362-7.166,4.391a1.751,1.751,0,0,0-.712.664c-.675,1.12-2.094,3.863-.417,4.777" transform="translate(-1832.017 -1089.325)" fill="#f0b297"/>
          <path id="Path_1154" data-name="Path 1154" d="M2148.9,1250.551a18.646,18.646,0,0,0,5.1-.429c1.025-.241,2.147-1.129,5.227-2.971,1.146-.685-.412-1.532-1.629-.975a20.913,20.913,0,0,1-3.719,1.5c-1.825.591-3.517-.166-5.319.1-1.212.181-.894,2.74.338,2.769" transform="translate(-1890.5 -1097.69)" fill="#f0b297"/>
          <path id="Path_1155" data-name="Path 1155" d="M2143.773,1274.077c2.906-.2,3.908.107,5.76-.372,1.406-.365,2.1-.947,4.353-1.805,1.549-.589.6-2.294-.949-1.707-2.312.879-3.124,1.213-3.124,1.213-2.367.661-4.829.086-7.23.453-1.616.247-.447,2.332,1.19,2.218" transform="translate(-1885.226 -1118.891)" fill="#f0b297"/>
          <path id="Path_1156" data-name="Path 1156" d="M2143.991,1297.268a20.976,20.976,0,0,0,5.986.475c.543-.09,2.823-1.011,3.456-1.233a5.577,5.577,0,0,0,1.731-1.043c.425-.487-.126-1.3-.8-1.14-.783.183-3.3,1.087-5.01,1.376-2.42.411-3.833-.891-6.25-.77-1.627.081-.731,2.027.885,2.334" transform="translate(-1885.61 -1140.232)" fill="#f0b297"/>
          <path id="Path_1157" data-name="Path 1157" d="M2140.58,1318a19.507,19.507,0,0,0,3.907.234c.442.012,2.051-.272,3.051-.3.538-.018,2.035-.3,2.035-.3a.612.612,0,0,0-.48-1.03c-.645.03-1.848.123-3.241.089-1.974-.048-3.81-.969-5.749-1.279-1.305-.209-.832,2.378.477,2.587" transform="translate(-1883.043 -1158.807)" fill="#f0b297"/>
          <path id="Path_1158" data-name="Path 1158" d="M2120.98,1228.589c.894-1.774,1.419-2.989,2.256-3.294a18.8,18.8,0,0,0,2.649-1.12,2.667,2.667,0,0,0,1.135-1.75c.115-1.293-2.26-.428-4.036-.095a4.978,4.978,0,0,0-2.777,1.368c-.769.736-3.4,3.364-3.4,3.364Z" transform="translate(-1863.212 -1076.329)" fill="#f0b297"/>
          <path id="Path_1159" data-name="Path 1159" d="M1770.5,1235.884l2.088-9.949s-32.327-3.538-35.087-3.878-7.329,3.27-7.915,6.914-.117,6.6,3.632,7.405,37.282-.491,37.282-.491" transform="translate(-1522.044 -1076.59)" fill="#29253b"/>
          <path id="Path_1160" data-name="Path 1160" d="M1071.562,1223.1a2.581,2.581,0,0,1-3.007-.311s.1-23.814.6-25.982,3.883-4.639,5.46-3.227a6.467,6.467,0,0,1,2.358,5.807c-.135,3.128-5.411,23.713-5.411,23.713" transform="translate(-940.142 -1051.171)" fill="#f2ae83"/>
          <path id="Path_1161" data-name="Path 1161" d="M1089.29,1429.531a42.782,42.782,0,0,0-.536,5.139c.141.635,1.635,5.115,1.29,5.868s-1.383.146-1.8-1.172a35,35,0,0,1-1.326-5.15c.055-.564-.275-2.729-.2-3.344s1.623-3.434,2.57-1.34" transform="translate(-956.129 -1258.636)" fill="#f2ae83"/>
          <path id="Path_1162" data-name="Path 1162" d="M1071.152,1444.1c.659.765.328,3.624.482,3.854s1.931,3.178,2.422,4.23-.587,1.192-1.535.091a22.644,22.644,0,0,1-2.4-3.667c-.168-.411-1.427-3.727-1.587-4.6s1.667-1.007,2.615.093" transform="translate(-940.117 -1271.44)" fill="#f2ae83"/>
          <path id="Path_1163" data-name="Path 1163" d="M1063.771,1441.773c.659.765.6,3.7.751,3.929a25.464,25.464,0,0,1,2.929,3.507c.491,1.053-.587,1.191-1.535.091s-3.1-2.809-3.27-3.221-.8-3.5-.957-4.375,1.132-1.032,2.08.069" transform="translate(-934.085 -1269.404)" fill="#f2ae83"/>
          <path id="Path_1164" data-name="Path 1164" d="M1067.2,1398.327a5.655,5.655,0,0,1-.822,2.19c-.314-.063-.629-.117-.944-.164-1.166-.178-2.331-.28-3.5-.481-.259-.045-.52-.1-.779-.153-.347-2.278.26-7.541,3.386-6.319,0,0,2.6,3.974,2.655,4.928" transform="translate(-933.555 -1227.331)" fill="#f2ae83"/>
          <path id="Path_1165" data-name="Path 1165" d="M1082.951,1394.527s2.153,1.709,2.876,2.392c.518.489,1.86,2.247,2.042,2.4a13.849,13.849,0,0,1-.717,3.642c-.206.408-.931.279-1.453-.742a3.983,3.983,0,0,1-.031-2.553s-2.787-1.484-3.439-2.639.721-2.5.721-2.5" transform="translate(-952.028 -1228.484)" fill="#f2ae83"/>
          <path id="Path_1166" data-name="Path 1166" d="M1355.093,723.532c2.306,5.461,2.527,16.693,3.8,28.471l-2.68-.069-1.835-26.785Z" transform="translate(-1191.828 -637.62)" fill="#a3400f"/>
          <path id="Path_1167" data-name="Path 1167" d="M1151.9,700.175c-1.51,11.155-.6,23.473-.6,35.794a88.343,88.343,0,0,0,27,.648,236.275,236.275,0,0,0-2.579-32.447s-2.845-8.45-9.913-8.046-13.905,4.05-13.905,4.05" transform="translate(-1012.767 -613.474)" fill="#a3400f"/>
          <path id="Path_1168" data-name="Path 1168" d="M1397.516,1067.47a10.025,10.025,0,0,0,1.838-5.106c-.069-1.547-6.655-18.314-6.655-18.314s-7.678,2.442-7.95,5.714c0,0,7.128,16.512,7.724,17.04,1.329,1.179,4.269,1.551,5.043.665" transform="translate(-1218.575 -919.861)" fill="#f2ae83"/>
          <path id="Path_1169" data-name="Path 1169" d="M1356.106,936.385c1.471.659,4.086,2.118,4.474,3.149s5.557,13.343,7.781,19.336c-1.82,3.6-5.8,4.156-9.739,5.06-3.01-4.346-4.291-8.846-5.982-13.855l-1.176-13.624s3.091-.762,4.643-.067" transform="translate(-1189.265 -824.796)" fill="#29253b"/>
          <path id="Path_1170" data-name="Path 1170" d="M1121.036,1689.241c.58-5.623.633-9.782,6.161-9.97,3.737-.128,5.927.269,6.176,3.714,0,0-2.612,17.921-3.779,27.781-1.054,8.907-2.539,25.657-3.3,37.623l-4.651-.207c-.238-3.707-2.919-29.719-3.538-36.371-1.461-15.7,2.39-17.311,2.933-22.57" transform="translate(-983.483 -1479.205)" fill="#f2ae83"/>
          <path id="Path_1171" data-name="Path 1171" d="M1162.464,1452.5l6.691-37.172s-6.942-1.756-10.452-2.767c-11.133-3.206-5.825,35.108-5.812,38.369.02,5.034,8.016,6.022,9.573,1.569" transform="translate(-1013.283 -1244.199)" fill="#f8a588"/>
          <path id="Path_1172" data-name="Path 1172" d="M1098.492,2230.027c-.03-2.538-1.646-3.067-1.646-3.067l-5.313,2.085s-8.755,17.7-7.435,18.1l9.457.253c2.725.061,2.019-4.268,3.073-6.563l-.05,6.624h1.186l.553-9.226a5.838,5.838,0,0,0,.177-.806c.131-1.089.037-4,0-7.4" transform="translate(-953.709 -1961.506)" fill="#92372b"/>
          <path id="Path_1173" data-name="Path 1173" d="M1119.04,2210.544c-.464,1.3-2.451,6.324-2.963,7.92-.376,1.173-1.2,3.729-1.783,5.535a1.578,1.578,0,0,0,1.447,2.061l4.05.141,4.205-14.056c.051-.415.081-2.547-.812-3.079s-3.68.178-4.144,1.479" transform="translate(-980.35 -1945.591)" fill="#f2ae83"/>
          <path id="Path_1174" data-name="Path 1174" d="M1293.688,1710.972c0-1.669.311-5.339,5.839-5.527,3.737-.128,5.231,1.333,5.481,4.779,0,0,1.511,6.61,3.562,15.669,1.908,8.428-7.092,26.546-5.5,43.5l-4.651-.206c-.237-3.707-1-21.691-1.624-28.343-1.461-15.7-3.108-29.876-3.108-29.876" transform="translate(-1138.389 -1502.264)" fill="#f2ae83"/>
          <path id="Path_1175" data-name="Path 1175" d="M1327.823,2225.718s3.23,12.473,3.682,14.527a7.984,7.984,0,0,1-.995,5.6c-.71.77-7.593.568-9.054.141s.973-19.517.973-19.517Z" transform="translate(-1162.43 -1960.413)" fill="#92372b"/>
          <path id="Path_1176" data-name="Path 1176" d="M1331.493,2195.441c0,1.4-.194,6.82-.135,8.542.07,2.067.26,8.113.26,8.113s5.3.371,5.95-.262c1.852-1.8,1.024-5.561,1.024-5.561l-1.572-9.1c-.1-.447-.828-2.747-1.911-3.321s-3.616.192-3.616,1.594" transform="translate(-1171.551 -1932.179)" fill="#f2ae83"/>
          <path id="Path_1177" data-name="Path 1177" d="M1294,1484.911l-.314-37.768s7.139-.558,10.769-.961c11.515-1.278-1.28,33.72-1.14,36.978.174,4.054-8.533,6.4-9.314,1.751" transform="translate(-1138.389 -1273.94)" fill="#f8c8b8"/>
          <path id="Path_1178" data-name="Path 1178" d="M1160.25,952.7c-1.272-1.333-4.562-15.2-4.562-15.2h-21.86s-3.289,13.87-4.562,15.2c-4.552,4.767.628,14.174,2.365,16.893,2.4,7.845,1.752,11.351,1.8,18.6a58.317,58.317,0,0,0,22.661,0c.045-7.253-.6-10.759,1.8-18.6,1.737-2.719,6.916-12.126,2.364-16.893" transform="translate(-991.995 -826.037)" fill="#869ac9"/>
          <path id="Path_1179" data-name="Path 1179" d="M1145.815,1356.687c1.47-13.2.053-38.169-.443-42.674s-4.97-10.843-7.224-15.468c-8.547.015-13.747-.713-21.967,1.629-2.186,3.755-5.717,7.742-7.088,12.558s-.668,29.371-1.985,43.376c10.082,1.835,35.589,2.533,38.707.579" transform="translate(-974.091 -1143.88)" fill="#869ac9"/>
          <rect id="Rectangle_11" data-name="Rectangle 11" width="12.891" height="15.333" transform="translate(145.734 102.033)" fill="#f2ae83"/>
          <path id="Path_1180" data-name="Path 1180" d="M1226.484,858.528v4.716a22.648,22.648,0,0,1-12.891,4.715v-9.431Z" transform="translate(-1067.859 -756.495)" fill="#c2713e"/>
          <path id="Path_1181" data-name="Path 1181" d="M1202.776,947.648s-1.764,2.484-1.786,3.95c-.016,1.057,7.288,10.616,8.511,10.616s8.629-10.388,8.807-11.062a2.578,2.578,0,0,0-1.073-2.569,7.573,7.573,0,0,0-2.708-1.124Z" transform="translate(-1056.761 -834.804)" fill="#f2ae83"/>
          <path id="Path_1182" data-name="Path 1182" d="M1121.481,931.322s-3.666,14.436-4.532,15.342c-2.067,2.165-2.5,5.411-1.283,9.649a32.2,32.2,0,0,0,3.561,7.745s.882,7.362-.3,11.393-5.279,12.988-5.279,12.988,11.632.368,11.936.416c.43-17.317,1.007-41.18,0-58.206Z" transform="translate(-979.848 -820.003)" fill="#29253b"/>
          <path id="Path_1183" data-name="Path 1183" d="M1319.755,944.709c-.866-.907-3.942-15.2-3.942-15.2l-6.169-1.084c-.98,17.5-3.078,40.738,0,57.794.526-.08,12.571-.331,13.1-.422,0,0-4.662-10.161-5.551-12.5a20.28,20.28,0,0,1,.284-11.2,32.161,32.161,0,0,0,3.561-7.744c1.216-4.238.784-7.484-1.283-9.649" transform="translate(-1151.02 -818.047)" fill="#29253b"/>
          <path id="Path_1184" data-name="Path 1184" d="M1078.247,1083.96a10.02,10.02,0,0,1-2.9-4.589c-.266-1.526,2.546-19.319,2.546-19.319s8.024.728,9,3.865c0,0-3.762,17.847-4.35,18.384s-3.348,2.356-4.3,1.659" transform="translate(-946.11 -933.952)" fill="#f2ae83"/>
          <path id="Path_1185" data-name="Path 1185" d="M1080.909,937.223c-1.416.77-3.32,2.748-3.476,3.839s-2.548,14.228-3.425,20.559a16.152,16.152,0,0,0,11.385,5.462c2-4.893,1.5-12.186,2.068-17.441l-.192-13.549s-4.618.184-6.36,1.13" transform="translate(-944.944 -824.797)" fill="#29253b"/>
          <path id="Path_1186" data-name="Path 1186" d="M1317.422,815.717a2.387,2.387,0,0,0,1.67-.215,5.519,5.519,0,0,0,1.35-1.023c1.073-1.034,2.072-2.337,2-3.8a1.823,1.823,0,0,0-.573-1.317,1.743,1.743,0,0,0-1.71-.215,2.909,2.909,0,0,0-1.331,1.146Z" transform="translate(-1159.289 -712.9)" fill="#f2ae83"/>
          <path id="Path_1187" data-name="Path 1187" d="M1167.98,815.717a2.387,2.387,0,0,1-1.67-.215,5.524,5.524,0,0,1-1.35-1.023c-1.074-1.034-2.072-2.337-2-3.8a1.823,1.823,0,0,1,.573-1.317,1.742,1.742,0,0,1,1.71-.215,2.909,2.909,0,0,1,1.331,1.146Z" transform="translate(-1023.273 -712.9)" fill="#f2ae83"/>
          <path id="Path_1188" data-name="Path 1188" d="M1182.339,707.012c.425-4.378,1.616-6.931,2.353-9.46a8.61,8.61,0,0,0-1.241-7.987c-2.272-2.965-7.976-4.65-13.2-3.232-5.259,1.42-9.3,5.276-8.66,8.629.322,2.008,1.743,3.876,2.094,5.948.29,1.722-.256,3.449.408,5.127,1.238,2.887,6.021,7.95,9.789,7.95,3.079,0,8.161-5.064,8.455-6.975" transform="translate(-1022.011 -604.414)" fill="#f2ae83"/>
          <path id="Path_1189" data-name="Path 1189" d="M1284.238,795.462a4.456,4.456,0,0,1,2.851.346,3.314,3.314,0,0,1,1.14.88c-.467-.128-.9-.255-1.331-.352a12.6,12.6,0,0,0-1.293-.229,12.377,12.377,0,0,0-1.31-.089c-.445-.01-.531-.452-.057-.557" transform="translate(-1129.787 -700.876)" fill="#1a1a1a"/>
          <path id="Path_1190" data-name="Path 1190" d="M1204.441,794.929a4.452,4.452,0,0,0-2.844.4,3.311,3.311,0,0,0-1.121.9c.465-.137.892-.273,1.324-.379a12.563,12.563,0,0,1,1.287-.254,12.277,12.277,0,0,1,1.308-.115c.445-.019.521-.462.045-.558" transform="translate(-1056.309 -700.422)" fill="#1a1a1a"/>
          <g id="Group_17" data-name="Group 17" transform="translate(151.733 99.253)" style="mix-blend-mode: soft-light;isolation: isolate">
            <g id="Group_16" data-name="Group 16">
              <g id="Group_15" data-name="Group 15" clip-path="url(#clip-path-4)">
                <path id="Path_1191" data-name="Path 1191" d="M1264.5,835.9a1.622,1.622,0,0,1-.113.253.481.481,0,0,1-.172.209c-.077.041-.194.012-.284-.119a.566.566,0,0,1-.09-.251.741.741,0,0,1,.036-.318.729.729,0,0,1,.171-.27.548.548,0,0,1,.226-.136c.152-.043.26.01.294.092a.493.493,0,0,1,0,.272,1.7,1.7,0,0,1-.071.268" transform="translate(-1263.833 -835.252)" fill="#fff"/>
              </g>
            </g>
          </g>
          <path id="Path_1192" data-name="Path 1192" d="M1255.951,833.346c-.015-.063-.027-.119-.037-.169s-.017-.094-.023-.138a1.016,1.016,0,0,1-.007-.155c0-.058.009-.123.017-.189a2.194,2.194,0,0,0,.031-.383.375.375,0,0,0-.1-.268.145.145,0,0,0-.2-.009.878.878,0,0,0-.226.284,1.427,1.427,0,0,0-.181.563,1.137,1.137,0,0,0,.024.351,1.51,1.51,0,0,0,.116.326,1.876,1.876,0,0,0,.165.279,2.251,2.251,0,0,0,.184.225,3,3,0,0,0,.335.309c.2.151.312.205.377.1s.054-.218-.051-.392c-.052-.087-.128-.188-.212-.309a2.094,2.094,0,0,1-.122-.2,1.025,1.025,0,0,1-.088-.228" transform="translate(-1104.512 -733.135)" fill="#d67344"/>
          <path id="Path_1193" data-name="Path 1193" d="M1285.666,812.508a1.993,1.993,0,0,1,1.629-1.607,1.1,1.1,0,0,1,1.085,1.1l0,.521c0,.6-2.711.63-2.711-.012" transform="translate(-1131.325 -714.555)" fill="#1a1a1a"/>
          <path id="Path_1194" data-name="Path 1194" d="M1297.175,811a2.061,2.061,0,0,1,1.469.309,1.136,1.136,0,0,0,1.158.213,1.168,1.168,0,0,1-1.249.219,1.35,1.35,0,0,0-1.014-.183Z" transform="translate(-1141.46 -714.622)" fill="#1a1a1a"/>
          <path id="Path_1195" data-name="Path 1195" d="M1214.92,812.508a1.993,1.993,0,0,0-1.629-1.607,1.1,1.1,0,0,0-1.085,1.1l0,.521c0,.6,2.711.63,2.711-.012" transform="translate(-1066.638 -714.555)" fill="#1a1a1a"/>
          <path id="Path_1196" data-name="Path 1196" d="M1204.058,811a2.06,2.06,0,0,0-1.469.309,1.136,1.136,0,0,1-1.158.213,1.167,1.167,0,0,0,1.249.219,1.351,1.351,0,0,1,1.014-.183Z" transform="translate(-1057.15 -714.622)" fill="#1a1a1a"/>
          <path id="Path_1197" data-name="Path 1197" d="M1179.948,671.106a1.362,1.362,0,0,0-.074-.477c-.3-.37-.529,4.29-.529,4.29-4.92-.488-17.619.222-17.619.222l-.548-4.568c-.851,1-.368,10.962-.368,10.962a58.662,58.662,0,0,1-3.139-13,3.512,3.512,0,0,1,2.753-3.6c.773-3.279,3.527-4.453,6.859-5.425a12.2,12.2,0,0,1,11.278,2.769c2.984,2.684,4.609,5.673,3.843,9.563-.8,4.062-.475,7.337-2.649,10.684,0,0,.337-9.193.194-11.43" transform="translate(-1018.609 -580.88)" fill="#a3400f"/>
          <path id="Path_1198" data-name="Path 1198" d="M1245.44,856.15a6.509,6.509,0,0,0,2.379-.9c-.624,1.161-1.259,2.274-3.033,2.464a2.577,2.577,0,0,1-3.043-1.992,6.632,6.632,0,0,0,3.7.424" transform="translate(-1092.648 -753.612)" fill="#fff"/>
          <path id="Path_1199" data-name="Path 1199" d="M1095.127,1023.572l-2.108-1.644-21.226,18.663,4.092-.327s8.675-1.111,19.242-16.693" transform="translate(-942.993 -900.381)" fill="#856861"/>
          <path id="Path_1200" data-name="Path 1200" d="M1103.639,1195.5l-4.426-.021-27.421-20.76,4.487-.473Z" transform="translate(-942.993 -1034.507)" fill="#856861"/>
          <path id="Path_1201" data-name="Path 1201" d="M1099.375,1189.677l-10.147-7.883-2.808.3,11.134,8.43Z" transform="translate(-955.873 -1041.156)" fill="#fff"/>
          <path id="Path_1202" data-name="Path 1202" d="M1107.107,1040s9.737-10.945,19.329-18.238l23.212,26.127-14.912,13.338Z" transform="translate(-974.09 -900.236)" fill="#b28b81"/>
          <path id="Path_1203" data-name="Path 1203" d="M1207.265,1237.614c-1.554.482-.531,1.552-1.487,7.4-.036.224,5.555.951,8.281-1.273,3-2.45-.243-8.154-6.793-6.124" transform="translate(-1060.977 -1089.932)" fill="#f2ae83"/>
          <path id="Path_1204" data-name="Path 1204" d="M1175.692,1249.2l-3.971,2.067a1.425,1.425,0,0,1-1.824-.333,1.119,1.119,0,0,1,.57-1.579l4.9-2.433c.658-.343.979,1.936.321,2.278" transform="translate(-1029.247 -1098.478)" fill="#f2ae83"/>
          <path id="Path_1205" data-name="Path 1205" d="M1169.75,1263.025a.825.825,0,0,0,.084.262,1.213,1.213,0,0,0,1.4.55,17.12,17.12,0,0,0,2.646-1.276c.84-.417,1.61-.909,2.423-1.357a1.379,1.379,0,0,1-.61.6l-3.971,2.067a1.425,1.425,0,0,1-1.823-.334.927.927,0,0,1-.153-.516" transform="translate(-1029.252 -1111.082)" fill="#c2713e"/>
          <path id="Path_1206" data-name="Path 1206" d="M1185.037,1266.659l-3.971,2.067a1.424,1.424,0,0,1-1.823-.333,1.119,1.119,0,0,1,.569-1.58l3.971-2.067a1.425,1.425,0,0,1,1.823.334,1.119,1.119,0,0,1-.569,1.579" transform="translate(-1037.476 -1114.039)" fill="#f2ae83"/>
          <path id="Path_1207" data-name="Path 1207" d="M1179.095,1283.131a.825.825,0,0,0,.084.261,1.162,1.162,0,0,0,1.4.55,28.391,28.391,0,0,0,2.63-1.3,9.423,9.423,0,0,1,1.83-.731l-3.971,2.067a1.425,1.425,0,0,1-1.824-.333.924.924,0,0,1-.153-.516" transform="translate(-1037.481 -1129.294)" fill="#c2713e"/>
          <path id="Path_1208" data-name="Path 1208" d="M1197.275,1281.458l-3.991,1.917a1.507,1.507,0,0,1-1.816-.277c-.337-.47-.072-1.115.59-1.432l3.991-1.917a1.507,1.507,0,0,1,1.816.277c.338.47.072,1.115-.589,1.433" transform="translate(-1048.247 -1127.257)" fill="#f2ae83"/>
          <path id="Path_1209" data-name="Path 1209" d="M1191.327,1296.313a.663.663,0,0,0,.08.235,1.239,1.239,0,0,0,1.394.478,20.267,20.267,0,0,0,2.679-1.292,6.5,6.5,0,0,1,1.8-.6l-3.991,1.917a1.507,1.507,0,0,1-1.816-.277.758.758,0,0,1-.145-.464" transform="translate(-1048.253 -1140.936)" fill="#c2713e"/>
          <path id="Path_1210" data-name="Path 1210" d="M1214.981,1292.04l-3.09,1.645a1.1,1.1,0,0,1-1.429-.286.91.91,0,0,1,.433-1.277l3.089-1.645c.512-.273,3.531-.639,3.8-.209,0,0,.251.275-2.808,1.772" transform="translate(-1064.993 -1136.502)" fill="#f2ae83"/>
          <path id="Path_1211" data-name="Path 1211" d="M1196.613,1226.739a9.724,9.724,0,0,0-2.182-1.8c-.871-.382-4.31-.327-5.659-.548s-.9,1.623.59,2.048a2.617,2.617,0,0,1,1.721,2.054Z" transform="translate(-1045.295 -1078.65)" fill="#f2ae83"/>
          <path id="Path_1212" data-name="Path 1212" d="M1273.244,1178.13c-.323-.646-5.687-1.816-8.427-1.477s-20.855,8.168-20.855,8.168-.541,3.468.915,4.874c0,0,25.018-3.087,27.172-4.4,4.323-2.629,1.52-6.524,1.2-7.17" transform="translate(-1094.514 -1036.575)" fill="#f2ae83"/>
          <rect id="Rectangle_13" data-name="Rectangle 13" width="13.013" height="15.478" transform="translate(376.986 99.048)" fill="#d1785e"/>
          <path id="Path_1213" data-name="Path 1213" d="M3163.034,833.527v4.76a22.862,22.862,0,0,1-13.013,4.76v-9.52Z" transform="translate(-2773.035 -734.479)" fill="#84422e"/>
          <path id="Path_1214" data-name="Path 1214" d="M3334.959,956.067c1.6.826,4.428,2.616,4.8,3.791s10.94,32.246,11.614,34.26c1.351,4.038-11.656,4.875-12.664,2.266s-11.237-23.868-11.237-23.868l2.394-16.635s3.407-.686,5.1.185" transform="translate(-2929.292 -841.996)" fill="#29253b"/>
          <path id="Path_1215" data-name="Path 1215" d="M3175.867,1371.446c3.41,20.94.459,59.529-.425,65.208-.894,5.743-12.755-3.74-13.137-9.531-.138-2.082.408-4.153.413-6.238,0-1.842-.744-3.615-.833-5.462-.656-13.449-4.179-18.5-6.486-28.457l-3-15.52Z" transform="translate(-2775.126 -1208.159)" fill="#232033"/>
          <path id="Path_1216" data-name="Path 1216" d="M2972.437,2249.257c2.523-1.206,4.747-2.479,5.373-3.776l.279-11.47c.1-.853.283-1.895-.551-2.01l-3.788-.523a1.478,1.478,0,0,0-1.633,1.1c-.423,1.58-1.905,6.811-1.905,6.811q-3.7,3.645-7.4,7.292a4.25,4.25,0,0,0-1.626,2.576c0,.034,11.246,0,11.246,0" transform="translate(-2606.756 -1965.473)" fill="#b3b3b3"/>
          <path id="Path_1217" data-name="Path 1217" d="M2947.19,2278.168c-.239-.036.617,6.129-2.193,6.588a3.986,3.986,0,0,1-.544.046l-.223-2.6s-3.992-1.843-6.983-1.61l-.692,1.42-8.5,4.68a5.186,5.186,0,0,0-1.865,3.188,1.146,1.146,0,0,0,.243.682h21.491s-.492-12.355-.731-12.391" transform="translate(-2575.931 -2006.598)" fill="#1a1a1a"/>
          <path id="Path_1218" data-name="Path 1218" d="M3311.268,2252.084a10.453,10.453,0,0,0-1.087-2.563l-5.619-7.362s-.707-4.763-.9-6.2a1.341,1.341,0,0,0-1.3-1.18l-3.353-.057a1.349,1.349,0,0,0-1.354,1.349l-.382,10.37a53.97,53.97,0,0,0,2.275,5.612Z" transform="translate(-2902.706 -1968.342)" fill="#b3b3b3"/>
          <path id="Path_1219" data-name="Path 1219" d="M3291.409,2289.581l-3.8-4.98-.525-1.578c-2.575-.608-6.251.458-6.251.458l-.483,2.241a3.53,3.53,0,0,1-.469-.114c-2.392-.781-1.625-4.88-1.837-4.881s-2.719,12.086-2.719,12.086h17.332c.008-.066.015-.132.02-.2a4.728,4.728,0,0,0-1.266-3.035" transform="translate(-2883.374 -2008.852)" fill="#1a1a1a"/>
          <path id="Path_1220" data-name="Path 1220" d="M3047.689,1361.446c-3.486,20.94-1.762,59.529-.859,65.208.914,5.743,13.034-3.741,13.425-9.532.141-2.081-.418-4.152-.422-6.238a23.712,23.712,0,0,1,.852-5.462c2.358-9.955,7.338-19.91,9.7-29.865v-14.112Z" transform="translate(-2681.083 -1199.353)" fill="#232033"/>
          <path id="Path_1221" data-name="Path 1221" d="M3037.23,1831.035c-.148-8.247-.007-16.5.133-24.742q.106-6.215.212-12.43c.1-5.838.441-11.751,2.59-17.257.641-1.643,10.97-5.884,12.244-4.161,0,0,.86,8.123,1.4,11.8a21.483,21.483,0,0,1-.607,7.274c-2.607,13.061-3.969,26.454-6.577,39.515Z" transform="translate(-2673.658 -1560.913)" fill="#232033"/>
          <path id="Path_1222" data-name="Path 1222" d="M3242.914,1840.506c.145-8.247-.2-15.966-.337-24.213q-.1-6.215-.207-12.43c-.1-5.838-.431-11.751-2.535-17.257-.627-1.644-10.735-5.885-11.982-4.162,0,0-.842,8.123-1.369,11.8a21.92,21.92,0,0,0,.594,7.274c2.551,13.061,3.767,25.959,6.318,39.02Z" transform="translate(-2840.261 -1569.719)" fill="#232033"/>
          <path id="Path_1223" data-name="Path 1223" d="M3036.249,979.761c-.385,0-.644,0-.747,0-1.938-.024-7.705-1.7-8.541-3,2.148-11.1.842-17.8-.423-24.271-.711-3.642-1.522-11.532-1.522-11.532-.777-1.458-1.674-12.353-1.012-16.846l14.272-6,6.611,1.979h1.333l6.609-1.979,14.273,6c.662,4.493-.235,15.388-1.012,16.846,0,0-1,8.079-1.912,11.754-1.541,6.219-3.135,12.651-.974,23.646l.01.049c-.428.648-3.638,2.311-5.2,2.558-5.026.792-21.08.8-21.761.8" transform="translate(-2661.865 -808.958)" fill="#cfd7e9"/>
          <path id="Path_1224" data-name="Path 1224" d="M3161.326,935.756l2.493-2.418-1.482-4.052-3.522-.313-3.523.313-1.482,4.052,2.493,2.418-3.907,38,6.419,7.506,6.419-7.506Z" transform="translate(-2775.126 -818.526)" fill="#869ac9"/>
          <path id="Path_1225" data-name="Path 1225" d="M3213.008,890.73l-6.861,4.567,2.511.513,2.014,10.42,6.7-10.538Z" transform="translate(-2822.458 -784.851)" fill="#e7ebf4"/>
          <path id="Path_1226" data-name="Path 1226" d="M3116.553,890.73l6.862,4.567-2.512.513-2.014,10.42-6.695-10.538Z" transform="translate(-2739.726 -784.851)" fill="#e7ebf4"/>
          <path id="Path_1227" data-name="Path 1227" d="M2941.743,1505.613s.011-5.447.051-6.2,2.178-3.077,2.693-3.2a24.133,24.133,0,0,1,3.956.22,35.593,35.593,0,0,1,1.723,4.347c.463,1.681-2.894,4.658-2.894,4.658Z" transform="translate(-2589.63 -1317.991)" fill="#d1785e"/>
          <path id="Path_1228" data-name="Path 1228" d="M2985.981,1522.391c1.126,1.282,1.936,2.084,1.827,2.9a16.566,16.566,0,0,0-.215,2.621c.048.553-.174,1.6.354,1.835,1.059.468,2.016-2.193,2.52-3.832.4-1.3.535-2.228.059-2.8s-2.412-2.419-2.412-2.419Z" transform="translate(-2628.585 -1339.581)" fill="#d1785e"/>
          <path id="Path_1229" data-name="Path 1229" d="M2959.822,1605.143l-4.642-.253s-3.068,37.61-3.068,40.23,10.4,2.5,10.4-.263-2.694-39.714-2.694-39.714" transform="translate(-2598.76 -1413.725)" fill="#1a1a1a"/>
          <path id="Path_1230" data-name="Path 1230" d="M2961,1669.814c-.586,1.423-5.571.386-6.24-1.371-1.255-3.348-.462-6.306-.419-9.61.007-.561,1.047-.115,1.214-.785-.445-8.6.4-15.347-.24-22.592a4.312,4.312,0,0,0-.423-1.243c-.76,9.4-2.784,34.6-2.784,36.728,0,2.62,10.4,2.5,10.4-.263,0-.8-.227-4.491-.55-9.321,0,0,.056,5.914-.961,8.458" transform="translate(-2598.76 -1439.545)"/>
          <path id="Path_1231" data-name="Path 1231" d="M2948.207,1605.211a1.622,1.622,0,0,0-2.4.436,7.7,7.7,0,0,0-1.156,2.96c-.778,3.228-1.7,22.153-1.2,23.175.434.9,2.572,0,2.572,0Z" transform="translate(-2591.011 -1413.679)" fill="#1a1a1a"/>
          <path id="Path_1232" data-name="Path 1232" d="M2947.44,1820.833a2.9,2.9,0,0,0,1.2,3.283.377.377,0,0,0,.38-.651c-.058-.036-.114-.075-.168-.116.072.054,0,0-.014-.013s-.059-.051-.087-.077-.084-.081-.124-.124l-.067-.076c-.012-.015-.079-.1-.023-.026a2.621,2.621,0,0,1-.206-.317c-.033-.06-.062-.121-.092-.183-.041-.089.028.074-.007-.018-.012-.032-.024-.064-.036-.1a2.69,2.69,0,0,1-.1-.38c0-.029-.009-.058-.014-.086-.015-.087,0,.066,0-.015s-.013-.135-.014-.2,0-.136,0-.2c0-.029,0-.058.006-.087s.005-.115,0-.015a1.5,1.5,0,0,1,.095-.4.379.379,0,0,0-.263-.463.385.385,0,0,0-.463.263" transform="translate(-2594.529 -1603.638)" fill="#ccc"/>
          <path id="Path_1233" data-name="Path 1233" d="M2971.98,1548.582v-6.8a1.219,1.219,0,1,1,2.438,0v6.8h1.171v-6.8a2.391,2.391,0,1,0-4.781,0v6.8Z" transform="translate(-2615.224 -1356.048)" fill="#ccc"/>
          <path id="Path_1234" data-name="Path 1234" d="M2981.381,1536.893a49.062,49.062,0,0,0-.4,6.571,1.192,1.192,0,0,0,.185.768,1.251,1.251,0,0,0,.875.306,1.388,1.388,0,0,0,1.529-.828,7.389,7.389,0,0,0,.081-1.982,44.152,44.152,0,0,1,.142-4.94Z" transform="translate(-2624.178 -1353.755)" fill="#d1785e"/>
          <path id="Path_1235" data-name="Path 1235" d="M2965.1,1536.132a44.652,44.652,0,0,0-.381,6.264,1.189,1.189,0,0,0,.185.768,1.255,1.255,0,0,0,.875.306,2.511,2.511,0,0,0,1.479-.274c.559-.253.146-2.13.13-2.537a36.873,36.873,0,0,1,.11-4.5Z" transform="translate(-2609.86 -1353.178)" fill="#d1785e"/>
          <path id="Path_1236" data-name="Path 1236" d="M2950.263,1528.582a51.464,51.464,0,0,0-.391,6.265,1.342,1.342,0,0,0,.152.769.987.987,0,0,0,.75.311,1.906,1.906,0,0,0,1.276-.265c.484-.249.147-2.13.139-2.537a42.8,42.8,0,0,1,.14-4.5Z" transform="translate(-2596.788 -1346.529)" fill="#d1785e"/>
          <path id="Path_1237" data-name="Path 1237" d="M2939.927,1524.268a52.522,52.522,0,0,0-.382,6.086,1.353,1.353,0,0,0,.138.748.842.842,0,0,0,.693.3c1.284.071,1.324-2.324,1.318-2.72a43.564,43.564,0,0,1,.145-4.374Z" transform="translate(-2587.695 -1342.731)" fill="#d1785e"/>
          <path id="Path_1238" data-name="Path 1238" d="M2942.7,961.429c-1.421,1.108-3.869,3.389-4.015,4.612s-3.272,49.116-4.083,56.213c-.5,6.84,9.836,4.451,10.633,2.563s5.349-48.632,5.349-48.632l-2.911-15.879s-3.474-.046-4.973,1.123" transform="translate(-2583.327 -846.117)" fill="#29253b"/>
          <path id="Path_1239" data-name="Path 1239" d="M3270.758,927.3l-13.1-5.3-4.023,31.065-.509,38.616c5.027,3.427,14.3,2.247,15.313.958s-.643-9.938-.858-11.6c-2.276-17.576,1.073-36.338,1.073-36.338s2.882-13.145,2.108-17.4" transform="translate(-2863.824 -812.393)" fill="#29253b"/>
          <path id="Path_1240" data-name="Path 1240" d="M3030.681,952.808l-4.531-30.8-12.746,5.023c-.774,4.259,1.75,17.677,1.75,17.677s4.435,18.456,1.59,35.771c-.123,1.511-1.886,10.951-1.155,12s11.68,3.468,16.137.517Z" transform="translate(-2652.603 -812.393)" fill="#29253b"/>
          <path id="Path_1241" data-name="Path 1241" d="M3327.127,1289.072c-.793-.269-9.56.142-11.615,2.391s-14.04,25.244-14.04,25.244a8.821,8.821,0,0,0,4.525,1.823s14.26-15.841,16.052-17.955,5.873-11.234,5.079-11.5" transform="translate(-2906.399 -1135.558)" fill="#d1785e"/>
          <path id="Path_1242" data-name="Path 1242" d="M3281.738,1504.516s-4.355,1.887-3.8,2.84,7.642,3.522,7.642,3.522l.126-3.691Z" transform="translate(-2885.634 -1325.337)" fill="#d1785e"/>
          <path id="Path_1243" data-name="Path 1243" d="M3302.7,1279.9l8.89,4.875s10.989-14.417,15.178-20.529,3.785-9.938,1.094-11.545c-3.114-1.859-8.95-1.02-11.732,2.727s-13.43,24.472-13.43,24.472" transform="translate(-2907.48 -1102.756)" fill="#29253b"/>
          <path id="Path_1244" data-name="Path 1244" d="M3265.608,763.763a2.627,2.627,0,0,0,1.839-.236,6.076,6.076,0,0,0,1.488-1.127c1.182-1.139,2.281-2.574,2.2-4.182a2.006,2.006,0,0,0-.631-1.451,1.918,1.918,0,0,0-1.883-.237,3.2,3.2,0,0,0-1.465,1.262Z" transform="translate(-2874.818 -666.553)" fill="#d1785e"/>
          <path id="Path_1245" data-name="Path 1245" d="M3101.025,763.763a2.628,2.628,0,0,1-1.839-.236,6.065,6.065,0,0,1-1.487-1.127c-1.183-1.139-2.281-2.574-2.2-4.182a2,2,0,0,1,.631-1.451,1.917,1.917,0,0,1,1.883-.237,3.2,3.2,0,0,1,1.465,1.262Z" transform="translate(-2725.022 -666.553)" fill="#d1785e"/>
          <path id="Path_1246" data-name="Path 1246" d="M3125.772,645.063c.468-5.032,1.781-7.966,2.592-10.874.58-2.178,1.166-5.9-1.367-9.181-2.5-3.409-8.784-5.345-14.536-3.716-5.792,1.632-9,5.018-8.3,8.873.354,2.308.687,5.5,1.072,7.882.32,1.979-.282,3.965.45,5.893,1.363,3.318,6.631,9.139,10.78,9.139,3.391,0,8.989-5.821,9.312-8.017" transform="translate(-2732.565 -547.075)" fill="#d1785e"/>
          <g id="Group_20" data-name="Group 20" transform="translate(383.741 93.286)" style="mix-blend-mode: soft-light;isolation: isolate">
            <g id="Group_19" data-name="Group 19">
              <g id="Group_18" data-name="Group 18" clip-path="url(#clip-path-5)">
                <path id="Path_1247" data-name="Path 1247" d="M3207.319,785.991a1.754,1.754,0,0,1-.124.279.531.531,0,0,1-.188.23c-.085.046-.214.013-.313-.131a.627.627,0,0,1-.1-.277.818.818,0,0,1,.04-.351.8.8,0,0,1,.188-.3.6.6,0,0,1,.249-.15c.167-.047.286.011.323.1a.534.534,0,0,1,0,.3,1.843,1.843,0,0,1-.079.3" transform="translate(-3206.59 -785.278)" fill="#f2f2f2"/>
              </g>
            </g>
          </g>
          <path id="Path_1248" data-name="Path 1248" d="M3197.908,783.178c-.016-.069-.029-.131-.04-.186s-.019-.1-.026-.152a1.033,1.033,0,0,1-.008-.171c0-.065.01-.136.019-.208a2.364,2.364,0,0,0,.033-.422.409.409,0,0,0-.114-.295.16.16,0,0,0-.219-.009.963.963,0,0,0-.249.313,1.567,1.567,0,0,0-.2.62,1.258,1.258,0,0,0,.026.386,1.714,1.714,0,0,0,.128.359,2.137,2.137,0,0,0,.182.307,2.446,2.446,0,0,0,.2.247,3.266,3.266,0,0,0,.37.341c.215.166.344.226.414.111s.06-.24-.056-.432c-.057-.1-.141-.207-.233-.34a2.406,2.406,0,0,1-.134-.218,1.129,1.129,0,0,1-.1-.251" transform="translate(-2814.492 -688.838)" fill="#84422e"/>
          <path id="Path_1249" data-name="Path 1249" d="M3230.274,743.677a4.922,4.922,0,0,1,3.359.438c.512.272.285.792-.225.669a13.9,13.9,0,0,0-1.524-.289,13.522,13.522,0,0,0-1.543-.113c-.524-.012-.625-.572-.067-.7" transform="translate(-2843.374 -655.253)" fill="#1a1a1a"/>
          <path id="Path_1250" data-name="Path 1250" d="M3148.272,743.454a4.924,4.924,0,0,0-3.35.51c-.507.283-.27.8.239.664a13.912,13.912,0,0,1,1.517-.322,13.6,13.6,0,0,1,1.541-.146c.524-.024.613-.585.053-.706" transform="translate(-2768.298 -655.076)" fill="#1a1a1a"/>
          <path id="Path_1251" data-name="Path 1251" d="M3153.247,761.637l-.008-1.337a1.17,1.17,0,1,0-2.34.013l.007,1.338c0,.644,2.344.631,2.341-.013" transform="translate(-2773.808 -668.972)" fill="#1a1a1a"/>
          <path id="Path_1252" data-name="Path 1252" d="M3237.914,761.637l.007-1.337a1.17,1.17,0,0,1,2.341.013l-.007,1.338c0,.644-2.344.631-2.341-.013" transform="translate(-2850.432 -668.972)" fill="#1a1a1a"/>
          <path id="Path_1253" data-name="Path 1253" d="M3181.744,810.346a23.316,23.316,0,0,0,5.887-1.355,3.8,3.8,0,0,1-.442,2.453,15.724,15.724,0,0,1-3.451.483c-.753,0-1.686-1.177-1.994-1.581" transform="translate(-2800.97 -712.874)" fill="#fff"/>
          <path id="Path_1254" data-name="Path 1254" d="M3100.852,594.574a2.637,2.637,0,0,0,.3-1.083,2.688,2.688,0,0,0-.007-.424,1.141,1.141,0,0,0,.27-.881,1.282,1.282,0,0,0-.5-.852,2.43,2.43,0,0,0-.306-2.656,1.084,1.084,0,0,0,.081-.575,1.23,1.23,0,0,0-.913-1.045,2.131,2.131,0,0,0-.569-1.812,2.529,2.529,0,0,0-.314-.279,1.2,1.2,0,0,0,.154-1.125,1.184,1.184,0,0,0-1.452-.714,2.718,2.718,0,0,0-.2-.373l.51-.447a1.162,1.162,0,0,0,.252-1.59,1.15,1.15,0,0,0-1.589-.252l-.827.724a1.26,1.26,0,0,0-.044-.133,1.424,1.424,0,0,0-.071-.141c.051-.077.1-.153.159-.23a1.139,1.139,0,0,0-1.78-1.42c-.019.026-.036.054-.055.08-.01-.045-.017-.091-.028-.137a.88.88,0,0,0-.294-.449,1.067,1.067,0,0,0-.415-.882,1.158,1.158,0,0,0-1.6.18l-.125.159a1.184,1.184,0,0,0-.369-.557,1.155,1.155,0,0,0-1.565.146,1.168,1.168,0,0,0-.949-.967,1.108,1.108,0,0,0-.824.2,1.2,1.2,0,0,0-.967-1.03,1.161,1.161,0,0,0-1.3.946l-.119.488c-.011-.04-.021-.08-.034-.12a1.128,1.128,0,0,0-2.185.461l-.113-.249a1.166,1.166,0,0,0-1.466-.665,1.132,1.132,0,0,0-.445.315,1.145,1.145,0,0,0-1.505-.157,1.159,1.159,0,0,0-.252,1.59l.118.165a.991.991,0,0,0-.283.262c-.014.02-.025.04-.038.06a1.127,1.127,0,0,0-.946-1.1,1.152,1.152,0,0,0-1.3.946,3.384,3.384,0,0,0-.006.422,1.02,1.02,0,0,0-.755-.2,1.156,1.156,0,0,0-1.02,1.246,4.5,4.5,0,0,0,.177.761,1.15,1.15,0,0,0-.243.547,1.2,1.2,0,0,0,.051.549l-1-.182a7,7,0,0,1-2.547,2.625,1.31,1.31,0,0,0,.018.385,1.268,1.268,0,0,0-.748.592,1.136,1.136,0,0,0-1.358,1.82,5.222,5.222,0,0,0,.5.357,1.17,1.17,0,0,0-.962.71,1.269,1.269,0,0,0,.036,1,1.29,1.29,0,0,0-.5.8,1.223,1.223,0,0,0,.972,1.371c.051.014.1.033.15.048a3.076,3.076,0,0,0,.193,2.309,1.076,1.076,0,0,0-.443,1.054,3.253,3.253,0,0,0,3.6,2.885,1.21,1.21,0,0,0,.638,1.416,1.166,1.166,0,0,0,1.54-.616,7.257,7.257,0,0,0,.325-2.3,2.482,2.482,0,0,0,1.245-2.049,2.3,2.3,0,0,0-.662-1.752,2.743,2.743,0,0,0,.247-1.833,2.165,2.165,0,0,0,.872-1.525,2.23,2.23,0,0,0-.054-.754,3.19,3.19,0,0,0,1.113-1.406,2.735,2.735,0,0,0,3.056-1.411,3.181,3.181,0,0,0,2.556-.352,3.952,3.952,0,0,0,3.429-.118,6.819,6.819,0,0,1,4.327,2.168,3.075,3.075,0,0,0,2.25,2.768,2.582,2.582,0,0,0,.7,1.738,2.187,2.187,0,0,0-.99,1.824,2.388,2.388,0,0,0,.562,1.573,2.3,2.3,0,0,0,.378,2.44,2.092,2.092,0,0,0,1.853,1.949,1.134,1.134,0,0,0,1.987-.994,3,3,0,0,0,2.352-2.5.89.89,0,0,0,.148-.16,1.234,1.234,0,0,0,.25-.867,1.3,1.3,0,0,0-.323-.725" transform="translate(-2701.304 -507.703)" fill="#2c1e1c"/>
          <path id="Path_1255" data-name="Path 1255" d="M2524.525,964.133c-1.261-1.321-3.281-15.068-3.281-15.068H2497.1s-2.021,13.747-3.282,15.068c-4.512,4.725.847,11.149,2.568,13.844,1.439,4.709-2.544,12.167.1,15.4,1.929,2.357,1.455,5.942,1.455,5.942a57.8,57.8,0,0,0,22.46,0s.019-4.056,1.812-6.412c1.806-2.374-1.326-7.789-.031-12.027,1.721-2.7,6.854-12.018,2.343-16.743" transform="translate(-2193.641 -836.219)" fill="#cfd7e9"/>
          <path id="Path_1256" data-name="Path 1256" d="M2531.962,744.711l21.425-.36,1.924-15.478s-1.9-9.141-10.649-9.451-11.23,6.382-11.479,9.451-1.221,15.838-1.221,15.838" transform="translate(-2228.786 -633.992)" fill="#5f2c29"/>
          <path id="Path_1257" data-name="Path 1257" d="M2380.935,1065.343a9.933,9.933,0,0,1-1.239-5.234c.241-1.516,8.6-17.291,8.6-17.291s7.288,3.264,7.19,6.517c0,0-8.288,16-9.012,16.31s-4.877.657-5.541-.3" transform="translate(-2094.667 -918.777)" fill="#f0b297"/>
          <path id="Path_1258" data-name="Path 1258" d="M2407.675,949.531c-1.523.484-3.612.956-4.109,1.928s-8.055,14.917-10.914,20.57c1.39,3.749,6.231,5.054,10.005,6.385,2.691-4.153,5.324-10.942,7.55-15.686l2.6-13.273s-3.525-.435-5.132.076" transform="translate(-2106.112 -836.411)" fill="#cfd7e9"/>
          <path id="Path_1259" data-name="Path 1259" d="M2750.928,1077.369a9.927,9.927,0,0,0,1.78-5.076c-.082-1.533-6.747-18.1-6.747-18.1s-7.589,2.484-7.833,5.729c0,0,6.57,16.775,7.258,17.163s4.781,1.163,5.541.279" transform="translate(-2410.332 -928.797)" fill="#f0b297"/>
          <path id="Path_1260" data-name="Path 1260" d="M2709.282,949.047c1.463.641,3.859,1.927,4.252,2.946s7.36,16.083,9.612,22c-1.774,3.583-7.634,3.969-11.527,4.9,0,0-4.151-11.439-5.868-16.389l-1.2-13.472s3.185-.662,4.729.014" transform="translate(-2380.765 -835.935)" fill="#cfd7e9"/>
          <path id="Path_1261" data-name="Path 1261" d="M2485.566,2090.137c.105,8.339.2,16.706.156,18.681l4.591.2c.856-5.668,1.971-12.418,3.1-18.886Z" transform="translate(-2187.931 -1841.023)" fill="#f0b59c"/>
          <path id="Path_1262" data-name="Path 1262" d="M2431.657,2227.3c-.03-2.516-1.631-3.04-1.631-3.04l-5.267,2.066s-8.677,17.542-7.368,17.936l9.373.25c2.7.06,2-4.23,3.046-6.5l-.049,6.564h1.175l.548-9.144a5.752,5.752,0,0,0,.177-.8c.128-1.08.036-3.968,0-7.33" transform="translate(-2127.779 -1959.13)" fill="#5d2a46"/>
          <path id="Path_1263" data-name="Path 1263" d="M2451.424,2207.99c-.46,1.289-2.43,6.268-2.937,7.85-.393,1.226-1.28,3.976-1.86,5.771a1.336,1.336,0,0,0,1.226,1.746l5.556.117,2.927-13.9c.05-.411.081-2.524-.8-3.051s-3.647.176-4.107,1.465" transform="translate(-2153.585 -1943.357)" fill="#f0b59c"/>
          <path id="Path_1264" data-name="Path 1264" d="M2664.519,2115.164h-6.2c.339,6.421.632,12.823.762,14.864l4.609.2a58.383,58.383,0,0,1,.826-15.068" transform="translate(-2340.056 -1863.061)" fill="#f0b59c"/>
          <path id="Path_1265" data-name="Path 1265" d="M2659.273,2226.176s3.2,12.363,3.648,14.4-.282,4.923-.986,5.686h-8.974c-1.448-.424.965-19.343.965-19.343Z" transform="translate(-2334.928 -1960.816)" fill="#5d2a46"/>
          <path id="Path_1266" data-name="Path 1266" d="M2662.911,2196.167c0,1.39-.192,6.76-.133,8.466.07,2.049.258,8.041.258,8.041s5.25.367,5.9-.26c1.835-1.781,1.016-5.511,1.016-5.511l-1.558-9.025c-.1-.443-.821-2.722-1.895-3.291s-3.584.19-3.584,1.58" transform="translate(-2343.969 -1932.832)" fill="#f0b59c"/>
          <rect id="Rectangle_15" data-name="Rectangle 15" width="12.777" height="15.197" transform="translate(308.562 103.498)" fill="#f0b297"/>
          <path id="Path_1267" data-name="Path 1267" d="M2589.841,870.791v4.674a22.447,22.447,0,0,1-12.777,4.674v-9.347Z" transform="translate(-2268.501 -767.293)" fill="#d1785e"/>
          <path id="Path_1268" data-name="Path 1268" d="M2630.468,938.529l5.755-4.362.718-3.71a6.817,6.817,0,0,1,1.31,2.545c.042.928,0,9.879,0,9.879s-3.5-3.279-4.185-3.839-3.6-.513-3.6-.513" transform="translate(-2315.528 -819.834)" fill="#e7ebf4"/>
          <path id="Path_1269" data-name="Path 1269" d="M2573.124,938.529l-5.755-4.362-.718-3.71a6.809,6.809,0,0,0-1.31,2.545c-.042.928,0,9.879,0,9.879s3.494-3.279,4.185-3.839,3.6-.513,3.6-.513" transform="translate(-2258.163 -819.834)" fill="#e7ebf4"/>
          <path id="Path_1270" data-name="Path 1270" d="M2475.293,1320.085s-6.948,18.531-6.887,22.135-.421,32.18-.421,32.18,10.289,8.543,14.3,2.579c2.159-3.212,2.185-30.345,2.185-30.345l6.358-2.874-1.237-22.847Z" transform="translate(-2172.449 -1162.932)" fill="#29253b"/>
          <path id="Path_1271" data-name="Path 1271" d="M2458.71,1769.861s9.688,3.106,10.42,0,2.253-32.333,3.133-38.735,2.394-14.585,1.876-17.516-14.51-2.272-14.848,1.726-1.611,10.958-1.561,14.84.98,39.685.98,39.685" transform="translate(-2163.418 -1507.866)" fill="#29253b"/>
          <path id="Path_1272" data-name="Path 1272" d="M2624.341,1320.4s5.146,21.194,4.708,24.8-3.095,29.517-3.095,29.517-11.184,8.543-14.566,2.579c-1.822-3.212,1.218-34.43,1.218-34.43l-4.919.038,2.272-21.675Z" transform="translate(-2295.469 -1163.213)" fill="#29253b"/>
          <path id="Path_1273" data-name="Path 1273" d="M2640.987,1770.179s-10.012,3.106-10.42,0,1.137-32.333.928-38.736-.865-14.585-.04-17.516,14.749-2.272,14.668,1.726.461,10.958,0,14.84-5.141,39.685-5.141,39.685" transform="translate(-2315.554 -1508.146)" fill="#29253b"/>
          <path id="Path_1274" data-name="Path 1274" d="M2386.4,1191.98c.623-.079,3.646,3.114,4.726,5.259s3.246,19.11,3.246,19.11-.64,2.5-1.875,3.2c0,0-11.841-22.306-11.727-26.321.062-2.191,5.007-1.17,5.63-1.249" transform="translate(-2095.648 -1049.976)" fill="#f0b297"/>
          <path id="Path_1275" data-name="Path 1275" d="M2470.25,1363.393l2.446,2.243s1.153.318,2.761.646.541,2.171-2.6,1.563l.767,1.739s-1.635,5.158-3.194,4.761c0,0-2.41-4.624-2.875-7.256s1.976-4.357,2.7-3.7" transform="translate(-2172.017 -1200.943)" fill="#f0b297"/>
          <path id="Path_1276" data-name="Path 1276" d="M2758.251,1193.223c-.623-.079-3.055,3.012-4.136,5.157s-3.836,19.212-3.836,19.212.64,2.5,1.875,3.2c0,0,11.633-17.627,11.077-24.609-.174-2.185-4.356-2.882-4.979-2.961" transform="translate(-2421.031 -1051.219)" fill="#f0b297"/>
          <path id="Path_1277" data-name="Path 1277" d="M2710.5,1363.393l-2.446,2.243s-1.153.318-2.761.646-.542,2.171,2.6,1.563l-.618,2.073s3.474,4.8,5.032,4.4c0,0,.424-4.6.888-7.232s-1.976-4.357-2.7-3.7" transform="translate(-2380.767 -1200.943)" fill="#f0b297"/>
          <path id="Path_1278" data-name="Path 1278" d="M2544.789,1316.754s-17.228,1.208-26.948,0l-.921,3.451a52.609,52.609,0,0,0,28.564,0Z" transform="translate(-2215.54 -1159.998)" fill="#7a3440"/>
          <path id="Path_1279" data-name="Path 1279" d="M2615.723,1322.4h-3.566a1.341,1.341,0,0,1-1.337-1.337v-2.969a1.341,1.341,0,0,1,1.337-1.337h3.566a1.341,1.341,0,0,1,1.337,1.337v2.969a1.341,1.341,0,0,1-1.337,1.337" transform="translate(-2298.227 -1159.998)" fill="#c69c6d"/>
          <path id="Path_1280" data-name="Path 1280" d="M2727.338,747.078a21.381,21.381,0,0,0,.027,2.72,12.9,12.9,0,0,0,.178,1.323,4.44,4.44,0,0,0,.311,1.122,5.739,5.739,0,0,0,1.227,1.428,3.549,3.549,0,0,1,.581.71,2.941,2.941,0,0,1,.295.993,5.41,5.41,0,0,1-.13,2.3,5.942,5.942,0,0,1-1.078,2.061,4.315,4.315,0,0,0-1.042,2.007,4.637,4.637,0,0,0,.543,2.488,6.771,6.771,0,0,1,.883,2.576,1.831,1.831,0,0,1-.957,1.776c-.282.126-.038.54.243.415a2.108,2.108,0,0,0,1.132-1.532,3.806,3.806,0,0,0-.317-2.233,15.769,15.769,0,0,1-.987-2.419,2.626,2.626,0,0,1,0-1.318,3.38,3.38,0,0,1,.548-1.029,9.89,9.89,0,0,0,1.262-1.985,5.912,5.912,0,0,0,.445-2.324,4.041,4.041,0,0,0-.5-2.142,13.334,13.334,0,0,0-1.318-1.426,2.119,2.119,0,0,1-.51-.869,10.316,10.316,0,0,1-.285-1.509,19.913,19.913,0,0,1-.068-3.13c.013-.309-.467-.309-.48,0" transform="translate(-2400.803 -658.151)" fill="#7f3b37"/>
          <path id="Path_1281" data-name="Path 1281" d="M2689.876,805.616a2.439,2.439,0,0,0,1.707-.219,5.655,5.655,0,0,0,1.381-1.046c1.1-1.057,2.118-2.389,2.04-3.883a1.863,1.863,0,0,0-.585-1.347,1.781,1.781,0,0,0-1.749-.22,2.975,2.975,0,0,0-1.36,1.172Z" transform="translate(-2367.842 -703.873)" fill="#f0b297"/>
          <path id="Path_1282" data-name="Path 1282" d="M2537.1,805.616a2.438,2.438,0,0,1-1.707-.219,5.638,5.638,0,0,1-1.381-1.046c-1.1-1.057-2.118-2.389-2.04-3.883a1.864,1.864,0,0,1,.585-1.347,1.781,1.781,0,0,1,1.748-.22,2.977,2.977,0,0,1,1.361,1.172Z" transform="translate(-2228.787 -703.873)" fill="#f0b297"/>
          <path id="Path_1283" data-name="Path 1283" d="M2551.774,700.247c.435-4.671,1.653-7.4,2.406-10.094a8.245,8.245,0,0,0-1.269-7.869c-2.324-3.164-8.155-4.961-13.493-3.449-5.376,1.515-9.5,4.975-8.853,8.554.329,2.143,1.783,4.136,2.141,6.346.3,1.837-.262,3.68.417,5.471,1.265,3.08,6.156,8.483,10.008,8.483,3.148,0,8.344-5.4,8.644-7.442" transform="translate(-2227.496 -597.782)" fill="#f0b297"/>
          <path id="Path_1284" data-name="Path 1284" d="M2656.033,789.531a4.161,4.161,0,0,1,2.841.37,3.358,3.358,0,0,1,1.136.942c-.466-.137-.894-.273-1.327-.377a11.746,11.746,0,0,0-1.288-.245,11.482,11.482,0,0,0-1.305-.1c-.443-.01-.529-.483-.056-.6" transform="translate(-2337.76 -695.648)" fill="#7f3b37"/>
          <path id="Path_1285" data-name="Path 1285" d="M2576.54,788.961a4.1,4.1,0,0,0-1.45-.037,4.143,4.143,0,0,0-1.382.467,3.352,3.352,0,0,0-1.117.966c.463-.147.888-.292,1.319-.4a11.752,11.752,0,0,1,1.283-.272,11.459,11.459,0,0,1,1.3-.123c.443-.02.519-.495.044-.6" transform="translate(-2264.563 -695.161)" fill="#7f3b37"/>
          <g id="Group_23" data-name="Group 23" transform="translate(315.492 98.1)" style="mix-blend-mode: soft-light;isolation: isolate">
            <g id="Group_22" data-name="Group 22">
              <g id="Group_21" data-name="Group 21" clip-path="url(#clip-path-6)">
                <path id="Path_1286" data-name="Path 1286" d="M2635.767,826.25a1.768,1.768,0,0,1-.115.259.5.5,0,0,1-.176.214c-.079.042-.2.012-.29-.122a.574.574,0,0,1-.092-.257.761.761,0,0,1,.037-.326.746.746,0,0,1,.175-.276.559.559,0,0,1,.231-.139c.156-.044.266.01.3.094a.508.508,0,0,1,0,.278,1.7,1.7,0,0,1-.073.274" transform="translate(-2635.09 -825.588)" fill="#f2f2f2"/>
              </g>
            </g>
          </g>
          <path id="Path_1287" data-name="Path 1287" d="M2627.031,823.639c-.015-.064-.028-.121-.037-.173s-.017-.1-.024-.141a1,1,0,0,1-.007-.159c0-.06.009-.126.017-.193a2.278,2.278,0,0,0,.032-.392.384.384,0,0,0-.107-.274.148.148,0,0,0-.2-.009.888.888,0,0,0-.231.29,1.459,1.459,0,0,0-.185.575,1.168,1.168,0,0,0,.025.359,1.527,1.527,0,0,0,.118.334,1.9,1.9,0,0,0,.17.285,2.265,2.265,0,0,0,.188.229,3.039,3.039,0,0,0,.343.317c.2.154.319.21.385.1s.055-.223-.052-.4c-.052-.089-.13-.192-.216-.316a2.23,2.23,0,0,1-.125-.2,1.123,1.123,0,0,1-.091-.233" transform="translate(-2311.842 -724.56)" fill="#d1785e"/>
          <path id="Path_1288" data-name="Path 1288" d="M2587.546,807.169l-.007-1.271a1.112,1.112,0,0,0-2.224.012l.007,1.271c0,.612,2.228.6,2.225-.012" transform="translate(-2275.767 -709.176)" fill="#1a1a1a"/>
          <path id="Path_1289" data-name="Path 1289" d="M2577.01,804.9a2.1,2.1,0,0,0-1.5.314,1.157,1.157,0,0,1-1.18.217,1.189,1.189,0,0,0,1.272.223,1.376,1.376,0,0,1,1.033-.186Z" transform="translate(-2266.097 -709.243)" fill="#1a1a1a"/>
          <path id="Path_1290" data-name="Path 1290" d="M2661.813,807.169l.007-1.271a1.112,1.112,0,0,1,2.224.012l-.007,1.271c0,.612-2.228.6-2.225-.012" transform="translate(-2343.13 -709.176)" fill="#1a1a1a"/>
          <path id="Path_1291" data-name="Path 1291" d="M2669.06,804.9a2.1,2.1,0,0,1,1.5.314,1.157,1.157,0,0,0,1.18.217,1.191,1.191,0,0,1-1.273.223,1.376,1.376,0,0,0-1.033-.186Z" transform="translate(-2349.512 -709.243)" fill="#1a1a1a"/>
          <path id="Path_1292" data-name="Path 1292" d="M2517.089,696.97a1.618,1.618,0,0,0,.031.543q-2.66-.014-5.331.208a.518.518,0,0,1,.013-.089,3.557,3.557,0,0,1,.826-1.243,3.229,3.229,0,0,0,.662-2.266c-.1-.983-.7-1.891-.518-2.883.28-1.572,2.11-2.748,1.8-4.272-.167-.808-1-1.324-1.149-2.135-.24-1.28.982-2.346,1.333-3.643a2.712,2.712,0,0,0-.423-2.166c-1.271.01-3.982.16-3.963-.036a10.809,10.809,0,0,0-.473-4.638c-.565,1.336-.849,4.638-1.035,4.749a.6.6,0,0,1-.312.059c-3.505.019-8.646.039-12.151.058a1.993,1.993,0,0,0-.064.271,6.639,6.639,0,0,0,.551,3,3.535,3.535,0,0,1-.133,3.016,14.5,14.5,0,0,1-1.2,1.266,2.963,2.963,0,0,0-.169,3.669c.371.464.92.838,1.022,1.433.131.77-.536,1.477-.857,2.223a2.591,2.591,0,0,0,.248,2.523,2.908,2.908,0,0,1,.54.807.956.956,0,0,1,.042.293h-8.485a3.018,3.018,0,0,1,.334-.744c.4-.645.9-1.432.547-2.053a7.869,7.869,0,0,0-.562-.642c-.543-.754.034-1.859.692-2.609s1.466-1.564,1.4-2.512c-.056-.777-.691-1.333-1.1-1.976a3.964,3.964,0,0,1,.245-4.364c.714-.971,1.861-1.687,2.224-2.814,1.4-4.347.46-7.637,4.939-10.524,4.867-3.138,7.894-5.1,13.17-2.5,3.359,1.658,8.2,4.794,7.956,8.416a19.8,19.8,0,0,0,.283,4.449c.281,1.771,2.19,3.07,1.893,4.879-.275,1.676-2.309,2.69-2.8,4.332-.591,1.991,1.335,3.909.758,5.9-.173.6-.56,1.133-.727,1.733a1.76,1.76,0,0,0-.052.278" transform="translate(-2189.975 -586.757)" fill="#7f3b37"/>
          <path id="Path_1293" data-name="Path 1293" d="M2616.564,849.557a6.5,6.5,0,0,0,2.379-.9c-.624,1.16-1.259,2.274-3.032,2.464a2.577,2.577,0,0,1-3.044-1.992,6.629,6.629,0,0,0,3.7.424" transform="translate(-2300.029 -747.806)" fill="#fff"/>
          <rect id="Rectangle_17" data-name="Rectangle 17" width="13.013" height="15.478" transform="translate(69.738 98.695)" fill="#ffa58f"/>
          <path id="Path_1294" data-name="Path 1294" d="M590.247,830.576v4.76a22.864,22.864,0,0,1-13.013,4.76v-9.52Z" transform="translate(-507.496 -731.881)" fill="#b3624b"/>
          <path id="Path_1295" data-name="Path 1295" d="M760.963,960.023c1.42,1.108,3.868,3.389,4.014,4.612s4.8,33.712,5.086,35.815c.583,4.218-12.865-.112-13.374-2.862s-6.126-22.782-6.126-22.782L755.99,958.9s3.475-.046,4.974,1.123" transform="translate(-660.125 -844.879)" fill="#29253b"/>
          <path id="Path_1296" data-name="Path 1296" d="M603.078,1368.5c3.411,20.94.46,59.529-.425,65.208-.895,5.743-12.755-3.74-13.138-9.531-.138-2.081.409-4.152.413-6.238,0-1.842-.8-3.613-.833-5.462-.265-16.143-3.446-18.409-5.754-28.364l-3.735-15.613Z" transform="translate(-509.585 -1205.561)" fill="#232033"/>
          <path id="Path_1297" data-name="Path 1297" d="M399.649,2246.307c2.523-1.206,4.747-2.48,5.373-3.776l.279-11.469c.1-.853.282-1.9-.551-2.01l-3.788-.523a1.479,1.479,0,0,0-1.633,1.1c-.422,1.58-1.9,6.811-1.9,6.811l-7.4,7.292a4.245,4.245,0,0,0-1.625,2.576c0,.035,11.246,0,11.246,0" transform="translate(-341.215 -1962.875)" fill="#b3b3b3"/>
          <path id="Path_1298" data-name="Path 1298" d="M374.4,2275.216c-.239-.036.617,6.129-2.193,6.589a4.105,4.105,0,0,1-.545.046l-.222-2.6s-3.992-1.843-6.983-1.61l-.692,1.42-8.5,4.68a5.186,5.186,0,0,0-1.865,3.188,1.144,1.144,0,0,0,.243.682h21.491s-.492-12.355-.731-12.391" transform="translate(-310.391 -2003.999)" fill="#1a1a1a"/>
          <path id="Path_1299" data-name="Path 1299" d="M738.48,2249.134a10.434,10.434,0,0,0-1.087-2.564l-5.619-7.362s-.707-4.763-.9-6.2a1.343,1.343,0,0,0-1.3-1.18l-3.352-.057a1.349,1.349,0,0,0-1.355,1.349l-.383,10.371a54.035,54.035,0,0,0,2.275,5.612Z" transform="translate(-637.165 -1965.744)" fill="#b3b3b3"/>
          <path id="Path_1300" data-name="Path 1300" d="M718.621,2286.63l-3.8-4.98-.525-1.578c-2.575-.608-6.252.458-6.252.458l-.483,2.241a3.521,3.521,0,0,1-.469-.114c-2.392-.781-1.625-4.88-1.837-4.881s-2.719,12.085-2.719,12.085h17.332c.009-.065.016-.131.02-.2a4.721,4.721,0,0,0-1.267-3.034" transform="translate(-617.834 -2006.254)" fill="#1a1a1a"/>
          <path id="Path_1301" data-name="Path 1301" d="M474.9,1358.5c-3.486,20.939-1.762,59.529-.859,65.208.914,5.742,13.034-3.741,13.425-9.531.141-2.081-.418-4.153-.422-6.238a23.674,23.674,0,0,1,.852-5.462c2.358-9.955,7.338-19.91,9.7-29.865V1358.5Z" transform="translate(-415.542 -1196.755)" fill="#232033"/>
          <path id="Path_1302" data-name="Path 1302" d="M464.442,1828.085c-.148-8.247-.007-16.495.133-24.742q.106-6.215.212-12.43c.1-5.838.441-11.75,2.59-17.257.641-1.643,10.97-5.885,12.245-4.162,0,0,.86,8.123,1.4,11.8a21.486,21.486,0,0,1-.607,7.274c-2.607,13.061-3.97,26.454-6.577,39.515Z" transform="translate(-408.118 -1558.316)" fill="#232033"/>
          <path id="Path_1303" data-name="Path 1303" d="M670.127,1837.556c.144-8.247-.2-15.966-.337-24.213q-.1-6.215-.207-12.43c-.1-5.838-.431-11.751-2.534-17.258-.628-1.643-10.735-5.884-11.982-4.161,0,0-.842,8.123-1.369,11.8a21.941,21.941,0,0,0,.594,7.274c2.552,13.061,3.767,25.959,6.318,39.021Z" transform="translate(-574.722 -1567.121)" fill="#232033"/>
          <path id="Path_1304" data-name="Path 1304" d="M463.461,976.811c-.385,0-.643,0-.747,0-1.938-.024-7.7-1.7-8.54-3,2.148-11.1.841-17.8-.423-24.271-.711-3.642-1.522-11.532-1.522-11.532-.777-1.458-1.674-12.353-1.012-16.846l14.273-6,6.61,1.978h1.333l6.61-1.978,14.273,6c.662,4.493-.235,15.388-1.012,16.846,0,0-1,8.079-1.912,11.754-1.541,6.22-3.135,12.651-.974,23.646l.009.049c-.429.648-3.638,2.311-5.2,2.557-5.026.793-21.08.8-21.761.8" transform="translate(-396.324 -806.36)" fill="#cfd7e9"/>
          <path id="Path_1305" data-name="Path 1305" d="M588.538,932.805l2.493-2.418-1.482-4.052-3.522-.313-3.523.313-1.482,4.052,2.493,2.418-3.908,38,6.419,7.506,6.419-7.506Z" transform="translate(-509.586 -815.928)" fill="#869ac9"/>
          <path id="Path_1306" data-name="Path 1306" d="M640.22,887.779l-6.862,4.567,2.512.513,2.013,10.42,6.7-10.538Z" transform="translate(-556.917 -782.253)" fill="#e7ebf4"/>
          <path id="Path_1307" data-name="Path 1307" d="M543.765,887.779l6.862,4.567-2.511.513-2.013,10.42-6.695-10.538Z" transform="translate(-474.186 -782.253)" fill="#e7ebf4"/>
          <path id="Path_1308" data-name="Path 1308" d="M369.939,958.477c-1.42,1.108-3.868,3.389-4.014,4.612s-3.272,27.075-4.084,34.172c-.5,6.84,12.442,6.917,13.24,5.028s5.258-29.029,5.258-29.029l-5.426-15.906s-3.475-.045-4.974,1.123" transform="translate(-317.813 -843.519)" fill="#29253b"/>
          <path id="Path_1309" data-name="Path 1309" d="M697.97,924.353l-13.1-5.3-4.023,31.065-.509,38.616c5.027,3.427,14.3,2.247,15.313.958s-.643-9.938-.858-11.6c-2.276-17.576,1.073-36.339,1.073-36.339s2.882-13.145,2.108-17.4" transform="translate(-598.283 -809.795)" fill="#29253b"/>
          <path id="Path_1310" data-name="Path 1310" d="M457.893,949.857l-4.532-30.8-12.746,5.024c-.774,4.259,1.75,17.677,1.75,17.677s4.435,18.456,1.591,35.771c-.124,1.511-1.887,10.951-1.155,12s11.68,3.467,16.137.517Z" transform="translate(-387.062 -809.794)" fill="#29253b"/>
          <path id="Path_1311" data-name="Path 1311" d="M564.354,1215.645c.129-.86-2.749-9.158-6.164-10.34s-35.905-4.563-35.905-4.563-1.681,2.819-1.1,5.006c0,0,24,8.112,27.168,9.088s15.878,1.67,16.006.809" transform="translate(-458.029 -1057.841)" fill="#ffa58f"/>
          <path id="Path_1312" data-name="Path 1312" d="M491.616,1183.35s-6.545-2.634-6.965-2.85v9.517l6.025-2.033Z" transform="translate(-425.968 -1040.016)" fill="#ffa58f"/>
          <path id="Path_1313" data-name="Path 1313" d="M559.008,1190.021l-2.078,9.628s21.692,6.713,30.6,8.579,12.666-1.483,11.909-4.525a12.182,12.182,0,0,0-8.849-8.9c-5.518-1.35-31.58-4.782-31.58-4.782" transform="translate(-489.616 -1048.4)" fill="#29253b"/>
          <path id="Path_1314" data-name="Path 1314" d="M400.695,1245.5c.033-.869,2.822-10.687,6.4-11.214s40.044,4.855,40.044,4.855-1.626,5.013-2.958,5.553c0,0-18.279.693-24.782,1.492-3.294.4-18.733.184-18.7-.685" transform="translate(-352.039 -1087.348)" fill="#ffa58f"/>
          <path id="Path_1315" data-name="Path 1315" d="M735.748,1244.158c1.977,1.076,4.237,1.35,6.371,1.952.87.246,1.909.447,2.523-.158a2.536,2.536,0,0,0,.557-1.342c.32-1.569-1.042-3.818-.722-5.869.224-1.44.3-4.5-.435-4.414-1.945.225-5.121,3.362-7.165,4.391a1.749,1.749,0,0,0-.712.663c-.675,1.119-2.094,3.864-.417,4.777" transform="translate(-646.386 -1087.413)" fill="#ffa58f"/>
          <path id="Path_1316" data-name="Path 1316" d="M802.478,1248.38a18.671,18.671,0,0,0,5.1-.429c1.024-.241,2.147-1.129,5.227-2.972,1.145-.685-.411-1.532-1.629-.975a20.9,20.9,0,0,1-3.72,1.5c-1.825.592-3.516-.166-5.318.1-1.212.182-.894,2.74.339,2.77" transform="translate(-704.869 -1095.778)" fill="#ffa58f"/>
          <path id="Path_1317" data-name="Path 1317" d="M797.35,1271.907c2.906-.2,3.908.108,5.76-.372,1.406-.365,2.1-.947,4.354-1.805,1.549-.589.6-2.294-.949-1.706-2.312.879-3.124,1.212-3.124,1.212-2.367.661-4.829.086-7.231.453-1.616.247-.447,2.332,1.19,2.218" transform="translate(-699.595 -1116.98)" fill="#ffa58f"/>
          <path id="Path_1318" data-name="Path 1318" d="M797.568,1295.1a21,21,0,0,0,5.987.475c.543-.09,2.822-1.011,3.455-1.233a5.593,5.593,0,0,0,1.732-1.043c.424-.487-.127-1.3-.8-1.14-.784.183-3.3,1.087-5.01,1.377-2.42.411-3.833-.892-6.25-.77-1.627.081-.731,2.027.885,2.334" transform="translate(-699.98 -1138.322)" fill="#ffa58f"/>
          <path id="Path_1319" data-name="Path 1319" d="M794.157,1315.829a19.5,19.5,0,0,0,3.906.234c.443.013,2.052-.272,3.052-.3.538-.017,2.035-.3,2.035-.3a.612.612,0,0,0-.48-1.03c-.645.03-1.848.123-3.24.089-1.974-.048-3.81-.969-5.75-1.279-1.305-.209-.831,2.378.477,2.587" transform="translate(-697.412 -1156.895)" fill="#ffa58f"/>
          <path id="Path_1320" data-name="Path 1320" d="M774.557,1226.419c.894-1.774,1.419-2.989,2.255-3.294a18.781,18.781,0,0,0,2.649-1.119,2.667,2.667,0,0,0,1.134-1.75c.114-1.293-2.26-.428-4.036-.1a4.977,4.977,0,0,0-2.777,1.369c-.769.736-3.4,3.364-3.4,3.364Z" transform="translate(-677.582 -1074.419)" fill="#ffa58f"/>
          <path id="Path_1321" data-name="Path 1321" d="M424.074,1233.714l2.088-9.949s-32.328-3.538-35.087-3.878-7.329,3.27-7.915,6.913-.117,6.6,3.632,7.405,37.282-.491,37.282-.491" transform="translate(-336.413 -1074.68)" fill="#29253b"/>
          <path id="Path_1322" data-name="Path 1322" d="M686.867,765.84a2.446,2.446,0,0,0,1.711-.22,5.659,5.659,0,0,0,1.384-1.049c1.1-1.06,2.123-2.395,2.045-3.892a1.869,1.869,0,0,0-.587-1.35,1.785,1.785,0,0,0-1.752-.22,2.98,2.98,0,0,0-1.364,1.174Z" transform="translate(-604.036 -668.833)" fill="#ffa58f"/>
          <path id="Path_1323" data-name="Path 1323" d="M533.721,765.84a2.446,2.446,0,0,1-1.711-.22,5.657,5.657,0,0,1-1.384-1.049c-1.1-1.06-2.123-2.395-2.045-3.892a1.868,1.868,0,0,1,.587-1.35,1.785,1.785,0,0,1,1.752-.22,2.979,2.979,0,0,1,1.364,1.174Z" transform="translate(-464.648 -668.833)" fill="#ffa58f"/>
          <path id="Path_1324" data-name="Path 1324" d="M556.749,655.389c.435-4.682,1.656-7.413,2.411-10.118.539-2.027,1.085-5.49-1.272-8.543-2.329-3.172-8.174-4.974-13.525-3.457-5.389,1.518-8.379,4.67-7.727,8.256.33,2.148.639,5.119,1,7.334.3,1.842-.263,3.69.418,5.484,1.269,3.088,6.17,8.5,10.031,8.5,3.155,0,8.364-5.417,8.665-7.46" transform="translate(-471.668 -557.658)" fill="#ffa58f"/>
          <g id="Group_26" data-name="Group 26" transform="translate(76.273 93.355)" style="mix-blend-mode: soft-light;isolation: isolate">
            <g id="Group_25" data-name="Group 25">
              <g id="Group_24" data-name="Group 24" clip-path="url(#clip-path-7)">
                <path id="Path_1325" data-name="Path 1325" d="M632.628,786.523a1.745,1.745,0,0,1-.115.259.494.494,0,0,1-.176.214c-.079.042-.2.012-.291-.122a.581.581,0,0,1-.092-.258.76.76,0,0,1,.037-.326.749.749,0,0,1,.175-.276.565.565,0,0,1,.232-.139c.155-.044.266.01.3.094a.5.5,0,0,1,0,.279,1.748,1.748,0,0,1-.073.275" transform="translate(-631.95 -785.859)" fill="#f2f2f2"/>
              </g>
            </g>
          </g>
          <path id="Path_1326" data-name="Path 1326" d="M623.871,783.9c-.015-.064-.028-.122-.038-.173s-.018-.1-.024-.142a1,1,0,0,1-.007-.159c0-.06.009-.126.018-.194a2.233,2.233,0,0,0,.031-.393.382.382,0,0,0-.107-.274.148.148,0,0,0-.2-.009.9.9,0,0,0-.232.291,1.466,1.466,0,0,0-.186.577,1.17,1.17,0,0,0,.025.36,1.559,1.559,0,0,0,.119.334,1.938,1.938,0,0,0,.17.286,2.258,2.258,0,0,0,.189.23,3.054,3.054,0,0,0,.344.317c.2.154.32.21.386.1s.056-.223-.052-.4c-.053-.089-.131-.193-.217-.317a2.09,2.09,0,0,1-.125-.2,1.092,1.092,0,0,1-.09-.234" transform="translate(-547.901 -689.569)" fill="#d16343"/>
          <path id="Path_1327" data-name="Path 1327" d="M655.958,745.9a4.332,4.332,0,0,1,1.724-.091c.574.084,1.942,1.491,1.428,1.351a12.513,12.513,0,0,0-1.532-.329,12.089,12.089,0,0,0-1.553-.128c-.527-.014-.629-.651-.067-.8" transform="translate(-576.486 -657.193)" fill="#1a1a1a"/>
          <path id="Path_1328" data-name="Path 1328" d="M576.5,745.644a4.324,4.324,0,0,0-1.725-.049c-.573.1-1.915,1.537-1.4,1.385a12.578,12.578,0,0,1,1.526-.366,12.069,12.069,0,0,1,1.55-.166c.527-.027.617-.666.053-.8" transform="translate(-503.99 -656.992)" fill="#1a1a1a"/>
          <path id="Path_1329" data-name="Path 1329" d="M582.314,763.861l-.007-1.245a1.089,1.089,0,0,0-2.178.012l.007,1.245c0,.6,2.181.587,2.178-.012" transform="translate(-510.045 -671.084)" fill="#1a1a1a"/>
          <path id="Path_1330" data-name="Path 1330" d="M661.1,763.861l.007-1.245a1.089,1.089,0,0,1,2.178.012l-.007,1.245c0,.6-2.181.587-2.178-.012" transform="translate(-581.343 -671.084)" fill="#1a1a1a"/>
          <path id="Path_1331" data-name="Path 1331" d="M612.81,811.718a3.371,3.371,0,0,0,4.01,1.189.256.256,0,0,0,.1-.346.261.261,0,0,0-.346-.1,2.852,2.852,0,0,1-3.318-.994c-.183-.267-.629-.022-.443.249" transform="translate(-538.784 -714.954)" fill="#c2502f"/>
          <path id="Path_1332" data-name="Path 1332" d="M551.934,604.331a11.548,11.548,0,0,0,.137-4.015,5.965,5.965,0,0,0-3.669-4.789,2.655,2.655,0,0,0,.522-3.523,6.131,6.131,0,0,0-3.165-2.27,14.95,14.95,0,0,0-12.952.781c-3.8,2.313-5.931,7.783-5.054,11.293s1.261,5.34,3.686,5.2a10.083,10.083,0,0,0,5.681-2.76c1.635-1.376,4.085-3.855,6.019-4.78a6.405,6.405,0,0,1,4.945-.371c1.783,3.865,1.328,8.3,1.515,12.867.546-1.663,1.36-3.693,1.82-5.425.194-.728.376-1.467.515-2.211" transform="translate(-463.75 -518.83)" fill="#693529"/>
          <path id="Path_1333" data-name="Path 1333" d="M534.541,689.971l1.056-11.578s-1.664-1.479-2.485-.793,1.429,12.371,1.429,12.371" transform="translate(-468.484 -597.014)" fill="#693529"/>
        </g>
      </g>
    </g>
  </g>
</svg>
