<svg xmlns="http://www.w3.org/2000/svg" width="14.404" height="14.455" viewBox="0 0 14.404 14.455">
  <path id="Path_1595" data-name="Path 1595" d="M562.053,818.448a2.6,2.6,0,1,0,0,5.21,2.605,2.605,0,0,0,0-5.21Zm5.159,4.086-.46,1.124.919,1.839-1.175,1.175-1.89-.868-1.124.46L562.921,828l-.051.255h-1.635l-.715-1.992-1.124-.46-1.839.919-1.175-1.175.868-1.89-.46-1.124-1.992-.664v-1.635l1.992-.715.46-1.124-.817-1.634-.1-.2,1.175-1.175,1.89.868,1.124-.46.562-1.737.051-.255h1.635l.715,1.992,1.124.46,1.839-.919,1.175,1.175-.868,1.89.46,1.124,1.992.664v1.634l-1.992.715Z" transform="translate(-554.8 -813.8)" fill="#333"/>
</svg>
