<?xml version="1.0" encoding="utf-8"?>
<!-- Generator: Adobe Illustrator 26.0.2, SVG Export Plug-In . SVG Version: 6.00 Build 0)  -->
<svg version="1.1" id="Layer_1" xmlns="http://www.w3.org/2000/svg" xmlns:xlink="http://www.w3.org/1999/xlink" x="0px" y="0px"
	 viewBox="0 0 364.2 62.1" style="enable-background:new 0 0 364.2 62.1;" xml:space="preserve">
<style type="text/css">
	.st0{fill:#1F88D5;}
</style>
<path d="M5.3,39c-2.3-0.8-4-1.8-5.3-3.1l1.4-2.7c1.2,1.2,2.8,2.2,4.8,2.9c2,0.7,4.1,1.1,6.2,1.1c3,0,5.2-0.5,6.7-1.6
	c1.5-1.1,2.2-2.5,2.2-4.3c0-1.3-0.4-2.4-1.2-3.2c-0.8-0.8-1.8-1.4-3-1.8c-1.2-0.4-2.8-0.9-4.9-1.4c-2.5-0.6-4.5-1.2-6-1.8
	c-1.5-0.6-2.8-1.5-3.8-2.7c-1.1-1.2-1.6-2.8-1.6-4.9c0-1.7,0.4-3.2,1.3-4.6C3,9.5,4.4,8.4,6.2,7.5c1.8-0.8,4.1-1.2,6.9-1.2
	c1.9,0,3.8,0.3,5.6,0.8c1.8,0.5,3.4,1.2,4.7,2.2l-1.2,2.8c-1.4-0.9-2.9-1.6-4.5-2.1c-1.6-0.5-3.1-0.7-4.7-0.7C10.2,9.3,8,9.9,6.5,11
	c-1.5,1.1-2.2,2.6-2.2,4.4c0,1.3,0.4,2.4,1.2,3.2s1.8,1.4,3,1.9c1.2,0.4,2.9,0.9,4.9,1.4c2.4,0.6,4.4,1.2,5.9,1.8
	c1.5,0.6,2.8,1.5,3.8,2.7s1.6,2.8,1.6,4.8c0,1.7-0.5,3.2-1.4,4.6s-2.3,2.5-4.2,3.3c-1.9,0.8-4.2,1.2-6.9,1.2
	C9.9,40.2,7.5,39.8,5.3,39z"/>
<path d="M67.1,6.6v33.3h-3.4V13.3L50.6,35.7h-1.7L35.8,13.4v26.5h-3.4V6.6h2.9l14.5,24.7L64.2,6.6H67.1z"/>
<path d="M101.5,36.9v3H77.9V6.6h22.8v3H81.4v11.9h17.2v3H81.4v12.4H101.5z"/>
<path d="M124.8,38.5c-2.8-1.5-5-3.5-6.6-6.2c-1.6-2.6-2.4-5.7-2.4-9c0-3.4,0.8-6.4,2.4-9c1.6-2.6,3.8-4.7,6.6-6.2
	c2.8-1.5,6-2.2,9.5-2.2c3.2,0,6.1,0.6,8.7,1.7c2.5,1.1,4.6,2.8,6.3,5l-7.1,6.3c-2.1-2.6-4.5-3.9-7.3-3.9c-2.3,0-4.2,0.8-5.7,2.3
	c-1.4,1.5-2.1,3.5-2.1,6.1c0,2.5,0.7,4.6,2.1,6.1c1.4,1.5,3.3,2.3,5.7,2.3c2.8,0,5.2-1.3,7.3-3.9l7.1,6.3c-1.7,2.2-3.7,3.8-6.3,5
	c-2.5,1.1-5.4,1.7-8.7,1.7C130.8,40.7,127.7,39.9,124.8,38.5z"/>
<path d="M225,6.6v33.3h-9.2l-12.7-15.1v15.1h-10.9V6.6h9.2l12.7,15.1V6.6H225z"/>
<path d="M263.3,6.6v33.3h-9.2l-12.7-15.1v15.1h-10.9V6.6h9.2l12.7,15.1V6.6H263.3z"/>
<path d="M296.4,31.4v8.5h-27.7V6.6h27.1v8.5h-16V19h14.1v8.1h-14.1v4.4H296.4z"/>
<path d="M308.5,38.5c-2.8-1.5-5-3.5-6.6-6.2c-1.6-2.6-2.4-5.7-2.4-9c0-3.4,0.8-6.4,2.4-9c1.6-2.6,3.8-4.7,6.6-6.2
	c2.8-1.5,6-2.2,9.5-2.2c3.2,0,6.1,0.6,8.7,1.7s4.6,2.8,6.3,5l-7.1,6.3c-2.1-2.6-4.5-3.9-7.3-3.9c-2.3,0-4.2,0.8-5.7,2.3
	c-1.4,1.5-2.1,3.5-2.1,6.1c0,2.5,0.7,4.6,2.1,6.1c1.4,1.5,3.3,2.3,5.7,2.3c2.8,0,5.2-1.3,7.3-3.9l7.1,6.3c-1.7,2.2-3.7,3.8-6.3,5
	c-2.5,1.1-5.4,1.7-8.7,1.7C314.5,40.7,311.3,39.9,308.5,38.5z"/>
<path d="M343.2,15.3h-9.8V6.6h30.7v8.7h-9.8v24.6h-11.2V15.3z"/>
<g>
	<path d="M12.5,59.7H7.6l-1,2.3H4.7l4.4-9.8h1.8l4.4,9.8h-1.9L12.5,59.7z M11.9,58.3L10,54l-1.8,4.3H11.9z"/>
	<path d="M40.4,52.2V62h-1.8v-4.2h-5.1V62h-1.8v-9.8h1.8v4h5.1v-4H40.4z"/>
	<path d="M49.6,61c-0.8-0.8-1.1-1.9-1.1-3.3v-5.5h1.8v5.5c0,1.9,0.8,2.9,2.5,2.9c1.7,0,2.5-1,2.5-2.9v-5.5h1.8v5.5
		c0,1.4-0.4,2.5-1.1,3.3c-0.8,0.8-1.8,1.1-3.2,1.1C51.5,62.1,50.4,61.7,49.6,61z"/>
	<path d="M71.6,62l-2-2.9c-0.1,0-0.2,0-0.4,0h-2.2V62h-1.8v-9.8h4c0.8,0,1.6,0.1,2.2,0.4s1.1,0.7,1.4,1.2s0.5,1.1,0.5,1.9
		c0,0.7-0.2,1.4-0.5,1.9s-0.9,0.9-1.5,1.2l2.3,3.2H71.6z M71,54.2c-0.4-0.3-1-0.5-1.8-0.5h-2.1v3.9h2.1c0.8,0,1.4-0.2,1.8-0.5
		s0.6-0.8,0.6-1.4C71.6,55,71.4,54.6,71,54.2z"/>
	<path d="M81.1,52.2h1.8V62h-1.8V52.2z"/>
	<path d="M97.3,62l-2.7-3.7L92,62h-2.1l3.6-5l-3.4-4.8h2.1l2.5,3.5l2.5-3.5h2l-3.4,4.7l3.7,5.1H97.3z"/>
	<path d="M116.7,61.8c-0.7-0.2-1.3-0.5-1.7-0.9l0.6-1.4c0.4,0.3,0.9,0.6,1.5,0.8c0.6,0.2,1.2,0.3,1.8,0.3c0.7,0,1.3-0.1,1.6-0.3
		s0.5-0.5,0.5-0.9c0-0.3-0.1-0.5-0.3-0.7c-0.2-0.2-0.5-0.3-0.8-0.4s-0.7-0.2-1.3-0.4c-0.7-0.2-1.4-0.4-1.8-0.5
		c-0.5-0.2-0.9-0.5-1.2-0.8c-0.3-0.4-0.5-0.9-0.5-1.5c0-0.5,0.1-1,0.4-1.5s0.7-0.8,1.3-1.1c0.6-0.3,1.3-0.4,2.2-0.4
		c0.6,0,1.2,0.1,1.8,0.2c0.6,0.1,1.1,0.4,1.5,0.6l-0.6,1.4c-0.4-0.3-0.9-0.4-1.3-0.6c-0.5-0.1-0.9-0.2-1.4-0.2
		c-0.7,0-1.3,0.1-1.6,0.4c-0.3,0.2-0.5,0.6-0.5,1c0,0.3,0.1,0.5,0.3,0.7c0.2,0.2,0.5,0.3,0.8,0.4c0.3,0.1,0.7,0.2,1.3,0.4
		c0.7,0.2,1.3,0.3,1.8,0.5c0.5,0.2,0.9,0.5,1.2,0.8c0.3,0.4,0.5,0.9,0.5,1.5c0,0.5-0.1,1-0.4,1.5s-0.7,0.8-1.3,1
		c-0.6,0.3-1.3,0.4-2.2,0.4C118.2,62.1,117.5,62,116.7,61.8z"/>
	<path d="M139.3,62l0-6.5l-3.2,5.4h-0.8l-3.2-5.3V62h-1.7v-9.8h1.5l3.9,6.5l3.8-6.5h1.5l0,9.8H139.3z"/>
	<path d="M156.6,60.4V62h-7.4v-9.8h7.2v1.5h-5.3v2.5h4.7v1.5h-4.7v2.7H156.6z"/>
	<path d="M173.7,52.2h4.3c1,0,2,0.2,2.8,0.6c0.8,0.4,1.4,1,1.9,1.7c0.4,0.7,0.7,1.6,0.7,2.6c0,1-0.2,1.8-0.7,2.6
		c-0.4,0.7-1.1,1.3-1.9,1.7C180,61.8,179,62,178,62h-4.3V52.2z M177.9,60.4c0.7,0,1.4-0.1,1.9-0.4s1-0.7,1.3-1.2s0.4-1.1,0.4-1.8
		c0-0.7-0.1-1.3-0.4-1.8s-0.7-0.9-1.3-1.2s-1.2-0.4-1.9-0.4h-2.4v6.7H177.9z"/>
	<path d="M197.1,59.7h-4.9l-1,2.3h-1.9l4.4-9.8h1.8L200,62h-1.9L197.1,59.7z M196.5,58.3l-1.8-4.3l-1.8,4.3H196.5z"/>
	<path d="M208.3,53.7h-3.2v-1.5h8.3v1.5h-3.2V62h-1.8V53.7z"/>
	<path d="M226.2,59.7h-4.9l-1,2.3h-1.9l4.4-9.8h1.8l4.4,9.8h-1.9L226.2,59.7z M225.6,58.3l-1.8-4.3l-1.8,4.3H225.6z"/>
	<path d="M244.2,57.8c0.3,0.4,0.5,0.9,0.5,1.5c0,0.8-0.3,1.5-1,2s-1.6,0.7-2.9,0.7H236v-9.8h4.6c1.2,0,2,0.2,2.7,0.7
		c0.6,0.5,0.9,1.1,0.9,1.9c0,0.5-0.1,0.9-0.3,1.3c-0.2,0.4-0.5,0.7-0.9,0.9C243.4,57.1,243.9,57.4,244.2,57.8z M237.8,53.6v2.7h2.6
		c0.6,0,1.1-0.1,1.5-0.3s0.5-0.6,0.5-1c0-0.4-0.2-0.8-0.5-1c-0.3-0.2-0.8-0.3-1.5-0.3H237.8z M242.8,59.1c0-0.9-0.7-1.4-2.1-1.4
		h-2.9v2.8h2.9C242.1,60.5,242.8,60.1,242.8,59.1z"/>
	<path d="M258.6,59.7h-4.9l-1,2.3h-1.9l4.4-9.8h1.8l4.4,9.8h-1.9L258.6,59.7z M258,58.3l-1.8-4.3l-1.8,4.3H258z"/>
	<path d="M269.2,61.8c-0.7-0.2-1.3-0.5-1.7-0.9l0.6-1.4c0.4,0.3,0.9,0.6,1.5,0.8c0.6,0.2,1.2,0.3,1.8,0.3c0.7,0,1.3-0.1,1.6-0.3
		c0.4-0.2,0.5-0.5,0.5-0.9c0-0.3-0.1-0.5-0.3-0.7c-0.2-0.2-0.5-0.3-0.8-0.4s-0.7-0.2-1.3-0.4c-0.7-0.2-1.4-0.4-1.8-0.5
		c-0.5-0.2-0.9-0.5-1.2-0.8c-0.3-0.4-0.5-0.9-0.5-1.5c0-0.5,0.1-1,0.4-1.5s0.7-0.8,1.3-1.1s1.3-0.4,2.2-0.4c0.6,0,1.2,0.1,1.8,0.2
		c0.6,0.1,1.1,0.4,1.5,0.6l-0.6,1.4c-0.4-0.3-0.9-0.4-1.3-0.6c-0.5-0.1-0.9-0.2-1.4-0.2c-0.7,0-1.3,0.1-1.6,0.4
		c-0.4,0.2-0.5,0.6-0.5,1c0,0.3,0.1,0.5,0.3,0.7c0.2,0.2,0.5,0.3,0.8,0.4c0.3,0.1,0.7,0.2,1.3,0.4c0.7,0.2,1.3,0.3,1.8,0.5
		c0.5,0.2,0.9,0.5,1.2,0.8c0.3,0.4,0.5,0.9,0.5,1.5c0,0.5-0.1,1-0.4,1.5s-0.7,0.8-1.3,1c-0.6,0.3-1.3,0.4-2.2,0.4
		C270.6,62.1,269.9,62,269.2,61.8z"/>
	<path d="M290.1,60.4V62h-7.3v-9.8h7.2v1.5h-5.3v2.5h4.7v1.5h-4.7v2.7H290.1z"/>
	<path d="M309.1,53.7h-3.2v-1.5h8.3v1.5H311V62h-1.8V53.7z"/>
	<path d="M322.9,61.5c-0.8-0.4-1.4-1-1.9-1.8c-0.5-0.8-0.7-1.6-0.7-2.6c0-1,0.2-1.8,0.7-2.6c0.5-0.8,1.1-1.4,1.9-1.8
		c0.8-0.4,1.7-0.7,2.7-0.7c1,0,1.9,0.2,2.7,0.7s1.4,1,1.9,1.8c0.5,0.8,0.7,1.6,0.7,2.6c0,1-0.2,1.8-0.7,2.6
		c-0.5,0.8-1.1,1.4-1.9,1.8c-0.8,0.4-1.7,0.7-2.7,0.7C324.6,62.1,323.7,61.9,322.9,61.5z M327.4,60.1c0.5-0.3,0.9-0.7,1.2-1.2
		s0.4-1.1,0.4-1.8c0-0.7-0.1-1.2-0.4-1.8s-0.7-0.9-1.2-1.2c-0.5-0.3-1.1-0.4-1.8-0.4s-1.2,0.1-1.8,0.4s-0.9,0.7-1.2,1.2
		c-0.3,0.5-0.4,1.1-0.4,1.8c0,0.7,0.1,1.2,0.4,1.8c0.3,0.5,0.7,0.9,1.2,1.2c0.5,0.3,1.1,0.4,1.8,0.4S326.9,60.4,327.4,60.1z"/>
	<path d="M340.3,61.5c-0.8-0.4-1.4-1-1.9-1.8c-0.5-0.8-0.7-1.6-0.7-2.6c0-1,0.2-1.8,0.7-2.6c0.5-0.8,1.1-1.4,1.9-1.8
		c0.8-0.4,1.7-0.7,2.7-0.7c1,0,1.9,0.2,2.7,0.7s1.4,1,1.9,1.8c0.5,0.8,0.7,1.6,0.7,2.6c0,1-0.2,1.8-0.7,2.6
		c-0.5,0.8-1.1,1.4-1.9,1.8c-0.8,0.4-1.7,0.7-2.7,0.7C342,62.1,341.1,61.9,340.3,61.5z M344.8,60.1c0.5-0.3,0.9-0.7,1.2-1.2
		s0.4-1.1,0.4-1.8c0-0.7-0.1-1.2-0.4-1.8s-0.7-0.9-1.2-1.2c-0.5-0.3-1.1-0.4-1.8-0.4s-1.2,0.1-1.8,0.4s-0.9,0.7-1.2,1.2
		c-0.3,0.5-0.4,1.1-0.4,1.8c0,0.7,0.1,1.2,0.4,1.8c0.3,0.5,0.7,0.9,1.2,1.2c0.5,0.3,1.1,0.4,1.8,0.4S344.2,60.4,344.8,60.1z"/>
	<path d="M355.8,52.2h1.8v8.3h5.1V62h-6.9V52.2z"/>
</g>
<circle class="st0" cx="168.7" cy="19.3" r="7.9"/>
<path d="M179.5,16c0.4,1.1,0.6,2.3,0.6,3.5c0,6.3-5.1,11.3-11.3,11.3c-3.4,0-6.4-1.5-8.5-3.9l-8.4,4.8c3.7,5.8,10.2,9.6,17.5,9.6
	c11.5,0,20.9-9.3,20.9-20.9c0-3.4-0.8-6.6-2.2-9.4L179.5,16z"/>
<path class="st0" d="M153,11.3l4.9,3.1c0.4,0.2,0.5,0.7,0.3,1.1c0,0,0,0,0,0c-0.2,0.4-0.6,0.7-1.1,0.5l-5.7-1.4
	c-0.6-0.1-0.8-0.7-0.6-1.2l0.8-1.8C152,11.2,152.6,11,153,11.3z"/>
<path class="st0" d="M159.3,3.5l3.1,5.2c0.2,0.3,0.1,0.7-0.2,1c-0.6,0.4-1.2,0.9-1.7,1.5c-0.2,0.2-0.6,0.3-0.9,0.1l-5.2-3.2
	c-0.4-0.2-0.5-0.8-0.1-1.1l3.9-3.6C158.5,3.1,159.1,3.1,159.3,3.5z"/>
<path class="st0" d="M168.4,1.2v6.2c0,0.4-0.3,0.8-0.8,0.8c-0.7,0.1-1.3,0.2-2,0.4c-0.4,0.1-0.8-0.1-0.9-0.4l-3-5.3
	c-0.2-0.4-0.1-1,0.4-1.2c1.7-0.7,3.5-1.1,5.4-1.3C168,0.3,168.4,0.7,168.4,1.2z"/>
<path class="st0" d="M171.1,0.9l0,7.2c0,0.4,0.2,0.7,0.6,0.8l1.4,0.5c0.4,0.1,0.8,0,1-0.4l3.6-6.3c0.3-0.5,0-1.1-0.5-1.3l-5-1.3
	C171.7-0.1,171.1,0.3,171.1,0.9z"/>
<path class="st0" d="M185.4,8.7l-6.9,4.3c-0.3,0.2-0.8,0.1-1-0.2l-1.2-1.3v0c-0.2-0.3-0.3-0.7-0.1-1l4.2-6.7
	c0.3-0.4,0.8-0.5,1.2-0.2c1.5,1.1,2.9,2.4,4.1,3.9C186,7.9,185.9,8.5,185.4,8.7z"/>
</svg>
