<svg xmlns="http://www.w3.org/2000/svg" xmlns:xlink="http://www.w3.org/1999/xlink" width="181.319" height="31.423" viewBox="0 0 181.319 31.423">
  <defs>
    <clipPath id="clip-path">
      <rect id="Rectangle_194" data-name="Rectangle 194" width="181.319" height="31.423" fill="none"/>
    </clipPath>
  </defs>
  <g id="Group_236" data-name="Group 236" transform="translate(0 0)">
    <g id="Group_235" data-name="Group 235" transform="translate(0 0)" clip-path="url(#clip-path)">
      <path id="Path_1645" data-name="Path 1645" d="M131.26,21.322a7.8,7.8,0,0,1-3.132-2.942,8.1,8.1,0,0,1-1.139-4.271,7.982,7.982,0,0,1,1.139-4.271A8.134,8.134,0,0,1,131.26,6.9a9.427,9.427,0,0,1,4.508-1.044,10.5,10.5,0,0,1,4.128.807,7.651,7.651,0,0,1,2.99,2.373l-3.369,2.99a4.353,4.353,0,0,0-3.464-1.851,3.684,3.684,0,0,0-2.7,1.091,4.047,4.047,0,0,0-1,2.895,4.126,4.126,0,0,0,1,2.895,3.536,3.536,0,0,0,2.7,1.091,4.353,4.353,0,0,0,3.464-1.851l3.369,2.99a7.74,7.74,0,0,1-2.99,2.373,10.167,10.167,0,0,1-4.128.807,11.7,11.7,0,0,1-4.508-1.139" transform="translate(-66.728 -3.075)" fill="#232323"/>
      <path id="Path_1646" data-name="Path 1646" d="M218.954,6.552v15.8h-4.366l-6.027-7.166v7.166h-5.172V6.552h4.366l6.027,7.166V6.552Z" transform="translate(-106.873 -3.443)" fill="#232323"/>
      <path id="Path_1647" data-name="Path 1647" d="M257.254,6.552v15.8h-4.366l-6.027-7.166v7.166h-5.172V6.552h4.366l6.027,7.166V6.552Z" transform="translate(-126.998 -3.443)" fill="#232323"/>
      <path id="Path_1648" data-name="Path 1648" d="M293.033,18.321v4.034H279.889V6.552h12.86v4.034h-7.593v1.851h6.691V16.28h-6.691v2.088h7.877Z" transform="translate(-147.071 -3.443)" fill="#232323"/>
      <path id="Path_1649" data-name="Path 1649" d="M314.96,21.322a7.8,7.8,0,0,1-3.132-2.942,8.1,8.1,0,0,1-1.139-4.271,7.982,7.982,0,0,1,1.139-4.271A8.134,8.134,0,0,1,314.96,6.9a9.427,9.427,0,0,1,4.508-1.044,10.5,10.5,0,0,1,4.129.807,7.327,7.327,0,0,1,2.99,2.373l-3.369,2.99a4.353,4.353,0,0,0-3.464-1.851,3.684,3.684,0,0,0-2.7,1.091,4.047,4.047,0,0,0-1,2.895,4.127,4.127,0,0,0,1,2.895,3.536,3.536,0,0,0,2.7,1.091,4.353,4.353,0,0,0,3.464-1.851l3.369,2.99a7.739,7.739,0,0,1-2.99,2.373,10.167,10.167,0,0,1-4.129.807,11.486,11.486,0,0,1-4.508-1.139" transform="translate(-163.255 -3.075)" fill="#232323"/>
      <path id="Path_1650" data-name="Path 1650" d="M349.239,10.68h-4.651V6.552h14.568V10.68h-4.65V22.354h-5.315V10.68Z" transform="translate(-181.068 -3.443)" fill="#232323"/>
      <path id="Path_1651" data-name="Path 1651" d="M175.738,11.352a3.749,3.749,0,1,1-3.749,3.749,3.749,3.749,0,0,1,3.749-3.749" transform="translate(-90.374 -5.965)" fill="#232323"/>
      <path id="Path_1652" data-name="Path 1652" d="M176.186,13.325a4.887,4.887,0,0,1,.285,1.661,5.349,5.349,0,0,1-9.4,3.512l-3.986,2.278a9.893,9.893,0,0,0,18.222-5.362,9.958,9.958,0,0,0-1.044-4.461Z" transform="translate(-85.697 -5.755)" fill="#232323"/>
      <path id="Path_1653" data-name="Path 1653" d="M162.994,11.176l2.325,1.471a.382.382,0,0,1,.142.522.4.4,0,0,1-.522.237l-2.7-.664a.4.4,0,0,1-.285-.569l.38-.854a.532.532,0,0,1,.664-.142" transform="translate(-85.08 -5.837)" fill="#1f88d5"/>
      <path id="Path_1654" data-name="Path 1654" d="M167.728,3.287,169.2,5.755a.378.378,0,0,1-.095.475,3.779,3.779,0,0,0-.807.712.353.353,0,0,1-.427.047L165.4,5.47a.311.311,0,0,1-.047-.522l1.851-1.708a.336.336,0,0,1,.522.047" transform="translate(-86.824 -1.649)" fill="#1f88d5"/>
      <path id="Path_1655" data-name="Path 1655" d="M176.018.724V3.666a.374.374,0,0,1-.38.38,6.72,6.72,0,0,0-.949.19.356.356,0,0,1-.427-.19L172.838,1.53a.413.413,0,0,1,.19-.569,9.2,9.2,0,0,1,2.563-.617.363.363,0,0,1,.427.38" transform="translate(-90.796 -0.177)" fill="#1f88d5"/>
      <path id="Path_1656" data-name="Path 1656" d="M182.289.4V3.821a.361.361,0,0,0,.285.38l.664.237a.389.389,0,0,0,.475-.19l1.708-2.99a.435.435,0,0,0-.237-.617L182.811.025a.394.394,0,0,0-.522.38" transform="translate(-95.786 0)" fill="#1f88d5"/>
      <path id="Path_1657" data-name="Path 1657" d="M191.7,5.88l-3.274,2.041a.368.368,0,0,1-.475-.095l-.569-.617a.436.436,0,0,1-.047-.475l1.993-3.179a.394.394,0,0,1,.569-.095,10.243,10.243,0,0,1,1.946,1.851.367.367,0,0,1-.142.569" transform="translate(-98.408 -1.775)" fill="#1f88d5"/>
      <path id="Path_1658" data-name="Path 1658" d="M2.458,25.487A4.221,4.221,0,0,1,.833,24.461l.344-.569a4.069,4.069,0,0,0,1.49.951,5.346,5.346,0,0,0,1.97.367A3.755,3.755,0,0,0,6.9,24.641a1.765,1.765,0,0,0,.764-1.483,1.549,1.549,0,0,0-.4-1.123,2.678,2.678,0,0,0-1-.644,13.8,13.8,0,0,0-1.618-.464,15.79,15.79,0,0,1-1.85-.554A2.956,2.956,0,0,1,1.6,19.541a2.22,2.22,0,0,1-.486-1.505,2.56,2.56,0,0,1,.4-1.4,2.748,2.748,0,0,1,1.236-1.011,5.054,5.054,0,0,1,2.074-.374,5.861,5.861,0,0,1,1.708.254,5.031,5.031,0,0,1,1.453.689l-.284.614a4.867,4.867,0,0,0-1.386-.659,5.229,5.229,0,0,0-1.491-.224,3.527,3.527,0,0,0-2.2.584,1.831,1.831,0,0,0-.749,1.513,1.548,1.548,0,0,0,.4,1.123,2.676,2.676,0,0,0,1,.644,15.1,15.1,0,0,0,1.632.479,15.412,15.412,0,0,1,1.843.554,3.035,3.035,0,0,1,1.175.817,2.139,2.139,0,0,1,.487,1.475,2.492,2.492,0,0,1-.412,1.393,2.8,2.8,0,0,1-1.265,1,5.212,5.212,0,0,1-2.1.374,6.1,6.1,0,0,1-2.194-.4" transform="translate(-0.438 -8.013)" fill="#232323"/>
      <path id="Path_1659" data-name="Path 1659" d="M26.956,21.025v7.818h-.718V27.166a2.9,2.9,0,0,1-1.153,1.281,3.436,3.436,0,0,1-1.8.457,3,3,0,0,1-3.265-3.31V21.025h.749v4.508a2.754,2.754,0,0,0,.674,2.007,2.54,2.54,0,0,0,1.9.689,2.723,2.723,0,0,0,2.089-.824,3.11,3.11,0,0,0,.771-2.217V21.025Z" transform="translate(-10.521 -11.048)" fill="#232323"/>
      <path id="Path_1660" data-name="Path 1660" d="M45.648,21.408a3.65,3.65,0,0,1,1.385,1.408,4.463,4.463,0,0,1,0,4.111,3.58,3.58,0,0,1-1.385,1.408,3.935,3.935,0,0,1-1.977.5A3.661,3.661,0,0,1,41.8,28.35a3.368,3.368,0,0,1-1.3-1.355v4.688h-.749V20.959h.719V22.8a3.408,3.408,0,0,1,1.31-1.4,3.644,3.644,0,0,1,1.895-.5,3.9,3.9,0,0,1,1.977.509m-.4,6.336a3,3,0,0,0,1.131-1.168,3.749,3.749,0,0,0,0-3.415,3,3,0,0,0-1.131-1.168,3.157,3.157,0,0,0-1.618-.419,3.117,3.117,0,0,0-1.611.419,3.017,3.017,0,0,0-1.123,1.168,3.749,3.749,0,0,0,0,3.415,3.014,3.014,0,0,0,1.123,1.168,3.113,3.113,0,0,0,1.611.419,3.152,3.152,0,0,0,1.618-.419" transform="translate(-20.886 -10.982)" fill="#232323"/>
      <path id="Path_1661" data-name="Path 1661" d="M65.375,21.408a3.649,3.649,0,0,1,1.385,1.408,4.456,4.456,0,0,1,0,4.111,3.579,3.579,0,0,1-1.385,1.408,3.933,3.933,0,0,1-1.977.5,3.661,3.661,0,0,1-1.873-.487,3.361,3.361,0,0,1-1.3-1.355v4.688h-.749V20.959h.718V22.8a3.414,3.414,0,0,1,1.31-1.4,3.646,3.646,0,0,1,1.9-.5,3.9,3.9,0,0,1,1.977.509m-.4,6.336A2.993,2.993,0,0,0,66.1,26.575a3.741,3.741,0,0,0,0-3.415,3,3,0,0,0-1.131-1.168,3.155,3.155,0,0,0-1.617-.419,3.114,3.114,0,0,0-1.61.419,3.01,3.01,0,0,0-1.123,1.168,3.745,3.745,0,0,0,0,3.415,3.007,3.007,0,0,0,1.123,1.168,3.11,3.11,0,0,0,1.61.419,3.151,3.151,0,0,0,1.617-.419" transform="translate(-31.251 -10.982)" fill="#232323"/>
      <rect id="Rectangle_191" data-name="Rectangle 191" width="0.749" height="11.113" transform="translate(37.583 6.682)" fill="#232323"/>
      <path id="Path_1662" data-name="Path 1662" d="M85.532,15.5a.568.568,0,0,1-.179-.427.613.613,0,0,1,.614-.614.606.606,0,0,1,.434.172.568.568,0,0,1,.179.427.613.613,0,0,1-.614.614.6.6,0,0,1-.435-.172m.06,2.074h.749v7.818h-.749Z" transform="translate(-44.85 -7.598)" fill="#232323"/>
      <path id="Path_1663" data-name="Path 1663" d="M98.176,25.048H91.451a3.263,3.263,0,0,0,.465,1.625,2.969,2.969,0,0,0,1.175,1.1,3.538,3.538,0,0,0,1.67.39,3.579,3.579,0,0,0,1.415-.277,2.758,2.758,0,0,0,1.086-.817l.434.494a3.33,3.33,0,0,1-1.28.944,4.46,4.46,0,0,1-3.752-.18,3.7,3.7,0,0,1-1.43-1.408,4.042,4.042,0,0,1-.517-2.052,4.25,4.25,0,0,1,.487-2.044,3.585,3.585,0,0,1,1.341-1.416,3.872,3.872,0,0,1,3.826-.007A3.567,3.567,0,0,1,97.7,22.8a4.209,4.209,0,0,1,.487,2.037Zm-5.2-3.123a2.8,2.8,0,0,0-1.056,1.034,3.367,3.367,0,0,0-.457,1.505h5.991a3.138,3.138,0,0,0-.449-1.5,2.909,2.909,0,0,0-2.546-1.407,3,3,0,0,0-1.482.367" transform="translate(-47.668 -10.982)" fill="#232323"/>
      <path id="Path_1664" data-name="Path 1664" d="M111.622,21.356a3.556,3.556,0,0,1,1.857-.457v.734l-.18-.015a2.6,2.6,0,0,0-2.037.816,3.274,3.274,0,0,0-.734,2.269v4.074h-.749V20.959h.719v1.707a2.7,2.7,0,0,1,1.123-1.311" transform="translate(-57.685 -10.982)" fill="#232323"/>
      <path id="Path_1665" data-name="Path 1665" d="M3.674,59.854H1.349L.89,60.929H0l2.093-4.65h.851l2.1,4.65h-.9Zm-.286-.678-.877-2.033-.87,2.033Z" transform="translate(0 -29.573)" fill="#232323"/>
      <path id="Path_1666" data-name="Path 1666" d="M28.268,56.28v4.65H27.4V58.937H25V60.93h-.864V56.28H25V58.2h2.4V56.28Z" transform="translate(-12.682 -29.573)" fill="#232323"/>
      <path id="Path_1667" data-name="Path 1667" d="M40.13,60.455a2.108,2.108,0,0,1-.539-1.551V56.28h.864v2.591q0,1.369,1.183,1.369t1.176-1.369V56.28h.85V58.9a2.114,2.114,0,0,1-.535,1.551,2.347,2.347,0,0,1-3,0" transform="translate(-20.804 -29.573)" fill="#232323"/>
      <path id="Path_1668" data-name="Path 1668" d="M57.964,60.93l-.95-1.362a1.7,1.7,0,0,1-.179.006h-1.05V60.93h-.864V56.28h1.914a2.577,2.577,0,0,1,1.053.2,1.536,1.536,0,0,1,.688.571,1.6,1.6,0,0,1,.239.883,1.578,1.578,0,0,1-.256.9,1.523,1.523,0,0,1-.734.565l1.07,1.528Zm-.312-3.681a1.325,1.325,0,0,0-.857-.239h-1.01v1.854h1.01a1.314,1.314,0,0,0,.857-.242.844.844,0,0,0,.293-.688.833.833,0,0,0-.293-.684" transform="translate(-28.859 -29.573)" fill="#232323"/>
      <rect id="Rectangle_192" data-name="Rectangle 192" width="0.864" height="4.65" transform="translate(32.911 26.707)" fill="#232323"/>
      <path id="Path_1669" data-name="Path 1669" d="M80.326,60.93l-1.262-1.767L77.815,60.93h-.983l1.727-2.372L76.924,56.28H77.9l1.189,1.654,1.176-1.654H81.2l-1.628,2.246,1.747,2.4Z" transform="translate(-40.372 -29.573)" fill="#232323"/>
      <path id="Path_1670" data-name="Path 1670" d="M99.954,60.77a2.171,2.171,0,0,1-.793-.405l.3-.671a2.355,2.355,0,0,0,.7.369,2.555,2.555,0,0,0,.833.143,1.441,1.441,0,0,0,.774-.166.5.5,0,0,0,.256-.439.423.423,0,0,0-.142-.328,1,1,0,0,0-.363-.2q-.219-.073-.6-.167a6.813,6.813,0,0,1-.86-.252,1.407,1.407,0,0,1-.565-.4,1.064,1.064,0,0,1-.236-.727,1.243,1.243,0,0,1,.21-.7,1.415,1.415,0,0,1,.631-.5,2.547,2.547,0,0,1,1.033-.187,3.331,3.331,0,0,1,.838.107,2.324,2.324,0,0,1,.711.305l-.272.671a2.7,2.7,0,0,0-.638-.272,2.4,2.4,0,0,0-.645-.093,1.35,1.35,0,0,0-.761.172.535.535,0,0,0-.249.459.413.413,0,0,0,.143.326,1.032,1.032,0,0,0,.362.2q.219.073.6.167a6.369,6.369,0,0,1,.85.249,1.461,1.461,0,0,1,.568.4,1.041,1.041,0,0,1,.236.717,1.23,1.23,0,0,1-.209.7,1.43,1.43,0,0,1-.635.5,2.593,2.593,0,0,1-1.036.186,3.561,3.561,0,0,1-1.04-.152" transform="translate(-52.105 -29.499)" fill="#232323"/>
      <path id="Path_1671" data-name="Path 1671" d="M113.447,60.455a2.106,2.106,0,0,1-.538-1.551V56.28h.864v2.591q0,1.369,1.183,1.369t1.175-1.369V56.28h.851V58.9a2.118,2.118,0,0,1-.535,1.551,2.348,2.348,0,0,1-3,0" transform="translate(-59.329 -29.573)" fill="#232323"/>
      <path id="Path_1672" data-name="Path 1672" d="M131.2,56.479a1.533,1.533,0,0,1,.688.571,1.746,1.746,0,0,1,0,1.764,1.525,1.525,0,0,1-.688.575,2.574,2.574,0,0,1-1.053.2H129.1V60.93h-.864V56.28h1.913a2.574,2.574,0,0,1,1.053.2m-.236,2.139a.947.947,0,0,0,0-1.369,1.327,1.327,0,0,0-.857-.239H129.1v1.847h1.01a1.327,1.327,0,0,0,.857-.239" transform="translate(-67.384 -29.573)" fill="#232323"/>
      <path id="Path_1673" data-name="Path 1673" d="M145.429,56.479a1.536,1.536,0,0,1,.688.571,1.746,1.746,0,0,1,0,1.764,1.527,1.527,0,0,1-.688.575,2.577,2.577,0,0,1-1.053.2h-1.05V60.93h-.864V56.28h1.914a2.577,2.577,0,0,1,1.053.2m-.236,2.139a.946.946,0,0,0,0-1.369,1.325,1.325,0,0,0-.857-.239h-1.01v1.847h1.01a1.325,1.325,0,0,0,.857-.239" transform="translate(-74.858 -29.573)" fill="#232323"/>
      <path id="Path_1674" data-name="Path 1674" d="M156.686,56.28h.864V60.2h2.431v.731h-3.295Z" transform="translate(-82.333 -29.573)" fill="#232323"/>
      <rect id="Rectangle_193" data-name="Rectangle 193" width="0.864" height="4.65" transform="translate(80.326 26.707)" fill="#232323"/>
      <path id="Path_1675" data-name="Path 1675" d="M181.426,60.206v.724h-3.488V56.28h3.4V57H178.8v1.21h2.245v.711H178.8v1.282Z" transform="translate(-93.5 -29.573)" fill="#232323"/>
      <path id="Path_1676" data-name="Path 1676" d="M194.561,60.93l-.95-1.362a1.721,1.721,0,0,1-.18.006h-1.049V60.93h-.864V56.28h1.913a2.57,2.57,0,0,1,1.053.2,1.525,1.525,0,0,1,.688.571,1.6,1.6,0,0,1,.239.883,1.574,1.574,0,0,1-.256.9,1.521,1.521,0,0,1-.734.565l1.07,1.528Zm-.312-3.681a1.331,1.331,0,0,0-.858-.239h-1.009v1.854h1.009a1.32,1.32,0,0,0,.858-.242.846.846,0,0,0,.291-.688.834.834,0,0,0-.291-.684" transform="translate(-100.635 -29.573)" fill="#232323"/>
      <path id="Path_1677" data-name="Path 1677" d="M214.017,56.28h2.032a2.915,2.915,0,0,1,1.322.289,2.14,2.14,0,0,1,.9.817,2.49,2.49,0,0,1,0,2.438,2.14,2.14,0,0,1-.9.817,2.915,2.915,0,0,1-1.322.289h-2.032Zm1.993,3.92a1.974,1.974,0,0,0,.9-.2,1.4,1.4,0,0,0,.6-.558,1.789,1.789,0,0,0,0-1.681,1.4,1.4,0,0,0-.6-.558,1.974,1.974,0,0,0-.9-.2H214.88V60.2Z" transform="translate(-112.458 -29.573)" fill="#232323"/>
      <path id="Path_1678" data-name="Path 1678" d="M231.927,59.854H229.6l-.459,1.076h-.89l2.093-4.65h.85l2.1,4.65h-.9Zm-.285-.678-.878-2.033-.87,2.033Z" transform="translate(-119.938 -29.573)" fill="#232323"/>
      <path id="Path_1679" data-name="Path 1679" d="M244.116,57.011h-1.541V56.28h3.946v.731H244.98v3.92h-.864Z" transform="translate(-127.464 -29.573)" fill="#232323"/>
      <path id="Path_1680" data-name="Path 1680" d="M258.261,59.854h-2.325l-.459,1.076h-.89l2.093-4.65h.85l2.1,4.65h-.9Zm-.286-.678-.877-2.033-.87,2.033Z" transform="translate(-133.776 -29.573)" fill="#232323"/>
      <path id="Path_1681" data-name="Path 1681" d="M274.566,58.934a1.171,1.171,0,0,1,.226.734,1.075,1.075,0,0,1-.465.933,2.338,2.338,0,0,1-1.355.329H270.66V56.28h2.179a2.142,2.142,0,0,1,1.269.322,1.036,1.036,0,0,1,.445.887,1.16,1.16,0,0,1-.159.611,1.086,1.086,0,0,1-.439.412,1.227,1.227,0,0,1,.611.422m-3.043-1.976V58.24h1.222a1.24,1.24,0,0,0,.694-.163.535.535,0,0,0,.242-.475.542.542,0,0,0-.242-.482,1.24,1.24,0,0,0-.694-.163Zm2.4,2.624q0-.671-1-.671h-1.4v1.342h1.4q1,0,1-.671" transform="translate(-142.221 -29.573)" fill="#232323"/>
      <path id="Path_1682" data-name="Path 1682" d="M287.8,59.854h-2.325l-.459,1.076h-.89l2.093-4.65h.85l2.1,4.65h-.9Zm-.286-.678-.877-2.033-.87,2.033Z" transform="translate(-149.298 -29.573)" fill="#232323"/>
      <path id="Path_1683" data-name="Path 1683" d="M300.168,60.77a2.174,2.174,0,0,1-.794-.405l.3-.671a2.352,2.352,0,0,0,.7.369,2.557,2.557,0,0,0,.833.143,1.443,1.443,0,0,0,.775-.166.5.5,0,0,0,.256-.439.423.423,0,0,0-.143-.328,1,1,0,0,0-.362-.2q-.219-.073-.6-.167a6.8,6.8,0,0,1-.86-.252,1.409,1.409,0,0,1-.565-.4,1.062,1.062,0,0,1-.236-.727,1.243,1.243,0,0,1,.209-.7,1.415,1.415,0,0,1,.631-.5,2.549,2.549,0,0,1,1.033-.187,3.324,3.324,0,0,1,.837.107,2.324,2.324,0,0,1,.711.305l-.272.671a2.7,2.7,0,0,0-.638-.272,2.4,2.4,0,0,0-.644-.093,1.349,1.349,0,0,0-.761.172.534.534,0,0,0-.249.459.414.414,0,0,0,.143.326,1.03,1.03,0,0,0,.362.2q.219.073.6.167a6.38,6.38,0,0,1,.85.249,1.465,1.465,0,0,1,.568.4,1.044,1.044,0,0,1,.236.717,1.226,1.226,0,0,1-.209.7,1.429,1.429,0,0,1-.634.5,2.593,2.593,0,0,1-1.037.186,3.556,3.556,0,0,1-1.039-.152" transform="translate(-157.309 -29.499)" fill="#232323"/>
      <path id="Path_1684" data-name="Path 1684" d="M316.694,60.206v.724h-3.488V56.28H316.6V57h-2.531v1.21h2.246v.711h-2.246v1.282Z" transform="translate(-164.577 -29.573)" fill="#232323"/>
      <path id="Path_1685" data-name="Path 1685" d="M327.067,57.011h-1.541V56.28h3.946v.731H327.93v3.92h-.864Z" transform="translate(-169.662 -29.573)" fill="#232323"/>
      <path id="Path_1686" data-name="Path 1686" d="M339.8,60.614a2.287,2.287,0,0,1-.9-.857,2.471,2.471,0,0,1,0-2.451,2.29,2.29,0,0,1,.9-.857,2.814,2.814,0,0,1,2.564,0,2.3,2.3,0,0,1,.9.854,2.484,2.484,0,0,1,0,2.459,2.3,2.3,0,0,1-.9.854,2.818,2.818,0,0,1-2.564,0m2.119-.658a1.513,1.513,0,0,0,.584-.584,1.764,1.764,0,0,0,0-1.681,1.512,1.512,0,0,0-.584-.585,1.782,1.782,0,0,0-1.674,0,1.509,1.509,0,0,0-.585.585,1.767,1.767,0,0,0,0,1.681,1.51,1.51,0,0,0,.585.584,1.779,1.779,0,0,0,1.674,0" transform="translate(-176.518 -29.499)" fill="#232323"/>
      <path id="Path_1687" data-name="Path 1687" d="M355.783,60.614a2.287,2.287,0,0,1-.9-.857,2.47,2.47,0,0,1,0-2.451,2.29,2.29,0,0,1,.9-.857,2.814,2.814,0,0,1,2.564,0,2.3,2.3,0,0,1,.9.854,2.484,2.484,0,0,1,0,2.459,2.3,2.3,0,0,1-.9.854,2.818,2.818,0,0,1-2.564,0m2.119-.658a1.512,1.512,0,0,0,.584-.584,1.764,1.764,0,0,0,0-1.681,1.511,1.511,0,0,0-.584-.585,1.782,1.782,0,0,0-1.674,0,1.51,1.51,0,0,0-.585.585,1.767,1.767,0,0,0,0,1.681,1.51,1.51,0,0,0,.585.584,1.779,1.779,0,0,0,1.674,0" transform="translate(-184.919 -29.499)" fill="#232323"/>
      <path id="Path_1688" data-name="Path 1688" d="M371.25,56.28h.863V60.2h2.432v.731H371.25Z" transform="translate(-193.688 -29.573)" fill="#232323"/>
    </g>
  </g>
</svg>
