<svg xmlns="http://www.w3.org/2000/svg" xmlns:xlink="http://www.w3.org/1999/xlink" width="376" height="65.163" viewBox="0 0 376 65.163">
  <defs>
    <clipPath id="clip-path">
      <rect id="Rectangle_194" data-name="Rectangle 194" width="376" height="65.163" fill="none"/>
    </clipPath>
  </defs>
  <g id="Group_236" data-name="Group 236" transform="translate(0 0)">
    <g id="Group_235" data-name="Group 235" transform="translate(0 0)" clip-path="url(#clip-path)">
      <path id="Path_1645" data-name="Path 1645" d="M135.845,37.932a16.169,16.169,0,0,1-6.495-6.1,16.8,16.8,0,0,1-2.362-8.856,16.553,16.553,0,0,1,2.362-8.856,16.867,16.867,0,0,1,6.495-6.1,19.549,19.549,0,0,1,9.348-2.165,21.775,21.775,0,0,1,8.561,1.673,15.865,15.865,0,0,1,6.2,4.92l-6.987,6.2c-2.067-2.559-4.428-3.838-7.184-3.838a7.64,7.64,0,0,0-5.609,2.263,8.393,8.393,0,0,0-2.067,6,8.557,8.557,0,0,0,2.067,6,7.333,7.333,0,0,0,5.609,2.263c2.755,0,5.117-1.279,7.184-3.838l6.987,6.2a16.05,16.05,0,0,1-6.2,4.92,21.084,21.084,0,0,1-8.561,1.673,24.263,24.263,0,0,1-9.348-2.362" transform="translate(-2.026 -0.094)" fill="#232323"/>
      <path id="Path_1646" data-name="Path 1646" d="M235.665,6.552V39.321h-9.053l-12.5-14.859V39.321H203.389V6.552h9.053l12.5,14.859V6.552Z" transform="translate(-3.245 -0.105)" fill="#232323"/>
      <path id="Path_1647" data-name="Path 1647" d="M273.965,6.552V39.321h-9.053l-12.5-14.859V39.321H241.689V6.552h9.053l12.5,14.859V6.552Z" transform="translate(-3.856 -0.105)" fill="#232323"/>
      <path id="Path_1648" data-name="Path 1648" d="M307.147,30.956v8.364H279.889V6.552h26.668v8.364H290.812v3.838h13.875v7.971H290.812v4.33h16.335Z" transform="translate(-4.465 -0.105)" fill="#232323"/>
      <path id="Path_1649" data-name="Path 1649" d="M319.545,37.932a16.17,16.17,0,0,1-6.495-6.1,16.8,16.8,0,0,1-2.362-8.856,16.552,16.552,0,0,1,2.362-8.856,16.867,16.867,0,0,1,6.495-6.1,19.549,19.549,0,0,1,9.349-2.165,21.775,21.775,0,0,1,8.561,1.673,15.193,15.193,0,0,1,6.2,4.92l-6.987,6.2c-2.066-2.559-4.428-3.838-7.184-3.838a7.64,7.64,0,0,0-5.609,2.263,8.393,8.393,0,0,0-2.066,6,8.557,8.557,0,0,0,2.066,6,7.333,7.333,0,0,0,5.609,2.263c2.755,0,5.117-1.279,7.184-3.838l6.987,6.2a16.049,16.049,0,0,1-6.2,4.92,21.084,21.084,0,0,1-8.561,1.673,23.819,23.819,0,0,1-9.349-2.362" transform="translate(-4.957 -0.094)" fill="#232323"/>
      <path id="Path_1650" data-name="Path 1650" d="M354.232,15.113h-9.644V6.552H374.8v8.561h-9.644V39.321H354.134V15.113Z" transform="translate(-5.498 -0.105)" fill="#232323"/>
      <path id="Path_1651" data-name="Path 1651" d="M179.763,11.352a7.774,7.774,0,1,1-7.774,7.774,7.774,7.774,0,0,1,7.774-7.774" transform="translate(-2.744 -0.181)" fill="#232323"/>
      <path id="Path_1652" data-name="Path 1652" d="M190.249,15.872a10.134,10.134,0,0,1,.59,3.444A11.093,11.093,0,0,1,171.355,26.6l-8.266,4.723A20.514,20.514,0,0,0,200.876,20.2a20.65,20.65,0,0,0-2.165-9.25Z" transform="translate(-2.602 -0.175)" fill="#232323"/>
      <path id="Path_1653" data-name="Path 1653" d="M164.153,11.25l4.822,3.051a.791.791,0,0,1,.3,1.082.838.838,0,0,1-1.082.492L162.578,14.5a.825.825,0,0,1-.59-1.181l.787-1.771a1.1,1.1,0,0,1,1.378-.3" transform="translate(-2.583 -0.178)" fill="#1f88d5"/>
      <path id="Path_1654" data-name="Path 1654" d="M170.405,3.447l3.051,5.117a.784.784,0,0,1-.2.984,7.837,7.837,0,0,0-1.673,1.476.733.733,0,0,1-.886.1l-5.117-3.149a.645.645,0,0,1-.1-1.082l3.838-3.543a.7.7,0,0,1,1.082.1" transform="translate(-2.636 -0.05)" fill="#1f88d5"/>
      <path id="Path_1655" data-name="Path 1655" d="M179.481,1.139v6.1a.776.776,0,0,1-.787.787,13.934,13.934,0,0,0-1.968.394.739.739,0,0,1-.886-.394l-2.952-5.215a.856.856,0,0,1,.394-1.181A19.084,19.084,0,0,1,178.595.352a.753.753,0,0,1,.886.787" transform="translate(-2.757 -0.006)" fill="#1f88d5"/>
      <path id="Path_1656" data-name="Path 1656" d="M182.289.838V7.924a.748.748,0,0,0,.59.787l1.378.492a.806.806,0,0,0,.984-.394l3.543-6.2a.9.9,0,0,0-.492-1.279L183.371.051a.818.818,0,0,0-1.082.787" transform="translate(-2.908 0)" fill="#1f88d5"/>
      <path id="Path_1657" data-name="Path 1657" d="M196.44,8.568l-6.79,4.231a.763.763,0,0,1-.984-.2l-1.181-1.279a.905.905,0,0,1-.1-.984l4.133-6.593a.817.817,0,0,1,1.181-.2,21.239,21.239,0,0,1,4.035,3.838.761.761,0,0,1-.3,1.181" transform="translate(-2.988 -0.054)" fill="#1f88d5"/>
      <path id="Path_1658" data-name="Path 1658" d="M4.2,36.478A8.753,8.753,0,0,1,.833,34.35l.713-1.18a8.438,8.438,0,0,0,3.09,1.972,11.087,11.087,0,0,0,4.085.761,7.787,7.787,0,0,0,4.689-1.18A3.661,3.661,0,0,0,15,31.648a3.212,3.212,0,0,0-.839-2.329,5.554,5.554,0,0,0-2.08-1.335,28.607,28.607,0,0,0-3.355-.962,32.743,32.743,0,0,1-3.836-1.149,6.13,6.13,0,0,1-2.453-1.724,4.6,4.6,0,0,1-1.009-3.121,5.309,5.309,0,0,1,.837-2.9,5.7,5.7,0,0,1,2.562-2.1,10.481,10.481,0,0,1,4.3-.776,12.154,12.154,0,0,1,3.542.527,10.432,10.432,0,0,1,3.012,1.429l-.589,1.273a10.092,10.092,0,0,0-2.873-1.367,10.843,10.843,0,0,0-3.091-.465A7.314,7.314,0,0,0,4.56,17.859,3.8,3.8,0,0,0,3.007,21a3.21,3.21,0,0,0,.838,2.329A5.55,5.55,0,0,0,5.926,24.66a31.32,31.32,0,0,0,3.384.994A31.958,31.958,0,0,1,13.132,26.8,6.293,6.293,0,0,1,15.569,28.5a4.436,4.436,0,0,1,1.01,3.059,5.167,5.167,0,0,1-.854,2.888,5.8,5.8,0,0,1-2.623,2.08,10.808,10.808,0,0,1-4.349.776A12.652,12.652,0,0,1,4.2,36.478" transform="translate(-0.013 -0.244)" fill="#232323"/>
      <path id="Path_1659" data-name="Path 1659" d="M34.4,21.025V37.237h-1.49V33.759a6.018,6.018,0,0,1-2.391,2.656,7.126,7.126,0,0,1-3.728.948,6.782,6.782,0,0,1-4.968-1.771,6.819,6.819,0,0,1-1.8-5.092V21.025h1.553v9.348a5.71,5.71,0,0,0,1.4,4.162,5.267,5.267,0,0,0,3.945,1.429,5.646,5.646,0,0,0,4.332-1.708,6.45,6.45,0,0,0,1.6-4.6V21.025Z" transform="translate(-0.319 -0.336)" fill="#232323"/>
      <path id="Path_1660" data-name="Path 1660" d="M51.985,21.955a7.569,7.569,0,0,1,2.872,2.92A8.58,8.58,0,0,1,55.9,29.13a8.664,8.664,0,0,1-1.04,4.271,7.425,7.425,0,0,1-2.872,2.92,8.16,8.16,0,0,1-4.1,1.04A7.593,7.593,0,0,1,44,36.35a6.985,6.985,0,0,1-2.7-2.81v9.721H39.747V21.024h1.492v3.819a7.066,7.066,0,0,1,2.717-2.9A7.555,7.555,0,0,1,47.885,20.9a8.081,8.081,0,0,1,4.1,1.056m-.838,13.138a6.219,6.219,0,0,0,2.345-2.423,7.773,7.773,0,0,0,0-7.081,6.226,6.226,0,0,0-2.345-2.423,6.546,6.546,0,0,0-3.355-.869,6.464,6.464,0,0,0-3.34.869,6.256,6.256,0,0,0-2.329,2.423,7.773,7.773,0,0,0,0,7.081,6.249,6.249,0,0,0,2.329,2.423,6.456,6.456,0,0,0,3.34.87,6.537,6.537,0,0,0,3.355-.87" transform="translate(-0.634 -0.334)" fill="#232323"/>
      <path id="Path_1661" data-name="Path 1661" d="M71.711,21.955a7.567,7.567,0,0,1,2.871,2.92,8.57,8.57,0,0,1,1.042,4.255A8.655,8.655,0,0,1,74.582,33.4a7.423,7.423,0,0,1-2.871,2.92,8.155,8.155,0,0,1-4.1,1.04,7.593,7.593,0,0,1-3.883-1.01,6.97,6.97,0,0,1-2.7-2.81v9.721H59.474V21.024h1.49v3.819a7.079,7.079,0,0,1,2.717-2.9,7.562,7.562,0,0,1,3.93-1.041,8.076,8.076,0,0,1,4.1,1.056m-.839,13.138a6.206,6.206,0,0,0,2.345-2.423,7.757,7.757,0,0,0,0-7.081,6.212,6.212,0,0,0-2.345-2.423,6.543,6.543,0,0,0-3.354-.869,6.458,6.458,0,0,0-3.339.869,6.242,6.242,0,0,0-2.329,2.423,7.765,7.765,0,0,0,0,7.081,6.235,6.235,0,0,0,2.329,2.423,6.449,6.449,0,0,0,3.339.87,6.534,6.534,0,0,0,3.354-.87" transform="translate(-0.949 -0.334)" fill="#232323"/>
      <rect id="Rectangle_191" data-name="Rectangle 191" width="1.553" height="23.045" transform="translate(77.934 13.856)" fill="#232323"/>
      <path id="Path_1662" data-name="Path 1662" d="M85.725,16.619a1.177,1.177,0,0,1-.372-.886,1.272,1.272,0,0,1,1.273-1.273,1.256,1.256,0,0,1,.9.357,1.178,1.178,0,0,1,.372.886,1.272,1.272,0,0,1-1.272,1.273,1.253,1.253,0,0,1-.9-.357m.125,4.3H87.4V37.132H85.85Z" transform="translate(-1.362 -0.231)" fill="#232323"/>
      <path id="Path_1663" data-name="Path 1663" d="M106.184,29.5H92.238a6.765,6.765,0,0,0,.963,3.369,6.158,6.158,0,0,0,2.437,2.283,7.337,7.337,0,0,0,3.464.808,7.422,7.422,0,0,0,2.934-.575,5.719,5.719,0,0,0,2.252-1.694l.9,1.025a6.9,6.9,0,0,1-2.655,1.957,9.249,9.249,0,0,1-7.78-.373,7.667,7.667,0,0,1-2.966-2.92,8.383,8.383,0,0,1-1.072-4.255,8.813,8.813,0,0,1,1.01-4.239,7.434,7.434,0,0,1,2.78-2.935,8.03,8.03,0,0,1,7.934-.015,7.4,7.4,0,0,1,2.764,2.9,8.727,8.727,0,0,1,1.01,4.225ZM95.407,23.027a5.8,5.8,0,0,0-2.19,2.143,6.982,6.982,0,0,0-.947,3.121h12.424a6.507,6.507,0,0,0-.932-3.107,6.033,6.033,0,0,0-5.28-2.919,6.216,6.216,0,0,0-3.074.761" transform="translate(-1.447 -0.334)" fill="#232323"/>
      <path id="Path_1664" data-name="Path 1664" d="M113.6,21.847a7.374,7.374,0,0,1,3.852-.948v1.522l-.373-.031a5.393,5.393,0,0,0-4.225,1.693,6.789,6.789,0,0,0-1.521,4.706v8.448H109.78V21.024h1.491v3.541a5.609,5.609,0,0,1,2.329-2.718" transform="translate(-1.751 -0.334)" fill="#232323"/>
      <path id="Path_1665" data-name="Path 1665" d="M7.618,63.692H2.8l-.951,2.231H0l4.34-9.644H6.1l4.352,9.644H8.583Zm-.592-1.406L5.208,58.07,3.4,62.286Z" transform="translate(0 -0.898)" fill="#232323"/>
      <path id="Path_1666" data-name="Path 1666" d="M32.7,56.28v9.644h-1.79V61.79H25.927v4.133H24.136V56.28h1.791v3.981h4.987V56.28Z" transform="translate(-0.385 -0.898)" fill="#232323"/>
      <path id="Path_1667" data-name="Path 1667" d="M40.708,64.939a4.371,4.371,0,0,1-1.117-3.217V56.28h1.792v5.373q0,2.838,2.452,2.838t2.438-2.838V56.28h1.762v5.442a4.384,4.384,0,0,1-1.109,3.217,4.165,4.165,0,0,1-3.106,1.123,4.193,4.193,0,0,1-3.114-1.123" transform="translate(-0.632 -0.898)" fill="#232323"/>
      <path id="Path_1668" data-name="Path 1668" d="M61.231,65.924,59.261,63.1a3.523,3.523,0,0,1-.371.013H56.712v2.811H54.921V56.28H58.89a5.343,5.343,0,0,1,2.184.413A3.185,3.185,0,0,1,62.5,57.878a3.316,3.316,0,0,1,.5,1.831,3.272,3.272,0,0,1-.53,1.875,3.158,3.158,0,0,1-1.522,1.171l2.218,3.169Zm-.648-7.632a2.747,2.747,0,0,0-1.776-.5h-2.1v3.844h2.1a2.724,2.724,0,0,0,1.776-.5,1.75,1.75,0,0,0,.607-1.427,1.727,1.727,0,0,0-.607-1.418" transform="translate(-0.876 -0.898)" fill="#232323"/>
      <rect id="Rectangle_192" data-name="Rectangle 192" width="1.791" height="9.644" transform="translate(68.247 55.382)" fill="#232323"/>
      <path id="Path_1669" data-name="Path 1669" d="M84.078,65.923,81.46,62.259l-2.59,3.665H76.831l3.582-4.918-3.39-4.725h2.026l2.466,3.43,2.438-3.43H85.9l-3.375,4.657,3.623,4.987Z" transform="translate(-1.226 -0.898)" fill="#232323"/>
      <path id="Path_1670" data-name="Path 1670" d="M100.806,65.742a4.5,4.5,0,0,1-1.645-.84l.619-1.392a4.884,4.884,0,0,0,1.454.766,5.3,5.3,0,0,0,1.728.3,2.988,2.988,0,0,0,1.605-.344,1.043,1.043,0,0,0,.53-.91.876.876,0,0,0-.3-.681,2.085,2.085,0,0,0-.752-.42q-.455-.152-1.24-.345a14.129,14.129,0,0,1-1.783-.524,2.917,2.917,0,0,1-1.172-.82,2.207,2.207,0,0,1-.489-1.508,2.577,2.577,0,0,1,.435-1.454,2.934,2.934,0,0,1,1.309-1.039,5.282,5.282,0,0,1,2.141-.387,6.907,6.907,0,0,1,1.737.221,4.82,4.82,0,0,1,1.474.633l-.565,1.391a5.608,5.608,0,0,0-1.323-.565,4.978,4.978,0,0,0-1.337-.192,2.8,2.8,0,0,0-1.577.357,1.109,1.109,0,0,0-.516.952.856.856,0,0,0,.3.675,2.141,2.141,0,0,0,.75.412q.455.152,1.241.345a13.207,13.207,0,0,1,1.762.516,3.029,3.029,0,0,1,1.178.82,2.159,2.159,0,0,1,.489,1.488,2.55,2.55,0,0,1-.433,1.448,2.966,2.966,0,0,1-1.317,1.033,5.377,5.377,0,0,1-2.149.385,7.386,7.386,0,0,1-2.156-.316" transform="translate(-1.582 -0.896)" fill="#232323"/>
      <path id="Path_1671" data-name="Path 1671" d="M114.025,64.939a4.367,4.367,0,0,1-1.116-3.217V56.28H114.7v5.373q0,2.838,2.452,2.838,2.437,0,2.437-2.838V56.28h1.764v5.442a4.392,4.392,0,0,1-1.109,3.217,4.869,4.869,0,0,1-6.22,0" transform="translate(-1.801 -0.898)" fill="#232323"/>
      <path id="Path_1672" data-name="Path 1672" d="M134.389,56.693a3.179,3.179,0,0,1,1.426,1.185,3.62,3.62,0,0,1,0,3.658,3.162,3.162,0,0,1-1.426,1.192,5.337,5.337,0,0,1-2.184.413h-2.177v2.783h-1.791V56.28h3.968a5.337,5.337,0,0,1,2.184.413m-.489,4.436a1.964,1.964,0,0,0,0-2.838,2.752,2.752,0,0,0-1.777-.5h-2.094v3.83h2.094a2.752,2.752,0,0,0,1.777-.5" transform="translate(-2.046 -0.898)" fill="#232323"/>
      <path id="Path_1673" data-name="Path 1673" d="M148.614,56.693a3.184,3.184,0,0,1,1.426,1.185,3.62,3.62,0,0,1,0,3.658,3.167,3.167,0,0,1-1.426,1.192,5.343,5.343,0,0,1-2.184.413h-2.178v2.783h-1.791V56.28h3.969a5.343,5.343,0,0,1,2.184.413m-.49,4.436a1.962,1.962,0,0,0,0-2.838,2.747,2.747,0,0,0-1.776-.5h-2.1v3.83h2.1a2.747,2.747,0,0,0,1.776-.5" transform="translate(-2.273 -0.898)" fill="#232323"/>
      <path id="Path_1674" data-name="Path 1674" d="M156.686,56.28h1.791v8.128h5.041v1.515h-6.832Z" transform="translate(-2.5 -0.898)" fill="#232323"/>
      <rect id="Rectangle_193" data-name="Rectangle 193" width="1.791" height="9.644" transform="translate(166.571 55.382)" fill="#232323"/>
      <path id="Path_1675" data-name="Path 1675" d="M185.171,64.421v1.5h-7.233V56.28h7.041v1.5H179.73v2.508h4.656v1.474H179.73v2.658Z" transform="translate(-2.839 -0.898)" fill="#232323"/>
      <path id="Path_1676" data-name="Path 1676" d="M197.828,65.924l-1.97-2.824a3.564,3.564,0,0,1-.373.013H193.31v2.811h-1.792V56.28h3.967a5.33,5.33,0,0,1,2.184.413,3.163,3.163,0,0,1,1.426,1.185,3.316,3.316,0,0,1,.5,1.831,3.264,3.264,0,0,1-.53,1.875,3.153,3.153,0,0,1-1.522,1.171l2.218,3.169Zm-.647-7.632a2.76,2.76,0,0,0-1.779-.5H193.31v3.844H195.4a2.737,2.737,0,0,0,1.779-.5,1.754,1.754,0,0,0,.6-1.427,1.73,1.73,0,0,0-.6-1.418" transform="translate(-3.056 -0.898)" fill="#232323"/>
      <path id="Path_1677" data-name="Path 1677" d="M214.017,56.28h4.215a6.045,6.045,0,0,1,2.742.6,4.438,4.438,0,0,1,1.861,1.695,5.163,5.163,0,0,1,0,5.056,4.438,4.438,0,0,1-1.861,1.695,6.044,6.044,0,0,1-2.742.6h-4.215Zm4.132,8.128A4.093,4.093,0,0,0,220.016,64a2.9,2.9,0,0,0,1.24-1.157,3.709,3.709,0,0,0,0-3.485,2.91,2.91,0,0,0-1.24-1.157,4.093,4.093,0,0,0-1.867-.406h-2.342v6.613Z" transform="translate(-3.415 -0.898)" fill="#232323"/>
      <path id="Path_1678" data-name="Path 1678" d="M235.872,63.692h-4.822l-.952,2.231h-1.846l4.341-9.644h1.763l4.352,9.644h-1.873Zm-.591-1.406-1.82-4.216-1.8,4.216Z" transform="translate(-3.642 -0.898)" fill="#232323"/>
      <path id="Path_1679" data-name="Path 1679" d="M245.771,57.8h-3.2V56.28h8.183V57.8h-3.2v8.128h-1.791Z" transform="translate(-3.87 -0.898)" fill="#232323"/>
      <path id="Path_1680" data-name="Path 1680" d="M262.206,63.692h-4.822l-.952,2.231h-1.846l4.341-9.644h1.763l4.352,9.644h-1.873Zm-.592-1.406-1.819-4.216-1.8,4.216Z" transform="translate(-4.062 -0.898)" fill="#232323"/>
      <path id="Path_1681" data-name="Path 1681" d="M278.76,61.784a2.428,2.428,0,0,1,.469,1.522,2.229,2.229,0,0,1-.964,1.935,4.848,4.848,0,0,1-2.81.683H270.66V56.28h4.519a4.441,4.441,0,0,1,2.631.668,2.147,2.147,0,0,1,.922,1.839,2.406,2.406,0,0,1-.331,1.267,2.252,2.252,0,0,1-.909.854,2.545,2.545,0,0,1,1.268.875m-6.31-4.1v2.659h2.535a2.571,2.571,0,0,0,1.44-.338,1.11,1.11,0,0,0,.5-.985,1.125,1.125,0,0,0-.5-1,2.571,2.571,0,0,0-1.44-.338Zm4.974,5.442q0-1.39-2.08-1.391H272.45v2.783h2.894q2.08,0,2.08-1.391" transform="translate(-4.318 -0.898)" fill="#232323"/>
      <path id="Path_1682" data-name="Path 1682" d="M291.746,63.692h-4.822l-.951,2.231h-1.846l4.341-9.644h1.764l4.352,9.644h-1.873Zm-.592-1.406-1.82-4.216-1.8,4.216Z" transform="translate(-4.533 -0.898)" fill="#232323"/>
      <path id="Path_1683" data-name="Path 1683" d="M301.02,65.742a4.509,4.509,0,0,1-1.646-.84l.62-1.392a4.879,4.879,0,0,0,1.453.766,5.3,5.3,0,0,0,1.728.3,2.991,2.991,0,0,0,1.606-.344,1.045,1.045,0,0,0,.53-.91.877.877,0,0,0-.3-.681,2.081,2.081,0,0,0-.751-.42q-.455-.152-1.24-.345a14.1,14.1,0,0,1-1.784-.524,2.921,2.921,0,0,1-1.171-.82,2.2,2.2,0,0,1-.489-1.508,2.577,2.577,0,0,1,.434-1.454,2.934,2.934,0,0,1,1.309-1.039,5.286,5.286,0,0,1,2.142-.387,6.893,6.893,0,0,1,1.736.221,4.82,4.82,0,0,1,1.474.633l-.565,1.391a5.59,5.59,0,0,0-1.323-.565,4.977,4.977,0,0,0-1.336-.192,2.8,2.8,0,0,0-1.577.357,1.107,1.107,0,0,0-.517.952.859.859,0,0,0,.3.675,2.137,2.137,0,0,0,.751.412q.455.152,1.24.345a13.231,13.231,0,0,1,1.763.516,3.037,3.037,0,0,1,1.178.82,2.164,2.164,0,0,1,.489,1.488,2.543,2.543,0,0,1-.434,1.448,2.963,2.963,0,0,1-1.316,1.033,5.378,5.378,0,0,1-2.15.385,7.374,7.374,0,0,1-2.155-.316" transform="translate(-4.776 -0.896)" fill="#232323"/>
      <path id="Path_1684" data-name="Path 1684" d="M320.438,64.421v1.5h-7.233V56.28h7.04v1.5H315v2.508h4.656v1.474H315v2.658Z" transform="translate(-4.997 -0.898)" fill="#232323"/>
      <path id="Path_1685" data-name="Path 1685" d="M328.722,57.8h-3.2V56.28h8.183V57.8h-3.2v8.128h-1.791Z" transform="translate(-2.313 -0.898)" fill="#232323"/>
      <path id="Path_1686" data-name="Path 1686" d="M341.108,65.419a4.743,4.743,0,0,1-1.86-1.778,5.123,5.123,0,0,1,0-5.084,4.748,4.748,0,0,1,1.86-1.777,5.836,5.836,0,0,1,5.317,0,4.773,4.773,0,0,1,1.861,1.77,5.15,5.15,0,0,1,0,5.1,4.773,4.773,0,0,1-1.861,1.77,5.844,5.844,0,0,1-5.317,0m4.395-1.365a3.136,3.136,0,0,0,1.211-1.211,3.658,3.658,0,0,0,0-3.486,3.134,3.134,0,0,0-1.211-1.213,3.7,3.7,0,0,0-3.472,0,3.13,3.13,0,0,0-1.212,1.213,3.665,3.665,0,0,0,0,3.486,3.132,3.132,0,0,0,1.212,1.211,3.689,3.689,0,0,0,3.472,0" transform="translate(-2.521 -0.896)" fill="#232323"/>
      <path id="Path_1687" data-name="Path 1687" d="M357.1,65.419a4.743,4.743,0,0,1-1.86-1.778,5.122,5.122,0,0,1,0-5.084,4.747,4.747,0,0,1,1.86-1.777,5.837,5.837,0,0,1,5.317,0,4.774,4.774,0,0,1,1.861,1.77,5.151,5.151,0,0,1,0,5.1,4.774,4.774,0,0,1-1.861,1.77,5.845,5.845,0,0,1-5.317,0m4.395-1.365a3.136,3.136,0,0,0,1.211-1.211,3.658,3.658,0,0,0,0-3.486,3.134,3.134,0,0,0-1.211-1.213,3.7,3.7,0,0,0-3.472,0,3.131,3.131,0,0,0-1.212,1.213,3.665,3.665,0,0,0,0,3.486,3.132,3.132,0,0,0,1.212,1.211,3.689,3.689,0,0,0,3.472,0" transform="translate(-2.776 -0.896)" fill="#232323"/>
      <path id="Path_1688" data-name="Path 1688" d="M371.25,56.28h1.79v8.128h5.042v1.515H371.25Z" transform="translate(-3.042 -0.898)" fill="#232323"/>
    </g>
  </g>
</svg>
