<svg xmlns="http://www.w3.org/2000/svg" width="14" height="14" viewBox="0 0 14 14">
  <path id="user2" d="M13.675,12.995a7.156,7.156,0,0,0-4.3-4.2,7.436,7.436,0,0,0,1.019-4.08,3.421,3.421,0,1,0-6.825-.064,7.456,7.456,0,0,0,.952,4.1A7.128,7.128,0,0,0,.145,12.868l-.24.584.55.243a18.073,18.073,0,0,0,6.437,1.322,18.05,18.05,0,0,0,6.459-1.2l.554-.232-.23-.59ZM6.993,2.263A2.232,2.232,0,0,1,9.23,4.706C9.214,6.572,8.742,7.991,7.935,8.6l-1,.753-.983-.77c-.8-.624-1.246-2.052-1.23-3.918a2.224,2.224,0,0,1,2.27-2.4ZM6.9,13.771a17.329,17.329,0,0,1-5.416-1,6.09,6.09,0,0,1,4.24-3.076l1.211-.262,1.207.284a6.118,6.118,0,0,1,4.19,3.155,17.217,17.217,0,0,1-5.432.9Z" transform="translate(0.095 -1.018)" fill="#1f88d5"/>
</svg>
