<svg xmlns="http://www.w3.org/2000/svg" xmlns:xlink="http://www.w3.org/1999/xlink" width="182" height="31.342" viewBox="0 0 182 31.342">
  <defs>
    <clipPath id="clip-path">
      <rect id="Rectangle_198" data-name="Rectangle 198" width="182" height="31.342" fill="none"/>
    </clipPath>
  </defs>
  <g id="Group_237" data-name="Group 237" transform="translate(0 0)">
    <g id="Group_237-2" data-name="Group 237" transform="translate(0 0)" clip-path="url(#clip-path)">
      <path id="Path_1689" data-name="Path 1689" d="M131.249,21.282a7.777,7.777,0,0,1-3.124-2.934,8.079,8.079,0,0,1-1.136-4.26,7.961,7.961,0,0,1,1.136-4.26,8.113,8.113,0,0,1,3.124-2.934,9.4,9.4,0,0,1,4.5-1.041,10.473,10.473,0,0,1,4.118.8,7.63,7.63,0,0,1,2.982,2.367L139.484,12a4.342,4.342,0,0,0-3.455-1.846,3.675,3.675,0,0,0-2.7,1.089,4.037,4.037,0,0,0-.994,2.887,4.116,4.116,0,0,0,.994,2.887,3.527,3.527,0,0,0,2.7,1.089,4.342,4.342,0,0,0,3.455-1.846l3.36,2.982a7.719,7.719,0,0,1-2.982,2.367,10.141,10.141,0,0,1-4.118.8,11.67,11.67,0,0,1-4.5-1.136" transform="translate(-66.885 -3.082)" fill="#fff"/>
      <path id="Path_1690" data-name="Path 1690" d="M218.913,6.552V22.313h-4.354l-6.011-7.147v7.147h-5.159V6.552h4.354l6.011,7.147V6.552Z" transform="translate(-107.124 -3.451)" fill="#fff"/>
      <path id="Path_1691" data-name="Path 1691" d="M257.213,6.552V22.313h-4.354l-6.011-7.147v7.147h-5.159V6.552h4.354l6.011,7.147V6.552Z" transform="translate(-127.297 -3.451)" fill="#fff"/>
      <path id="Path_1692" data-name="Path 1692" d="M293,18.29v4.023h-13.11V6.552h12.826v4.023h-7.573v1.846h6.674v3.834h-6.674v2.083H293Z" transform="translate(-147.416 -3.451)" fill="#fff"/>
      <path id="Path_1693" data-name="Path 1693" d="M314.949,21.282a7.777,7.777,0,0,1-3.124-2.934,8.079,8.079,0,0,1-1.136-4.26,7.962,7.962,0,0,1,1.136-4.26,8.113,8.113,0,0,1,3.124-2.934,9.4,9.4,0,0,1,4.5-1.041,10.473,10.473,0,0,1,4.118.8,7.307,7.307,0,0,1,2.982,2.367L323.184,12a4.342,4.342,0,0,0-3.455-1.846,3.675,3.675,0,0,0-2.7,1.089,4.037,4.037,0,0,0-.994,2.887,4.116,4.116,0,0,0,.994,2.887,3.527,3.527,0,0,0,2.7,1.089,4.342,4.342,0,0,0,3.455-1.846l3.36,2.982a7.719,7.719,0,0,1-2.982,2.367,10.141,10.141,0,0,1-4.118.8,11.456,11.456,0,0,1-4.5-1.136" transform="translate(-163.639 -3.082)" fill="#fff"/>
      <path id="Path_1694" data-name="Path 1694" d="M349.227,10.67h-4.638V6.552h14.53V10.67h-4.638V22.313h-5.3V10.67Z" transform="translate(-181.494 -3.451)" fill="#fff"/>
      <path id="Path_1695" data-name="Path 1695" d="M175.728,11.352a3.739,3.739,0,1,1-3.739,3.739,3.739,3.739,0,0,1,3.739-3.739" transform="translate(-90.586 -5.979)"/>
      <path id="Path_1696" data-name="Path 1696" d="M176.152,13.319a4.875,4.875,0,0,1,.284,1.657,5.335,5.335,0,0,1-9.371,3.5l-3.976,2.272A9.867,9.867,0,0,0,181.264,15.4a9.932,9.932,0,0,0-1.041-4.449Z" transform="translate(-85.898 -5.769)"/>
      <path id="Path_1697" data-name="Path 1697" d="M2.454,25.46A4.21,4.21,0,0,1,.833,24.437l.343-.567a4.059,4.059,0,0,0,1.486.949,5.332,5.332,0,0,0,1.965.366,3.745,3.745,0,0,0,2.255-.567,1.761,1.761,0,0,0,.762-1.479,1.545,1.545,0,0,0-.4-1.12,2.671,2.671,0,0,0-1-.642,13.76,13.76,0,0,0-1.613-.463,15.749,15.749,0,0,1-1.845-.553A2.948,2.948,0,0,1,1.6,19.53a2.214,2.214,0,0,1-.485-1.5,2.554,2.554,0,0,1,.4-1.4,2.741,2.741,0,0,1,1.232-1.008,5.041,5.041,0,0,1,2.069-.373,5.846,5.846,0,0,1,1.7.254,5.018,5.018,0,0,1,1.449.687L7.69,16.8a4.854,4.854,0,0,0-1.382-.657,5.215,5.215,0,0,0-1.487-.224,3.518,3.518,0,0,0-2.2.583,1.827,1.827,0,0,0-.747,1.509,1.544,1.544,0,0,0,.4,1.12,2.669,2.669,0,0,0,1,.642,15.064,15.064,0,0,0,1.628.478,15.373,15.373,0,0,1,1.838.552,3.027,3.027,0,0,1,1.172.815,2.134,2.134,0,0,1,.486,1.471A2.485,2.485,0,0,1,8,24.482a2.791,2.791,0,0,1-1.262,1,5.2,5.2,0,0,1-2.092.373,6.085,6.085,0,0,1-2.188-.4" transform="translate(-0.439 -8.032)" fill="#fff"/>
      <path id="Path_1698" data-name="Path 1698" d="M26.938,21.025v7.8h-.717V27.15a2.9,2.9,0,0,1-1.15,1.277,3.427,3.427,0,0,1-1.793.456,2.988,2.988,0,0,1-3.256-3.3V21.025h.747v4.5a2.747,2.747,0,0,0,.672,2,2.533,2.533,0,0,0,1.9.687,2.716,2.716,0,0,0,2.083-.822,3.1,3.1,0,0,0,.769-2.211V21.025Z" transform="translate(-10.546 -11.074)" fill="#fff"/>
      <path id="Path_1699" data-name="Path 1699" d="M45.633,21.407a3.641,3.641,0,0,1,1.382,1.4,4.452,4.452,0,0,1,0,4.1,3.571,3.571,0,0,1-1.382,1.4,3.925,3.925,0,0,1-1.972.5,3.652,3.652,0,0,1-1.868-.486,3.36,3.36,0,0,1-1.3-1.352v4.676h-.747v-10.7h.718V22.8a3.4,3.4,0,0,1,1.307-1.4,3.634,3.634,0,0,1,1.89-.5,3.887,3.887,0,0,1,1.972.508m-.4,6.319a2.991,2.991,0,0,0,1.128-1.165,3.739,3.739,0,0,0,0-3.406,2.994,2.994,0,0,0-1.128-1.165,3.149,3.149,0,0,0-1.613-.418,3.109,3.109,0,0,0-1.606.418,3.009,3.009,0,0,0-1.12,1.165,3.739,3.739,0,0,0,0,3.406,3.006,3.006,0,0,0,1.12,1.165,3.1,3.1,0,0,0,1.606.418,3.144,3.144,0,0,0,1.613-.418" transform="translate(-20.935 -11.008)" fill="#fff"/>
      <path id="Path_1700" data-name="Path 1700" d="M65.36,21.407a3.639,3.639,0,0,1,1.381,1.4,4.444,4.444,0,0,1,0,4.1,3.57,3.57,0,0,1-1.381,1.4,3.922,3.922,0,0,1-1.972.5,3.652,3.652,0,0,1-1.868-.486,3.352,3.352,0,0,1-1.3-1.352v4.676h-.747v-10.7h.717V22.8A3.4,3.4,0,0,1,61.5,21.4a3.637,3.637,0,0,1,1.89-.5,3.884,3.884,0,0,1,1.972.508m-.4,6.319a2.985,2.985,0,0,0,1.128-1.165,3.731,3.731,0,0,0,0-3.406,2.988,2.988,0,0,0-1.128-1.165,3.147,3.147,0,0,0-1.613-.418,3.106,3.106,0,0,0-1.606.418,3,3,0,0,0-1.12,1.165,3.735,3.735,0,0,0,0,3.406,3,3,0,0,0,1.12,1.165,3.1,3.1,0,0,0,1.606.418,3.143,3.143,0,0,0,1.613-.418" transform="translate(-31.325 -11.008)" fill="#fff"/>
      <rect id="Rectangle_195" data-name="Rectangle 195" width="0.747" height="11.084" transform="translate(37.485 6.665)" fill="#fff"/>
      <path id="Path_1701" data-name="Path 1701" d="M85.532,15.5a.566.566,0,0,1-.179-.426.612.612,0,0,1,.612-.612.6.6,0,0,1,.433.172.567.567,0,0,1,.179.426.612.612,0,0,1-.612.612.6.6,0,0,1-.434-.172m.06,2.069h.747v7.8h-.747Z" transform="translate(-44.955 -7.616)" fill="#fff"/>
      <path id="Path_1702" data-name="Path 1702" d="M98.156,25.037H91.449a3.254,3.254,0,0,0,.463,1.621,2.962,2.962,0,0,0,1.172,1.1,3.529,3.529,0,0,0,1.666.389,3.57,3.57,0,0,0,1.411-.276,2.751,2.751,0,0,0,1.083-.815l.433.493a3.321,3.321,0,0,1-1.277.941,4.449,4.449,0,0,1-3.742-.179,3.688,3.688,0,0,1-1.427-1.4,4.032,4.032,0,0,1-.515-2.047,4.239,4.239,0,0,1,.486-2.039,3.575,3.575,0,0,1,1.337-1.412,3.862,3.862,0,0,1,3.816-.007,3.557,3.557,0,0,1,1.33,1.4,4.2,4.2,0,0,1,.486,2.032Zm-5.184-3.115a2.79,2.79,0,0,0-1.054,1.031,3.358,3.358,0,0,0-.455,1.5h5.975a3.13,3.13,0,0,0-.448-1.494,2.9,2.9,0,0,0-2.54-1.4,2.99,2.99,0,0,0-1.479.366" transform="translate(-47.78 -11.008)" fill="#fff"/>
      <path id="Path_1703" data-name="Path 1703" d="M111.617,21.355a3.547,3.547,0,0,1,1.853-.456v.732l-.179-.015a2.594,2.594,0,0,0-2.032.814,3.265,3.265,0,0,0-.732,2.263v4.063h-.747v-7.8h.717v1.7a2.7,2.7,0,0,1,1.12-1.307" transform="translate(-57.821 -11.008)" fill="#fff"/>
      <path id="Path_1704" data-name="Path 1704" d="M3.664,59.844H1.345L.888,60.917H0l2.087-4.638h.849l2.093,4.638h-.9Zm-.285-.676L2.5,57.14l-.868,2.028Z" transform="translate(0 -29.642)" fill="#fff"/>
      <path id="Path_1705" data-name="Path 1705" d="M28.257,56.28v4.638H27.4V58.93H25v1.988h-.861V56.28H25v1.915h2.4V56.28Z" transform="translate(-12.712 -29.643)" fill="#fff"/>
      <path id="Path_1706" data-name="Path 1706" d="M40.128,60.445a2.1,2.1,0,0,1-.537-1.547V56.28h.862v2.584q0,1.365,1.179,1.365t1.173-1.365V56.28h.848V58.9a2.109,2.109,0,0,1-.533,1.547,2.341,2.341,0,0,1-2.991,0" transform="translate(-20.852 -29.643)" fill="#fff"/>
      <path id="Path_1707" data-name="Path 1707" d="M57.956,60.918l-.948-1.358a1.7,1.7,0,0,1-.178.006H55.782v1.352h-.861V56.28H56.83a2.57,2.57,0,0,1,1.05.2,1.532,1.532,0,0,1,.686.57,1.6,1.6,0,0,1,.239.881,1.574,1.574,0,0,1-.255.9,1.519,1.519,0,0,1-.732.563l1.067,1.524Zm-.311-3.671a1.321,1.321,0,0,0-.854-.239H55.782v1.849H56.79a1.31,1.31,0,0,0,.854-.242.842.842,0,0,0,.292-.686.83.83,0,0,0-.292-.682" transform="translate(-28.927 -29.643)" fill="#fff"/>
      <rect id="Rectangle_196" data-name="Rectangle 196" width="0.861" height="4.638" transform="translate(32.825 26.638)" fill="#fff"/>
      <path id="Path_1708" data-name="Path 1708" d="M80.317,60.918l-1.259-1.763-1.246,1.763h-.981l1.723-2.366L76.924,56.28H77.9l1.186,1.65,1.173-1.65h.934l-1.623,2.24,1.743,2.4Z" transform="translate(-40.467 -29.642)" fill="#fff"/>
      <path id="Path_1709" data-name="Path 1709" d="M99.952,60.758a2.165,2.165,0,0,1-.791-.4l.3-.67a2.349,2.349,0,0,0,.7.368,2.549,2.549,0,0,0,.831.142,1.437,1.437,0,0,0,.772-.166.5.5,0,0,0,.255-.438.421.421,0,0,0-.142-.328,1,1,0,0,0-.362-.2q-.219-.073-.6-.166a6.8,6.8,0,0,1-.858-.252,1.4,1.4,0,0,1-.564-.394,1.062,1.062,0,0,1-.235-.725,1.24,1.24,0,0,1,.209-.7,1.411,1.411,0,0,1,.63-.5,2.541,2.541,0,0,1,1.03-.186,3.322,3.322,0,0,1,.835.106,2.318,2.318,0,0,1,.709.3l-.272.669a2.7,2.7,0,0,0-.636-.272,2.394,2.394,0,0,0-.643-.092,1.346,1.346,0,0,0-.759.172.533.533,0,0,0-.248.458.412.412,0,0,0,.142.325,1.03,1.03,0,0,0,.361.2q.219.073.6.166a6.351,6.351,0,0,1,.848.248,1.457,1.457,0,0,1,.567.394,1.039,1.039,0,0,1,.235.716,1.226,1.226,0,0,1-.208.7,1.426,1.426,0,0,1-.633.5,2.586,2.586,0,0,1-1.034.185,3.552,3.552,0,0,1-1.037-.152" transform="translate(-52.228 -29.568)" fill="#fff"/>
      <path id="Path_1710" data-name="Path 1710" d="M113.446,60.445a2.1,2.1,0,0,1-.537-1.547V56.28h.861v2.584q0,1.365,1.179,1.365t1.172-1.365V56.28h.849V58.9a2.113,2.113,0,0,1-.533,1.547,2.342,2.342,0,0,1-2.992,0" transform="translate(-59.469 -29.643)" fill="#fff"/>
      <path id="Path_1711" data-name="Path 1711" d="M131.2,56.479a1.529,1.529,0,0,1,.686.57,1.741,1.741,0,0,1,0,1.759,1.521,1.521,0,0,1-.686.573,2.567,2.567,0,0,1-1.05.2H129.1v1.339h-.861V56.28h1.908a2.567,2.567,0,0,1,1.05.2m-.235,2.134a.945.945,0,0,0,0-1.365,1.324,1.324,0,0,0-.855-.239H129.1v1.842h1.007a1.324,1.324,0,0,0,.855-.239" transform="translate(-67.543 -29.643)" fill="#fff"/>
      <path id="Path_1712" data-name="Path 1712" d="M145.421,56.479a1.532,1.532,0,0,1,.686.57,1.741,1.741,0,0,1,0,1.759,1.523,1.523,0,0,1-.686.573,2.57,2.57,0,0,1-1.05.2h-1.047v1.339h-.861V56.28h1.909a2.57,2.57,0,0,1,1.05.2m-.236,2.134a.944.944,0,0,0,0-1.365,1.321,1.321,0,0,0-.854-.239h-1.008v1.842h1.008a1.321,1.321,0,0,0,.854-.239" transform="translate(-75.034 -29.643)" fill="#fff"/>
      <path id="Path_1713" data-name="Path 1713" d="M156.686,56.28h.861v3.909h2.425v.729h-3.286Z" transform="translate(-82.526 -29.643)" fill="#fff"/>
      <rect id="Rectangle_197" data-name="Rectangle 197" width="0.861" height="4.638" transform="translate(80.117 26.638)" fill="#fff"/>
      <path id="Path_1714" data-name="Path 1714" d="M181.417,60.2v.722h-3.479V56.28h3.386V57H178.8v1.206h2.239v.709H178.8V60.2Z" transform="translate(-93.719 -29.643)" fill="#fff"/>
      <path id="Path_1715" data-name="Path 1715" d="M194.553,60.918l-.948-1.358a1.716,1.716,0,0,1-.179.006H192.38v1.352h-.862V56.28h1.908a2.564,2.564,0,0,1,1.05.2,1.522,1.522,0,0,1,.686.57,1.6,1.6,0,0,1,.239.881,1.57,1.57,0,0,1-.255.9,1.517,1.517,0,0,1-.732.563l1.067,1.524Zm-.311-3.671a1.327,1.327,0,0,0-.856-.239H192.38v1.849h1.006a1.316,1.316,0,0,0,.856-.242.844.844,0,0,0,.291-.686.832.832,0,0,0-.291-.682" transform="translate(-100.872 -29.643)" fill="#fff"/>
      <path id="Path_1716" data-name="Path 1716" d="M214.017,56.28h2.027a2.907,2.907,0,0,1,1.319.288,2.135,2.135,0,0,1,.895.815,2.483,2.483,0,0,1,0,2.432,2.135,2.135,0,0,1-.895.815,2.907,2.907,0,0,1-1.319.288h-2.027ZM216,60.189a1.969,1.969,0,0,0,.9-.2,1.4,1.4,0,0,0,.6-.557,1.784,1.784,0,0,0,0-1.676,1.4,1.4,0,0,0-.6-.557,1.969,1.969,0,0,0-.9-.2h-1.126v3.181Z" transform="translate(-112.722 -29.643)" fill="#fff"/>
      <path id="Path_1717" data-name="Path 1717" d="M231.918,59.844H229.6l-.458,1.073h-.888l2.088-4.638h.848l2.093,4.638h-.9Zm-.284-.676-.876-2.028-.868,2.028Z" transform="translate(-120.22 -29.642)" fill="#fff"/>
      <path id="Path_1718" data-name="Path 1718" d="M244.113,57.009h-1.537V56.28h3.936v.729h-1.537v3.909h-.861Z" transform="translate(-127.764 -29.643)" fill="#fff"/>
      <path id="Path_1719" data-name="Path 1719" d="M258.252,59.844h-2.319l-.458,1.073h-.888l2.088-4.638h.848l2.093,4.638h-.9Zm-.285-.676-.875-2.028-.868,2.028Z" transform="translate(-134.09 -29.642)" fill="#fff"/>
      <path id="Path_1720" data-name="Path 1720" d="M274.556,58.927a1.168,1.168,0,0,1,.226.732,1.072,1.072,0,0,1-.464.931,2.332,2.332,0,0,1-1.352.328H270.66V56.28h2.173a2.136,2.136,0,0,1,1.266.321,1.033,1.033,0,0,1,.444.885,1.157,1.157,0,0,1-.159.61,1.083,1.083,0,0,1-.437.411,1.224,1.224,0,0,1,.61.421m-3.035-1.971v1.279h1.219a1.237,1.237,0,0,0,.692-.162.534.534,0,0,0,.242-.474.541.541,0,0,0-.242-.48,1.237,1.237,0,0,0-.692-.162Zm2.393,2.617q0-.669-1-.669h-1.392v1.338h1.392q1,0,1-.669" transform="translate(-142.556 -29.643)" fill="#fff"/>
      <path id="Path_1721" data-name="Path 1721" d="M287.792,59.844h-2.319l-.458,1.073h-.888l2.088-4.638h.848l2.093,4.638h-.9Zm-.285-.676-.875-2.028-.868,2.028Z" transform="translate(-149.649 -29.642)" fill="#fff"/>
      <path id="Path_1722" data-name="Path 1722" d="M300.166,60.758a2.168,2.168,0,0,1-.792-.4l.3-.67a2.345,2.345,0,0,0,.7.368,2.551,2.551,0,0,0,.831.142,1.439,1.439,0,0,0,.772-.166.5.5,0,0,0,.255-.438.422.422,0,0,0-.142-.328,1,1,0,0,0-.361-.2q-.219-.073-.6-.166a6.78,6.78,0,0,1-.858-.252,1.4,1.4,0,0,1-.563-.394,1.059,1.059,0,0,1-.235-.725,1.24,1.24,0,0,1,.209-.7,1.412,1.412,0,0,1,.63-.5,2.543,2.543,0,0,1,1.03-.186,3.316,3.316,0,0,1,.835.106,2.318,2.318,0,0,1,.709.3l-.272.669a2.691,2.691,0,0,0-.636-.272,2.394,2.394,0,0,0-.643-.092,1.345,1.345,0,0,0-.759.172.532.532,0,0,0-.248.458.413.413,0,0,0,.142.325,1.028,1.028,0,0,0,.361.2q.219.073.6.166a6.357,6.357,0,0,1,.848.248,1.46,1.46,0,0,1,.567.394,1.041,1.041,0,0,1,.235.716,1.223,1.223,0,0,1-.209.7,1.425,1.425,0,0,1-.633.5,2.587,2.587,0,0,1-1.034.185,3.547,3.547,0,0,1-1.037-.152" transform="translate(-157.679 -29.568)" fill="#fff"/>
      <path id="Path_1723" data-name="Path 1723" d="M316.684,60.2v.722h-3.479V56.28h3.386V57h-2.525v1.206h2.24v.709h-2.24V60.2Z" transform="translate(-164.964 -29.643)" fill="#fff"/>
      <path id="Path_1724" data-name="Path 1724" d="M327.063,57.009h-1.537V56.28h3.936v.729h-1.537v3.909h-.861Z" transform="translate(-169.453 -29.643)" fill="#fff"/>
      <path id="Path_1725" data-name="Path 1725" d="M339.792,60.6a2.281,2.281,0,0,1-.895-.855,2.464,2.464,0,0,1,0-2.445,2.283,2.283,0,0,1,.895-.855,2.807,2.807,0,0,1,2.557,0,2.3,2.3,0,0,1,.895.851,2.477,2.477,0,0,1,0,2.452,2.3,2.3,0,0,1-.895.851,2.811,2.811,0,0,1-2.557,0m2.114-.656a1.508,1.508,0,0,0,.583-.583,1.759,1.759,0,0,0,0-1.676,1.507,1.507,0,0,0-.583-.584,1.778,1.778,0,0,0-1.67,0,1.505,1.505,0,0,0-.583.584,1.762,1.762,0,0,0,0,1.676,1.506,1.506,0,0,0,.583.583,1.774,1.774,0,0,0,1.67,0" transform="translate(-176.325 -29.568)" fill="#fff"/>
      <path id="Path_1726" data-name="Path 1726" d="M355.78,60.6a2.281,2.281,0,0,1-.895-.855,2.464,2.464,0,0,1,0-2.445,2.283,2.283,0,0,1,.895-.855,2.807,2.807,0,0,1,2.557,0,2.3,2.3,0,0,1,.9.851,2.477,2.477,0,0,1,0,2.452,2.3,2.3,0,0,1-.9.851,2.811,2.811,0,0,1-2.557,0m2.114-.656a1.509,1.509,0,0,0,.583-.583,1.76,1.76,0,0,0,0-1.676,1.508,1.508,0,0,0-.583-.584,1.778,1.778,0,0,0-1.67,0,1.506,1.506,0,0,0-.583.584,1.763,1.763,0,0,0,0,1.676,1.506,1.506,0,0,0,.583.583,1.774,1.774,0,0,0,1.67,0" transform="translate(-184.746 -29.568)" fill="#fff"/>
      <path id="Path_1727" data-name="Path 1727" d="M371.25,56.28h.861v3.909h2.425v.729H371.25Z" transform="translate(-193.536 -29.643)" fill="#fff"/>
      <path id="Path_1728" data-name="Path 1728" d="M162.991,11.176l2.319,1.467a.381.381,0,0,1,.142.521.4.4,0,0,1-.521.237l-2.7-.663a.4.4,0,0,1-.284-.568l.379-.852a.531.531,0,0,1,.663-.142" transform="translate(-85.28 -5.85)" fill="#fff"/>
      <path id="Path_1729" data-name="Path 1729" d="M167.721,3.287l1.467,2.461a.377.377,0,0,1-.095.473,3.769,3.769,0,0,0-.8.71.352.352,0,0,1-.426.047L165.4,5.464a.31.31,0,0,1-.047-.521l1.846-1.7a.335.335,0,0,1,.521.047" transform="translate(-87.028 -1.653)" fill="#fff"/>
      <path id="Path_1730" data-name="Path 1730" d="M176.009.723V3.657a.373.373,0,0,1-.379.379,6.7,6.7,0,0,0-.947.189.356.356,0,0,1-.426-.189l-1.42-2.509a.411.411,0,0,1,.189-.568,9.179,9.179,0,0,1,2.556-.615.362.362,0,0,1,.426.379" transform="translate(-91.009 -0.177)" fill="#fff"/>
      <path id="Path_1731" data-name="Path 1731" d="M182.289.4V3.811a.36.36,0,0,0,.284.379l.663.237a.388.388,0,0,0,.473-.189l1.7-2.982a.434.434,0,0,0-.237-.615L182.81.025a.393.393,0,0,0-.521.379" transform="translate(-96.011 0)" fill="#fff"/>
      <path id="Path_1732" data-name="Path 1732" d="M191.686,5.874,188.42,7.909a.367.367,0,0,1-.473-.095l-.568-.615a.435.435,0,0,1-.047-.473l1.988-3.171a.393.393,0,0,1,.568-.095,10.215,10.215,0,0,1,1.941,1.846.366.366,0,0,1-.142.568" transform="translate(-98.64 -1.779)" fill="#fff"/>
    </g>
  </g>
</svg>
