<svg xmlns="http://www.w3.org/2000/svg" viewBox="0 0 4000 3000"><defs><style>.cls-1{isolation:isolate;}.cls-2{fill:#f7f7f7;}.cls-3{fill:#d5d3e0;}.cls-4{fill:#f0b297;}.cls-5{fill:#d1785e;}.cls-6{fill:#f2f2f2;}.cls-22,.cls-6{mix-blend-mode:soft-light;}.cls-7{fill:#1a1a1a;}.cls-8{fill:#a33939;}.cls-9{fill:#29253b;}.cls-10{fill:#232033;}.cls-11{fill:#b3b3b3;}.cls-12{fill:#cfd7e9;}.cls-13{fill:#869ac9;}.cls-14{fill:#e7ebf4;}.cls-15{fill:#2c1e1c;}.cls-16{fill:#f2ae83;}.cls-17{fill:#a3400f;}.cls-18{fill:#f8a588;}.cls-19{fill:#92372b;}.cls-20{fill:#f8c8b8;}.cls-21{fill:#c2713e;}.cls-22,.cls-24{fill:#fff;}.cls-23{fill:#d67344;}.cls-25{fill:#856861;}.cls-26{fill:#b28b81;}.cls-27{fill:#84422e;}.cls-28{fill:#ccc;}.cls-29{fill:#5f2c29;}.cls-30{fill:#f0b59c;}.cls-31{fill:#5d2a46;}.cls-32{fill:#7a3440;}.cls-33{fill:#c69c6d;}.cls-34{fill:#7f3b37;}.cls-35{fill:#ffa58f;}.cls-36{fill:#b3624b;}.cls-37{fill:#d16343;}.cls-38{fill:#c2502f;}.cls-39{fill:#693529;}</style></defs><g class="cls-1"><g id="teamwork_business_character" data-name="teamwork business character"><g id="teamwork_business_character-2" data-name="teamwork business character"><rect class="cls-2" width="4000" height="3000"/><path class="cls-3" d="M3714.11,2374.58S2946.67,2424,2000,2424s-1714.11.76-1714.11-49.42,767.44-90.86,1714.11-90.86S3714.11,2374.58,3714.11,2374.58Z"/><g id="character"><rect class="cls-4" x="1923.66" y="832.75" width="108.97" height="129.61"/><path class="cls-5" d="M2032.62,832.75v39.86c-27.1,21.93-63.72,36.73-109,39.86V832.75Z"/><path class="cls-4" d="M2035.62,815.26c4.84,1.35,10.15.33,14.65-1.89s8.28-5.54,11.85-9c9.41-9.08,18.17-20.51,17.51-33.32-.23-4.29-1.68-8.73-5-11.56-4-3.37-10.07-3.77-15-1.88s-8.81,5.75-11.68,10.05Z"/><path class="cls-4" d="M1917.83,815.26c-4.85,1.35-10.16.33-14.65-1.89s-8.28-5.54-11.85-9c-9.42-9.08-18.18-20.51-17.51-33.32.22-4.29,1.67-8.73,5-11.56,4-3.37,10.07-3.77,15-1.88s8.81,5.75,11.67,10.05Z"/><path class="cls-4" d="M2054.87,821.46c3.73-40.09,14.19-63.46,20.65-86.62,4.61-17.36,9.28-47-10.89-73.14-19.94-27.15-70-42.58-115.79-29.6-46.14,13-71.74,40-66.15,70.69,2.82,18.39,5.47,43.82,8.54,62.79,2.55,15.77-2.25,31.58,3.58,46.95,10.86,26.43,52.83,72.79,85.88,72.79C2007.71,885.32,2052.3,839,2054.87,821.46Z"/><path class="cls-6" d="M1986.49,783.19a13.94,13.94,0,0,1-1,2.22,4.19,4.19,0,0,1-1.51,1.83c-.68.37-1.7.11-2.49-1a5.12,5.12,0,0,1-.79-2.21,6.67,6.67,0,0,1,.32-2.79,6.38,6.38,0,0,1,1.5-2.36,4.88,4.88,0,0,1,2-1.2c1.33-.37,2.28.09,2.58.81a4.31,4.31,0,0,1,0,2.39A14.9,14.9,0,0,1,1986.49,783.19Z"/><path class="cls-5" d="M1978.1,785.91c-.13-.55-.24-1-.33-1.48s-.15-.82-.2-1.21a8.25,8.25,0,0,1-.06-1.36,14.4,14.4,0,0,1,.15-1.66,18.3,18.3,0,0,0,.26-3.36,3.21,3.21,0,0,0-.91-2.35,1.26,1.26,0,0,0-1.74-.08,7.75,7.75,0,0,0-2,2.49,12.49,12.49,0,0,0-1.59,4.94,10,10,0,0,0,.21,3.08,13.14,13.14,0,0,0,1,2.86,16.49,16.49,0,0,0,1.45,2.45,19.83,19.83,0,0,0,1.62,2,26,26,0,0,0,2.94,2.71c1.71,1.32,2.74,1.8,3.3.89s.48-1.91-.45-3.44c-.45-.76-1.11-1.65-1.85-2.71a17.85,17.85,0,0,1-1.07-1.74A8.73,8.73,0,0,1,1978.1,785.91Z"/><path class="cls-7" d="M2006.25,744.77a38.91,38.91,0,0,1,13.65-.63,39.31,39.31,0,0,1,13.11,4.12c4.08,2.17,2.27,6.31-1.8,5.33a110.16,110.16,0,0,0-12.13-2.31,108.7,108.7,0,0,0-12.3-.89C2002.61,750.29,2001.8,745.83,2006.25,744.77Z"/><path class="cls-7" d="M1951.08,744.41a39.27,39.27,0,0,0-26.68,4.06c-4,2.25-2.15,6.35,1.9,5.28a112.51,112.51,0,0,1,12.08-2.56,108.38,108.38,0,0,1,12.28-1.16C1954.83,749.84,1955.55,745.37,1951.08,744.41Z"/><path class="cls-7" d="M1946.81,778.56l-.06-10.66a9.34,9.34,0,0,0-9.37-9.27h0a9.35,9.35,0,0,0-9.27,9.38l.06,10.65C1928.2,783.79,1946.84,783.68,1946.81,778.56Z"/><path class="cls-7" d="M2010.89,778.56l.06-10.66a9.35,9.35,0,0,1,9.37-9.27h0a9.35,9.35,0,0,1,9.27,9.38l-.06,10.65C2029.51,783.79,2010.86,783.68,2010.89,778.56Z"/><path class="cls-8" d="M1958.82,819.23c15.93,6.67,34.86,3.77,48.32-6.89,2.08-1.65-.85-4.55-2.91-2.92-12.37,9.79-29.84,11.9-44.31,5.84a2.06,2.06,0,0,0-2.53,1.44,2.1,2.1,0,0,0,1.43,2.53Z"/><path class="cls-9" d="M2184.07,970.48c11.9,9.27,32.39,28.38,33.61,38.62s40.16,282.29,42.59,299.9c4.88,35.32-107.72-.94-112-24s-51.3-190.77-51.3-190.77l45.44-133.19S2171.52,960.69,2184.07,970.48Z"/><path class="cls-10" d="M2122.57,1370.67c28.56,175.34,3.85,498.47-3.56,546-7.48,48.09-106.8-31.32-110-79.81-1.15-17.43,3.43-34.77,3.46-52.23,0-15.43-6.72-30.26-7-45.74-2.22-135.17-28.85-154.15-48.18-237.51L1926,1370.67Z"/><path class="cls-11" d="M1829,2379.67c21.13-10.1,39.76-20.76,45-31.62l2.34-96c.82-7.14,2.36-15.86-4.61-16.83L1840,2230.8a12.39,12.39,0,0,0-13.68,9.21c-3.53,13.23-16,57-16,57l-61.93,61.06c-6.29,6.21-13,12.55-13.6,21.57C1734.81,2380,1829,2379.67,1829,2379.67Z"/><path class="cls-7" d="M1875.7,2277.39c-2-.31,5.17,51.32-18.36,55.17a34.77,34.77,0,0,1-4.56.38l-1.86-21.8s-33.43-15.44-58.47-13.49l-5.79,11.9-71.21,39.18c-5.89,5.81-14.79,14.59-15.62,26.71a9.59,9.59,0,0,0,2,5.71h180S1877.7,2277.69,1875.7,2277.39Z"/><path class="cls-11" d="M2188.07,2379.33s-4.32-15.21-9.1-21.48l-47-61.64s-5.92-39.88-7.52-51.91a11.25,11.25,0,0,0-10.87-9.88l-28.07-.48a11.3,11.3,0,0,0-11.34,11.3l-3.21,86.84c5.46,16.61,11.84,31.1,19.05,47Z"/><path class="cls-7" d="M2183.65,2354.09l-31.83-41.71-4.39-13.21c-21.57-5.09-52.35,3.84-52.35,3.84l-4,18.76a29.83,29.83,0,0,1-3.92-.95c-20-6.54-13.61-40.87-15.38-40.87s-22.77,101.2-22.77,101.2H2194.1c.07-.55.13-1.1.16-1.65C2194.89,2368.82,2188.13,2360,2183.65,2354.09Z"/><path class="cls-10" d="M1836.74,1360.67c-29.19,175.34-14.76,498.47-7.19,546,7.65,48.09,109.14-31.32,112.42-79.81,1.18-17.43-3.5-34.77-3.54-52.23,0-15.43,3.56-30.66,7.14-45.74,19.74-83.36,61.44-166.72,81.19-250.08V1360.67Z"/><path class="cls-10" d="M1811.33,2265.27c-1.24-69.06-.06-138.13,1.11-207.19l1.77-104.08c.84-48.88,3.69-98.4,21.69-144.51,5.37-13.76,91.86-49.27,102.53-34.84,0,0,7.21,68,11.71,98.82,3,20.27-1.06,40.79-5.08,60.91-21.83,109.37-33.24,221.52-55.07,330.89Z"/><path class="cls-10" d="M2138.58,2270.83c1.21-69-1.67-133.69-2.82-202.75L2134,1964c-.81-48.88-3.61-98.4-21.22-144.51-5.26-13.76-89.89-49.27-100.34-34.84,0,0-7,68-11.46,98.82-2.9,20.27,1,40.79,5,60.91,21.37,109.37,31.55,217.37,52.91,326.74Z"/><path class="cls-12" d="M1901.87,1433.6c-3.23,0-5.39,0-6.26,0-16.22-.2-64.51-14.23-71.51-25.15,18-93,7-149-3.55-203.23-6-30.5-12.74-96.57-12.74-96.57-6.5-12.2-14-103.44-8.47-141.06l119.51-50.24,55.35,16.56h11.16l55.35-16.56,119.52,50.24c5.54,37.62-2,128.86-8.48,141.06,0,0-8.38,67.66-16,98.43-12.9,52.08-26.25,105.93-8.15,198l.08.41c-3.6,5.43-30.47,19.35-43.58,21.42C2042,1433.53,1907.57,1433.6,1901.87,1433.6Z"/><polygon class="cls-13" points="2000.81 984.99 2021.69 964.74 2009.28 930.81 1979.78 928.19 1950.29 930.81 1937.87 964.74 1958.75 984.99 1926.03 1303.19 1979.78 1366.04 2033.53 1303.19 2000.81 984.99"/><polygon class="cls-14" points="2037.24 889.95 1979.78 928.19 2000.81 932.49 2017.67 1019.74 2073.73 931.5 2037.24 889.95"/><polygon class="cls-14" points="1922.32 889.95 1979.78 928.19 1958.75 932.49 1941.89 1019.74 1885.83 931.5 1922.32 889.95"/><path class="cls-9" d="M1776.18,968.93c-11.9,9.28-32.39,28.38-33.61,38.62s-27.41,226.72-34.2,286.14c-4.22,57.28,104.19,57.93,110.86,42.11s44-243.08,44-243.08l-45.44-133.19S1788.73,959.15,1776.18,968.93Z"/><path class="cls-9" d="M2174.43,965.58l-109.72-44.35L2031,1181.35l-4.26,323.36c42.09,28.7,119.71,18.82,128.22,8s-5.38-83.22-7.18-97.14c-19.06-147.18,9-304.28,9-304.28S2180.91,1001.24,2174.43,965.58Z"/><path class="cls-9" d="M1932.81,1179.15l-38-257.92-106.73,42.06c-6.49,35.67,14.65,148,14.65,148s37.13,154.54,13.33,299.53c-1,12.65-15.81,91.7-9.68,100.5s97.81,29,135.13,4.33Z"/><path class="cls-15" d="M2048.6,726.07a33.62,33.62,0,0,1-11.68-2.9c-9.65-4.4-20.25-7.33-25.56-15.76-7.13-11.31-.21-27-10.48-30.13-16.28-4.93-48.64,10.26-63.09,1.94a23.19,23.19,0,0,1-7.51-6.94c-3.47,4.91-8.57,9.27-13.51,13.12-8.9,7-18.71,15-19.3,25.5-.37,6.49,2.91,12.63,4.7,18.92,3.38,11.95-6.18,47.69-6.18,47.69-3.54-4.85-13.55-23-16.1-30.69-3-8.91-1.53-18.54-3.73-27.62-2.37-9.76-8.81-18.47-10.81-28.3-2.27-11.19,2-23.21,10.66-31.46a69.58,69.58,0,0,1-.25-16.38c1.32-11.62,6.78-23.3,17.09-30.49,9.14-6.38,22.45-8.36,32.74-4,18-15.53,39.24-29.66,63.46-27.23,21.81,2.19,38.84,17.37,58.91,25.28,11.76,4.64,24.58,6.76,36.46,11.13s23.38,11.78,27.39,22.68a20.84,20.84,0,0,1-1.6,17,17.61,17.61,0,0,1,7,9.82c2.07,8.43-1.77,17.09-6.33,24.7s-24.26,17.77-25.81,26.29c-1.74,9.62-18.79,59.18-18.79,59.18l-11.6-51.66A30.75,30.75,0,0,1,2048.6,726.07Z"/><path class="cls-4" d="M2230,1327.71c1.08-7.2-23-76.69-51.62-86.59s-300.66-38.21-300.66-38.21-14.08,23.61-9.25,41.93c0,0,200.93,67.92,227.49,76.09S2228.94,1334.91,2230,1327.71Z"/><path class="cls-4" d="M1889.4,1206.54s-54.8-22-58.33-23.87v79.69l50.45-17Z"/><path class="cls-9" d="M1920.76,1192.19l-17.41,80.62S2085,1329,2159.57,1344.65s106.06-12.42,99.72-37.9-27.89-63.22-74.1-74.52S1920.76,1192.19,1920.76,1192.19Z"/><path class="cls-4" d="M1747.12,1330.63c.27-7.28,23.63-89.49,53.57-93.9S2136,1277.38,2136,1277.38s-13.62,42-24.78,46.5c0,0-153.06,5.8-207.51,12.49C1876.12,1339.75,1746.84,1337.91,1747.12,1330.63Z"/><path class="cls-4" d="M2088,1318.83c16.55,9,35.48,11.3,53.35,16.35,7.29,2.06,16,3.74,21.12-1.32,2.89-2.84,3.84-7.15,4.67-11.24,2.68-13.14-8.72-32-6-49.15,1.88-12.06,2.54-37.68-3.65-37-16.28,1.89-42.88,28.16-60,36.77a14.63,14.63,0,0,0-6,5.55C2085.82,1288.21,2073.94,1311.19,2088,1318.83Z"/><path class="cls-4" d="M2157,1284.14c17.3.42,29-.37,42.72-3.59,8.57-2,18-9.45,43.77-24.88,9.58-5.74-3.45-12.82-13.64-8.16-15.24,7-12.34,6.47-31.15,12.57-15.28,5-29.45-1.39-44.53.87C2144,1262.47,2146.71,1283.9,2157,1284.14Z"/><path class="cls-4" d="M2158.26,1303.61c24.33-1.69,32.72.9,48.22-3.12,11.78-3,17.55-7.92,36.46-15.11,13-4.93,5-19.21-8-14.29-19.35,7.36-26.16,10.15-26.16,10.15-19.82,5.53-40.43.72-60.54,3.79C2134.75,1287.1,2144.55,1304.56,2158.26,1303.61Z"/><path class="cls-4" d="M2156.86,1319.1c20.66,3.93,40.33,5.61,50.14,4,4.54-.76,23.63-8.47,28.93-10.32a46.93,46.93,0,0,0,14.5-8.74c3.55-4.08-1.06-10.86-6.69-9.55-6.56,1.53-27.66,9.11-41.95,11.53-20.26,3.44-32.09-7.46-52.33-6.45C2135.83,1300.23,2143.33,1316.52,2156.86,1319.1Z"/><path class="cls-4" d="M2149.8,1337.17c18.24,2.91,24.71,1.73,32.71,1.95,3.71.11,17.18-2.28,25.55-2.55,4.51-.14,17-2.48,17-2.48,3.29-3.09.61-8.84-4-8.63-5.4.25-15.47,1-27.13.75-16.53-.4-31.9-8.11-48.15-10.71C2134.88,1313.75,2138.84,1335.41,2149.8,1337.17Z"/><path class="cls-4" d="M2151.73,1279.11c7.49-14.86,11.88-25,18.89-27.59,7.58-2.77,17.76-6.61,22.18-9.37s9-9.27,9.5-14.65c1-10.83-18.92-3.58-33.8-.8-11.84,2.22-18.07,6.49-23.25,11.46-6.44,6.17-28.44,28.17-28.44,28.17Z"/><path class="cls-9" d="M2073.73,1338l17.49-83.31s-270.7-29.62-293.81-32.47-61.37,27.39-66.28,57.89-1,55.24,30.42,62S2073.73,1338,2073.73,1338Z"/></g><g id="character-2" data-name="character"><path class="cls-16" d="M1093.73,1443.84s-11.4,7.86-25.18-2.61c0,0,.85-199.41,5-217.56s32.51-38.85,45.72-27c11.6,10.39,20.88,22.44,19.74,48.63S1093.73,1443.84,1093.73,1443.84Z"/><path class="cls-16" d="M1108.32,1435.15s-5.67,37.71-4.49,43,13.69,42.84,10.8,49.14-11.58,1.22-15-9.81-11.56-38.41-11.1-43.14-2.31-22.84-1.69-28S1100.39,1417.62,1108.32,1435.15Z"/><path class="cls-16" d="M1090.51,1449.9c5.51,6.41,2.74,30.35,4,32.28s16.17,26.61,20.29,35.42-4.91,10-12.86.76-18.66-27.26-20.07-30.7-12-31.21-13.29-38.54S1082.57,1440.69,1090.51,1449.9Z"/><path class="cls-16" d="M1079.21,1447.49c5.52,6.4,5,31,6.29,32.9s20.42,20.56,24.53,29.37-4.91,10-12.85.76-26-23.52-27.38-27-6.67-29.3-8-36.63S1071.27,1438.28,1079.21,1447.49Z"/><path class="cls-16" d="M1112.39,1436c.19,3.52-2.81,10.93-6.88,18.34-2.63-.53-5.27-1-7.9-1.38-9.77-1.49-19.52-2.34-29.29-4-2.17-.37-4.35-.8-6.52-1.28-2.9-19.07,2.18-63.14,28.35-52.91C1090.15,1394.74,1112,1428,1112.39,1436Z"/><path class="cls-16" d="M1089.57,1394.53s18,14.31,24.08,20c4.33,4.1,15.58,18.81,17.1,20.09s-4.28,27.09-6,30.5-7.79,2.34-12.17-6.21-.26-21.37-.26-21.37-23.33-12.43-28.8-22.1S1089.57,1394.53,1089.57,1394.53Z"/><path class="cls-17" d="M1360.39,723.53c19.31,45.73,21.16,139.78,31.79,238.41l-22.44-.58-15.37-224.29Z"/><path class="cls-17" d="M1158.34,730.14c-12.64,93.41-5,196.56-5,299.73a739.88,739.88,0,0,0,226.08,5.43,1978.72,1978.72,0,0,0-21.59-271.7s-23.82-70.76-83-67.37S1158.34,730.14,1158.34,730.14Z"/><path class="cls-16" d="M1491.65,1240.16c6.14-7,16-29.8,15.4-42.75s-55.73-153.36-55.73-153.36-64.29,20.45-66.57,47.85c0,0,59.68,138.27,64.67,142.69C1460.56,1244.47,1485.17,1247.58,1491.65,1240.16Z"/><path class="cls-9" d="M1390.34,938.54c12.32,5.52,34.22,17.73,37.47,26.37s46.53,111.73,65.15,161.91c-15.24,30.15-48.6,34.81-81.55,42.38-25.21-36.4-35.94-74.08-50.1-116l-9.85-114.08S1377.34,932.72,1390.34,938.54Z"/><path class="cls-16" d="M1145.09,1762.91c4.86-47.08,5.3-81.91,51.58-83.49,31.3-1.07,49.64,2.25,51.72,31.1,0,0-21.87,150.07-31.64,232.64-8.83,74.58-21.26,214.84-27.65,315l-38.94-1.73c-2-31-24.45-248.86-29.63-304.57C1108.29,1820.47,1140.54,1807,1145.09,1762.91Z"/><path class="cls-18" d="M1242.46,1748.4l56-311.26s-58.14-14.71-87.52-23.17c-93.23-26.85-48.78,294-48.67,321.29C1162.47,1777.41,1229.42,1785.69,1242.46,1748.4Z"/><path class="cls-19" d="M1205.63,2252.64c-.25-21.25-13.78-25.68-13.78-25.68l-44.5,17.46s-73.3,148.21-62.25,151.53l79.19,2.12c22.81.5,16.9-35.74,25.73-55l-.41,55.46h9.93l4.63-77.25a49.83,49.83,0,0,0,1.48-6.75C1206.74,2305.45,1206,2281.05,1205.63,2252.64Z"/><path class="cls-16" d="M1154.61,2222.75c-3.89,10.89-20.53,53-24.81,66.32-3.15,9.83-10,31.23-14.94,46.35a13.22,13.22,0,0,0,12.12,17.26l33.91,1.18,35.22-117.7c.42-3.47.68-21.33-6.8-25.78S1158.49,2211.87,1154.61,2222.75Z"/><path class="cls-16" d="M1293.69,1751.78c0-14,2.6-44.7,48.89-46.28,31.29-1.07,43.81,11.17,45.89,40,0,0,12.66,55.34,29.83,131.2,16,70.57-59.39,222.29-46,364.3l-38.94-1.73c-2-31-8.41-181.63-13.6-237.34C1307.48,1870.52,1293.69,1751.78,1293.69,1751.78Z"/><path class="cls-19" d="M1378.22,2225.72s27,104.45,30.82,121.64-2.38,40.41-8.33,46.86-63.57,4.76-75.81,1.18,8.15-163.43,8.15-163.43Z"/><path class="cls-16" d="M1332.57,2208.61c0,11.74-1.62,57.11-1.13,71.52.59,17.31,2.18,67.94,2.18,67.94s44.36,3.11,49.82-2.19c15.5-15,8.58-46.57,8.58-46.57l-13.16-76.24c-.82-3.74-6.94-23-16-27.81S1332.57,2196.87,1332.57,2208.61Z"/><path class="cls-20" d="M1296.32,1770.74l-2.63-316.26s59.78-4.67,90.17-8c96.43-10.7-10.72,282.36-9.55,309.65C1375.76,1790,1302.86,1809.69,1296.32,1770.74Z"/><path class="cls-13" d="M1402.18,1064.81c-10.66-11.16-38.2-127.31-38.2-127.31h-183s-27.54,116.15-38.2,127.31c-38.11,39.91,5.26,118.68,19.8,141.45,20.07,65.69,14.67,95,15,155.78a663.71,663.71,0,0,0,94.88,9.31,663.57,663.57,0,0,0,94.87-9.31c.38-60.73-5-90.09,15.05-155.78C1396.93,1183.49,1440.3,1104.72,1402.18,1064.81Z"/><path class="cls-13" d="M1431.23,1786.11c12.31-110.52.44-319.61-3.71-357.34s-41.63-90.8-60.5-129.52c-71.57.13-115.11-6-183.94,13.64-18.3,31.45-47.87,64.83-59.35,105.15s-5.59,246-16.62,363.22C1191.53,1796.63,1405.12,1802.47,1431.23,1786.11Z"/><rect class="cls-16" x="1213.59" y="858.53" width="107.95" height="128.4"/><path class="cls-21" d="M1321.54,858.53V898c-26.85,21.73-63.13,36.4-108,39.49v-79Z"/><path class="cls-16" d="M1215.94,949.05s-14.77,20.8-15,33.07c-.13,8.85,61,88.9,71.27,88.9s72.25-87,73.74-92.63c2.11-8-2.45-16.5-9-21.52s-14.72-7.27-22.68-9.41Z"/><path class="cls-9" d="M1179.25,936.29s-30.69,120.88-37.94,128.47c-17.31,18.12-20.93,45.31-10.75,80.79,8.62,30,24.65,56.72,29.82,64.85,0,0,7.38,61.65-2.53,95.4s-44.2,108.76-44.2,108.76,97.4,3.08,99.94,3.48c3.61-145,8.44-344.83,0-487.39Z"/><path class="cls-9" d="M1406.2,1064.76c-7.25-7.59-33-127.26-33-127.26l-51.65-9.07c-8.21,146.51-25.78,341.12,0,483.94,4.4-.66,105.26-2.77,109.69-3.53,0,0-39-85.09-46.48-104.68,0,0-13.5-41.6,2.38-93.76,5.17-8.13,21.2-34.8,29.82-64.85C1427.12,1110.07,1423.51,1082.88,1406.2,1064.76Z"/><path class="cls-16" d="M1099.74,1260.25c-7.51-5.53-22-25.65-24.26-38.43s21.32-161.77,21.32-161.77,67.19,6.1,75.33,32.36c0,0-31.5,149.45-36.43,153.95S1107.67,1266.09,1099.74,1260.25Z"/><path class="cls-9" d="M1131.79,945.56c-11.86,6.44-27.79,23-29.1,32.14s-21.34,119.14-28.68,172.16c21.38,26.15,61.52,45.45,95.33,45.73,16.76-41,12.54-102,17.32-146l-1.61-113.46S1146.38,937.63,1131.79,945.56Z"/><path class="cls-16" d="M1317.42,865.09c4.63,1.3,9.7.32,14-1.8a45.69,45.69,0,0,0,11.31-8.57c9-8.65,17.35-19.57,16.72-31.79-.22-4.1-1.6-8.34-4.8-11-3.81-3.21-9.61-3.6-14.32-1.8s-8.41,5.49-11.14,9.6Z"/><path class="cls-16" d="M1205,865.09c-4.63,1.3-9.7.32-14-1.8a45.69,45.69,0,0,1-11.31-8.57c-9-8.65-17.35-19.57-16.72-31.79.22-4.1,1.6-8.34,4.8-11,3.81-3.21,9.61-3.6,14.32-1.8s8.41,5.49,11.14,9.6Z"/><path class="cls-16" d="M1335.8,863.26c3.56-36.66,13.54-58,19.71-79.22,4.4-15.87,8.86-43-10.4-66.88-19-24.83-66.79-38.94-110.51-27.07-44,11.89-77.85,44.18-72.52,72.26,2.69,16.82,14.6,32.46,17.54,49.8,2.43,14.42-2.15,28.89,3.42,42.94,10.36,24.17,50.41,66.57,82,66.57C1290.78,921.66,1333.35,879.25,1335.8,863.26Z"/><path class="cls-7" d="M1286.59,796.17a37.22,37.22,0,0,1,23.87,2.9,27.82,27.82,0,0,1,9.55,7.37c-3.92-1.07-7.52-2.13-11.15-3a105,105,0,0,0-10.83-1.91,102,102,0,0,0-11-.75C1283.34,800.75,1282.62,797.05,1286.59,796.17Z"/><path class="cls-7" d="M1233.67,795.51a37.22,37.22,0,0,0-23.81,3.37,27.7,27.7,0,0,0-9.38,7.56c3.89-1.15,7.47-2.28,11.08-3.17a108,108,0,0,1,10.78-2.13,104.25,104.25,0,0,1,11-1C1237,800,1237.66,796.31,1233.67,795.51Z"/><path class="cls-22" d="M1269.37,840.67a13.11,13.11,0,0,1-.94,2.12,3.93,3.93,0,0,1-1.43,1.75c-.65.35-1.62.1-2.38-1a4.64,4.64,0,0,1-.75-2.11,5.94,5.94,0,0,1,1.73-4.92,4.57,4.57,0,0,1,1.9-1.14c1.27-.36,2.17.08,2.45.77a4,4,0,0,1,0,2.28A14.3,14.3,0,0,1,1269.37,840.67Z"/><path class="cls-23" d="M1261.36,843.27c-.12-.52-.22-1-.31-1.41s-.14-.79-.19-1.16a7.51,7.51,0,0,1-.06-1.3,15.39,15.39,0,0,1,.14-1.58,18.47,18.47,0,0,0,.26-3.21,3.13,3.13,0,0,0-.87-2.24,1.21,1.21,0,0,0-1.67-.07,7.23,7.23,0,0,0-1.89,2.37,12,12,0,0,0-1.52,4.72,9.34,9.34,0,0,0,.21,2.93,12.73,12.73,0,0,0,1,2.74,15.43,15.43,0,0,0,1.39,2.33,19.15,19.15,0,0,0,1.54,1.88,25.55,25.55,0,0,0,2.81,2.59c1.63,1.26,2.61,1.72,3.15.85s.45-1.83-.43-3.28c-.43-.73-1.07-1.58-1.77-2.59a17.41,17.41,0,0,1-1-1.66A8.92,8.92,0,0,1,1261.36,843.27Z"/><path class="cls-7" d="M1285.67,824.35c0-5.37,7.61-13.45,13.64-13.45h0a9.17,9.17,0,0,1,9.09,9.19l0,4.36C1308.34,829.48,1285.67,829.73,1285.67,824.35Z"/><path class="cls-7" d="M1297.17,811.21a17.25,17.25,0,0,1,12.3,2.58c5.72,4,9.7,1.79,9.7,1.79s-4.73,4.54-10.45,1.83-8.5-1.53-8.5-1.53Z"/><path class="cls-7" d="M1234.94,824.35c0-5.37-7.62-13.45-13.65-13.45h0a9.16,9.16,0,0,0-9.08,9.19l0,4.36C1212.26,829.48,1234.94,829.73,1234.94,824.35Z"/><path class="cls-7" d="M1223.43,811.21a17.25,17.25,0,0,0-12.3,2.58c-5.71,4-9.7,1.79-9.7,1.79s4.73,4.54,10.46,1.83,8.49-1.53,8.49-1.53Z"/><path class="cls-17" d="M1344.27,759.66c-.15-2.25-.35-3.66-.62-4-2.53-3.09-4.43,35.93-4.43,35.93-41.2-4.08-147.53,1.86-147.53,1.86l-4.59-38.25C1180,763.56,1184,847,1184,847c-10.54-28.72-24.31-79.24-26.28-108.81-1.11-16.72,12.28-28.07,23-30.11,6.47-27.46,29.53-37.3,57.44-45.43,32.53-9.49,69.44.71,94.43,23.18s38.59,47.5,32.18,80.08c-6.7,34-4,61.44-22.19,89.47C1342.64,855.37,1345.46,778.39,1344.27,759.66Z"/><path class="cls-24" d="M1272.7,862.76a54.4,54.4,0,0,0,19.92-7.51c-5.22,9.72-10.54,19-25.39,20.63s-22.43-6-25.49-16.68A55.61,55.61,0,0,0,1272.7,862.76Z"/><path class="cls-25" d="M1267.18,1035.69l-17.65-13.76-177.74,156.28,34.27-2.74S1178.7,1166.17,1267.18,1035.69Z"/><polygon class="cls-25" points="1338.47 1352.23 1301.41 1352.04 1071.79 1178.21 1109.36 1174.24 1338.47 1352.23"/><polygon class="cls-24" points="1194.91 1247.81 1109.94 1181.79 1086.42 1184.27 1179.66 1254.86 1194.91 1247.81"/><path class="cls-26" d="M1107.11,1174.48s81.53-91.65,161.86-152.72l194.37,218.78-124.87,111.69Z"/><path class="cls-16" d="M1218.23,1240.78c-13,4-4.44,13-12.45,61.93-.31,1.88,46.52,8,69.34-10.66C1300.27,1271.53,1273.08,1223.77,1218.23,1240.78Z"/><path class="cls-16" d="M1219.55,1266.26l-33.25,17.31c-5.51,2.87-12.38,1.61-15.27-2.79h0c-2.89-4.41-.74-10.36,4.77-13.23l41.06-20.37C1222.37,1244.31,1225.06,1263.39,1219.55,1266.26Z"/><path class="cls-21" d="M1169.75,1276.46a7.16,7.16,0,0,0,.7,2.19c2.07,4,7,5.85,11.76,4.6,6.56-1.7,14.2-6.75,22.16-10.68,7-3.49,13.48-7.62,20.29-11.37a11.47,11.47,0,0,1-5.11,5.06l-33.25,17.31c-5.51,2.87-12.38,1.61-15.27-2.79h0A7.72,7.72,0,0,1,1169.75,1276.46Z"/><path class="cls-16" d="M1228.89,1282.12l-33.25,17.31c-5.51,2.87-12.38,1.61-15.27-2.79h0c-2.88-4.41-.74-10.36,4.77-13.23l33.25-17.31c5.52-2.87,12.39-1.61,15.27,2.8h0C1236.55,1273.3,1234.41,1279.25,1228.89,1282.12Z"/><path class="cls-21" d="M1179.1,1292.31a6.63,6.63,0,0,0,.7,2.2,9.73,9.73,0,0,0,11.75,4.6c6.68-2.37,14.06-6.93,22-10.87,7-3.49,17.7-7.36,15.32-6.12l-33.25,17.31c-5.51,2.87-12.38,1.61-15.27-2.79h0A7.82,7.82,0,0,1,1179.1,1292.31Z"/><path class="cls-16" d="M1241.17,1295.36l-33.42,16.06c-5.54,2.66-12.38,1.61-15.2-2.32h0c-2.83-3.94-.61-9.34,4.93-12l33.42-16c5.54-2.67,12.38-1.62,15.21,2.32h0C1248.93,1287.3,1246.71,1292.7,1241.17,1295.36Z"/><path class="cls-21" d="M1191.33,1305.22a5.62,5.62,0,0,0,.67,2c2,3.55,6.86,5.18,11.67,4,6.57-1.62,14.44-7.15,22.44-10.81,7.07-3.24,17.45-6.16,15.06-5l-33.42,16.06c-5.54,2.66-12.38,1.61-15.2-2.32h0A6.33,6.33,0,0,1,1191.33,1305.22Z"/><path class="cls-16" d="M1249.22,1306.56l-25.87,13.78c-4.29,2.28-9.68,1.2-12-2.4h0c-2.3-3.6-.67-8.41,3.62-10.69l25.87-13.78c4.29-2.28,29.56-5.34,31.86-1.74C1272.73,1291.73,1274.83,1294,1249.22,1306.56Z"/><path class="cls-16" d="M1260.35,1244.19s-11-11.87-18.27-15.07-36.09-2.74-47.38-4.59-7.51,13.58,4.94,17.14,14.4,17.2,14.4,17.2Z"/><path class="cls-16" d="M1489.89,1189.46c-2.71-5.41-47.62-15.21-70.57-12.36s-174.63,68.4-174.63,68.4-4.53,29,7.65,40.81c0,0,209.5-25.84,227.53-36.81C1516.07,1227.49,1492.6,1194.87,1489.89,1189.46Z"/></g><g id="character-3" data-name="character"><rect class="cls-5" x="3150.02" y="833.53" width="108.97" height="129.61"/><path class="cls-27" d="M3259,833.53v39.86c-27.1,21.93-63.73,36.73-109,39.86V833.53Z"/><path class="cls-9" d="M3390.19,959.33c13.4,6.92,37.08,21.91,40.17,31.74s91.61,270,97.25,286.88c11.32,33.82-97.61,40.83-106.05,19s-94.09-199.86-94.09-199.86l20.05-139.29S3376.05,952,3390.19,959.33Z"/><path class="cls-10" d="M3348.94,1371.45c28.56,175.34,3.84,498.47-3.56,546-7.49,48.09-106.8-31.32-110-79.81-1.16-17.43,3.42-34.77,3.46-52.23,0-15.43-6.23-30.27-7-45.74-5.49-112.62-35-154.93-54.32-238.29l-25.13-130Z"/><path class="cls-11" d="M3055.36,2380.45c21.13-10.1,39.75-20.76,45-31.62l2.33-96c.82-7.14,2.37-15.86-4.61-16.83l-31.72-4.38a12.38,12.38,0,0,0-13.67,9.21c-3.54,13.23-16,57-16,57l-61.92,61.06c-6.3,6.21-13,12.55-13.61,21.57C2961.17,2380.74,3055.36,2380.45,3055.36,2380.45Z"/><path class="cls-7" d="M3102.07,2278.17c-2-.31,5.16,51.32-18.36,55.17a34.77,34.77,0,0,1-4.56.38l-1.87-21.8s-33.42-15.44-58.47-13.49l-5.79,11.9-71.2,39.18c-5.9,5.81-14.8,14.59-15.62,26.71-.12,1.7.64,3.64,2,5.71h180S3104.07,2278.47,3102.07,2278.17Z"/><path class="cls-11" d="M3414.44,2380.11s-4.32-15.21-9.11-21.48l-47-61.64s-5.92-39.88-7.52-51.91a11.25,11.25,0,0,0-10.86-9.88l-28.08-.48a11.3,11.3,0,0,0-11.34,11.3l-3.2,86.84c5.46,16.61,11.83,31.1,19,47Z"/><path class="cls-7" d="M3410,2354.87l-31.82-41.71-4.4-13.21c-21.56-5.09-52.35,3.84-52.35,3.84l-4,18.76a29.59,29.59,0,0,1-3.93-1c-20-6.54-13.61-40.87-15.38-40.87s-22.77,101.2-22.77,101.2h145.14c.07-.55.13-1.1.16-1.65C3421.25,2369.6,3414.49,2360.73,3410,2354.87Z"/><path class="cls-10" d="M3063.1,1361.45c-29.18,175.34-14.75,498.47-7.18,546,7.65,48.09,109.14-31.32,112.41-79.81,1.18-17.43-3.5-34.77-3.53-52.23,0-15.43,3.56-30.66,7.13-45.74,19.75-83.36,61.45-166.72,81.19-250.08V1361.45Z"/><path class="cls-10" d="M3037.69,2266.05c-1.23-69.06-.06-138.13,1.12-207.19l1.77-104.08c.83-48.88,3.69-98.4,21.69-144.51,5.37-13.76,91.86-49.27,102.53-34.84,0,0,7.2,68,11.71,98.82,3,20.27-1.06,40.79-5.08,60.91-21.83,109.37-33.24,221.52-55.07,330.89Z"/><path class="cls-10" d="M3364.94,2271.61c1.21-69.05-1.67-133.69-2.82-202.75q-.87-52-1.73-104.08c-.82-48.88-3.61-98.4-21.23-144.51-5.25-13.76-89.89-49.27-100.33-34.84,0,0-7,68-11.46,98.82-2.91,20.27,1,40.79,5,60.91,21.36,109.37,31.54,217.37,52.91,326.74Z"/><path class="cls-12" d="M3128.23,1434.38c-3.22,0-5.39,0-6.25,0-16.23-.2-64.52-14.23-71.52-25.15,18-93,7.05-149-3.54-203.23-6-30.5-12.74-96.57-12.74-96.57-6.51-12.2-14-103.44-8.48-141.06l119.52-50.24,55.34,16.56h11.17l55.35-16.56,119.51,50.24c5.54,37.62-2,128.86-8.47,141.06,0,0-8.39,67.66-16,98.43-12.91,52.08-26.25,105.93-8.16,198l.08.41c-3.59,5.43-30.46,19.35-43.57,21.42C3268.37,1434.31,3133.93,1434.38,3128.23,1434.38Z"/><polygon class="cls-13" points="3227.18 985.77 3248.05 965.52 3235.64 931.59 3206.15 928.97 3176.65 931.59 3164.24 965.52 3185.12 985.77 3152.39 1303.97 3206.15 1366.82 3259.9 1303.97 3227.18 985.77"/><polygon class="cls-14" points="3263.6 890.73 3206.15 928.97 3227.18 933.27 3244.04 1020.52 3300.1 932.28 3263.6 890.73"/><polygon class="cls-14" points="3148.69 890.73 3206.15 928.97 3185.12 933.27 3168.26 1020.52 3112.2 932.28 3148.69 890.73"/><path class="cls-5" d="M2941.74,1575.22s.1-45.61.43-51.89,18.25-25.76,22.55-26.79c6.09-1.45,33.12,1.84,33.12,1.84s10.55,22.33,14.43,36.4-24.24,39-24.24,39Z"/><path class="cls-5" d="M2986,1534.93c9.43,10.73,16.22,17.45,15.31,24.27-1,7.38-2.22,17.31-1.81,21.94s-1.45,13.43,3,15.38c8.87,3.91,16.89-18.37,21.1-32.1,3.36-10.91,4.48-18.65.49-23.47s-20.2-20.26-20.2-20.26Z"/><path class="cls-7" d="M3016.67,1607l-38.87-2.12s-25.69,314.93-25.69,336.87,87.12,20.92,87.12-2.2S3016.67,1607,3016.67,1607Z"/><path d="M3026.57,1932.33c-4.9,11.91-46.65,3.23-52.25-11.48-10.51-28-3.87-52.81-3.51-80.48.06-4.7,8.76-1,10.17-6.57-3.73-72,3.32-128.51-2-189.17-.32-3.72-2.15-7.07-3.54-10.42-6.36,78.68-23.31,289.74-23.31,307.55,0,21.94,87.12,20.92,87.12-2.2,0-6.72-1.91-37.61-4.61-78C3034.62,1861.51,3035.09,1911,3026.57,1932.33Z"/><path class="cls-7" d="M2984.3,1608c-5.8-5.77-14.86-3-20.08,3.66s-7.53,15.88-9.68,24.78c-6.51,27-14.2,185.5-10.06,194.06,3.63,7.52,21.53,0,21.53,0Z"/><path class="cls-28" d="M2948.42,1822.85c-3.35,10.09,1.1,21.87,10,27.49a3.18,3.18,0,0,0,4.31-1.13,3.22,3.22,0,0,0-1.13-4.31c-.48-.31-.95-.63-1.41-1,.6.45,0,0-.12-.11s-.5-.43-.73-.65-.7-.68-1-1-.39-.42-.57-.64-.67-.84-.19-.22a21.26,21.26,0,0,1-1.73-2.66c-.27-.5-.52-1-.76-1.53-.35-.74.23.62-.06-.14q-.16-.4-.3-.81a20.45,20.45,0,0,1-.86-3.18c-.05-.24-.09-.48-.13-.72-.12-.73,0,.55,0-.13s-.1-1.13-.12-1.7,0-1.14,0-1.71q0-.36.06-.72c0-.15,0-1,0-.13a13.07,13.07,0,0,1,.79-3.32,3.18,3.18,0,0,0-2.2-3.88,3.23,3.23,0,0,0-3.88,2.2Z"/><path class="cls-28" d="M2980.62,1616.35v-56.94a10.21,10.21,0,1,1,20.42,0v56.94h9.81v-56.94a20.08,20.08,0,0,0-20-20h0a20.08,20.08,0,0,0-20,20v56.94Z"/><path class="cls-5" d="M2984.37,1537.67a409.56,409.56,0,0,0-3.38,55c0,2.29.13,4.74,1.55,6.43,1.66,1.95,4.61,2.33,7.33,2.56,4.89.41,9.63-.56,12.81-6.94,1.33-2.69.79-13.19.67-16.6a369.52,369.52,0,0,1,1.19-41.36Z"/><path class="cls-5" d="M2967.92,1536.13a372.17,372.17,0,0,0-3.18,52.46c0,2.29.12,4.74,1.55,6.42,1.65,2,4.6,2.34,7.32,2.57,4.89.41,7.52-.1,12.39-2.3,4.68-2.11,1.22-17.83,1.09-21.24a308.73,308.73,0,0,1,.93-37.69Z"/><path class="cls-5" d="M2953.14,1528.58a433.08,433.08,0,0,0-3.27,52.46c0,2.29.06,4.75,1.27,6.44,1.41,2,4,2.36,6.29,2.61,4.2.44,6.47,0,10.69-2.22,4.05-2.09,1.23-17.84,1.15-21.25a358.08,358.08,0,0,1,1.18-37.7Z"/><path class="cls-5" d="M2942.75,1524.27a439.6,439.6,0,0,0-3.2,51c0,2.23,0,4.62,1.15,6.26,1.29,1.92,3.61,2.43,5.8,2.55,10.76.59,11.09-19.46,11-22.78a362.76,362.76,0,0,1,1.21-36.63Z"/><path class="cls-9" d="M3002.54,969.71c-11.89,9.28-32.39,28.38-33.61,38.62s-27.4,411.28-34.2,470.71c-4.22,57.27,82.37,37.28,89,21.46s44.79-407.23,44.79-407.23l-24.37-133S3015.09,959.93,3002.54,969.71Z"/><path class="cls-9" d="M3400.8,966.36,3291.07,922l-33.69,260.12-4.26,323.36c42.1,28.7,119.72,18.82,128.23,8s-5.38-83.21-7.19-97.13c-19.06-147.18,9-304.28,9-304.28S3407.28,1002,3400.8,966.36Z"/><path class="cls-9" d="M3159.17,1179.93l-38-257.92-106.73,42.06c-6.48,35.67,14.65,148,14.65,148s37.14,154.54,13.33,299.53c-1,12.65-15.8,91.7-9.67,100.5s97.81,29,135.12,4.33Z"/><path class="cls-5" d="M3516.31,1289.61c-6.65-2.25-80,1.19-97.27,20S3301.47,1521,3301.47,1521s19,15.06,37.9,15.26c0,0,119.4-132.65,134.41-150.35S3523,1291.86,3516.31,1289.61Z"/><path class="cls-5" d="M3310.11,1504.52s-36.46,15.8-31.81,23.78,64,29.49,64,29.49l1-30.91Z"/><path class="cls-9" d="M3302.7,1487.48l74.44,40.82s92-120.72,127.09-171.9,31.7-83.22,9.16-96.68c-26.06-15.56-74.94-8.54-98.24,22.84S3302.7,1487.48,3302.7,1487.48Z"/><path class="cls-5" d="M3265.61,818.14c5.09,1.43,10.68.35,15.4-2s8.7-5.82,12.45-9.44c9.9-9.53,19.11-21.55,18.41-35-.24-4.5-1.76-9.17-5.28-12.15-4.2-3.54-10.59-4-15.77-2s-9.26,6-12.28,10.57Z"/><path class="cls-5" d="M3141.79,818.14c-5.09,1.43-10.67.35-15.4-2s-8.7-5.82-12.45-9.44c-9.9-9.53-19.11-21.55-18.41-35,.24-4.5,1.76-9.17,5.29-12.15,4.19-3.54,10.58-4,15.77-2s9.26,6,12.27,10.57Z"/><path class="cls-5" d="M3285.85,824.66c3.92-42.14,14.91-66.71,21.7-91,4.85-18.25,9.76-49.41-11.45-76.88-20.95-28.54-73.55-44.76-121.71-31.11-48.5,13.66-75.4,42-69.53,74.3,3,19.32,5.75,46.06,9,66,2.68,16.57-2.36,33.2,3.76,49.35,11.42,27.78,55.53,76.52,90.28,76.52C3236.27,891.79,3283.15,843.05,3285.85,824.66Z"/><path class="cls-6" d="M3212.69,791.25a15.36,15.36,0,0,1-1,2.33,4.51,4.51,0,0,1-1.59,1.93c-.71.38-1.78.11-2.61-1.1a5.19,5.19,0,0,1-.83-2.32,6.56,6.56,0,0,1,1.91-5.42,5.05,5.05,0,0,1,2.08-1.25c1.4-.4,2.4.09,2.71.84a4.59,4.59,0,0,1,0,2.52A15.33,15.33,0,0,1,3212.69,791.25Z"/><path class="cls-27" d="M3203.87,794.11c-.14-.58-.25-1.09-.34-1.56s-.16-.86-.22-1.27a9.16,9.16,0,0,1-.06-1.44c0-.53.08-1.13.15-1.74a20.29,20.29,0,0,0,.29-3.53,3.47,3.47,0,0,0-1-2.47,1.33,1.33,0,0,0-1.83-.08,8.14,8.14,0,0,0-2.09,2.62,13.16,13.16,0,0,0-1.67,5.19,10.41,10.41,0,0,0,.23,3.24,13.71,13.71,0,0,0,1.07,3,17.08,17.08,0,0,0,1.52,2.57,19.6,19.6,0,0,0,1.7,2.07,26.83,26.83,0,0,0,3.09,2.86c1.8,1.39,2.88,1.89,3.47.93s.51-2-.47-3.61c-.47-.81-1.17-1.74-1.94-2.85a17.82,17.82,0,0,1-1.13-1.83A9.63,9.63,0,0,1,3203.87,794.11Z"/><path class="cls-7" d="M3233,744.57a41.17,41.17,0,0,1,28.13,3.67c4.28,2.28,2.38,6.63-1.9,5.6a116.75,116.75,0,0,0-12.75-2.43,112.71,112.71,0,0,0-12.92-.94C3229.21,750.36,3228.36,745.68,3233,744.57Z"/><path class="cls-7" d="M3175,744.19a41.27,41.27,0,0,0-28,4.26c-4.24,2.37-2.26,6.68,2,5.56a114.45,114.45,0,0,1,12.7-2.69,112.22,112.22,0,0,1,12.9-1.22C3179,749.9,3179.74,745.2,3175,744.19Z"/><path class="cls-7" d="M3170.56,780.08l-.06-11.2a9.83,9.83,0,0,0-9.86-9.74h0a9.82,9.82,0,0,0-9.74,9.85l.06,11.2C3151,785.58,3170.59,785.47,3170.56,780.08Z"/><path class="cls-7" d="M3237.91,780.08l.07-11.2a9.81,9.81,0,0,1,9.85-9.74h0a9.82,9.82,0,0,1,9.74,9.85l-.06,11.2C3257.48,785.58,3237.88,785.47,3237.91,780.08Z"/><path class="cls-24" d="M3181.74,820.34A195.35,195.35,0,0,0,3231,809a31.82,31.82,0,0,1-3.7,20.54,131.5,131.5,0,0,1-28.89,4C3192.13,833.57,3184.33,823.72,3181.74,820.34Z"/><path class="cls-15" d="M3339,731.57a22.28,22.28,0,0,0,2.51-9.08,23.2,23.2,0,0,0-.07-3.55,9.51,9.51,0,0,0,2.26-7.38,10.76,10.76,0,0,0-4.17-7.13,20.36,20.36,0,0,0-2.57-22.24,9.07,9.07,0,0,0,.68-4.82,10.31,10.31,0,0,0-7.64-8.75,17.82,17.82,0,0,0-4.77-15.17,21.29,21.29,0,0,0-2.63-2.34,10,10,0,0,0,1.28-9.42,9.89,9.89,0,0,0-12.15-6,21.64,21.64,0,0,0-1.71-3.13q2.15-1.86,4.27-3.74c3.74-3.27,5.53-9,2.11-13.31-3-3.74-9.29-5.63-13.31-2.11l-6.92,6.06a9.71,9.71,0,0,0-.38-1.11,10.82,10.82,0,0,0-.59-1.18c.42-.64.86-1.28,1.33-1.92,3-4,2.76-10.29-1.5-13.4-4.05-3-10.22-2.78-13.4,1.51-.16.21-.3.45-.46.67-.08-.39-.14-.77-.24-1.15a7.35,7.35,0,0,0-2.46-3.76,8.93,8.93,0,0,0-3.48-7.38,9.7,9.7,0,0,0-13.4,1.5c-.34.45-.69.89-1,1.34a9.84,9.84,0,0,0-3.09-4.67c-4.24-3.39-9.49-2.24-13.1,1.22a9.78,9.78,0,0,0-7.95-8.1,9.29,9.29,0,0,0-6.89,1.69,10,10,0,0,0-8.1-8.62c-5.44-.86-9.68,2.91-10.91,7.92l-1,4.09c-.1-.34-.18-.67-.28-1-1.45-4.77-7.76-7.5-12.28-5.57a9.57,9.57,0,0,0-6,9.44c-.32-.7-.63-1.4-.95-2.09-2.12-4.69-7.24-7.47-12.28-5.57a9.42,9.42,0,0,0-3.73,2.63c-3.12-3.39-8.89-4.27-12.6-1.31a9.72,9.72,0,0,0-2.11,13.32l1,1.38a8.37,8.37,0,0,0-2.36,2.19c-.12.17-.21.34-.32.5-.32-4.4-3.16-8.63-7.93-9.18s-10.47,2.62-10.9,7.92a27.94,27.94,0,0,0-.05,3.54,8.57,8.57,0,0,0-6.32-1.68c-5,.71-9.26,5.16-8.54,10.43a37.53,37.53,0,0,0,1.48,6.38,9.65,9.65,0,0,0-2,4.59,10.12,10.12,0,0,0,.42,4.59l-8.41-1.52c-8.47-1.54-12.58,7.19-10.4,13.61-5-.59-10.33,3-10.92,8.37a10.91,10.91,0,0,0,.14,3.23,10.64,10.64,0,0,0-6.26,4.95c-3.91-2.72-10-2.13-12.88,1.84a9.72,9.72,0,0,0,1.51,13.4,42.59,42.59,0,0,0,4.18,3,9.8,9.8,0,0,0-8.06,6,10.64,10.64,0,0,0,.3,8.41,10.76,10.76,0,0,0-4.15,6.68c-.9,5.82,3,10.08,8.14,11.48.42.12.83.28,1.25.41a25.78,25.78,0,0,0,1.62,19.33,9,9,0,0,0-3.71,8.82c1.69,14.74,15.57,26.56,30.17,24.16-.95,4.78.55,9.71,5.33,11.86,4.41,2,11.35.06,12.9-5.15a61.14,61.14,0,0,0,2.73-19.3c5.8-3.6,10.05-9.23,10.42-17.15a19.28,19.28,0,0,0-5.54-14.67,23,23,0,0,0,2.06-15.35,18.16,18.16,0,0,0,7.31-12.77,18.59,18.59,0,0,0-.46-6.32,26.69,26.69,0,0,0,9.32-11.78c10.21,2.23,21-2.39,25.59-11.81,7.67,1.85,15.43,1.13,21.41-2.94,8.1,4.78,19.07,3,28.71-1,5.61,5,13.45,7.42,20.07,5.9,2.66,6.25,8.9,10.25,16.16,12.25.32,10.84,8.19,19.82,18.84,23.19a21.72,21.72,0,0,0,5.89,14.55,18.3,18.3,0,0,0-8.29,15.27,20.06,20.06,0,0,0,4.7,13.17,19.23,19.23,0,0,0,3.17,20.43c.27,8.94,7.9,15.51,15.51,16.33,2.51,3.09,7.14,4.59,10.84,3a9.71,9.71,0,0,0,5.8-11.34c9.76-3.22,18.84-9.62,19.69-20.9a7.37,7.37,0,0,0,1.24-1.33,10.34,10.34,0,0,0,2.09-7.26A10.9,10.9,0,0,0,3339,731.57Z"/></g><g id="character-4" data-name="character"><path class="cls-12" d="M2764,1075.24c-10.56-11.06-27.48-126.18-27.48-126.18H2534.31s-16.92,115.12-27.48,126.18c-37.78,39.56,7.09,93.36,21.51,115.93,12,39.43-21.3,101.88.84,128.92,16.16,19.73,12.19,49.75,12.19,49.75a657.47,657.47,0,0,0,94,9.23,657.47,657.47,0,0,0,94-9.23s.16-34,15.18-53.69c15.12-19.88-11.11-65.22-.27-100.71C2758.77,1192.87,2801.76,1114.8,2764,1075.24Z"/><path class="cls-29" d="M2532,931.26l179.41-3,16.11-129.6s-15.89-76.55-89.17-79.14-94,53.44-96.12,79.14S2532,931.26,2532,931.26Z"/><path class="cls-4" d="M2390.38,1231.44c-5.26-7.6-12.4-31.14-10.37-43.83s72-144.79,72-144.79,61,27.33,60.21,54.57c0,0-69.41,133.94-75.48,136.57S2395.94,1239.46,2390.38,1231.44Z"/><path class="cls-12" d="M2518.46,951.36c-12.75,4.06-30.25,8-34.41,16.15s-67.46,124.91-91.4,172.25c11.64,31.39,52.18,42.32,83.78,53.46,22.54-34.77,44.59-91.63,63.23-131.34l21.77-111.15S2531.91,947.09,2518.46,951.36Z"/><path class="cls-4" d="M2845.3,1248.23c6-7,15.59-29.67,14.91-42.5s-56.5-151.53-56.5-151.53-63.55,20.8-65.58,48c0,0,55,140.47,60.77,143.72S2838.94,1255.63,2845.3,1248.23Z"/><path class="cls-12" d="M2744.15,951.29c12.25,5.36,32.31,16.13,35.61,24.67s61.62,134.67,80.48,184.25c-14.85,30-63.92,33.24-96.52,41,0,0-34.76-95.79-49.14-137.24l-10-112.82S2731.22,945.63,2744.15,951.29Z"/><path class="cls-30" d="M2485.57,2090.14c.87,69.82,1.68,139.89,1.3,156.43l38.44,1.71c7.18-47.46,16.51-104,26-158.14Z"/><path class="cls-31" d="M2537.84,2249.72c-.25-21.07-13.65-25.46-13.65-25.46l-44.1,17.3s-72.66,146.9-61.71,150.19l78.49,2.11c22.61.49,16.76-35.43,25.5-54.47l-.41,55h9.85l4.58-76.56a49.05,49.05,0,0,0,1.48-6.7C2539,2302.05,2538.18,2277.87,2537.84,2249.72Z"/><path class="cls-30" d="M2487.27,2220.09c-3.85,10.79-20.34,52.49-24.58,65.73-3.29,10.27-10.72,33.3-15.58,48.33a11.2,11.2,0,0,0,10.27,14.63l46.52,1,24.51-116.38c.42-3.44.67-21.14-6.74-25.55S2491.13,2209.3,2487.27,2220.09Z"/><path class="cls-30" d="M2710.22,2115.16h-51.9c2.84,53.77,5.29,107.38,6.39,124.47l38.59,1.71C2699.36,2199.34,2703.25,2156.48,2710.22,2115.16Z"/><path class="cls-31" d="M2709.22,2226.18s26.81,103.52,30.55,120.56-2.36,41.22-8.25,47.61h-75.14c-12.13-3.55,8.08-162,8.08-162Z"/><path class="cls-30" d="M2664,2209.22c0,11.64-1.61,56.6-1.12,70.89.58,17.16,2.16,67.33,2.16,67.33s44,3.08,49.38-2.17c15.36-14.91,8.5-46.15,8.5-46.15l-13.05-75.57c-.8-3.71-6.87-22.8-15.86-27.56S2664,2197.58,2664,2209.22Z"/><rect class="cls-4" x="2577.06" y="870.79" width="106.99" height="127.26"/><path class="cls-5" d="M2684.05,870.79v39.14c-26.6,21.53-62.57,36.07-107,39.13V870.79Z"/><path class="cls-14" d="M2630.47,998.05l48.18-36.53,6-31.06s10.6,13.54,11,21.31,0,82.73,0,82.73-29.26-27.46-35-32.15S2630.47,998.05,2630.47,998.05Z"/><path class="cls-14" d="M2630.65,998.05l-48.19-36.53-6-31.06s-10.61,13.54-11,21.31,0,82.73,0,82.73,29.26-27.46,35-32.15S2630.65,998.05,2630.65,998.05Z"/><path class="cls-9" d="M2529.18,1320.09s-58.18,155.17-57.67,185.34S2468,1774.9,2468,1774.9s86.15,71.53,119.7,21.6c18.08-26.9,18.3-254.1,18.3-254.1l53.25-24.07L2648.87,1327Z"/><path class="cls-9" d="M2466,2198s81.11,26,87.25,0,18.87-270.75,26.24-324.36,20-122.13,15.71-146.67-121.51-19-124.34,14.45-13.49,91.76-13.07,124.27S2466,2198,2466,2198Z"/><path class="cls-9" d="M2747.14,1320.4s43.1,177.47,39.42,207.65-25.91,247.16-25.91,247.16-93.65,71.54-122,21.61c-15.26-26.9,10.19-288.3,10.19-288.3l-41.18.31,19-181.49Z"/><path class="cls-9" d="M2718.33,2198.32s-83.84,26-87.26,0,9.53-270.75,7.78-324.36-7.24-122.13-.34-146.67,123.5-19,122.82,14.45,3.87,91.76,0,124.27S2718.33,2198.32,2718.33,2198.32Z"/><path class="cls-4" d="M2427.92,1193.23c5.22-.66,30.53,26.08,39.57,44s27.18,160,27.18,160-5.36,20.92-15.69,26.8c0,0-99.15-186.78-98.2-220.4C2381.29,1185.34,2422.7,1193.89,2427.92,1193.23Z"/><path class="cls-4" d="M2490.58,1364.44l20.48,18.78s9.65,2.66,23.12,5.41,4.54,18.17-21.8,13.08l6.42,14.56s-13.7,43.19-26.75,39.87c0,0-20.18-38.72-24.07-60.75S2484.53,1358.9,2490.58,1364.44Z"/><path class="cls-4" d="M2817,1193.23c-5.22-.66-25.59,25.22-34.63,43.19s-32.12,160.87-32.12,160.87,5.36,20.92,15.7,26.8c0,0,97.4-147.6,92.75-206.06C2857.27,1199.73,2822.25,1193.89,2817,1193.23Z"/><path class="cls-4" d="M2754.38,1364.44l-20.49,18.78s-9.65,2.66-23.12,5.41-4.53,18.17,21.8,13.08l-5.17,17.36s29.08,40.2,42.13,36.87c0,0,3.55-38.52,7.44-60.55S2760.42,1358.9,2754.38,1364.44Z"/><path class="cls-32" d="M2750.28,1316.75s-144.25,10.12-225.65,0l-7.71,28.9s110.86,37.09,239.19,0Z"/><rect class="cls-33" x="2610.82" y="1316.75" width="52.25" height="47.26" rx="11.2"/><path class="cls-34" d="M2727.56,748.79a178.36,178.36,0,0,0,.23,22.77,108.75,108.75,0,0,0,1.48,11.08,37.62,37.62,0,0,0,2.6,9.39c2.31,4.76,6.63,8.28,10.29,12a30.13,30.13,0,0,1,4.86,5.94,24.56,24.56,0,0,1,2.47,8.32,45.35,45.35,0,0,1-1.08,19.25,50,50,0,0,1-9,17.25c-3.9,5.1-7.86,10.25-8.72,16.81-1,7.24,1.59,14.34,4.55,20.83,3.11,6.81,7.24,13.88,7.39,21.57.12,6-2.29,12.32-8,14.87-2.36,1-.31,4.52,2,3.48,5.16-2.3,8.36-7.44,9.48-12.83,1.34-6.4-.2-12.76-2.65-18.69-2.79-6.74-6.61-13.1-8.26-20.26a22,22,0,0,1,0-11,28.32,28.32,0,0,1,4.59-8.62c3.92-5.42,8-10.38,10.57-16.62a49.6,49.6,0,0,0,3.73-19.46c-.07-5.94-.85-12.88-4.22-17.94-3-4.54-7.42-7.91-11-11.94a17.75,17.75,0,0,1-4.27-7.28,86,86,0,0,1-2.38-12.63,166.23,166.23,0,0,1-.57-26.21c.11-2.59-3.91-2.59-4,0Z"/><path class="cls-4" d="M2689.88,856.09c4.72,1.33,9.91.33,14.29-1.83a47.53,47.53,0,0,0,11.56-8.76c9.2-8.86,17.74-20,17.09-32.52-.22-4.18-1.63-8.51-4.9-11.27-3.9-3.29-9.83-3.69-14.64-1.84s-8.6,5.61-11.39,9.81Z"/><path class="cls-4" d="M2574.94,856.09c-4.73,1.33-9.91.33-14.29-1.83a47.39,47.39,0,0,1-11.57-8.76c-9.19-8.86-17.73-20-17.08-32.52.22-4.18,1.63-8.51,4.9-11.27,3.9-3.29,9.83-3.69,14.64-1.84s8.6,5.61,11.39,9.81Z"/><path class="cls-4" d="M2708.67,862.14c3.64-39.11,13.84-61.92,20.14-84.52,4.5-16.93,9.06-40.39-10.62-65.89-19.46-26.5-68.29-41.55-113-28.88-45,12.68-79.59,41.66-74.14,71.63,2.76,17.94,14.93,34.63,17.93,53.14,2.49,15.38-2.19,30.82,3.5,45.81,10.59,25.79,51.54,71,83.79,71C2662.64,924.46,2706.16,879.21,2708.67,862.14Z"/><path class="cls-34" d="M2658.37,790.29a34.78,34.78,0,0,1,23.79,3.1,28.08,28.08,0,0,1,9.51,7.89c-3.9-1.15-7.49-2.29-11.11-3.16a95.71,95.71,0,0,0-21.72-2.85C2655.13,795.19,2654.42,791.23,2658.37,790.29Z"/><path class="cls-34" d="M2605.66,789.58a34.8,34.8,0,0,0-23.72,3.61,28.08,28.08,0,0,0-9.35,8.09c3.88-1.23,7.44-2.44,11-3.39a97.56,97.56,0,0,1,10.75-2.28,95.72,95.72,0,0,1,10.91-1C2609,794.41,2609.63,790.44,2605.66,789.58Z"/><path class="cls-6" d="M2640.75,831.13a13.72,13.72,0,0,1-1,2.17,4.17,4.17,0,0,1-1.47,1.79c-.66.35-1.65.1-2.43-1a4.81,4.81,0,0,1-.76-2.16,6.19,6.19,0,0,1,.31-2.72,6.3,6.3,0,0,1,1.46-2.31,4.61,4.61,0,0,1,1.93-1.16c1.3-.37,2.23.08,2.52.78a4.19,4.19,0,0,1,0,2.33A13,13,0,0,1,2640.75,831.13Z"/><path class="cls-5" d="M2632.56,833.79c-.12-.54-.23-1-.31-1.45s-.15-.8-.2-1.18a7.88,7.88,0,0,1-.06-1.33,16.13,16.13,0,0,1,.14-1.62,18.28,18.28,0,0,0,.26-3.28,3.17,3.17,0,0,0-.89-2.29,1.25,1.25,0,0,0-1.7-.08,7.69,7.69,0,0,0-1.93,2.44,12.27,12.27,0,0,0-1.55,4.81,9.57,9.57,0,0,0,.21,3,12.67,12.67,0,0,0,1,2.79,15.59,15.59,0,0,0,1.42,2.38,17.93,17.93,0,0,0,1.57,1.93,26.67,26.67,0,0,0,2.87,2.65c1.68,1.28,2.68,1.75,3.23.86s.46-1.86-.44-3.35c-.44-.75-1.09-1.61-1.81-2.65a18.05,18.05,0,0,1-1-1.69A9,9,0,0,1,2632.56,833.79Z"/><path class="cls-7" d="M2604,824.7l-.06-10.65a9.34,9.34,0,0,0-9.36-9.26h0a9.35,9.35,0,0,0-9.27,9.36l.06,10.65C2585.4,829.92,2604,829.82,2604,824.7Z"/><path class="cls-7" d="M2596.75,805.11a17.54,17.54,0,0,0-12.53,2.63c-5.83,4-9.89,1.82-9.89,1.82s4.83,4.63,10.66,1.87,8.65-1.56,8.65-1.56Z"/><path class="cls-7" d="M2661.81,824.7l.06-10.65a9.34,9.34,0,0,1,9.36-9.26h0a9.35,9.35,0,0,1,9.27,9.36l-.06,10.65C2680.41,829.92,2661.78,829.82,2661.81,824.7Z"/><path class="cls-7" d="M2669.06,805.11a17.54,17.54,0,0,1,12.53,2.63c5.83,4,9.89,1.82,9.89,1.82s-4.83,4.63-10.66,1.87-8.65-1.56-8.65-1.56Z"/><path class="cls-34" d="M2732.41,927a13.81,13.81,0,0,0,.26,4.55q-22.27-.12-44.64,1.74a6.46,6.46,0,0,1,.11-.75c.9-4,4.35-7,6.92-10.4a27,27,0,0,0,5.54-19c-.87-8.24-5.82-15.84-4.34-24.15,2.35-13.16,17.68-23,15-35.77-1.39-6.77-8.34-11.09-9.62-17.88-2-10.72,8.23-19.64,11.16-30.5,1.72-6.41-.1-12.68-3.54-18.15-10.64.09-33.35,1.35-33.18-.3,1.12-11.15.49-28.93-4-38.84-4.73,11.19-7.11,38.84-8.67,39.77a5,5,0,0,1-2.6.49c-29.35.17-72.4.33-101.75.49a16.62,16.62,0,0,0-.54,2.27c-1.41,8.68,2.09,17,4.61,25.12s3.9,17.74-1.11,25.25c-2.7,4-6.9,6.9-10.08,10.61-7.53,8.75-8.16,22.32-1.42,30.72,3.11,3.88,7.7,7,8.56,12,1.1,6.45-4.49,12.38-7.17,18.62a21.68,21.68,0,0,0,2.07,21.13c1.62,2.2,3.72,4.13,4.53,6.76a7.84,7.84,0,0,1,.34,2.45h-71a25.56,25.56,0,0,1,2.79-6.23c3.36-5.4,7.52-12,4.58-17.19-1.17-2.09-3.31-3.44-4.71-5.38-4.55-6.32.29-15.57,5.79-21.84s12.28-13.1,11.71-21c-.46-6.51-5.78-11.16-9.21-16.55-6.75-10.6-5.9-25.73,2-36.54,6-8.13,15.58-14.13,18.62-23.57,11.72-36.4,3.86-64,41.37-88.13,40.75-26.27,66.09-42.73,110.27-20.93,28.13,13.88,68.69,40.14,66.62,70.47-.85,12.57.44,25,2.38,37.26,2.35,14.83,18.34,25.71,15.85,40.85-2.31,14-19.33,22.53-23.41,36.28-4.94,16.68,11.18,32.74,6.35,49.44-1.45,5-4.69,9.49-6.09,14.51A15,15,0,0,0,2732.41,927Z"/><path class="cls-24" d="M2643.83,856.16a54.51,54.51,0,0,0,19.92-7.5c-5.23,9.72-10.55,19-25.4,20.63s-22.43-6-25.48-16.68A55.5,55.5,0,0,0,2643.83,856.16Z"/></g><g id="character-5" data-name="character"><rect class="cls-35" x="577.23" y="830.58" width="108.97" height="129.61"/><path class="cls-36" d="M686.2,830.58v39.86c-27.1,21.93-63.72,36.73-109,39.86V830.58Z"/><path class="cls-9" d="M837.65,968.31c11.89,9.27,32.39,28.38,33.61,38.62s40.16,282.29,42.59,299.9c4.88,35.32-107.73-.94-112-24s-51.3-190.77-51.3-190.77L796,958.9S825.1,958.52,837.65,968.31Z"/><path class="cls-10" d="M776.15,1368.5c28.56,175.34,3.85,498.47-3.56,546-7.49,48.09-106.8-31.32-110-79.81-1.15-17.43,3.43-34.77,3.46-52.23,0-15.43-6.73-30.26-7-45.74-2.22-135.17-28.86-154.15-48.18-237.51L579.61,1368.5Z"/><path class="cls-11" d="M482.57,2377.5c21.13-10.1,39.75-20.76,45-31.62l2.34-96c.81-7.14,2.36-15.86-4.62-16.83l-31.72-4.38a12.38,12.38,0,0,0-13.67,9.21c-3.54,13.23-15.95,57-15.95,57L402,2355.93c-6.3,6.21-13,12.55-13.61,21.57C388.38,2377.79,482.57,2377.5,482.57,2377.5Z"/><path class="cls-7" d="M529.28,2275.22c-2-.31,5.17,51.32-18.36,55.17a34.77,34.77,0,0,1-4.56.38L504.5,2309s-33.43-15.44-58.48-13.49l-5.79,11.9L369,2346.56c-5.89,5.81-14.79,14.59-15.62,26.71-.12,1.7.64,3.64,2,5.7h180S531.28,2275.52,529.28,2275.22Z"/><path class="cls-11" d="M841.65,2377.16s-4.32-15.21-9.11-21.48l-47-61.64s-5.93-39.88-7.53-51.91a11.24,11.24,0,0,0-10.86-9.88l-28.07-.48a11.31,11.31,0,0,0-11.35,11.3l-3.2,86.84c5.46,16.61,11.83,31.1,19,47Z"/><path class="cls-7" d="M837.23,2351.92l-31.83-41.71L801,2297c-21.56-5.09-52.34,3.84-52.34,3.84l-4,18.76a29.08,29.08,0,0,1-3.92-.95c-20-6.54-13.62-40.87-15.39-40.87S702.54,2379,702.54,2379H847.67c.07-.54.13-1.09.17-1.65C848.47,2366.65,841.7,2357.78,837.23,2351.92Z"/><path class="cls-10" d="M490.32,1358.5c-29.19,175.34-14.76,498.47-7.19,546,7.65,48.09,109.14-31.32,112.42-79.81,1.17-17.43-3.51-34.77-3.54-52.24,0-15.42,3.56-30.65,7.13-45.73,19.75-83.36,61.45-166.72,81.19-250.08V1358.5Z"/><path class="cls-10" d="M464.91,2263.1c-1.24-69.06-.07-138.13,1.11-207.19l1.77-104.08c.83-48.88,3.69-98.4,21.69-144.51,5.37-13.76,91.86-49.27,102.53-34.85,0,0,7.2,68,11.71,98.83,3,20.27-1.06,40.79-5.08,60.91-21.83,109.37-33.24,221.52-55.07,330.89Z"/><path class="cls-10" d="M792.16,2268.66c1.21-69-1.68-133.69-2.83-202.75q-.87-52-1.73-104.08c-.82-48.88-3.61-98.4-21.22-144.51-5.26-13.76-89.9-49.27-100.34-34.84,0,0-7,68-11.46,98.82-2.9,20.27,1,40.79,5,60.91,21.37,109.37,31.54,217.37,52.91,326.74Z"/><path class="cls-12" d="M555.45,1431.43c-3.23,0-5.39,0-6.26,0-16.23-.2-64.52-14.23-71.51-25.15,18-93,7-149-3.55-203.23-5.95-30.5-12.74-96.57-12.74-96.57-6.51-12.2-14-103.44-8.48-141.06l119.52-50.24,55.35,16.56h11.16l55.35-16.56L813.8,965.4c5.54,37.62-2,128.86-8.47,141.06,0,0-8.39,67.66-16,98.43-12.91,52.08-26.25,105.93-8.15,198l.08.41c-3.6,5.43-30.47,19.35-43.58,21.42C695.58,1431.36,561.15,1431.43,555.45,1431.43Z"/><polygon class="cls-13" points="654.39 982.82 675.27 962.57 662.85 928.64 633.36 926.02 603.86 928.64 591.45 962.57 612.33 982.82 579.61 1301.02 633.36 1363.87 687.11 1301.02 654.39 982.82"/><polygon class="cls-14" points="690.82 887.78 633.36 926.02 654.39 930.32 671.25 1017.57 727.31 929.33 690.82 887.78"/><polygon class="cls-14" points="575.9 887.78 633.36 926.02 612.33 930.32 595.47 1017.57 539.41 929.33 575.9 887.78"/><path class="cls-9" d="M429.75,966.76c-11.89,9.28-32.39,28.38-33.61,38.62S368.74,1232.1,362,1291.52c-4.22,57.28,104.19,57.93,110.86,42.11s44-243.08,44-243.08L471.4,957.36S442.3,957,429.75,966.76Z"/><path class="cls-9" d="M828,963.41,718.28,919.06,684.6,1179.18l-4.27,323.36c42.1,28.7,119.72,18.82,128.23,8s-5.38-83.21-7.18-97.13c-19.06-147.18,9-304.28,9-304.28S834.49,999.07,828,963.41Z"/><path class="cls-9" d="M586.38,1177l-38-257.92L441.7,961.12c-6.48,35.67,14.66,148,14.66,148s37.13,154.53,13.32,299.53c-1,12.65-15.8,91.7-9.67,100.5s97.81,29,135.12,4.33Z"/><path class="cls-35" d="M883.59,1325.54c1.08-7.2-23-76.69-51.61-86.59s-300.66-38.21-300.66-38.21-14.08,23.61-9.25,41.93c0,0,200.93,67.92,227.49,76.09S882.51,1332.74,883.59,1325.54Z"/><path class="cls-35" d="M543,1204.37s-54.81-22.06-58.33-23.87v79.69l50.45-17Z"/><path class="cls-9" d="M574.33,1190l-17.4,80.62s181.64,56.21,256.22,71.84,106.05-12.42,99.72-37.9-27.89-63.22-74.1-74.52S574.33,1190,574.33,1190Z"/><path class="cls-35" d="M400.69,1328.46c.28-7.28,23.63-89.49,53.57-93.91s335.31,40.66,335.31,40.66-13.62,42-24.77,46.5c0,0-153.06,5.8-207.52,12.49C529.7,1337.58,400.42,1335.74,400.69,1328.46Z"/><path class="cls-35" d="M741.56,1316.66c16.55,9,35.47,11.3,53.34,16.35,7.29,2.06,16,3.74,21.13-1.32,2.89-2.84,3.83-7.16,4.67-11.24,2.67-13.14-8.73-32-6.05-49.15,1.88-12.06,2.54-37.68-3.64-37-16.29,1.89-42.88,28.15-60,36.77a14.66,14.66,0,0,0-6,5.55C739.4,1286,727.52,1309,741.56,1316.66Z"/><path class="cls-35" d="M810.61,1282c17.3.42,29-.37,42.71-3.59,8.58-2,18-9.45,43.77-24.88,9.59-5.74-3.44-12.83-13.63-8.17-15.24,7-12.34,6.48-31.16,12.58-15.27,5-29.44-1.39-44.53.87C797.62,1260.3,800.29,1281.73,810.61,1282Z"/><path class="cls-35" d="M811.83,1301.44c24.33-1.69,32.72.9,48.23-3.12,11.78-3,17.55-7.92,36.46-15.11,13-4.93,5-19.21-7.95-14.29-19.36,7.36-26.16,10.15-26.16,10.15-19.82,5.53-40.43.72-60.55,3.79C788.33,1284.93,798.13,1302.39,811.83,1301.44Z"/><path class="cls-35" d="M810.44,1316.93c20.65,3.93,40.33,5.61,50.13,4,4.55-.76,23.64-8.47,28.94-10.32a46.93,46.93,0,0,0,14.5-8.74c3.55-4.08-1.06-10.86-6.69-9.55-6.56,1.53-27.66,9.11-42,11.53-20.27,3.44-32.09-7.46-52.34-6.45C789.41,1298.06,796.91,1314.35,810.44,1316.93Z"/><path class="cls-35" d="M803.38,1335c18.24,2.91,24.71,1.72,32.71,2,3.7.11,17.18-2.28,25.55-2.55,4.5-.14,17-2.48,17-2.48,3.29-3.09.61-8.84-4-8.63-5.4.25-15.48,1-27.13.75-16.54-.4-31.91-8.11-48.15-10.71C788.45,1311.58,792.42,1333.24,803.38,1335Z"/><path class="cls-35" d="M805.31,1276.94c7.48-14.86,11.88-25,18.88-27.59,7.59-2.77,17.77-6.61,22.19-9.37s9-9.27,9.5-14.65c1-10.83-18.92-3.58-33.8-.8-11.84,2.22-18.07,6.49-23.26,11.46-6.43,6.17-28.43,28.17-28.43,28.17Z"/><path class="cls-9" d="M727.31,1335.83l17.49-83.31S474.09,1222.9,451,1220.05s-61.38,27.39-66.28,57.89-1,55.24,30.41,62S727.31,1335.83,727.31,1335.83Z"/><path class="cls-35" d="M686.87,816.44c4.74,1.32,9.93.32,14.33-1.84s8.1-5.42,11.59-8.79c9.21-8.87,17.78-20,17.12-32.58-.22-4.2-1.63-8.54-4.91-11.31-3.91-3.29-9.85-3.69-14.68-1.84s-8.61,5.62-11.42,9.83Z"/><path class="cls-35" d="M571.66,816.44c-4.74,1.32-9.94.32-14.33-1.84s-8.1-5.42-11.59-8.79c-9.21-8.87-17.78-20-17.13-32.58.22-4.2,1.64-8.54,4.92-11.31,3.9-3.29,9.85-3.69,14.67-1.84s8.62,5.62,11.42,9.83Z"/><path class="cls-35" d="M705.7,822.5c3.65-39.21,13.87-62.07,20.19-84.72,4.52-17,9.09-46-10.65-71.54-19.5-26.56-68.44-41.64-113.25-29-45.13,12.72-70.16,39.11-64.7,69.14,2.76,18,5.35,42.86,8.35,61.42,2.5,15.42-2.19,30.89,3.51,45.91,10.62,25.86,51.67,71.21,84,71.21C659.57,885,703.19,839.61,705.7,822.5Z"/><path class="cls-6" d="M637.63,791.41a14.85,14.85,0,0,1-1,2.18,4.05,4.05,0,0,1-1.47,1.79c-.66.35-1.66.1-2.43-1a4.81,4.81,0,0,1-.77-2.16,6.13,6.13,0,0,1,1.77-5A4.78,4.78,0,0,1,635.7,786c1.3-.37,2.23.09,2.52.79a4.19,4.19,0,0,1,0,2.33A14,14,0,0,1,637.63,791.41Z"/><path class="cls-37" d="M629.42,794.08c-.13-.54-.24-1-.32-1.45s-.15-.81-.2-1.19a7.88,7.88,0,0,1-.06-1.33c0-.5.07-1.06.15-1.62a19.36,19.36,0,0,0,.26-3.29,3.21,3.21,0,0,0-.89-2.3,1.25,1.25,0,0,0-1.71-.07,7.46,7.46,0,0,0-1.94,2.44,12.26,12.26,0,0,0-1.55,4.83,9.57,9.57,0,0,0,.21,3,12.94,12.94,0,0,0,1,2.8,16.21,16.21,0,0,0,1.42,2.39,20.26,20.26,0,0,0,1.58,1.92,25.87,25.87,0,0,0,2.88,2.66c1.68,1.29,2.68,1.76,3.23.87s.47-1.87-.44-3.37c-.44-.74-1.09-1.61-1.81-2.65a19.13,19.13,0,0,1-1.05-1.7A8.76,8.76,0,0,1,629.42,794.08Z"/><path class="cls-7" d="M658.74,746.91a36.39,36.39,0,0,1,14.43-.76c4.81.71,16.26,12.49,12,11.31a104.91,104.91,0,0,0-12.83-2.75,100.11,100.11,0,0,0-13-1.08C654.89,753.51,654,748.18,658.74,746.91Z"/><path class="cls-7" d="M600.41,746.48a36.07,36.07,0,0,0-14.45-.41c-4.79.82-16,12.87-11.75,11.59A107.15,107.15,0,0,1,587,754.59a101.59,101.59,0,0,1,13-1.38C604.37,753,605.13,747.63,600.41,746.48Z"/><path class="cls-7" d="M598.42,781l0-10.42a9.16,9.16,0,0,0-9.17-9.07h0a9.15,9.15,0,0,0-9.07,9.17l.06,10.42C580.21,786.14,598.45,786,598.42,781Z"/><path class="cls-7" d="M661.1,781l0-10.42a9.16,9.16,0,0,1,9.17-9.07h0a9.15,9.15,0,0,1,9.07,9.17l-.06,10.42C679.31,786.14,661.07,786,661.1,781Z"/><path class="cls-38" d="M613.14,814.4a28.22,28.22,0,0,0,33.58,10,2.14,2.14,0,0,0,.81-2.9,2.18,2.18,0,0,0-2.9-.82c-9.63,4-21.9.25-27.78-8.32-1.54-2.24-5.27-.18-3.71,2.08Z"/><path class="cls-39" d="M731.69,720.09c2.08-11.16,3-22.46,1.15-33.61C730,669.11,719,652,702.11,646.37c9.25-6.1,10.1-20.09,4.37-29.49s-16.14-15-26.51-19c-35-13.5-76.51-12.9-108.45,6.54S521.85,669.58,529.2,699s10.56,44.71,30.86,43.57c18-1,33.88-11.59,47.57-23.11s34.21-32.28,50.4-40c12.78-6.12,28.59-8.18,41.41-3.11,14.93,32.37,11.13,69.47,12.69,107.74,4.57-13.93,11.39-30.93,15.24-45.43C729,732.51,730.52,726.32,731.69,720.09Z"/><path class="cls-39" d="M546.41,782.53l8.84-96.95s-13.93-12.38-20.81-6.64S546.41,782.53,546.41,782.53Z"/></g></g></g></g></svg>